<svg width="48" height="48" viewBox="0 0 48 48" fill="none" xmlns="http://www.w3.org/2000/svg">
<path opacity="0.5" d="M4 16V24C4 29.6569 4 32.4853 5.75736 34.2426C6.71006 35.1953 7.97754 35.6316 9.83979 35.8313C9.98779 35.6315 10.1279 35.4741 10.2278 35.3642C10.4602 35.1087 10.7548 34.8182 11.0404 34.5367L14.0262 31.5923L15.1289 30.4753C15.8536 26.2303 19.5492 23 24.0001 23C28.451 23 32.1466 26.2303 32.8713 30.4753L33.974 31.5923L36.96 34.5368C37.2456 34.8184 37.5401 35.1087 37.7724 35.3642C37.8723 35.4741 38.0124 35.6315 38.1604 35.8313C40.0226 35.6315 41.29 35.1953 42.2426 34.2426C44 32.4853 44 29.6569 44 24V16C44 10.3431 44 7.51472 42.2426 5.75736C40.4853 4 37.6569 4 32 4H16C10.3431 4 7.51472 4 5.75736 5.75736C4 7.51472 4 10.3431 4 16Z" fill="#5764DE"/>
<path d="M14 17.5C13.1716 17.5 12.5 18.1716 12.5 19C12.5 19.8284 13.1716 20.5 14 20.5H34C34.8284 20.5 35.5 19.8284 35.5 19C35.5 18.1716 34.8284 17.5 34 17.5H14Z" fill="#5764DE"/>
<path d="M16.5 12C16.5 11.1716 17.1716 10.5 18 10.5H30C30.8284 10.5 31.5 11.1716 31.5 12C31.5 12.8284 30.8284 13.5 30 13.5H18C17.1716 13.5 16.5 12.8284 16.5 12Z" fill="#5764DE"/>
<path d="M18.0022 31.8348C18.0007 31.8897 18 31.9448 18 32C18 35.3137 20.6863 38 24 38C27.3137 38 30 35.3137 30 32C30 31.9448 29.9993 31.8897 29.9978 31.8348C29.9103 28.5975 27.2585 26 24 26C20.8934 26 18.3382 28.361 18.031 31.3865C18.016 31.5344 18.0063 31.6839 18.0022 31.8348Z" fill="#5764DE"/>
<path d="M15.3514 34.4987L13.1905 36.6296C12.5423 37.2687 12.2183 37.5883 12.1061 37.8589C11.8506 38.4756 12.0693 39.1597 12.6257 39.4841C12.8698 39.6265 13.3102 39.6708 14.1911 39.7596C14.6884 39.8097 14.9371 39.8347 15.1453 39.9107C15.6116 40.0809 15.9743 40.4386 16.1469 40.8984C16.224 41.1038 16.2494 41.349 16.3002 41.8394C16.3902 42.708 16.4352 43.1423 16.5795 43.383C16.9085 43.9317 17.6022 44.1474 18.2276 43.8954C18.502 43.7848 18.8261 43.4652 19.4743 42.8261L21.6351 40.6861C18.6101 39.8644 16.2183 37.5048 15.3514 34.4987Z" fill="#5764DE"/>
<path d="M26.3649 40.6861L28.5257 42.8261C29.1739 43.4652 29.498 43.7848 29.7724 43.8954C30.3978 44.1474 31.0915 43.9317 31.4205 43.383C31.5648 43.1423 31.6098 42.708 31.6998 41.8394C31.7506 41.349 31.776 41.1038 31.8531 40.8984C32.0257 40.4386 32.3884 40.0809 32.8547 39.9107C33.0629 39.8347 33.3116 39.8097 33.8089 39.7596C34.6898 39.6708 35.1302 39.6265 35.3743 39.4841C35.9307 39.1597 36.1494 38.4756 35.8939 37.8589C35.7817 37.5883 35.4577 37.2687 34.8095 36.6296L32.6486 34.4987C31.7817 37.5048 29.3899 39.8644 26.3649 40.6861Z" fill="#5764DE"/>
</svg>
