<svg width="48" height="48" viewBox="0 0 48 48" fill="none" xmlns="http://www.w3.org/2000/svg">
<path opacity="0.5" d="M24 44C33.6723 44 41.5133 36.2325 41.5133 26.6507C41.5133 17.0689 33.6723 9.30139 24 9.30139C14.3277 9.30139 6.48668 17.0689 6.48668 26.6507C6.48668 36.2325 14.3277 44 24 44Z" fill="#5764DE"/>
<path d="M23.9995 17.4941C24.8055 17.4941 25.4589 18.1414 25.4589 18.9399V26.0519L29.8963 30.4477C30.4662 31.0123 30.4662 31.9277 29.8963 32.4923C29.3263 33.0569 28.4023 33.0569 27.8323 32.4923L22.9675 27.673C22.6938 27.4019 22.54 27.0342 22.54 26.6507V18.9399C22.54 18.1414 23.1935 17.4941 23.9995 17.4941Z" fill="#5764DE"/>
<path fill-rule="evenodd" clip-rule="evenodd" d="M16.481 4.67971C16.9082 5.35682 16.7004 6.2488 16.0169 6.67199L8.23314 11.4912C7.54963 11.9144 6.64922 11.7086 6.22203 11.0315C5.79484 10.3544 6.00263 9.4624 6.68614 9.03921L14.4699 4.21995C15.1534 3.79676 16.0538 4.0026 16.481 4.67971Z" fill="#5764DE"/>
<path fill-rule="evenodd" clip-rule="evenodd" d="M31.5191 4.67971C31.9463 4.0026 32.8467 3.79676 33.5302 4.21995L41.3139 9.03921C41.9974 9.4624 42.2052 10.3544 41.778 11.0315C41.3508 11.7086 40.4504 11.9144 39.7669 11.4912L31.9832 6.67199C31.2996 6.24879 31.0919 5.35682 31.5191 4.67971Z" fill="#5764DE"/>
</svg>
