<svg width="48" height="48" viewBox="0 0 48 48" fill="none" xmlns="http://www.w3.org/2000/svg">
<path fill-rule="evenodd" clip-rule="evenodd" d="M12 16.2149C12 9.46882 17.3726 4 24 4C30.6274 4 36 9.46882 36 16.2149C36 22.9082 32.17 30.7186 26.1944 33.5117C24.8014 34.1628 23.1986 34.1628 21.8056 33.5117C15.83 30.7186 12 22.9082 12 16.2149ZM24 20C26.2091 20 28 18.2091 28 16C28 13.7909 26.2091 12 24 12C21.7909 12 20 13.7909 20 16C20 18.2091 21.7909 20 24 20Z" fill="#5764DE"/>
<path opacity="0.5" fill-rule="evenodd" clip-rule="evenodd" d="M7.25463 29.0685C7.76909 29.7179 7.65978 30.6613 7.01046 31.1758C5.86314 32.0848 5.5 32.8861 5.5 33.5001C5.5 33.986 5.72056 34.5761 6.38128 35.2593C7.04876 35.9494 8.09164 36.6504 9.51112 37.2942C12.0196 38.4319 15.487 39.2933 19.5 39.6686V38.7501C19.5 38.1615 19.8442 37.6273 20.3802 37.3841C20.9161 37.1409 21.5448 37.2336 21.9878 37.6212L24.9878 40.2462C25.3133 40.531 25.5 40.9425 25.5 41.3751C25.5 41.8076 25.3133 42.2191 24.9878 42.5039L21.9878 45.1289C21.5448 45.5165 20.9161 45.6092 20.3802 45.366C19.8442 45.1228 19.5 44.5886 19.5 44.0001V42.6809C15.1302 42.2975 11.2185 41.3627 8.27198 40.0263C6.64428 39.2881 5.24138 38.3959 4.22488 37.3449C3.20162 36.2869 2.5 34.988 2.5 33.5001C2.5 31.5996 3.63333 30.024 5.14741 28.8244C5.79672 28.3099 6.74016 28.4192 7.25463 29.0685ZM40.7454 29.0685C41.2598 28.4192 42.2033 28.3099 42.8526 28.8244C44.3667 30.024 45.5 31.5996 45.5 33.5001C45.5 36.2562 43.1639 38.3212 40.4068 39.7028C37.5234 41.1476 33.582 42.1703 29.1512 42.6193C28.327 42.7028 27.5912 42.1024 27.5076 41.2782C27.4241 40.454 28.0246 39.7181 28.8488 39.6346C33.0441 39.2094 36.6028 38.2534 39.0628 37.0207C41.6492 35.7247 42.5 34.4133 42.5 33.5001C42.5 32.8861 42.1369 32.0848 40.9895 31.1758C40.3402 30.6613 40.2309 29.7179 40.7454 29.0685Z" fill="#5764DE"/>
</svg>
