<svg width="22" height="37" viewBox="0 0 22 37" fill="none" xmlns="http://www.w3.org/2000/svg">
<path d="M0.00360869 18.6149C0.0302406 19.3701 0.346669 20.0904 0.893742 20.638L16.4243 36.0515C17.0197 36.642 17.8368 36.983 18.6957 36.9994C19.5551 37.0157 20.3857 36.7061 21.0054 36.1388C21.6247 35.5716 21.9826 34.7927 21.9994 33.9743C22.0165 33.1559 21.6911 32.3642 21.0957 31.7741L7.72828 18.4998L21.0945 5.22539C21.8966 4.43019 22.1927 3.2879 21.8709 2.22866C21.5491 1.1694 20.659 0.354482 19.535 0.0899175C18.4115 -0.17414 17.2253 0.152707 16.4235 0.947904L0.892943 16.3615L0.892492 16.3615C0.28763 16.967 -0.0337499 17.7807 0.00281171 18.6159L0.00360869 18.6149Z" fill="white"/>
</svg>
