<svg width="12" height="13" viewBox="0 0 12 13" fill="none" xmlns="http://www.w3.org/2000/svg">
<g clip-path="url(#clip0_73_1817)">
<path d="M8.08594 2.80156C7.51309 2.13695 6.86678 1.53939 6.15937 1.02031C6.1133 0.986067 6.05741 0.967575 6 0.967575C5.94259 0.967575 5.8867 0.986067 5.84062 1.02031C5.13322 1.53939 4.48691 2.13695 3.91406 2.80156C2.63906 4.26406 1.96875 5.80156 1.96875 7.25C1.96875 8.31915 2.39347 9.34452 3.14948 10.1005C3.90548 10.8565 4.93085 11.2812 6 11.2812C7.06915 11.2812 8.09452 10.8565 8.85052 10.1005C9.60653 9.34452 10.0312 8.31915 10.0312 7.25C10.0312 5.80156 9.36094 4.26406 8.08594 2.80156ZM6 10.7188C5.08041 10.7175 4.19884 10.3517 3.54859 9.70141C2.89835 9.05116 2.53249 8.16959 2.53125 7.25C2.53125 4.45625 5.29688 2.14531 6 1.60156C6.70312 2.14531 9.46875 4.45625 9.46875 7.25C9.46751 8.16959 9.10166 9.05116 8.45141 9.70141C7.80116 10.3517 6.91959 10.7175 6 10.7188ZM8.49375 7.67656C8.40571 8.19231 8.15943 8.66791 7.78905 9.03745C7.41866 9.40699 6.94251 9.65219 6.42656 9.73906H6.37969C6.30989 9.73805 6.24296 9.71111 6.19192 9.66348C6.14088 9.61586 6.10937 9.55096 6.10352 9.48139C6.09768 9.41183 6.11791 9.34258 6.16029 9.28711C6.20267 9.23163 6.26416 9.1939 6.33281 9.18125C6.73381 9.11338 7.10384 8.92271 7.39184 8.63555C7.67984 8.3484 7.87159 7.97892 7.94062 7.57812C7.95329 7.50458 7.9942 7.43889 8.05464 7.3951C8.11507 7.35131 8.19023 7.33288 8.26406 7.34375C8.30128 7.34993 8.33688 7.36353 8.36873 7.38376C8.40059 7.40398 8.42805 7.4304 8.44948 7.46145C8.47091 7.4925 8.48587 7.52755 8.49348 7.56451C8.50108 7.60146 8.50118 7.63957 8.49375 7.67656Z" fill="black"/>
</g>
<defs>
<clipPath id="clip0_73_1817">
<rect width="12" height="12" fill="white" transform="translate(0 0.5)"/>
</clipPath>
</defs>
</svg>
