<svg width="12" height="13" viewBox="0 0 12 13" fill="none" xmlns="http://www.w3.org/2000/svg">
<g clip-path="url(#clip0_73_1819)">
<path d="M11.9742 2.56719C11.9414 2.45938 11.775 2.29766 11.6578 2.2625C11.5852 2.24141 11.2289 2.23438 10.2867 2.23438C9.05625 2.23438 9.00703 2.23672 8.90625 2.28359C8.76562 2.34688 8.72109 2.38906 8.65781 2.52734C8.60391 2.63984 8.60156 2.66797 8.60156 3.18359C8.60156 3.48828 8.61328 3.76016 8.62734 3.81172C8.63906 3.86094 8.68359 3.93594 8.72344 3.98281C8.86172 4.13984 8.88047 4.14219 9.50391 4.15625L10.0664 4.16797L10.0734 4.92031L10.0781 5.67266L9.92812 5.74766C9.75234 5.83438 9.58594 6.00547 9.525 6.16016L9.48516 6.26563L7.55859 6.26563L5.62969 6.26563L5.55937 6.13906C5.28984 5.66328 4.47422 5.51094 3.86719 5.82031C3.74297 5.88359 3.53672 6.08984 3.49453 6.19297L3.46406 6.26563L2.98828 6.26563L2.51484 6.26563L2.475 6.16016C2.41406 6.00547 2.24766 5.83438 2.07187 5.74766L1.92187 5.67266L1.92656 4.92031L1.93359 4.16797L2.49609 4.15625C3.11953 4.14219 3.13828 4.13984 3.27656 3.98281C3.31641 3.93594 3.36094 3.86094 3.37266 3.81172C3.38672 3.76016 3.39844 3.48828 3.39844 3.18359C3.39844 2.69141 3.39375 2.63516 3.34922 2.53906C3.28594 2.39844 3.24375 2.35391 3.10547 2.29063L2.98828 2.23438L1.71328 2.23438C0.773437 2.23438 0.414844 2.24141 0.342187 2.2625C0.217969 2.3 0.0585937 2.45938 0.0257812 2.57656C0.0117187 2.63047 -2.89929e-08 2.89766 -4.30284e-08 3.21875C-6.46451e-08 3.71328 0.00468743 3.77891 0.0468749 3.86328C0.103125 3.98047 0.13125 4.01328 0.234375 4.08594C0.314062 4.14453 0.328125 4.14453 0.890625 4.15625L1.46484 4.16797L1.47187 4.92266L1.47656 5.675L1.35 5.73359C0.691406 6.03594 0.691406 6.96406 1.35 7.26641L1.47656 7.325L1.47187 8.07734L1.46484 8.83203L0.890625 8.84375C0.328125 8.85547 0.314062 8.85547 0.234375 8.91406C0.13125 8.98672 0.103125 9.01953 0.0468747 9.13672C0.00468719 9.22109 -3.08268e-07 9.28672 -3.29884e-07 9.78125C-3.4392e-07 10.1023 0.0117184 10.3695 0.0257809 10.4234C0.0585934 10.5406 0.217968 10.7 0.342187 10.7375C0.414843 10.7586 0.773437 10.7656 1.71328 10.7656L2.98828 10.7656L3.10547 10.7094C3.24375 10.6461 3.28594 10.6016 3.34922 10.4609C3.39375 10.3648 3.39844 10.3086 3.39844 9.81641C3.39844 9.51172 3.38672 9.23984 3.37266 9.18828C3.36094 9.13906 3.31641 9.06406 3.27656 9.01719C3.13828 8.86016 3.11953 8.85781 2.49609 8.84375L1.93359 8.83203L1.92656 8.07969L1.92187 7.32734L2.07187 7.25234C2.24766 7.16563 2.41406 6.99453 2.475 6.83984L2.51484 6.73438L2.98828 6.73438L3.46406 6.73438L3.49453 6.80703C3.53672 6.91016 3.74297 7.11641 3.86719 7.17969C4.275 7.38828 4.78594 7.39531 5.17266 7.20313C5.3625 7.10703 5.475 7.00625 5.55937 6.86094L5.62969 6.73438L7.55859 6.73438L9.48516 6.73438L9.525 6.83984C9.58594 6.99453 9.75234 7.16563 9.92812 7.25235L10.0781 7.32734L10.0734 8.07969L10.0664 8.83203L9.50391 8.84375C8.88047 8.85781 8.86172 8.86016 8.72344 9.01719C8.68359 9.06406 8.63906 9.13906 8.62734 9.18828C8.61328 9.23985 8.60156 9.51172 8.60156 9.81641C8.60156 10.332 8.60391 10.3602 8.65781 10.4727C8.72109 10.6109 8.76562 10.6531 8.90625 10.7164C9.00703 10.7633 9.05625 10.7656 10.2867 10.7656C11.2289 10.7656 11.5852 10.7586 11.6578 10.7375C11.782 10.7 11.9414 10.5406 11.9742 10.4234C11.9883 10.3695 12 10.1023 12 9.78125C12 9.28672 11.9953 9.2211 11.9531 9.13672C11.8969 9.01953 11.8687 8.98672 11.7656 8.91406C11.6859 8.85547 11.6719 8.85547 11.1094 8.84375L10.5352 8.83203L10.5281 8.07734L10.5234 7.325L10.65 7.26641C11.3086 6.96406 11.3086 6.03594 10.65 5.73359L10.5234 5.675L10.5281 4.92266L10.5352 4.16797L11.1094 4.15625C11.6719 4.14453 11.6859 4.14453 11.7656 4.08594C11.8687 4.01328 11.8969 3.98047 11.9531 3.86328C11.9953 3.77891 11.9977 3.71563 11.9977 3.20703C11.9977 2.89766 11.9859 2.60938 11.9742 2.56719ZM10.3008 3.69922L9.08203 3.69922L9.075 3.20234L9.07031 2.70313L10.3008 2.70313L11.5312 2.70313L11.5266 3.20234L11.5195 3.69922L10.3008 3.69922ZM10.3008 10.2969L9.07031 10.2969L9.075 9.8L9.08203 9.30078L10.2773 9.29375C10.9359 9.29141 11.4867 9.29375 11.5031 9.30078C11.5242 9.30781 11.5312 9.43203 11.5312 9.80469L11.5312 10.2969L10.3008 10.2969ZM10.6242 6.70625C10.5422 6.81641 10.4344 6.875 10.3078 6.875C10.1672 6.875 10.0781 6.83047 9.99141 6.72031C9.9375 6.64766 9.92578 6.61016 9.92578 6.5C9.92578 6.38984 9.9375 6.35234 9.99141 6.27969C10.0758 6.16953 10.1672 6.125 10.3008 6.125C10.4625 6.125 10.6008 6.21641 10.6617 6.35938C10.6992 6.44609 10.6781 6.63359 10.6242 6.70625ZM5.14922 6.64297C5.11875 6.68984 5.03906 6.75078 4.95703 6.79297C4.82812 6.85859 4.80469 6.86328 4.54922 6.86328C4.29844 6.86328 4.26562 6.85859 4.14375 6.79766C3.80156 6.62891 3.80156 6.37109 4.14375 6.20234C4.26562 6.14141 4.29844 6.13672 4.54922 6.13672C4.80469 6.13672 4.82812 6.14141 4.95703 6.20703C5.10937 6.28438 5.20312 6.39688 5.20312 6.5C5.20312 6.53516 5.17969 6.59844 5.14922 6.64297ZM1.69922 3.69922L0.480469 3.69922L0.473437 3.20234L0.46875 2.70313L1.69922 2.70313L2.92969 2.70313L2.925 3.20234L2.91797 3.69922L1.69922 3.69922ZM1.69922 10.2969L0.46875 10.2969L0.473437 9.8L0.480468 9.30078L1.67578 9.29375C2.33437 9.29141 2.88516 9.29375 2.90156 9.30078C2.92266 9.30781 2.92969 9.43203 2.92969 9.80469L2.92969 10.2969L1.69922 10.2969ZM2.00156 6.72734C1.84219 6.93828 1.53984 6.92656 1.37344 6.70391C1.30547 6.61016 1.30547 6.38984 1.37344 6.29609C1.49297 6.13438 1.71094 6.07578 1.875 6.16016C1.95 6.19766 2.05078 6.31953 2.06953 6.39453C2.09531 6.48828 2.0625 6.64766 2.00156 6.72734Z" fill="black"/>
</g>
<defs>
<clipPath id="clip0_73_1819">
<rect width="12" height="12" fill="white" transform="translate(12 0.5) rotate(90)"/>
</clipPath>
</defs>
</svg>
