<svg width="103" height="28" viewBox="0 0 103 28" fill="none" xmlns="http://www.w3.org/2000/svg">
<path d="M23.5723 27H18.1406V5.83594H11.8477C11.707 6.9375 11.5547 8.13867 11.3906 9.43945C11.2266 10.7402 11.0566 12.0527 10.8809 13.377C10.7051 14.7012 10.5176 15.9609 10.3184 17.1562C10.1309 18.3516 9.94336 19.4004 9.75586 20.3027C9.45117 21.8027 9.03516 23.0801 8.50781 24.1348C7.99219 25.1777 7.2832 25.9746 6.38086 26.5254C5.49023 27.0762 4.32422 27.3516 2.88281 27.3516C2.40234 27.3516 1.93945 27.3164 1.49414 27.2461C1.06055 27.1758 0.65625 27.082 0.28125 26.9648V22.5C0.585938 22.6055 0.890625 22.6934 1.19531 22.7637C1.5 22.8223 1.83398 22.8516 2.19727 22.8516C2.66602 22.8516 3.05273 22.6992 3.35742 22.3945C3.67383 22.0781 3.95508 21.5449 4.20117 20.7949C4.44727 20.0332 4.69336 18.9844 4.93945 17.6484C5.04492 17.0625 5.18555 16.2363 5.36133 15.1699C5.53711 14.0918 5.73633 12.832 5.95898 11.3906C6.18164 9.9375 6.41016 8.35547 6.64453 6.64453C6.89062 4.93359 7.125 3.15234 7.34766 1.30078H23.5723V27ZM53.3848 14.1152C53.3848 16.0957 53.1387 17.9004 52.6465 19.5293C52.1543 21.1465 51.4043 22.541 50.3965 23.7129C49.4004 24.8848 48.1348 25.7871 46.5996 26.4199C45.0645 27.041 43.248 27.3516 41.1504 27.3516C39.0527 27.3516 37.2363 27.041 35.7012 26.4199C34.166 25.7871 32.8945 24.8848 31.8867 23.7129C30.8906 22.541 30.1465 21.1406 29.6543 19.5117C29.1621 17.8828 28.916 16.0723 28.916 14.0801C28.916 11.4199 29.3496 9.10547 30.2168 7.13672C31.0957 5.15625 32.4434 3.62109 34.2598 2.53125C36.0762 1.44141 38.3848 0.896484 41.1855 0.896484C43.9746 0.896484 46.2656 1.44141 48.0586 2.53125C49.8633 3.62109 51.1992 5.15625 52.0664 7.13672C52.9453 9.11719 53.3848 11.4434 53.3848 14.1152ZM34.6289 14.1152C34.6289 15.9082 34.8516 17.4551 35.2969 18.7559C35.7539 20.0449 36.4629 21.041 37.4238 21.7441C38.3848 22.4355 39.627 22.7812 41.1504 22.7812C42.6973 22.7812 43.9512 22.4355 44.9121 21.7441C45.873 21.041 46.5703 20.0449 47.0039 18.7559C47.4492 17.4551 47.6719 15.9082 47.6719 14.1152C47.6719 11.4199 47.168 9.29883 46.1602 7.75195C45.1523 6.20508 43.4941 5.43164 41.1855 5.43164C39.6504 5.43164 38.3965 5.7832 37.4238 6.48633C36.4629 7.17773 35.7539 8.17383 35.2969 9.47461C34.8516 10.7637 34.6289 12.3105 34.6289 14.1152ZM74.9531 1.30078V5.80078H64.1602V27H58.7109V1.30078H74.9531ZM102.252 14.1152C102.252 16.0957 102.006 17.9004 101.514 19.5293C101.021 21.1465 100.271 22.541 99.2637 23.7129C98.2676 24.8848 97.002 25.7871 95.4668 26.4199C93.9316 27.041 92.1152 27.3516 90.0176 27.3516C87.9199 27.3516 86.1035 27.041 84.5684 26.4199C83.0332 25.7871 81.7617 24.8848 80.7539 23.7129C79.7578 22.541 79.0137 21.1406 78.5215 19.5117C78.0293 17.8828 77.7832 16.0723 77.7832 14.0801C77.7832 11.4199 78.2168 9.10547 79.084 7.13672C79.9629 5.15625 81.3105 3.62109 83.127 2.53125C84.9434 1.44141 87.252 0.896484 90.0527 0.896484C92.8418 0.896484 95.1328 1.44141 96.9258 2.53125C98.7305 3.62109 100.066 5.15625 100.934 7.13672C101.812 9.11719 102.252 11.4434 102.252 14.1152ZM83.4961 14.1152C83.4961 15.9082 83.7188 17.4551 84.1641 18.7559C84.6211 20.0449 85.3301 21.041 86.291 21.7441C87.252 22.4355 88.4941 22.7812 90.0176 22.7812C91.5645 22.7812 92.8184 22.4355 93.7793 21.7441C94.7402 21.041 95.4375 20.0449 95.8711 18.7559C96.3164 17.4551 96.5391 15.9082 96.5391 14.1152C96.5391 11.4199 96.0352 9.29883 95.0273 7.75195C94.0195 6.20508 92.3613 5.43164 90.0527 5.43164C88.5176 5.43164 87.2637 5.7832 86.291 6.48633C85.3301 7.17773 84.6211 8.17383 84.1641 9.47461C83.7188 10.7637 83.4961 12.3105 83.4961 14.1152Z" fill="green"/>
</svg>
