<svg width="14" height="15" viewBox="0 0 14 15" fill="none" xmlns="http://www.w3.org/2000/svg">
<g clip-path="url(#clip0_13_1754)">
<path d="M3.01667 5.49167C4.21667 7.85 6.15 9.775 8.50833 10.9833L10.3417 9.15C10.5667 8.925 10.9 8.85 11.1917 8.95C12.125 9.25833 13.1333 9.425 14.1667 9.425C14.625 9.425 15 9.8 15 10.2583V13.1667C15 13.625 14.625 14 14.1667 14C6.34167 14 0 7.65833 0 -0.166667C0 -0.625 0.375 -1 0.833333 -1H3.75C4.20833 -1 4.58333 -0.625 4.58333 -0.166667C4.58333 0.875 4.75 1.875 5.05833 2.80833C5.15 3.1 5.08333 3.425 4.85 3.65833L3.01667 5.49167Z" fill="green"/>
</g>
<defs>
<clipPath id="clip0_13_1754">
<rect width="14" height="14" fill="white" transform="translate(0 0.5)"/>
</clipPath>
</defs>
</svg>
