<svg width="10" height="5" viewBox="0 0 10 5" fill="none" xmlns="http://www.w3.org/2000/svg">
<path d="M1.53246 0.22175L5.00466 3.16808L8.47687 0.22175C8.55972 0.151447 8.65808 0.0956792 8.76633 0.0576314C8.87458 0.0195835 8.9906 7.40767e-10 9.10777 0C9.22494 -7.40763e-10 9.34096 0.0195835 9.44921 0.0576314C9.55746 0.0956792 9.65582 0.151447 9.73867 0.22175C9.82152 0.292053 9.88724 0.375515 9.93208 0.467371C9.97692 0.559227 10 0.657677 10 0.757101C10 0.856525 9.97692 0.954975 9.93208 1.04683C9.88724 1.13869 9.82152 1.22215 9.73867 1.29245L5.63109 4.77793C5.5483 4.84832 5.44996 4.90417 5.3417 4.94228C5.23345 4.98039 5.11739 5 5.00019 5C4.88299 5 4.76693 4.98039 4.65868 4.94228C4.55042 4.90417 4.45208 4.84832 4.36929 4.77793L0.261707 1.29245C0.178747 1.2222 0.112929 1.13875 0.0680222 1.04689C0.023115 0.955029 0 0.856553 0 0.757101C0 0.657648 0.023115 0.559172 0.0680222 0.467309C0.112929 0.375447 0.178747 0.292001 0.261707 0.22175C0.610717 -0.0668082 1.18345 -0.0744018 1.53246 0.22175Z" fill="#C5C5C5"/>
</svg>
