<svg width="110" height="125" viewBox="0 0 110 125" fill="none" xmlns="http://www.w3.org/2000/svg">
<path d="M84.4639 0.939439C85.6062 0.585043 86.8193 0.778598 87.9942 0.732254C89.4691 0.764967 91.0993 0.500534 92.3887 1.40015C93.4901 2.10349 94.1962 3.37931 94.2152 4.68785C94.248 7.6157 94.1962 10.5436 94.2398 13.4714C97.2303 13.5314 100.221 13.4441 103.211 13.515C105.161 13.5968 106.867 15.2924 106.954 17.2389C107.009 18.8882 106.99 20.543 106.968 22.1923C106.924 24.2614 105.06 26.0497 102.993 26.0388C100.087 26.0606 97.1813 26.0443 94.2779 26.0443C94.1444 28.9994 94.2807 31.9599 94.2098 34.9178C94.1607 36.3626 93.2802 37.7557 91.9689 38.3745C90.7394 38.996 89.3219 38.7643 87.997 38.8079C86.6666 38.7589 85.249 38.996 84.0059 38.4127C82.5856 37.7693 81.6451 36.2481 81.6805 34.6942C81.6451 31.8182 81.7133 28.9421 81.6506 26.0661C78.7718 26.0197 75.8957 26.0688 73.0169 26.0443C71.4603 26.0688 69.9337 25.1201 69.2958 23.6943C68.7369 22.5385 68.9523 21.219 68.9169 19.9814C68.955 18.7737 68.786 17.536 69.0995 16.3556C69.5657 14.7554 71.1141 13.5532 72.7825 13.5096C75.7431 13.4414 78.7064 13.5505 81.6669 13.455C81.6887 10.5463 81.6587 7.63478 81.6805 4.72329C81.6778 3.03582 82.8582 1.4465 84.4639 0.939439ZM85.6416 4.57608L85.5162 4.69603C85.4317 7.67568 85.5462 10.6608 85.4644 13.6431C85.3226 15.6632 83.4662 17.3452 81.4434 17.3043C78.5564 17.3125 75.6722 17.3043 72.7879 17.3043C72.6735 18.9373 72.7443 20.5729 72.7471 22.2059C75.7322 22.2822 78.72 22.1841 81.7078 22.2522C83.6761 22.3231 85.3962 24.0515 85.4698 26.0197C85.5326 28.9994 85.4508 31.9817 85.508 34.9641C87.1355 35.005 88.763 35.0132 90.3905 34.9587C90.4368 32.0581 90.3823 29.1548 90.4178 26.2542C90.3823 24.2423 92.0643 22.394 94.0735 22.2631C97.1049 22.1432 100.15 22.3504 103.179 22.1595C103.143 20.5539 103.19 18.9454 103.151 17.3398C100.191 17.2525 97.2249 17.3479 94.2643 17.2934C92.2388 17.2553 90.4586 15.4642 90.4205 13.4414C90.3632 10.4809 90.4696 7.51756 90.3687 4.557C88.793 4.5679 87.2146 4.50248 85.6416 4.57608Z" fill="#50CA81"/>
<path d="M18.222 15.6387C19.4106 15.1016 20.7491 15.3388 22.0086 15.2897C23.4152 15.3415 24.9391 15.0689 26.2259 15.7832C27.5426 16.4783 28.374 17.945 28.3413 19.428C28.374 22.2904 28.3086 25.1528 28.3713 28.0125C31.2528 28.0616 34.1343 28.0016 37.0158 28.0398C38.5125 28.0261 39.9818 28.8903 40.6497 30.237C41.3258 31.5292 41.0478 33.0367 41.105 34.438C41.0641 35.7465 41.2931 37.1532 40.6634 38.3609C40.0336 39.6421 38.6788 40.5199 37.253 40.569C34.287 40.6399 31.3155 40.5227 28.3495 40.629C28.3386 43.4669 28.355 46.3048 28.3441 49.1454C28.3849 50.6311 27.5835 52.1196 26.264 52.8311C24.9718 53.5617 23.4316 53.3 22.014 53.3463C20.6837 53.3 19.2525 53.5453 18.0257 52.8992C16.7144 52.2641 15.8284 50.8628 15.8094 49.4071C15.7685 46.4738 15.823 43.5432 15.7821 40.6099C12.8652 40.5527 9.94276 40.6154 7.02581 40.5799C5.51282 40.5745 4.05707 39.6367 3.43006 38.26C2.84122 37.066 3.08385 35.7002 3.0375 34.4189C3.09748 33.1022 2.83032 31.7064 3.38644 30.4633C3.99709 29.0348 5.49101 28.0507 7.04489 28.0534C9.94276 28.0398 12.8406 28.048 15.7385 28.0534C15.8802 25.0874 15.7412 22.1105 15.8066 19.1417C15.8584 17.6396 16.8398 16.2221 18.222 15.6387ZM19.6259 19.1308C19.5959 21.5925 19.6178 24.0542 19.615 26.5132C19.6096 27.5 19.6941 28.5414 19.2497 29.4546C18.6582 30.8395 17.2215 31.8073 15.714 31.8427C12.8161 31.8754 9.9155 31.8018 7.01763 31.8727L6.88133 32.0035C6.82135 33.5847 6.84589 35.1713 6.88133 36.7552C9.82826 36.8015 12.7779 36.7415 15.7249 36.7824C17.7803 36.8151 19.585 38.6335 19.6014 40.6862C19.6341 43.6195 19.5959 46.5556 19.6178 49.4916C21.248 49.5652 22.8836 49.5298 24.5139 49.5107C24.5602 46.5774 24.5002 43.6441 24.5438 40.7108C24.5438 38.688 26.2886 36.8642 28.3141 36.7961C30.942 36.7388 33.57 36.7824 36.198 36.777C36.5279 36.6979 37.0349 36.9215 37.2585 36.6189C37.3321 35.0459 37.2721 33.4675 37.2775 31.8945C34.9195 31.8291 32.5586 31.8782 30.1978 31.8672C29.0801 31.8482 27.897 31.9817 26.861 31.4747C25.4898 30.8422 24.5466 29.4028 24.5411 27.8871C24.503 24.9674 24.5629 22.045 24.5111 19.1226C22.8836 19.1008 21.2534 19.0845 19.6259 19.1308Z" fill="#50CA81"/>
<path d="M57.4726 40.1901C58.6476 39.5958 59.9997 39.8302 61.2619 39.7893C62.5677 39.8357 63.9308 39.6149 65.1848 40.081C66.6542 40.659 67.6874 42.1638 67.7037 43.7449C67.7474 46.6728 67.6738 49.6034 67.7392 52.5312C70.6725 52.5721 73.6058 52.5258 76.5391 52.553C78.6328 52.5585 80.4756 54.4259 80.4647 56.5195C80.4674 58.1497 80.511 59.7827 80.4374 61.4102C80.3175 63.2939 78.69 64.9378 76.8062 65.0577C73.7748 65.1695 70.7352 64.9814 67.7065 65.1504C67.7119 68.081 67.731 71.0116 67.6983 73.9422C67.671 75.7223 66.3161 77.3907 64.5605 77.7396C62.8485 77.9659 61.1065 77.7914 59.3809 77.8487C57.001 78.0013 54.9155 75.7659 55.1581 73.4051C55.1581 70.6435 55.1772 67.8847 55.15 65.1232C52.1976 65.0277 49.2452 65.1313 46.2928 65.0741C44.6026 65.0468 43.0351 63.8173 42.5798 62.198C42.2691 60.9604 42.4463 59.6709 42.4026 58.4087C42.3999 56.9857 42.25 55.3964 43.1905 54.2051C44.0001 53.0601 45.4205 52.4712 46.8053 52.5448C49.5696 52.553 52.3339 52.5367 55.0982 52.553C55.2508 49.6061 55.1036 46.6483 55.169 43.6986C55.1963 42.2156 56.1314 40.8089 57.4726 40.1901ZM58.9965 43.6223C58.9393 46.6128 59.0238 49.6034 58.9556 52.5912C58.8711 54.524 57.2082 56.2224 55.2754 56.3314C52.2548 56.4541 49.2234 56.2524 46.2083 56.4268C46.2301 58.0271 46.2247 59.6246 46.211 61.2221C49.2234 61.3938 52.2521 61.2085 55.2699 61.312C57.2109 61.4102 58.882 63.1276 58.9556 65.0659C59.0183 68.051 58.9393 71.0388 58.9938 74.0239C60.5777 74.0485 62.1643 74.0812 63.7454 74.0185L63.8708 73.8794C63.9417 71.6359 63.8735 69.3895 63.8981 67.1487C63.9253 66.031 63.7563 64.856 64.2034 63.7955C64.7486 62.4298 66.0981 61.4184 67.5674 61.3093C70.5989 61.2139 73.6385 61.3911 76.6645 61.2221C76.6481 59.6191 76.6563 58.0162 76.659 56.4132C73.633 56.2687 70.5961 56.4487 67.5702 56.326C65.5855 56.2006 63.909 54.3959 63.9117 52.4113C63.8545 49.527 63.9499 46.6374 63.8708 43.7531L63.7481 43.6304C62.167 43.5677 60.5804 43.6114 58.9965 43.6223Z" fill="#50CA81"/>
<path d="M0.930214 70.5454C1.32005 70.0056 2.00158 69.7766 2.65039 69.8121C7.65827 69.8203 12.6662 69.7984 17.674 69.8203C18.71 69.7794 19.6205 70.7308 19.566 71.7613C19.5932 74.1166 19.5632 76.472 19.5741 78.8273C22.9818 77.099 26.9374 76.4665 30.7103 77.1126C35.3202 77.8678 39.6602 80.2558 42.7107 83.8025C42.9424 84.0261 43.1469 84.405 43.534 84.3314C50.7255 84.3396 57.9197 84.3259 65.1139 84.3368C67.7774 84.3259 70.3999 85.6454 71.9865 87.7826C73.9793 90.3588 74.2328 94.0282 72.7961 96.9233C75.1706 96.0401 77.0625 94.3253 79.0608 92.8341C83.5289 89.3992 88.0024 85.9752 92.4732 82.5458C94.3679 81.1364 96.1699 79.378 98.5907 78.9664C102.612 78.045 107.017 80.3185 108.666 84.0806C110.37 87.6436 109.342 92.2208 106.311 94.7424C98.2444 101.661 90.1915 108.597 82.1031 115.491C73.7012 122.628 62.0471 125.722 51.2162 123.645C40.6607 121.614 30.1242 119.479 19.5741 117.421C19.5578 118.757 19.6068 120.095 19.5578 121.431C19.5741 122.421 18.6745 123.304 17.6849 123.271C12.5735 123.285 7.46199 123.29 2.35052 123.269C1.2519 123.279 0.404073 122.192 0.524022 121.131C0.51857 105.039 0.529474 88.9467 0.51857 72.8544C0.543105 72.0775 0.393169 71.1942 0.930214 70.5454ZM4.34059 73.6314C4.33786 88.9085 4.34059 104.186 4.34059 119.463C8.14625 119.466 11.9519 119.466 15.7576 119.463C15.7576 104.186 15.7576 88.9085 15.7548 73.6314C11.9519 73.6286 8.14625 73.6259 4.34059 73.6314ZM19.5878 83.3064C19.5578 93.3794 19.5796 103.455 19.5769 113.531C30.1215 115.592 40.6579 117.699 51.2025 119.765C61.1992 121.884 72.0683 119.1 79.8132 112.438C87.8089 105.603 95.7828 98.7444 103.768 91.8991C105.022 90.855 105.771 89.2248 105.673 87.5864C105.608 85.6672 104.373 83.8543 102.623 83.0692C100.943 82.2868 98.8469 82.4803 97.3639 83.5981C91.0857 88.4015 84.821 93.2267 78.5401 98.0274C75.4841 100.358 71.6539 101.639 67.8101 101.615C59.3646 101.618 50.919 101.618 42.4735 101.615C41.6611 101.672 40.8297 101.228 40.5216 100.459C39.9628 99.2841 40.9333 97.7684 42.2418 97.812C49.8586 97.7793 57.4753 97.8148 65.0948 97.7957C67.5511 97.8447 69.781 95.7456 69.8901 93.2921C70.13 90.7296 67.9763 88.2515 65.3974 88.1643C57.7452 88.1234 50.0903 88.1725 42.4381 88.1425C41.4649 88.2352 40.7888 87.4746 40.2436 86.7903C37.5093 83.5762 33.6354 81.2236 29.3936 80.7793C25.9505 80.3403 22.4066 81.3081 19.5878 83.3064Z" fill="#50CA81"/>
</svg>
