<svg width="42" height="30" viewBox="0 0 42 30" fill="none" xmlns="http://www.w3.org/2000/svg">
<path d="M19.7009 25.4725V29.224H0.63107V26.0001L9.89245 15.8985C10.9085 14.7523 11.7096 13.7623 12.2957 12.9287C12.8819 12.095 13.2922 11.346 13.5267 10.6817C13.7741 10.0044 13.8979 9.34655 13.8979 8.70828C13.8979 7.8095 13.7286 7.02143 13.3899 6.34409C13.0642 5.65372 12.5823 5.11315 11.944 4.72237C11.3058 4.31857 10.5307 4.11667 9.61891 4.11667C8.56381 4.11667 7.67805 4.34462 6.96163 4.80053C6.24521 5.25643 5.70464 5.88819 5.33991 6.69579C4.97519 7.49037 4.79283 8.40217 4.79283 9.43122H0.0839844C0.0839844 7.77693 0.461734 6.26594 1.21723 4.89822C1.97273 3.51748 3.0669 2.42331 4.49975 1.61571C5.93259 0.79508 7.65851 0.384766 9.67752 0.384766C11.5793 0.384766 13.1945 0.703899 14.5231 1.34217C15.8518 1.98043 16.8613 2.88573 17.5516 4.05805C18.255 5.23038 18.6067 6.61763 18.6067 8.21981C18.6067 9.10557 18.4635 9.98481 18.1769 10.8575C17.8903 11.7303 17.48 12.603 16.9459 13.4757C16.4249 14.3354 15.8062 15.2017 15.0898 16.0744C14.3733 16.9341 13.5853 17.8068 12.7256 18.6926L6.57086 25.4725H19.7009Z" fill="white"/>
<path d="M41.9165 12.616V17.2663C41.9165 19.4937 41.6951 21.3955 41.2522 22.9716C40.8223 24.5347 40.1971 25.8047 39.3765 26.7816C38.5558 27.7586 37.5724 28.475 36.4261 28.9309C35.2929 29.3868 34.0228 29.6148 32.616 29.6148C31.4958 29.6148 30.4537 29.4715 29.4898 29.1849C28.5389 28.8983 27.6792 28.449 26.9107 27.8367C26.1422 27.2245 25.4844 26.4365 24.9373 25.4725C24.4032 24.4956 23.9864 23.3298 23.6868 21.9751C23.4003 20.6204 23.257 19.0508 23.257 17.2663V12.616C23.257 10.3756 23.4784 8.48684 23.9213 6.94979C24.3642 5.39972 24.9959 4.14272 25.8165 3.17881C26.6372 2.20187 27.6141 1.49196 28.7474 1.04908C29.8936 0.606205 31.1702 0.384766 32.577 0.384766C33.7102 0.384766 34.7523 0.52805 35.7032 0.814619C36.6671 1.08816 37.5268 1.52453 38.2823 2.12372C39.0508 2.7229 39.7021 3.50446 40.2362 4.46837C40.7832 5.41926 41.2001 6.57204 41.4866 7.92673C41.7732 9.26839 41.9165 10.8315 41.9165 12.616ZM37.2076 17.9306V11.9126C37.2076 10.7794 37.1425 9.78291 37.0123 8.92321C36.882 8.05048 36.6866 7.31452 36.4261 6.71533C36.1786 6.10311 35.866 5.60813 35.4882 5.23038C35.1105 4.8396 34.6806 4.55955 34.1987 4.39021C33.7167 4.20785 33.1762 4.11667 32.577 4.11667C31.8475 4.11667 31.1962 4.25995 30.6231 4.54652C30.0499 4.82007 29.568 5.26295 29.1772 5.87516C28.7864 6.48737 28.4868 7.29498 28.2784 8.29797C28.083 9.28793 27.9853 10.4928 27.9853 11.9126V17.9306C27.9853 19.0769 28.0505 20.0864 28.1807 20.9591C28.311 21.8318 28.5064 22.5808 28.7669 23.206C29.0274 23.8183 29.34 24.3263 29.7048 24.7301C30.0825 25.1208 30.5124 25.4074 30.9943 25.5898C31.4893 25.7721 32.0299 25.8633 32.616 25.8633C33.3585 25.8633 34.0163 25.72 34.5895 25.4335C35.1626 25.1469 35.6445 24.691 36.0353 24.0658C36.4261 23.4275 36.7192 22.6003 36.9146 21.5843C37.11 20.5683 37.2076 19.3504 37.2076 17.9306Z" fill="white"/>
</svg>
