<svg width="104" height="105" viewBox="0 0 104 105" fill="none" xmlns="http://www.w3.org/2000/svg">
<path d="M33.5573 5.02348C35.1961 5.58225 36.6756 6.17937 36.8752 6.29989C37.1554 6.57928 31.3985 23.3626 30.7997 23.9597C30.6001 24.1989 26.3228 22.9225 25.6434 22.444C25.5629 22.4039 26.0829 20.8097 26.7622 18.896C27.4416 16.9421 27.881 15.3078 27.8023 15.2293C27.3628 14.791 23.4462 17.941 19.7676 21.6881C12.652 28.9028 8.17507 37.9527 6.97573 47.4409L6.69557 49.6705L9.21329 49.8696C11.2916 50.0284 11.8519 50.2275 12.6502 51.146C13.65 52.342 13.8093 53.2587 13.1299 54.694C12.5312 55.9704 11.1707 56.5675 8.772 56.5675L8.65266 56.5673C8.58239 56.5671 8.51447 56.5668 8.44884 56.5664C7.71676 56.5625 7.26961 56.5601 7.03688 56.7811C6.67166 57.1277 6.83447 58.0243 7.25277 60.3278C7.29082 60.5374 7.33099 60.7586 7.37307 60.9921C10.6507 79.689 25.561 94.5568 44.3075 97.7871C46.3858 98.145 48.226 98.4244 48.4256 98.4244C48.5849 98.4244 48.746 97.3488 48.746 96.0322C48.746 93.9998 48.9053 93.4411 49.7458 92.6431C50.9854 91.3667 52.7432 91.3667 54.1824 92.5627C55.1016 93.3607 55.3012 93.9177 55.4624 95.9519L55.6217 98.3842L57.6999 98.145C63.8157 97.4675 71.8101 94.4381 77.6073 90.5705C83.2836 86.8234 89.5989 79.5685 92.8765 73.0312C94.9145 68.9646 97.1136 61.1126 97.1136 57.9225V56.5675H94.9566C91.4391 56.5675 89.8003 54.5735 90.9594 51.8234C91.5582 50.3882 92.8381 49.791 95.3961 49.791H97.2345L96.9946 47.2784C96.4746 42.0559 94.0356 34.9215 91.0381 30.0167C90.3185 28.7805 88.5992 26.3883 87.2405 24.6353C85.241 22.1245 84.7228 21.2078 84.7228 20.0903C84.7228 18.1766 85.8819 17.101 87.8814 17.101C89.2803 17.101 89.6795 17.3402 91.3183 19.1736C103.072 32.1696 107.109 52.1814 101.512 69.2824C95.6762 87.1813 80.407 100.535 61.6184 104.282C56.7807 105.239 46.9479 105.239 42.3519 104.282C26.1232 100.855 13.0512 91.0489 5.81666 76.897C-0.619536 64.2607 -1.73832 50.4283 2.57933 37.1931C6.05653 26.6294 13.4925 16.6226 22.3255 10.6441C25.4841 8.49116 25.6434 8.33229 24.7242 8.01273C24.2042 7.81369 22.3658 7.13622 20.6867 6.53728C18.9674 5.93833 17.5684 5.26087 17.5684 5.02165C17.5684 4.82261 17.9273 3.58637 18.4071 2.31179L19.2457 0L24.922 2.0324C28.0019 3.10978 31.9185 4.4647 33.5573 5.02348Z" fill="white"/>
<path d="M77.6878 25.8715C78.8872 26.3098 79.6471 27.6264 79.6068 29.2205C79.5665 30.2176 77.968 32.0107 69.2539 40.7009L58.9414 50.9853L58.9011 53.1382C58.8608 57.6833 55.0229 60.8314 50.5459 59.995C48.8266 59.6755 46.4279 57.6431 45.7083 55.8882C45.1095 54.453 45.0289 52.0225 45.549 50.7862C45.8291 50.1088 44.8294 48.9529 39.3124 43.3725C33.5573 37.593 32.7571 36.6361 32.7571 35.4803C32.7571 33.7656 34.2769 32.2518 35.9945 32.2518C37.1535 32.2518 38.1533 33.0881 44.3093 39.189C49.9454 44.7292 51.6244 46.1645 52.7432 46.3635C54.1019 46.6027 54.2227 46.5224 64.7349 36.039C70.5705 30.2194 75.648 25.4753 76.0069 25.4753C76.3695 25.4735 77.1294 25.6323 77.6878 25.8715Z" fill="white"/>
</svg>
