<svg width="93" height="88" viewBox="0 0 93 88" fill="none" xmlns="http://www.w3.org/2000/svg">
<path d="M79.3101 33.1285C79.3101 14.788 64.522 0 46.2642 0C28.0064 0 13.2183 14.788 13.2183 33.0459C13.2183 33.0459 13.2183 33.0459 13.2183 33.1285C5.86564 33.5415 0 39.655 0 47.0904V48.7426C0 56.5084 6.27872 62.7871 14.0445 62.7871H14.788L20.6537 72.1226C24.7844 78.7318 31.8066 82.6147 39.5724 82.6147H40.729C41.4726 85.4236 44.0336 87.5715 47.0904 87.5715C50.7254 87.5715 53.6995 84.5974 53.6995 80.9624C53.6995 77.3273 50.7254 74.3532 47.0904 74.3532C44.0336 74.3532 41.4726 76.5012 40.729 79.3101H39.5724C32.9632 79.3101 26.9324 75.9229 23.4626 70.3051L18.6709 62.7871H19.8275C21.645 62.7871 23.1321 61.3001 23.1321 59.4826V36.3504C23.1321 34.5329 21.645 33.0459 19.8275 33.0459H16.5229C16.5229 16.6055 29.8239 3.30459 46.2642 3.30459C62.7045 3.30459 76.0055 16.6055 76.0055 33.0459H72.7009C70.8834 33.0459 69.3963 34.5329 69.3963 36.3504V59.4826C69.3963 61.3001 70.8834 62.7871 72.7009 62.7871H78.4839C86.2497 62.7871 92.5284 56.5084 92.5284 48.7426V47.0904C92.5284 39.655 86.6628 33.5415 79.3101 33.1285Z" fill="white"/>
<path d="M59.9781 12.4748C59.8129 12.3922 59.565 12.2269 59.3172 12.0617C59.0693 11.8965 58.8215 11.7312 58.6563 11.6486C57.9127 11.1529 56.8387 11.4008 56.4257 12.2269C56.0126 13.0531 56.1778 13.9618 57.004 14.4575C57.1692 14.5401 57.417 14.7054 57.6649 14.8706C57.9127 15.0358 58.1606 15.201 58.4084 15.2837C58.6563 15.4489 58.9867 15.5315 59.2346 15.5315C59.8129 15.5315 60.3086 15.2837 60.639 14.7054C61.0521 13.9618 60.8042 12.9705 59.9781 12.4748Z" fill="white"/>
<path d="M46.2641 8.2616C39.2419 8.2616 32.6327 11.3183 28.0889 16.6057C27.5106 17.2666 27.5932 18.3406 28.2541 18.9189C28.5846 19.1667 28.915 19.332 29.3281 19.332C29.8238 19.332 30.2369 19.1667 30.5673 18.7537C34.5328 14.2099 40.2332 11.5662 46.2641 11.5662C47.7512 11.5662 49.2382 11.7314 50.7253 12.0619C51.6341 12.2271 52.4602 11.6488 52.708 10.8227C52.9559 9.9965 52.295 9.08774 51.4688 8.8399C49.7339 8.42683 47.999 8.2616 46.2641 8.2616Z" fill="white"/>
</svg>
