<svg width="12" height="7" viewBox="0 0 12 7" fill="none" xmlns="http://www.w3.org/2000/svg">
<path d="M0.282456 0.896408C0.659065 0.539745 1.26967 0.539746 1.64628 0.896408L6.22139 5.22922C6.598 5.58588 6.598 6.16414 6.22139 6.52081C5.84478 6.87747 5.23418 6.87747 4.85757 6.52081L0.282456 2.188C-0.0941522 1.83133 -0.094152 1.25307 0.282456 0.896408Z" fill="#50CA81"/>
<path d="M10.8045 0.896403C11.1811 1.25307 11.1811 1.83133 10.8045 2.18799L6.22935 6.5208C5.85274 6.87746 5.24214 6.87746 4.86553 6.5208C4.48892 6.16414 4.48892 5.58587 4.86553 5.22921L9.44064 0.896403C9.81725 0.53974 10.4279 0.539741 10.8045 0.896403Z" fill="#50CA81"/>
</svg>
