<svg width="10" height="10" viewBox="0 0 10 10" fill="none" xmlns="http://www.w3.org/2000/svg">
<path d="M10 3.95556H6.23308L7.7554 2.38889C6.23863 0.888889 3.78291 0.833333 2.26614 2.33333C1.90579 2.68922 1.61967 3.1131 1.4244 3.58039C1.22912 4.04769 1.12857 4.5491 1.12857 5.05556C1.12857 5.56201 1.22912 6.06342 1.4244 6.53072C1.61967 6.99801 1.90579 7.42189 2.26614 7.77778C3.78291 9.27778 6.23863 9.27778 7.7554 7.77778C8.51101 7.02778 8.88881 6.15556 8.88881 5.05556H10C10 6.15556 9.51108 7.58333 8.53323 8.55C6.5831 10.4833 3.41622 10.4833 1.46609 8.55C-0.478486 6.62222 -0.495154 3.48889 1.45498 1.56111C2.38999 0.634859 3.65293 0.115221 4.9691 0.115221C6.28528 0.115221 7.54822 0.634859 8.48323 1.56111L10 0V3.95556Z" fill="#5764DE"/>
</svg>
