<svg width="46" height="45" viewBox="0 0 46 45" fill="none" xmlns="http://www.w3.org/2000/svg">
<rect x="0.024292" width="45.5917" height="44.0969" rx="22.0485" fill="#AFAFAF"/>
<path d="M35.3528 15.8808C35.0513 14.7776 34.1662 13.9107 33.04 13.6154C31.0008 13.0796 22.8201 13.0796 22.8201 13.0796C22.8201 13.0796 14.6395 13.0796 12.6002 13.6154C11.474 13.9107 10.589 14.7776 10.2875 15.8808C9.74055 17.8783 9.74055 22.0485 9.74055 22.0485C9.74055 22.0485 9.74055 26.2186 10.2875 28.2162C10.589 29.3193 11.474 30.1863 12.6002 30.4815C14.6395 31.0173 22.8201 31.0173 22.8201 31.0173C22.8201 31.0173 31.0008 31.0173 33.04 30.4815C34.1662 30.1863 35.0513 29.3193 35.3528 28.2162C35.8997 26.2186 35.8997 22.0485 35.8997 22.0485C35.8997 22.0485 35.8976 17.8783 35.3528 15.8808Z" fill="white"/>
<path d="M20.2018 25.8919L26.9978 22.0488L20.2018 18.2056V25.8919Z" fill="#AFAFAF"/>
</svg>
