<svg width="58" height="58" viewBox="0 0 58 58" fill="none" xmlns="http://www.w3.org/2000/svg">
<path d="M47.3667 1.93333V0H58V10.6333H56.0667V3.30026L37.1336 22.2333H16.7968L1.60387 35.5278L0.329459 34.0722L16.0699 20.3H36.3331L54.6997 1.93333H47.3667Z" fill="black"/>
<path d="M47.3667 1.93333V0H58V10.6333H56.0667V3.30026L37.1336 22.2333H16.7968L1.60387 35.5278L0.329459 34.0722L16.0699 20.3H36.3331L54.6997 1.93333H47.3667Z" fill="#6A452B"/>
<path d="M47.3667 1.93333V0H58V10.6333H56.0667V3.30026L37.1336 22.2333H16.7968L1.60387 35.5278L0.329459 34.0722L16.0699 20.3H36.3331L54.6997 1.93333H47.3667Z" fill="url(#paint0_radial_169_8264)"/>
<path fill-rule="evenodd" clip-rule="evenodd" d="M49.3 19.3333C44.976 19.3333 40.6 20.6616 40.6 23.2V54.1333C40.6 56.6718 44.976 58 49.3 58C53.624 58 58 56.6718 58 54.1333V23.2C58 20.6616 53.624 19.3333 49.3 19.3333ZM49.3 21.2667C53.6953 21.2667 56.0667 22.6393 56.0667 23.2C56.0667 23.7607 53.6953 25.1333 49.3 25.1333C44.9047 25.1333 42.5333 23.7607 42.5333 23.2C42.5333 22.6393 44.9047 21.2667 49.3 21.2667ZM49.3 56.0667C44.9047 56.0667 42.5333 54.6941 42.5333 54.1333V52.7801C44.6569 53.7397 46.9711 54.2022 49.3 54.1333C51.6289 54.2022 53.9431 53.7397 56.0667 52.7801V54.1333C56.0667 54.6941 53.6953 56.0667 49.3 56.0667ZM49.3 52.2C44.9047 52.2 42.5333 50.8274 42.5333 50.2667V48.9134C44.6569 49.873 46.9711 50.3356 49.3 50.2667C51.6289 50.3356 53.9431 49.873 56.0667 48.9134V50.2667C56.0667 50.8274 53.6953 52.2 49.3 52.2ZM49.3 48.3333C44.9047 48.3333 42.5333 46.9607 42.5333 46.4V45.0468C44.6569 46.0063 46.9711 46.4689 49.3 46.4C51.6289 46.4689 53.9431 46.0063 56.0667 45.0468V46.4C56.0667 46.9607 53.6953 48.3333 49.3 48.3333ZM49.3 44.4667C44.9047 44.4667 42.5333 43.0941 42.5333 42.5333V41.1801C44.6569 42.1397 46.9711 42.6022 49.3 42.5333C51.6289 42.6022 53.9431 42.1397 56.0667 41.1801V42.5333C56.0667 43.0941 53.6953 44.4667 49.3 44.4667ZM49.3 40.6C44.9047 40.6 42.5333 39.2274 42.5333 38.6667V37.3134C44.6569 38.273 46.9711 38.7356 49.3 38.6667C51.6289 38.7356 53.9431 38.273 56.0667 37.3134V38.6667C56.0667 39.2274 53.6953 40.6 49.3 40.6ZM49.3 36.7333C44.9047 36.7333 42.5333 35.3607 42.5333 34.8V33.4468C44.6569 34.4063 46.9711 34.8689 49.3 34.8C51.6289 34.8689 53.9431 34.4063 56.0667 33.4468V34.8C56.0667 35.3607 53.6953 36.7333 49.3 36.7333ZM49.3 32.8667C44.9047 32.8667 42.5333 31.4941 42.5333 30.9333V29.5801C44.6569 30.5397 46.9711 31.0022 49.3 30.9333C51.6289 31.0022 53.9431 30.5397 56.0667 29.5801V30.9333C56.0667 31.4941 53.6953 32.8667 49.3 32.8667ZM49.3 29C44.9047 29 42.5333 27.6274 42.5333 27.0667V25.7134C44.6569 26.673 46.9711 27.1356 49.3 27.0667C51.6289 27.1356 53.9431 26.673 56.0667 25.7134V27.0667C56.0667 27.6274 53.6953 29 49.3 29Z" fill="black"/>
<path fill-rule="evenodd" clip-rule="evenodd" d="M49.3 19.3333C44.976 19.3333 40.6 20.6616 40.6 23.2V54.1333C40.6 56.6718 44.976 58 49.3 58C53.624 58 58 56.6718 58 54.1333V23.2C58 20.6616 53.624 19.3333 49.3 19.3333ZM49.3 21.2667C53.6953 21.2667 56.0667 22.6393 56.0667 23.2C56.0667 23.7607 53.6953 25.1333 49.3 25.1333C44.9047 25.1333 42.5333 23.7607 42.5333 23.2C42.5333 22.6393 44.9047 21.2667 49.3 21.2667ZM49.3 56.0667C44.9047 56.0667 42.5333 54.6941 42.5333 54.1333V52.7801C44.6569 53.7397 46.9711 54.2022 49.3 54.1333C51.6289 54.2022 53.9431 53.7397 56.0667 52.7801V54.1333C56.0667 54.6941 53.6953 56.0667 49.3 56.0667ZM49.3 52.2C44.9047 52.2 42.5333 50.8274 42.5333 50.2667V48.9134C44.6569 49.873 46.9711 50.3356 49.3 50.2667C51.6289 50.3356 53.9431 49.873 56.0667 48.9134V50.2667C56.0667 50.8274 53.6953 52.2 49.3 52.2ZM49.3 48.3333C44.9047 48.3333 42.5333 46.9607 42.5333 46.4V45.0468C44.6569 46.0063 46.9711 46.4689 49.3 46.4C51.6289 46.4689 53.9431 46.0063 56.0667 45.0468V46.4C56.0667 46.9607 53.6953 48.3333 49.3 48.3333ZM49.3 44.4667C44.9047 44.4667 42.5333 43.0941 42.5333 42.5333V41.1801C44.6569 42.1397 46.9711 42.6022 49.3 42.5333C51.6289 42.6022 53.9431 42.1397 56.0667 41.1801V42.5333C56.0667 43.0941 53.6953 44.4667 49.3 44.4667ZM49.3 40.6C44.9047 40.6 42.5333 39.2274 42.5333 38.6667V37.3134C44.6569 38.273 46.9711 38.7356 49.3 38.6667C51.6289 38.7356 53.9431 38.273 56.0667 37.3134V38.6667C56.0667 39.2274 53.6953 40.6 49.3 40.6ZM49.3 36.7333C44.9047 36.7333 42.5333 35.3607 42.5333 34.8V33.4468C44.6569 34.4063 46.9711 34.8689 49.3 34.8C51.6289 34.8689 53.9431 34.4063 56.0667 33.4468V34.8C56.0667 35.3607 53.6953 36.7333 49.3 36.7333ZM49.3 32.8667C44.9047 32.8667 42.5333 31.4941 42.5333 30.9333V29.5801C44.6569 30.5397 46.9711 31.0022 49.3 30.9333C51.6289 31.0022 53.9431 30.5397 56.0667 29.5801V30.9333C56.0667 31.4941 53.6953 32.8667 49.3 32.8667ZM49.3 29C44.9047 29 42.5333 27.6274 42.5333 27.0667V25.7134C44.6569 26.673 46.9711 27.1356 49.3 27.0667C51.6289 27.1356 53.9431 26.673 56.0667 25.7134V27.0667C56.0667 27.6274 53.6953 29 49.3 29Z" fill="#6A452B"/>
<path fill-rule="evenodd" clip-rule="evenodd" d="M49.3 19.3333C44.976 19.3333 40.6 20.6616 40.6 23.2V54.1333C40.6 56.6718 44.976 58 49.3 58C53.624 58 58 56.6718 58 54.1333V23.2C58 20.6616 53.624 19.3333 49.3 19.3333ZM49.3 21.2667C53.6953 21.2667 56.0667 22.6393 56.0667 23.2C56.0667 23.7607 53.6953 25.1333 49.3 25.1333C44.9047 25.1333 42.5333 23.7607 42.5333 23.2C42.5333 22.6393 44.9047 21.2667 49.3 21.2667ZM49.3 56.0667C44.9047 56.0667 42.5333 54.6941 42.5333 54.1333V52.7801C44.6569 53.7397 46.9711 54.2022 49.3 54.1333C51.6289 54.2022 53.9431 53.7397 56.0667 52.7801V54.1333C56.0667 54.6941 53.6953 56.0667 49.3 56.0667ZM49.3 52.2C44.9047 52.2 42.5333 50.8274 42.5333 50.2667V48.9134C44.6569 49.873 46.9711 50.3356 49.3 50.2667C51.6289 50.3356 53.9431 49.873 56.0667 48.9134V50.2667C56.0667 50.8274 53.6953 52.2 49.3 52.2ZM49.3 48.3333C44.9047 48.3333 42.5333 46.9607 42.5333 46.4V45.0468C44.6569 46.0063 46.9711 46.4689 49.3 46.4C51.6289 46.4689 53.9431 46.0063 56.0667 45.0468V46.4C56.0667 46.9607 53.6953 48.3333 49.3 48.3333ZM49.3 44.4667C44.9047 44.4667 42.5333 43.0941 42.5333 42.5333V41.1801C44.6569 42.1397 46.9711 42.6022 49.3 42.5333C51.6289 42.6022 53.9431 42.1397 56.0667 41.1801V42.5333C56.0667 43.0941 53.6953 44.4667 49.3 44.4667ZM49.3 40.6C44.9047 40.6 42.5333 39.2274 42.5333 38.6667V37.3134C44.6569 38.273 46.9711 38.7356 49.3 38.6667C51.6289 38.7356 53.9431 38.273 56.0667 37.3134V38.6667C56.0667 39.2274 53.6953 40.6 49.3 40.6ZM49.3 36.7333C44.9047 36.7333 42.5333 35.3607 42.5333 34.8V33.4468C44.6569 34.4063 46.9711 34.8689 49.3 34.8C51.6289 34.8689 53.9431 34.4063 56.0667 33.4468V34.8C56.0667 35.3607 53.6953 36.7333 49.3 36.7333ZM49.3 32.8667C44.9047 32.8667 42.5333 31.4941 42.5333 30.9333V29.5801C44.6569 30.5397 46.9711 31.0022 49.3 30.9333C51.6289 31.0022 53.9431 30.5397 56.0667 29.5801V30.9333C56.0667 31.4941 53.6953 32.8667 49.3 32.8667ZM49.3 29C44.9047 29 42.5333 27.6274 42.5333 27.0667V25.7134C44.6569 26.673 46.9711 27.1356 49.3 27.0667C51.6289 27.1356 53.9431 26.673 56.0667 25.7134V27.0667C56.0667 27.6274 53.6953 29 49.3 29Z" fill="url(#paint1_radial_169_8264)"/>
<path fill-rule="evenodd" clip-rule="evenodd" d="M20.3 34.8C20.3 32.2616 24.676 30.9333 29 30.9333C33.324 30.9333 37.7 32.2616 37.7 34.8V54.1333C37.7 56.6718 33.324 58 29 58C24.676 58 20.3 56.6718 20.3 54.1333V34.8ZM35.7667 34.8C35.7667 34.2393 33.3953 32.8667 29 32.8667C24.6047 32.8667 22.2333 34.2393 22.2333 34.8C22.2333 35.3607 24.6047 36.7333 29 36.7333C33.3953 36.7333 35.7667 35.3607 35.7667 34.8ZM22.2333 54.1333C22.2333 54.6941 24.6047 56.0667 29 56.0667C33.3953 56.0667 35.7667 54.6941 35.7667 54.1333V52.7801C33.6431 53.7397 31.3289 54.2022 29 54.1333C26.6711 54.2022 24.3569 53.7397 22.2333 52.7801V54.1333ZM22.2333 50.2667C22.2333 50.8274 24.6047 52.2 29 52.2C33.3953 52.2 35.7667 50.8274 35.7667 50.2667V48.9134C33.6431 49.873 31.3289 50.3356 29 50.2667C26.6711 50.3356 24.3569 49.873 22.2333 48.9134V50.2667ZM22.2333 46.4C22.2333 46.9607 24.6047 48.3333 29 48.3333C33.3953 48.3333 35.7667 46.9607 35.7667 46.4V45.0468C33.6431 46.0064 31.3289 46.4689 29 46.4C26.6711 46.4689 24.3569 46.0064 22.2333 45.0468V46.4ZM22.2333 42.5333C22.2333 43.0941 24.6047 44.4667 29 44.4667C33.3953 44.4667 35.7667 43.0941 35.7667 42.5333V41.1801C33.6431 42.1397 31.3289 42.6022 29 42.5333C26.6711 42.6022 24.3569 42.1397 22.2333 41.1801V42.5333ZM22.2333 38.6667C22.2333 39.2274 24.6047 40.6 29 40.6C33.3953 40.6 35.7667 39.2274 35.7667 38.6667V37.3134C33.6431 38.273 31.3289 38.7356 29 38.6667C26.6711 38.7356 24.3569 38.273 22.2333 37.3134V38.6667Z" fill="black"/>
<path fill-rule="evenodd" clip-rule="evenodd" d="M20.3 34.8C20.3 32.2616 24.676 30.9333 29 30.9333C33.324 30.9333 37.7 32.2616 37.7 34.8V54.1333C37.7 56.6718 33.324 58 29 58C24.676 58 20.3 56.6718 20.3 54.1333V34.8ZM35.7667 34.8C35.7667 34.2393 33.3953 32.8667 29 32.8667C24.6047 32.8667 22.2333 34.2393 22.2333 34.8C22.2333 35.3607 24.6047 36.7333 29 36.7333C33.3953 36.7333 35.7667 35.3607 35.7667 34.8ZM22.2333 54.1333C22.2333 54.6941 24.6047 56.0667 29 56.0667C33.3953 56.0667 35.7667 54.6941 35.7667 54.1333V52.7801C33.6431 53.7397 31.3289 54.2022 29 54.1333C26.6711 54.2022 24.3569 53.7397 22.2333 52.7801V54.1333ZM22.2333 50.2667C22.2333 50.8274 24.6047 52.2 29 52.2C33.3953 52.2 35.7667 50.8274 35.7667 50.2667V48.9134C33.6431 49.873 31.3289 50.3356 29 50.2667C26.6711 50.3356 24.3569 49.873 22.2333 48.9134V50.2667ZM22.2333 46.4C22.2333 46.9607 24.6047 48.3333 29 48.3333C33.3953 48.3333 35.7667 46.9607 35.7667 46.4V45.0468C33.6431 46.0064 31.3289 46.4689 29 46.4C26.6711 46.4689 24.3569 46.0064 22.2333 45.0468V46.4ZM22.2333 42.5333C22.2333 43.0941 24.6047 44.4667 29 44.4667C33.3953 44.4667 35.7667 43.0941 35.7667 42.5333V41.1801C33.6431 42.1397 31.3289 42.6022 29 42.5333C26.6711 42.6022 24.3569 42.1397 22.2333 41.1801V42.5333ZM22.2333 38.6667C22.2333 39.2274 24.6047 40.6 29 40.6C33.3953 40.6 35.7667 39.2274 35.7667 38.6667V37.3134C33.6431 38.273 31.3289 38.7356 29 38.6667C26.6711 38.7356 24.3569 38.273 22.2333 37.3134V38.6667Z" fill="#6A452B"/>
<path fill-rule="evenodd" clip-rule="evenodd" d="M20.3 34.8C20.3 32.2616 24.676 30.9333 29 30.9333C33.324 30.9333 37.7 32.2616 37.7 34.8V54.1333C37.7 56.6718 33.324 58 29 58C24.676 58 20.3 56.6718 20.3 54.1333V34.8ZM35.7667 34.8C35.7667 34.2393 33.3953 32.8667 29 32.8667C24.6047 32.8667 22.2333 34.2393 22.2333 34.8C22.2333 35.3607 24.6047 36.7333 29 36.7333C33.3953 36.7333 35.7667 35.3607 35.7667 34.8ZM22.2333 54.1333C22.2333 54.6941 24.6047 56.0667 29 56.0667C33.3953 56.0667 35.7667 54.6941 35.7667 54.1333V52.7801C33.6431 53.7397 31.3289 54.2022 29 54.1333C26.6711 54.2022 24.3569 53.7397 22.2333 52.7801V54.1333ZM22.2333 50.2667C22.2333 50.8274 24.6047 52.2 29 52.2C33.3953 52.2 35.7667 50.8274 35.7667 50.2667V48.9134C33.6431 49.873 31.3289 50.3356 29 50.2667C26.6711 50.3356 24.3569 49.873 22.2333 48.9134V50.2667ZM22.2333 46.4C22.2333 46.9607 24.6047 48.3333 29 48.3333C33.3953 48.3333 35.7667 46.9607 35.7667 46.4V45.0468C33.6431 46.0064 31.3289 46.4689 29 46.4C26.6711 46.4689 24.3569 46.0064 22.2333 45.0468V46.4ZM22.2333 42.5333C22.2333 43.0941 24.6047 44.4667 29 44.4667C33.3953 44.4667 35.7667 43.0941 35.7667 42.5333V41.1801C33.6431 42.1397 31.3289 42.6022 29 42.5333C26.6711 42.6022 24.3569 42.1397 22.2333 41.1801V42.5333ZM22.2333 38.6667C22.2333 39.2274 24.6047 40.6 29 40.6C33.3953 40.6 35.7667 39.2274 35.7667 38.6667V37.3134C33.6431 38.273 31.3289 38.7356 29 38.6667C26.6711 38.7356 24.3569 38.273 22.2333 37.3134V38.6667Z" fill="url(#paint2_radial_169_8264)"/>
<path fill-rule="evenodd" clip-rule="evenodd" d="M0 42.5333C0 39.9949 4.37596 38.6667 8.7 38.6667C13.024 38.6667 17.4 39.9949 17.4 42.5333V54.1333C17.4 56.6718 13.024 58 8.7 58C4.37596 58 0 56.6718 0 54.1333V42.5333ZM15.4667 42.5333C15.4667 41.9726 13.0953 40.6 8.7 40.6C4.30469 40.6 1.93333 41.9726 1.93333 42.5333C1.93333 43.0941 4.30469 44.4667 8.7 44.4667C13.0953 44.4667 15.4667 43.0941 15.4667 42.5333ZM1.93333 54.1333C1.93333 54.6941 4.30469 56.0667 8.7 56.0667C13.0953 56.0667 15.4667 54.6941 15.4667 54.1333V52.7801C13.3431 53.7397 11.0289 54.2022 8.7 54.1333C6.37113 54.2022 4.05688 53.7397 1.93333 52.7801V54.1333ZM1.93333 50.2667C1.93333 50.8274 4.30469 52.2 8.7 52.2C13.0953 52.2 15.4667 50.8274 15.4667 50.2667V48.9134C13.3431 49.873 11.0289 50.3356 8.7 50.2667C6.37113 50.3356 4.05688 49.873 1.93333 48.9134V50.2667ZM1.93333 46.4C1.93333 46.9607 4.30469 48.3333 8.7 48.3333C13.0953 48.3333 15.4667 46.9607 15.4667 46.4V45.0468C13.3431 46.0063 11.0289 46.4689 8.7 46.4C6.37113 46.4689 4.05688 46.0063 1.93333 45.0468V46.4Z" fill="black"/>
<path fill-rule="evenodd" clip-rule="evenodd" d="M0 42.5333C0 39.9949 4.37596 38.6667 8.7 38.6667C13.024 38.6667 17.4 39.9949 17.4 42.5333V54.1333C17.4 56.6718 13.024 58 8.7 58C4.37596 58 0 56.6718 0 54.1333V42.5333ZM15.4667 42.5333C15.4667 41.9726 13.0953 40.6 8.7 40.6C4.30469 40.6 1.93333 41.9726 1.93333 42.5333C1.93333 43.0941 4.30469 44.4667 8.7 44.4667C13.0953 44.4667 15.4667 43.0941 15.4667 42.5333ZM1.93333 54.1333C1.93333 54.6941 4.30469 56.0667 8.7 56.0667C13.0953 56.0667 15.4667 54.6941 15.4667 54.1333V52.7801C13.3431 53.7397 11.0289 54.2022 8.7 54.1333C6.37113 54.2022 4.05688 53.7397 1.93333 52.7801V54.1333ZM1.93333 50.2667C1.93333 50.8274 4.30469 52.2 8.7 52.2C13.0953 52.2 15.4667 50.8274 15.4667 50.2667V48.9134C13.3431 49.873 11.0289 50.3356 8.7 50.2667C6.37113 50.3356 4.05688 49.873 1.93333 48.9134V50.2667ZM1.93333 46.4C1.93333 46.9607 4.30469 48.3333 8.7 48.3333C13.0953 48.3333 15.4667 46.9607 15.4667 46.4V45.0468C13.3431 46.0063 11.0289 46.4689 8.7 46.4C6.37113 46.4689 4.05688 46.0063 1.93333 45.0468V46.4Z" fill="#6A452B"/>
<path fill-rule="evenodd" clip-rule="evenodd" d="M0 42.5333C0 39.9949 4.37596 38.6667 8.7 38.6667C13.024 38.6667 17.4 39.9949 17.4 42.5333V54.1333C17.4 56.6718 13.024 58 8.7 58C4.37596 58 0 56.6718 0 54.1333V42.5333ZM15.4667 42.5333C15.4667 41.9726 13.0953 40.6 8.7 40.6C4.30469 40.6 1.93333 41.9726 1.93333 42.5333C1.93333 43.0941 4.30469 44.4667 8.7 44.4667C13.0953 44.4667 15.4667 43.0941 15.4667 42.5333ZM1.93333 54.1333C1.93333 54.6941 4.30469 56.0667 8.7 56.0667C13.0953 56.0667 15.4667 54.6941 15.4667 54.1333V52.7801C13.3431 53.7397 11.0289 54.2022 8.7 54.1333C6.37113 54.2022 4.05688 53.7397 1.93333 52.7801V54.1333ZM1.93333 50.2667C1.93333 50.8274 4.30469 52.2 8.7 52.2C13.0953 52.2 15.4667 50.8274 15.4667 50.2667V48.9134C13.3431 49.873 11.0289 50.3356 8.7 50.2667C6.37113 50.3356 4.05688 49.873 1.93333 48.9134V50.2667ZM1.93333 46.4C1.93333 46.9607 4.30469 48.3333 8.7 48.3333C13.0953 48.3333 15.4667 46.9607 15.4667 46.4V45.0468C13.3431 46.0063 11.0289 46.4689 8.7 46.4C6.37113 46.4689 4.05688 46.0063 1.93333 45.0468V46.4Z" fill="url(#paint3_radial_169_8264)"/>
<defs>
<radialGradient id="paint0_radial_169_8264" cx="0" cy="0" r="1" gradientUnits="userSpaceOnUse" gradientTransform="translate(10.5 8.50001) rotate(44.7205) scale(72.4793 289.409)">
<stop stop-color="#6A452B"/>
<stop offset="1" stop-color="#6A452B" stop-opacity="0"/>
</radialGradient>
<radialGradient id="paint1_radial_169_8264" cx="0" cy="0" r="1" gradientUnits="userSpaceOnUse" gradientTransform="translate(10.5 8.50001) rotate(44.7205) scale(72.4793 289.409)">
<stop stop-color="#6A452B"/>
<stop offset="1" stop-color="#6A452B" stop-opacity="0"/>
</radialGradient>
<radialGradient id="paint2_radial_169_8264" cx="0" cy="0" r="1" gradientUnits="userSpaceOnUse" gradientTransform="translate(10.5 8.50001) rotate(44.7205) scale(72.4793 289.409)">
<stop stop-color="#6A452B"/>
<stop offset="1" stop-color="#6A452B" stop-opacity="0"/>
</radialGradient>
<radialGradient id="paint3_radial_169_8264" cx="0" cy="0" r="1" gradientUnits="userSpaceOnUse" gradientTransform="translate(10.5 8.50001) rotate(44.7205) scale(72.4793 289.409)">
<stop stop-color="#6A452B"/>
<stop offset="1" stop-color="#6A452B" stop-opacity="0"/>
</radialGradient>
</defs>
</svg>
