<svg width="62" height="62" viewBox="0 0 62 62" fill="none" xmlns="http://www.w3.org/2000/svg">
<path fill-rule="evenodd" clip-rule="evenodd" d="M54.4191 6.34321L59.1628 8.21196C59.3552 8.28683 59.5202 8.41694 59.6365 8.58537C59.7528 8.75381 59.815 8.9528 59.815 9.1565C59.815 9.36019 59.7528 9.55918 59.6365 9.72762C59.5202 9.89606 59.3552 10.0262 59.1628 10.101L54.3778 11.9901L52.4906 15.7682C52.4062 15.9399 52.2743 16.0847 52.1102 16.1861C51.946 16.2874 51.7562 16.3411 51.5625 16.3411C51.3688 16.3411 51.179 16.2874 51.0148 16.1861C50.8507 16.0847 50.7188 15.9399 50.6344 15.7682L48.7472 11.9901L48.4275 11.8581C48.3422 13.3797 47.9391 14.8676 47.2436 16.2289C46.548 17.5902 45.5749 18.7956 44.385 19.7698C44.0456 20.051 43.7735 20.4025 43.5881 20.7993C43.4027 21.1961 43.3086 21.6283 43.3125 22.0651V35.5627H47.4375C48.2248 35.5601 48.9963 35.7802 49.6603 36.1969C50.3243 36.6135 50.8528 37.2092 51.1831 37.9131C51.5133 38.617 51.6313 39.3995 51.523 40.1675C51.4148 40.9356 51.0849 41.6568 50.5725 42.2456C51.113 42.5603 51.5733 42.9927 51.9181 43.5096C52.2628 44.0266 52.4829 44.6143 52.5616 45.2279C52.6402 45.8415 52.5752 46.4646 52.3717 47.0497C52.1681 47.6348 51.8314 48.1662 51.3872 48.6034C51.1415 48.8381 50.868 49.0427 50.5725 49.2127C51.2078 49.9348 51.5591 50.8573 51.5625 51.8127C51.5651 52.3482 51.4598 52.8789 51.2527 53.374C51.0456 53.8691 50.7408 54.3189 50.3559 54.6971C49.9174 55.1256 49.3846 55.4488 48.7987 55.6417C49.2156 56.253 49.4559 56.9645 49.4939 57.6999C49.532 58.4354 49.3663 59.1672 49.0146 59.8171C48.663 60.467 48.1385 61.0105 47.4975 61.3895C46.8564 61.7686 46.1227 61.9689 45.375 61.969H25.0903C23.9747 61.9684 22.8894 61.6121 21.9966 60.9534L20.0784 59.5315C19.5423 59.1371 18.8914 58.9234 18.2222 58.9221H16.5V60.9534C16.5 61.2227 16.3913 61.4811 16.198 61.6715C16.0046 61.862 15.7423 61.969 15.4687 61.969H1.03125C0.757745 61.969 0.495443 61.862 0.302046 61.6715C0.108649 61.4811 0 61.2227 0 60.9534V31.5002C0 31.2309 0.108649 30.9726 0.302046 30.7821C0.495443 30.5916 0.757745 30.4846 1.03125 30.4846H15.4687C15.7423 30.4846 16.0046 30.5916 16.198 30.7821C16.3913 30.9726 16.5 31.2309 16.5 31.5002V33.5315H17.8819C18.2884 33.5336 18.6912 33.4556 19.0667 33.3021C19.4421 33.1487 19.7826 32.9228 20.0681 32.6377L24.8737 27.9049C25.3533 27.4334 25.9226 27.0597 26.549 26.8052C27.1755 26.5508 27.8467 26.4206 28.5244 26.4221H30.9375V22.0651C30.9414 21.6283 30.8473 21.1961 30.6619 20.7993C30.4765 20.4025 30.2044 20.051 29.865 19.7698C28.3793 18.5502 27.235 16.9768 26.5406 15.199C25.8462 13.4212 25.6249 11.4981 25.8977 9.61235C26.1705 7.72662 26.9284 5.94089 28.0992 4.42481C29.2701 2.90874 30.8151 1.71267 32.5875 0.950246C32.7454 0.885124 32.9169 0.858505 33.0874 0.872651C33.258 0.886796 33.4226 0.941289 33.5672 1.0315C33.7097 1.1253 33.8265 1.25218 33.9074 1.40096C33.9884 1.54974 34.0309 1.71584 34.0312 1.88462V11.6956L37.125 13.9807L40.2187 11.6956V1.88462C40.2191 1.71584 40.2616 1.54974 40.3426 1.40096C40.4235 1.25218 40.5403 1.1253 40.6828 1.0315C40.8275 0.941529 40.9921 0.887179 41.1626 0.873037C41.3331 0.858896 41.5046 0.885377 41.6625 0.950246C44.312 2.08789 46.4189 4.18107 47.5509 6.80025L48.7059 6.34321L50.6034 1.67134C50.6795 1.4819 50.8116 1.31936 50.9826 1.20481C51.1536 1.09027 51.3557 1.02902 51.5625 1.02902C51.7693 1.02902 51.9714 1.09027 52.1424 1.20481C52.3134 1.31936 52.4455 1.4819 52.5216 1.67134L54.4191 6.34321ZM2.0625 59.9377H14.4375V32.5159H2.0625V59.9377ZM48.914 38.1458C48.5156 37.7763 47.9845 37.5778 47.4375 37.594H34.0312C33.2115 37.5916 32.426 37.2698 31.8463 36.6989C31.2667 36.128 30.9399 35.3545 30.9375 34.5471V28.4534H28.5244C28.1179 28.4513 27.715 28.5292 27.3396 28.6827C26.9641 28.8362 26.6236 29.0621 26.3381 29.3471L21.5325 34.0799C21.053 34.5515 20.4837 34.9252 19.8572 35.1796C19.2308 35.4341 18.5595 35.5643 17.8819 35.5627H16.5V56.8909H18.2222C19.3377 56.8915 20.4231 57.2478 21.3159 57.9065L23.2341 59.3284C23.7702 59.7227 24.4211 59.9364 25.0903 59.9377H45.375C45.8976 59.9148 46.3918 59.6972 46.7576 59.329C47.1234 58.9607 47.3335 58.4693 47.3452 57.9543C47.357 57.4393 47.1697 56.9391 46.8211 56.5549C46.4725 56.1708 45.9888 55.9315 45.4678 55.8854L39.1875 55.8752C38.914 55.8752 38.6517 55.7682 38.4583 55.5778C38.2649 55.3873 38.1562 55.129 38.1562 54.8596C38.1562 54.5903 38.2649 54.3319 38.4583 54.1415C38.6517 53.951 38.914 53.844 39.1875 53.844L47.4272 53.8541H47.4375C47.9845 53.8676 48.5145 53.6665 48.911 53.2951C49.3075 52.9237 49.5379 52.4124 49.5516 51.8737C49.5652 51.335 49.361 50.813 48.9839 50.4225C48.6068 50.032 48.0876 49.8051 47.5406 49.7916L39.1875 49.7815C38.914 49.7815 38.6517 49.6745 38.4583 49.484C38.2649 49.2936 38.1562 49.0352 38.1562 48.7659C38.1562 48.4965 38.2649 48.2382 38.4583 48.0477C38.6517 47.8572 38.914 47.7502 39.1875 47.7502L48.4584 47.7604H48.4687C49.0171 47.7604 49.543 47.5459 49.9308 47.164C50.3186 46.7821 50.5364 46.2641 50.5364 45.7241C50.5364 45.184 50.3186 44.6661 49.9308 44.2842C49.543 43.9023 49.0171 43.6877 48.4687 43.6877H39.1875C38.914 43.6877 38.6517 43.5807 38.4583 43.3903C38.2649 43.1998 38.1562 42.9415 38.1562 42.6721C38.1562 42.4028 38.2649 42.1444 38.4583 41.954C38.6517 41.7635 38.914 41.6565 39.1875 41.6565H47.5612C48.1083 41.6403 48.6263 41.4108 49.0015 41.0185C49.3767 40.6261 49.5783 40.103 49.5619 39.5643C49.5455 39.0256 49.3124 38.5154 48.914 38.1458ZM41.7197 19.9357C42.0335 19.2686 42.4928 18.6779 43.065 18.2057C44.1125 17.3506 44.9552 16.2781 45.5329 15.0649C46.1105 13.8517 46.4087 12.5277 46.4062 11.1877C46.4062 11.1686 46.4039 11.1494 46.4015 11.1291C46.3988 11.1065 46.3959 11.0825 46.3959 11.0557L43.9622 10.101C43.7698 10.0262 43.6048 9.89606 43.4885 9.72762C43.3722 9.55918 43.31 9.36019 43.31 9.1565C43.31 8.9528 43.3722 8.75381 43.4885 8.58537C43.6048 8.41694 43.7698 8.28683 43.9622 8.21196L45.6431 7.55181C44.9334 5.94008 43.7659 4.56462 42.2812 3.59087V12.2034C42.2801 12.3608 42.2424 12.516 42.1709 12.6568C42.0994 12.7977 41.996 12.9205 41.8687 13.0159L37.7437 16.0627C37.5659 16.1962 37.3485 16.2684 37.125 16.2684C36.9014 16.2684 36.6841 16.1962 36.5062 16.0627L32.3812 13.0159C32.254 12.9205 32.1506 12.7977 32.0791 12.6568C32.0076 12.516 31.9698 12.3608 31.9687 12.2034V3.59087C30.7685 4.37971 29.7717 5.43357 29.0578 6.66857C28.3439 7.90357 27.9325 9.28563 27.8564 10.7048C27.7803 12.1239 28.0416 13.541 28.6194 14.8432C29.1973 16.1454 30.0758 17.2967 31.185 18.2057C31.7572 18.6779 32.2165 19.2686 32.5303 19.9357C32.844 20.6028 33.0044 21.3299 33 22.0651V34.5471C33 34.8165 33.1086 35.0748 33.302 35.2653C33.4954 35.4557 33.7577 35.5627 34.0312 35.5627H36.0937V25.4065C36.0937 25.1371 36.2024 24.8788 36.3958 24.6883C36.5892 24.4979 36.8515 24.3909 37.125 24.3909C37.3985 24.3909 37.6608 24.4979 37.8542 24.6883C38.0476 24.8788 38.1562 25.1371 38.1562 25.4065V35.5627H41.25V22.0651C41.2456 21.3299 41.406 20.6028 41.7197 19.9357ZM52.6969 10.7409C52.811 10.5146 53.0055 10.3375 53.2434 10.2432L56.0072 9.1565L53.2434 8.06978C53.1118 8.02054 52.9923 7.9444 52.8928 7.84637C52.7932 7.74833 52.7159 7.63063 52.6659 7.50103L51.5625 4.77915L50.4591 7.50103C50.4091 7.63063 50.3318 7.74833 50.2322 7.84637C50.1327 7.9444 50.0132 8.02054 49.8816 8.06978L47.2931 9.0854C47.288 9.0854 47.2854 9.08794 47.2828 9.09048C47.2802 9.09302 47.2776 9.09556 47.2725 9.09556C47.2673 9.09556 47.2647 9.09556 47.2635 9.09685C47.2622 9.09812 47.2622 9.10066 47.2622 9.10572L47.1178 9.1565L49.8816 10.2432C50.1195 10.3375 50.314 10.5146 50.4281 10.7409L51.5625 13.0159L52.6969 10.7409ZM13.0237 23.3031L17.8107 25.1891L19.6969 28.9734C19.782 29.1435 19.9137 29.2867 20.0772 29.3868C20.2407 29.487 20.4294 29.5401 20.6219 29.5401C20.8144 29.5401 21.0031 29.487 21.1666 29.3868C21.3301 29.2867 21.4618 29.1435 21.5469 28.9734L23.4362 25.1891L28.2232 23.3031C28.415 23.2279 28.5793 23.0978 28.6951 22.9296C28.8109 22.7614 28.8729 22.5628 28.8729 22.3596C28.8729 22.1564 28.8109 21.9578 28.6951 21.7896C28.5793 21.6214 28.415 21.4913 28.2232 21.4161L23.4795 19.5463L21.581 14.8745C21.5046 14.6857 21.3725 14.5238 21.2017 14.4097C21.0309 14.2957 20.8293 14.2347 20.6229 14.2347C20.4166 14.2347 20.215 14.2957 20.0442 14.4097C19.8734 14.5238 19.7413 14.6857 19.6649 14.8745L17.7664 19.5463L13.0226 21.4161C12.8309 21.4913 12.6665 21.6214 12.5507 21.7896C12.4349 21.9578 12.373 22.1564 12.373 22.3596C12.373 22.5628 12.4349 22.7614 12.5507 22.9296C12.6665 23.0978 12.832 23.2279 13.0237 23.3031ZM18.9451 21.2719C19.0749 21.2209 19.1929 21.1445 19.2918 21.0472C19.3907 20.95 19.4685 20.834 19.5205 20.7062L20.625 17.9843L21.7295 20.7062C21.7815 20.834 21.8593 20.95 21.9582 21.0472C22.0571 21.1445 22.1751 21.2209 22.3049 21.2719L25.0676 22.3596L22.3049 23.4474C22.0681 23.5408 21.8748 23.7174 21.7625 23.943L20.625 26.219L19.4906 23.9399C19.3783 23.7143 19.185 23.5377 18.9482 23.4443L16.1824 22.3596L18.9451 21.2719ZM56.4826 24.6245L61.2263 26.4942H61.2232C61.4149 26.5694 61.5793 26.6996 61.6951 26.8678C61.8109 27.036 61.8729 27.2345 61.8729 27.4377C61.8729 27.641 61.8109 27.8395 61.6951 28.0077C61.5793 28.1759 61.4149 28.3061 61.2232 28.3813L56.4362 30.2673L54.5469 34.0515C54.4618 34.2216 54.3301 34.3648 54.1666 34.465C54.0031 34.5651 53.8144 34.6182 53.6219 34.6182C53.4294 34.6182 53.2407 34.5651 53.0772 34.465C52.9137 34.3648 52.782 34.2216 52.6969 34.0515L50.8128 30.2673L46.0257 28.3813C45.834 28.3061 45.6696 28.1759 45.5538 28.0077C45.438 27.8395 45.3761 27.641 45.3761 27.4377C45.3761 27.2345 45.438 27.036 45.5538 26.8678C45.6696 26.6996 45.834 26.5694 46.0257 26.4942L50.7695 24.6245L52.668 19.9526C52.7444 19.7638 52.8765 19.6019 53.0473 19.4879C53.2181 19.3738 53.4197 19.3128 53.626 19.3128C53.8324 19.3128 54.034 19.3738 54.2048 19.4879C54.3756 19.6019 54.5077 19.7638 54.5841 19.9526L56.4826 24.6245ZM54.7625 29.0211C54.8748 28.7955 55.0681 28.6189 55.3049 28.5255L58.0676 27.4377L55.3049 26.35C55.1751 26.299 55.0571 26.2226 54.9582 26.1254C54.8593 26.0281 54.7814 25.9121 54.7295 25.7843L53.625 23.0624L52.5205 25.7843C52.4685 25.9121 52.3907 26.0281 52.2918 26.1254C52.1929 26.2226 52.0749 26.299 51.9451 26.35L49.1824 27.4377L51.9482 28.5224C52.185 28.6159 52.3783 28.7925 52.4906 29.0181L53.625 31.2971L54.7625 29.0211ZM6.5312 52.3262C7.03997 51.9914 7.63811 51.8127 8.25 51.8127C9.07051 51.8127 9.85742 52.1338 10.4376 52.7052C11.0178 53.2766 11.3438 54.0515 11.3438 54.8596C11.3438 55.4622 11.1623 56.0513 10.8224 56.5524C10.4824 57.0534 9.99924 57.444 9.43393 57.6746C8.86862 57.9052 8.24657 57.9655 7.64644 57.8479C7.04631 57.7304 6.49506 57.4402 6.06239 57.0141C5.62972 56.588 5.33507 56.0451 5.2157 55.454C5.09632 54.863 5.15759 54.2504 5.39175 53.6936C5.62591 53.1369 6.02244 52.661 6.5312 52.3262ZM7.67707 55.7041C7.84666 55.8157 8.04604 55.8752 8.25 55.8752C8.52351 55.8752 8.78581 55.7682 8.9792 55.5778C9.1726 55.3873 9.28125 55.129 9.28125 54.8596C9.28125 54.6587 9.22077 54.4624 9.10745 54.2954C8.99414 54.1283 8.83308 53.9982 8.64464 53.9213C8.45621 53.8444 8.24886 53.8243 8.04881 53.8635C7.84877 53.9027 7.66502 53.9994 7.5208 54.1415C7.37657 54.2835 7.27836 54.4645 7.23857 54.6615C7.19877 54.8585 7.2192 55.0627 7.29725 55.2483C7.3753 55.4339 7.50748 55.5925 7.67707 55.7041Z" fill="black"/>
<path fill-rule="evenodd" clip-rule="evenodd" d="M54.4191 6.34321L59.1628 8.21196C59.3552 8.28683 59.5202 8.41694 59.6365 8.58537C59.7528 8.75381 59.815 8.9528 59.815 9.1565C59.815 9.36019 59.7528 9.55918 59.6365 9.72762C59.5202 9.89606 59.3552 10.0262 59.1628 10.101L54.3778 11.9901L52.4906 15.7682C52.4062 15.9399 52.2743 16.0847 52.1102 16.1861C51.946 16.2874 51.7562 16.3411 51.5625 16.3411C51.3688 16.3411 51.179 16.2874 51.0148 16.1861C50.8507 16.0847 50.7188 15.9399 50.6344 15.7682L48.7472 11.9901L48.4275 11.8581C48.3422 13.3797 47.9391 14.8676 47.2436 16.2289C46.548 17.5902 45.5749 18.7956 44.385 19.7698C44.0456 20.051 43.7735 20.4025 43.5881 20.7993C43.4027 21.1961 43.3086 21.6283 43.3125 22.0651V35.5627H47.4375C48.2248 35.5601 48.9963 35.7802 49.6603 36.1969C50.3243 36.6135 50.8528 37.2092 51.1831 37.9131C51.5133 38.617 51.6313 39.3995 51.523 40.1675C51.4148 40.9356 51.0849 41.6568 50.5725 42.2456C51.113 42.5603 51.5733 42.9927 51.9181 43.5096C52.2628 44.0266 52.4829 44.6143 52.5616 45.2279C52.6402 45.8415 52.5752 46.4646 52.3717 47.0497C52.1681 47.6348 51.8314 48.1662 51.3872 48.6034C51.1415 48.8381 50.868 49.0427 50.5725 49.2127C51.2078 49.9348 51.5591 50.8573 51.5625 51.8127C51.5651 52.3482 51.4598 52.8789 51.2527 53.374C51.0456 53.8691 50.7408 54.3189 50.3559 54.6971C49.9174 55.1256 49.3846 55.4488 48.7987 55.6417C49.2156 56.253 49.4559 56.9645 49.4939 57.6999C49.532 58.4354 49.3663 59.1672 49.0146 59.8171C48.663 60.467 48.1385 61.0105 47.4975 61.3895C46.8564 61.7686 46.1227 61.9689 45.375 61.969H25.0903C23.9747 61.9684 22.8894 61.6121 21.9966 60.9534L20.0784 59.5315C19.5423 59.1371 18.8914 58.9234 18.2222 58.9221H16.5V60.9534C16.5 61.2227 16.3913 61.4811 16.198 61.6715C16.0046 61.862 15.7423 61.969 15.4687 61.969H1.03125C0.757745 61.969 0.495443 61.862 0.302046 61.6715C0.108649 61.4811 0 61.2227 0 60.9534V31.5002C0 31.2309 0.108649 30.9726 0.302046 30.7821C0.495443 30.5916 0.757745 30.4846 1.03125 30.4846H15.4687C15.7423 30.4846 16.0046 30.5916 16.198 30.7821C16.3913 30.9726 16.5 31.2309 16.5 31.5002V33.5315H17.8819C18.2884 33.5336 18.6912 33.4556 19.0667 33.3021C19.4421 33.1487 19.7826 32.9228 20.0681 32.6377L24.8737 27.9049C25.3533 27.4334 25.9226 27.0597 26.549 26.8052C27.1755 26.5508 27.8467 26.4206 28.5244 26.4221H30.9375V22.0651C30.9414 21.6283 30.8473 21.1961 30.6619 20.7993C30.4765 20.4025 30.2044 20.051 29.865 19.7698C28.3793 18.5502 27.235 16.9768 26.5406 15.199C25.8462 13.4212 25.6249 11.4981 25.8977 9.61235C26.1705 7.72662 26.9284 5.94089 28.0992 4.42481C29.2701 2.90874 30.8151 1.71267 32.5875 0.950246C32.7454 0.885124 32.9169 0.858505 33.0874 0.872651C33.258 0.886796 33.4226 0.941289 33.5672 1.0315C33.7097 1.1253 33.8265 1.25218 33.9074 1.40096C33.9884 1.54974 34.0309 1.71584 34.0312 1.88462V11.6956L37.125 13.9807L40.2187 11.6956V1.88462C40.2191 1.71584 40.2616 1.54974 40.3426 1.40096C40.4235 1.25218 40.5403 1.1253 40.6828 1.0315C40.8275 0.941529 40.9921 0.887179 41.1626 0.873037C41.3331 0.858896 41.5046 0.885377 41.6625 0.950246C44.312 2.08789 46.4189 4.18107 47.5509 6.80025L48.7059 6.34321L50.6034 1.67134C50.6795 1.4819 50.8116 1.31936 50.9826 1.20481C51.1536 1.09027 51.3557 1.02902 51.5625 1.02902C51.7693 1.02902 51.9714 1.09027 52.1424 1.20481C52.3134 1.31936 52.4455 1.4819 52.5216 1.67134L54.4191 6.34321ZM2.0625 59.9377H14.4375V32.5159H2.0625V59.9377ZM48.914 38.1458C48.5156 37.7763 47.9845 37.5778 47.4375 37.594H34.0312C33.2115 37.5916 32.426 37.2698 31.8463 36.6989C31.2667 36.128 30.9399 35.3545 30.9375 34.5471V28.4534H28.5244C28.1179 28.4513 27.715 28.5292 27.3396 28.6827C26.9641 28.8362 26.6236 29.0621 26.3381 29.3471L21.5325 34.0799C21.053 34.5515 20.4837 34.9252 19.8572 35.1796C19.2308 35.4341 18.5595 35.5643 17.8819 35.5627H16.5V56.8909H18.2222C19.3377 56.8915 20.4231 57.2478 21.3159 57.9065L23.2341 59.3284C23.7702 59.7227 24.4211 59.9364 25.0903 59.9377H45.375C45.8976 59.9148 46.3918 59.6972 46.7576 59.329C47.1234 58.9607 47.3335 58.4693 47.3452 57.9543C47.357 57.4393 47.1697 56.9391 46.8211 56.5549C46.4725 56.1708 45.9888 55.9315 45.4678 55.8854L39.1875 55.8752C38.914 55.8752 38.6517 55.7682 38.4583 55.5778C38.2649 55.3873 38.1562 55.129 38.1562 54.8596C38.1562 54.5903 38.2649 54.3319 38.4583 54.1415C38.6517 53.951 38.914 53.844 39.1875 53.844L47.4272 53.8541H47.4375C47.9845 53.8676 48.5145 53.6665 48.911 53.2951C49.3075 52.9237 49.5379 52.4124 49.5516 51.8737C49.5652 51.335 49.361 50.813 48.9839 50.4225C48.6068 50.032 48.0876 49.8051 47.5406 49.7916L39.1875 49.7815C38.914 49.7815 38.6517 49.6745 38.4583 49.484C38.2649 49.2936 38.1562 49.0352 38.1562 48.7659C38.1562 48.4965 38.2649 48.2382 38.4583 48.0477C38.6517 47.8572 38.914 47.7502 39.1875 47.7502L48.4584 47.7604H48.4687C49.0171 47.7604 49.543 47.5459 49.9308 47.164C50.3186 46.7821 50.5364 46.2641 50.5364 45.7241C50.5364 45.184 50.3186 44.6661 49.9308 44.2842C49.543 43.9023 49.0171 43.6877 48.4687 43.6877H39.1875C38.914 43.6877 38.6517 43.5807 38.4583 43.3903C38.2649 43.1998 38.1562 42.9415 38.1562 42.6721C38.1562 42.4028 38.2649 42.1444 38.4583 41.954C38.6517 41.7635 38.914 41.6565 39.1875 41.6565H47.5612C48.1083 41.6403 48.6263 41.4108 49.0015 41.0185C49.3767 40.6261 49.5783 40.103 49.5619 39.5643C49.5455 39.0256 49.3124 38.5154 48.914 38.1458ZM41.7197 19.9357C42.0335 19.2686 42.4928 18.6779 43.065 18.2057C44.1125 17.3506 44.9552 16.2781 45.5329 15.0649C46.1105 13.8517 46.4087 12.5277 46.4062 11.1877C46.4062 11.1686 46.4039 11.1494 46.4015 11.1291C46.3988 11.1065 46.3959 11.0825 46.3959 11.0557L43.9622 10.101C43.7698 10.0262 43.6048 9.89606 43.4885 9.72762C43.3722 9.55918 43.31 9.36019 43.31 9.1565C43.31 8.9528 43.3722 8.75381 43.4885 8.58537C43.6048 8.41694 43.7698 8.28683 43.9622 8.21196L45.6431 7.55181C44.9334 5.94008 43.7659 4.56462 42.2812 3.59087V12.2034C42.2801 12.3608 42.2424 12.516 42.1709 12.6568C42.0994 12.7977 41.996 12.9205 41.8687 13.0159L37.7437 16.0627C37.5659 16.1962 37.3485 16.2684 37.125 16.2684C36.9014 16.2684 36.6841 16.1962 36.5062 16.0627L32.3812 13.0159C32.254 12.9205 32.1506 12.7977 32.0791 12.6568C32.0076 12.516 31.9698 12.3608 31.9687 12.2034V3.59087C30.7685 4.37971 29.7717 5.43357 29.0578 6.66857C28.3439 7.90357 27.9325 9.28563 27.8564 10.7048C27.7803 12.1239 28.0416 13.541 28.6194 14.8432C29.1973 16.1454 30.0758 17.2967 31.185 18.2057C31.7572 18.6779 32.2165 19.2686 32.5303 19.9357C32.844 20.6028 33.0044 21.3299 33 22.0651V34.5471C33 34.8165 33.1086 35.0748 33.302 35.2653C33.4954 35.4557 33.7577 35.5627 34.0312 35.5627H36.0937V25.4065C36.0937 25.1371 36.2024 24.8788 36.3958 24.6883C36.5892 24.4979 36.8515 24.3909 37.125 24.3909C37.3985 24.3909 37.6608 24.4979 37.8542 24.6883C38.0476 24.8788 38.1562 25.1371 38.1562 25.4065V35.5627H41.25V22.0651C41.2456 21.3299 41.406 20.6028 41.7197 19.9357ZM52.6969 10.7409C52.811 10.5146 53.0055 10.3375 53.2434 10.2432L56.0072 9.1565L53.2434 8.06978C53.1118 8.02054 52.9923 7.9444 52.8928 7.84637C52.7932 7.74833 52.7159 7.63063 52.6659 7.50103L51.5625 4.77915L50.4591 7.50103C50.4091 7.63063 50.3318 7.74833 50.2322 7.84637C50.1327 7.9444 50.0132 8.02054 49.8816 8.06978L47.2931 9.0854C47.288 9.0854 47.2854 9.08794 47.2828 9.09048C47.2802 9.09302 47.2776 9.09556 47.2725 9.09556C47.2673 9.09556 47.2647 9.09556 47.2635 9.09685C47.2622 9.09812 47.2622 9.10066 47.2622 9.10572L47.1178 9.1565L49.8816 10.2432C50.1195 10.3375 50.314 10.5146 50.4281 10.7409L51.5625 13.0159L52.6969 10.7409ZM13.0237 23.3031L17.8107 25.1891L19.6969 28.9734C19.782 29.1435 19.9137 29.2867 20.0772 29.3868C20.2407 29.487 20.4294 29.5401 20.6219 29.5401C20.8144 29.5401 21.0031 29.487 21.1666 29.3868C21.3301 29.2867 21.4618 29.1435 21.5469 28.9734L23.4362 25.1891L28.2232 23.3031C28.415 23.2279 28.5793 23.0978 28.6951 22.9296C28.8109 22.7614 28.8729 22.5628 28.8729 22.3596C28.8729 22.1564 28.8109 21.9578 28.6951 21.7896C28.5793 21.6214 28.415 21.4913 28.2232 21.4161L23.4795 19.5463L21.581 14.8745C21.5046 14.6857 21.3725 14.5238 21.2017 14.4097C21.0309 14.2957 20.8293 14.2347 20.6229 14.2347C20.4166 14.2347 20.215 14.2957 20.0442 14.4097C19.8734 14.5238 19.7413 14.6857 19.6649 14.8745L17.7664 19.5463L13.0226 21.4161C12.8309 21.4913 12.6665 21.6214 12.5507 21.7896C12.4349 21.9578 12.373 22.1564 12.373 22.3596C12.373 22.5628 12.4349 22.7614 12.5507 22.9296C12.6665 23.0978 12.832 23.2279 13.0237 23.3031ZM18.9451 21.2719C19.0749 21.2209 19.1929 21.1445 19.2918 21.0472C19.3907 20.95 19.4685 20.834 19.5205 20.7062L20.625 17.9843L21.7295 20.7062C21.7815 20.834 21.8593 20.95 21.9582 21.0472C22.0571 21.1445 22.1751 21.2209 22.3049 21.2719L25.0676 22.3596L22.3049 23.4474C22.0681 23.5408 21.8748 23.7174 21.7625 23.943L20.625 26.219L19.4906 23.9399C19.3783 23.7143 19.185 23.5377 18.9482 23.4443L16.1824 22.3596L18.9451 21.2719ZM56.4826 24.6245L61.2263 26.4942H61.2232C61.4149 26.5694 61.5793 26.6996 61.6951 26.8678C61.8109 27.036 61.8729 27.2345 61.8729 27.4377C61.8729 27.641 61.8109 27.8395 61.6951 28.0077C61.5793 28.1759 61.4149 28.3061 61.2232 28.3813L56.4362 30.2673L54.5469 34.0515C54.4618 34.2216 54.3301 34.3648 54.1666 34.465C54.0031 34.5651 53.8144 34.6182 53.6219 34.6182C53.4294 34.6182 53.2407 34.5651 53.0772 34.465C52.9137 34.3648 52.782 34.2216 52.6969 34.0515L50.8128 30.2673L46.0257 28.3813C45.834 28.3061 45.6696 28.1759 45.5538 28.0077C45.438 27.8395 45.3761 27.641 45.3761 27.4377C45.3761 27.2345 45.438 27.036 45.5538 26.8678C45.6696 26.6996 45.834 26.5694 46.0257 26.4942L50.7695 24.6245L52.668 19.9526C52.7444 19.7638 52.8765 19.6019 53.0473 19.4879C53.2181 19.3738 53.4197 19.3128 53.626 19.3128C53.8324 19.3128 54.034 19.3738 54.2048 19.4879C54.3756 19.6019 54.5077 19.7638 54.5841 19.9526L56.4826 24.6245ZM54.7625 29.0211C54.8748 28.7955 55.0681 28.6189 55.3049 28.5255L58.0676 27.4377L55.3049 26.35C55.1751 26.299 55.0571 26.2226 54.9582 26.1254C54.8593 26.0281 54.7814 25.9121 54.7295 25.7843L53.625 23.0624L52.5205 25.7843C52.4685 25.9121 52.3907 26.0281 52.2918 26.1254C52.1929 26.2226 52.0749 26.299 51.9451 26.35L49.1824 27.4377L51.9482 28.5224C52.185 28.6159 52.3783 28.7925 52.4906 29.0181L53.625 31.2971L54.7625 29.0211ZM6.5312 52.3262C7.03997 51.9914 7.63811 51.8127 8.25 51.8127C9.07051 51.8127 9.85742 52.1338 10.4376 52.7052C11.0178 53.2766 11.3438 54.0515 11.3438 54.8596C11.3438 55.4622 11.1623 56.0513 10.8224 56.5524C10.4824 57.0534 9.99924 57.444 9.43393 57.6746C8.86862 57.9052 8.24657 57.9655 7.64644 57.8479C7.04631 57.7304 6.49506 57.4402 6.06239 57.0141C5.62972 56.588 5.33507 56.0451 5.2157 55.454C5.09632 54.863 5.15759 54.2504 5.39175 53.6936C5.62591 53.1369 6.02244 52.661 6.5312 52.3262ZM7.67707 55.7041C7.84666 55.8157 8.04604 55.8752 8.25 55.8752C8.52351 55.8752 8.78581 55.7682 8.9792 55.5778C9.1726 55.3873 9.28125 55.129 9.28125 54.8596C9.28125 54.6587 9.22077 54.4624 9.10745 54.2954C8.99414 54.1283 8.83308 53.9982 8.64464 53.9213C8.45621 53.8444 8.24886 53.8243 8.04881 53.8635C7.84877 53.9027 7.66502 53.9994 7.5208 54.1415C7.37657 54.2835 7.27836 54.4645 7.23857 54.6615C7.19877 54.8585 7.2192 55.0627 7.29725 55.2483C7.3753 55.4339 7.50748 55.5925 7.67707 55.7041Z" fill="#B41622"/>
<path fill-rule="evenodd" clip-rule="evenodd" d="M54.4191 6.34321L59.1628 8.21196C59.3552 8.28683 59.5202 8.41694 59.6365 8.58537C59.7528 8.75381 59.815 8.9528 59.815 9.1565C59.815 9.36019 59.7528 9.55918 59.6365 9.72762C59.5202 9.89606 59.3552 10.0262 59.1628 10.101L54.3778 11.9901L52.4906 15.7682C52.4062 15.9399 52.2743 16.0847 52.1102 16.1861C51.946 16.2874 51.7562 16.3411 51.5625 16.3411C51.3688 16.3411 51.179 16.2874 51.0148 16.1861C50.8507 16.0847 50.7188 15.9399 50.6344 15.7682L48.7472 11.9901L48.4275 11.8581C48.3422 13.3797 47.9391 14.8676 47.2436 16.2289C46.548 17.5902 45.5749 18.7956 44.385 19.7698C44.0456 20.051 43.7735 20.4025 43.5881 20.7993C43.4027 21.1961 43.3086 21.6283 43.3125 22.0651V35.5627H47.4375C48.2248 35.5601 48.9963 35.7802 49.6603 36.1969C50.3243 36.6135 50.8528 37.2092 51.1831 37.9131C51.5133 38.617 51.6313 39.3995 51.523 40.1675C51.4148 40.9356 51.0849 41.6568 50.5725 42.2456C51.113 42.5603 51.5733 42.9927 51.9181 43.5096C52.2628 44.0266 52.4829 44.6143 52.5616 45.2279C52.6402 45.8415 52.5752 46.4646 52.3717 47.0497C52.1681 47.6348 51.8314 48.1662 51.3872 48.6034C51.1415 48.8381 50.868 49.0427 50.5725 49.2127C51.2078 49.9348 51.5591 50.8573 51.5625 51.8127C51.5651 52.3482 51.4598 52.8789 51.2527 53.374C51.0456 53.8691 50.7408 54.3189 50.3559 54.6971C49.9174 55.1256 49.3846 55.4488 48.7987 55.6417C49.2156 56.253 49.4559 56.9645 49.4939 57.6999C49.532 58.4354 49.3663 59.1672 49.0146 59.8171C48.663 60.467 48.1385 61.0105 47.4975 61.3895C46.8564 61.7686 46.1227 61.9689 45.375 61.969H25.0903C23.9747 61.9684 22.8894 61.6121 21.9966 60.9534L20.0784 59.5315C19.5423 59.1371 18.8914 58.9234 18.2222 58.9221H16.5V60.9534C16.5 61.2227 16.3913 61.4811 16.198 61.6715C16.0046 61.862 15.7423 61.969 15.4687 61.969H1.03125C0.757745 61.969 0.495443 61.862 0.302046 61.6715C0.108649 61.4811 0 61.2227 0 60.9534V31.5002C0 31.2309 0.108649 30.9726 0.302046 30.7821C0.495443 30.5916 0.757745 30.4846 1.03125 30.4846H15.4687C15.7423 30.4846 16.0046 30.5916 16.198 30.7821C16.3913 30.9726 16.5 31.2309 16.5 31.5002V33.5315H17.8819C18.2884 33.5336 18.6912 33.4556 19.0667 33.3021C19.4421 33.1487 19.7826 32.9228 20.0681 32.6377L24.8737 27.9049C25.3533 27.4334 25.9226 27.0597 26.549 26.8052C27.1755 26.5508 27.8467 26.4206 28.5244 26.4221H30.9375V22.0651C30.9414 21.6283 30.8473 21.1961 30.6619 20.7993C30.4765 20.4025 30.2044 20.051 29.865 19.7698C28.3793 18.5502 27.235 16.9768 26.5406 15.199C25.8462 13.4212 25.6249 11.4981 25.8977 9.61235C26.1705 7.72662 26.9284 5.94089 28.0992 4.42481C29.2701 2.90874 30.8151 1.71267 32.5875 0.950246C32.7454 0.885124 32.9169 0.858505 33.0874 0.872651C33.258 0.886796 33.4226 0.941289 33.5672 1.0315C33.7097 1.1253 33.8265 1.25218 33.9074 1.40096C33.9884 1.54974 34.0309 1.71584 34.0312 1.88462V11.6956L37.125 13.9807L40.2187 11.6956V1.88462C40.2191 1.71584 40.2616 1.54974 40.3426 1.40096C40.4235 1.25218 40.5403 1.1253 40.6828 1.0315C40.8275 0.941529 40.9921 0.887179 41.1626 0.873037C41.3331 0.858896 41.5046 0.885377 41.6625 0.950246C44.312 2.08789 46.4189 4.18107 47.5509 6.80025L48.7059 6.34321L50.6034 1.67134C50.6795 1.4819 50.8116 1.31936 50.9826 1.20481C51.1536 1.09027 51.3557 1.02902 51.5625 1.02902C51.7693 1.02902 51.9714 1.09027 52.1424 1.20481C52.3134 1.31936 52.4455 1.4819 52.5216 1.67134L54.4191 6.34321ZM2.0625 59.9377H14.4375V32.5159H2.0625V59.9377ZM48.914 38.1458C48.5156 37.7763 47.9845 37.5778 47.4375 37.594H34.0312C33.2115 37.5916 32.426 37.2698 31.8463 36.6989C31.2667 36.128 30.9399 35.3545 30.9375 34.5471V28.4534H28.5244C28.1179 28.4513 27.715 28.5292 27.3396 28.6827C26.9641 28.8362 26.6236 29.0621 26.3381 29.3471L21.5325 34.0799C21.053 34.5515 20.4837 34.9252 19.8572 35.1796C19.2308 35.4341 18.5595 35.5643 17.8819 35.5627H16.5V56.8909H18.2222C19.3377 56.8915 20.4231 57.2478 21.3159 57.9065L23.2341 59.3284C23.7702 59.7227 24.4211 59.9364 25.0903 59.9377H45.375C45.8976 59.9148 46.3918 59.6972 46.7576 59.329C47.1234 58.9607 47.3335 58.4693 47.3452 57.9543C47.357 57.4393 47.1697 56.9391 46.8211 56.5549C46.4725 56.1708 45.9888 55.9315 45.4678 55.8854L39.1875 55.8752C38.914 55.8752 38.6517 55.7682 38.4583 55.5778C38.2649 55.3873 38.1562 55.129 38.1562 54.8596C38.1562 54.5903 38.2649 54.3319 38.4583 54.1415C38.6517 53.951 38.914 53.844 39.1875 53.844L47.4272 53.8541H47.4375C47.9845 53.8676 48.5145 53.6665 48.911 53.2951C49.3075 52.9237 49.5379 52.4124 49.5516 51.8737C49.5652 51.335 49.361 50.813 48.9839 50.4225C48.6068 50.032 48.0876 49.8051 47.5406 49.7916L39.1875 49.7815C38.914 49.7815 38.6517 49.6745 38.4583 49.484C38.2649 49.2936 38.1562 49.0352 38.1562 48.7659C38.1562 48.4965 38.2649 48.2382 38.4583 48.0477C38.6517 47.8572 38.914 47.7502 39.1875 47.7502L48.4584 47.7604H48.4687C49.0171 47.7604 49.543 47.5459 49.9308 47.164C50.3186 46.7821 50.5364 46.2641 50.5364 45.7241C50.5364 45.184 50.3186 44.6661 49.9308 44.2842C49.543 43.9023 49.0171 43.6877 48.4687 43.6877H39.1875C38.914 43.6877 38.6517 43.5807 38.4583 43.3903C38.2649 43.1998 38.1562 42.9415 38.1562 42.6721C38.1562 42.4028 38.2649 42.1444 38.4583 41.954C38.6517 41.7635 38.914 41.6565 39.1875 41.6565H47.5612C48.1083 41.6403 48.6263 41.4108 49.0015 41.0185C49.3767 40.6261 49.5783 40.103 49.5619 39.5643C49.5455 39.0256 49.3124 38.5154 48.914 38.1458ZM41.7197 19.9357C42.0335 19.2686 42.4928 18.6779 43.065 18.2057C44.1125 17.3506 44.9552 16.2781 45.5329 15.0649C46.1105 13.8517 46.4087 12.5277 46.4062 11.1877C46.4062 11.1686 46.4039 11.1494 46.4015 11.1291C46.3988 11.1065 46.3959 11.0825 46.3959 11.0557L43.9622 10.101C43.7698 10.0262 43.6048 9.89606 43.4885 9.72762C43.3722 9.55918 43.31 9.36019 43.31 9.1565C43.31 8.9528 43.3722 8.75381 43.4885 8.58537C43.6048 8.41694 43.7698 8.28683 43.9622 8.21196L45.6431 7.55181C44.9334 5.94008 43.7659 4.56462 42.2812 3.59087V12.2034C42.2801 12.3608 42.2424 12.516 42.1709 12.6568C42.0994 12.7977 41.996 12.9205 41.8687 13.0159L37.7437 16.0627C37.5659 16.1962 37.3485 16.2684 37.125 16.2684C36.9014 16.2684 36.6841 16.1962 36.5062 16.0627L32.3812 13.0159C32.254 12.9205 32.1506 12.7977 32.0791 12.6568C32.0076 12.516 31.9698 12.3608 31.9687 12.2034V3.59087C30.7685 4.37971 29.7717 5.43357 29.0578 6.66857C28.3439 7.90357 27.9325 9.28563 27.8564 10.7048C27.7803 12.1239 28.0416 13.541 28.6194 14.8432C29.1973 16.1454 30.0758 17.2967 31.185 18.2057C31.7572 18.6779 32.2165 19.2686 32.5303 19.9357C32.844 20.6028 33.0044 21.3299 33 22.0651V34.5471C33 34.8165 33.1086 35.0748 33.302 35.2653C33.4954 35.4557 33.7577 35.5627 34.0312 35.5627H36.0937V25.4065C36.0937 25.1371 36.2024 24.8788 36.3958 24.6883C36.5892 24.4979 36.8515 24.3909 37.125 24.3909C37.3985 24.3909 37.6608 24.4979 37.8542 24.6883C38.0476 24.8788 38.1562 25.1371 38.1562 25.4065V35.5627H41.25V22.0651C41.2456 21.3299 41.406 20.6028 41.7197 19.9357ZM52.6969 10.7409C52.811 10.5146 53.0055 10.3375 53.2434 10.2432L56.0072 9.1565L53.2434 8.06978C53.1118 8.02054 52.9923 7.9444 52.8928 7.84637C52.7932 7.74833 52.7159 7.63063 52.6659 7.50103L51.5625 4.77915L50.4591 7.50103C50.4091 7.63063 50.3318 7.74833 50.2322 7.84637C50.1327 7.9444 50.0132 8.02054 49.8816 8.06978L47.2931 9.0854C47.288 9.0854 47.2854 9.08794 47.2828 9.09048C47.2802 9.09302 47.2776 9.09556 47.2725 9.09556C47.2673 9.09556 47.2647 9.09556 47.2635 9.09685C47.2622 9.09812 47.2622 9.10066 47.2622 9.10572L47.1178 9.1565L49.8816 10.2432C50.1195 10.3375 50.314 10.5146 50.4281 10.7409L51.5625 13.0159L52.6969 10.7409ZM13.0237 23.3031L17.8107 25.1891L19.6969 28.9734C19.782 29.1435 19.9137 29.2867 20.0772 29.3868C20.2407 29.487 20.4294 29.5401 20.6219 29.5401C20.8144 29.5401 21.0031 29.487 21.1666 29.3868C21.3301 29.2867 21.4618 29.1435 21.5469 28.9734L23.4362 25.1891L28.2232 23.3031C28.415 23.2279 28.5793 23.0978 28.6951 22.9296C28.8109 22.7614 28.8729 22.5628 28.8729 22.3596C28.8729 22.1564 28.8109 21.9578 28.6951 21.7896C28.5793 21.6214 28.415 21.4913 28.2232 21.4161L23.4795 19.5463L21.581 14.8745C21.5046 14.6857 21.3725 14.5238 21.2017 14.4097C21.0309 14.2957 20.8293 14.2347 20.6229 14.2347C20.4166 14.2347 20.215 14.2957 20.0442 14.4097C19.8734 14.5238 19.7413 14.6857 19.6649 14.8745L17.7664 19.5463L13.0226 21.4161C12.8309 21.4913 12.6665 21.6214 12.5507 21.7896C12.4349 21.9578 12.373 22.1564 12.373 22.3596C12.373 22.5628 12.4349 22.7614 12.5507 22.9296C12.6665 23.0978 12.832 23.2279 13.0237 23.3031ZM18.9451 21.2719C19.0749 21.2209 19.1929 21.1445 19.2918 21.0472C19.3907 20.95 19.4685 20.834 19.5205 20.7062L20.625 17.9843L21.7295 20.7062C21.7815 20.834 21.8593 20.95 21.9582 21.0472C22.0571 21.1445 22.1751 21.2209 22.3049 21.2719L25.0676 22.3596L22.3049 23.4474C22.0681 23.5408 21.8748 23.7174 21.7625 23.943L20.625 26.219L19.4906 23.9399C19.3783 23.7143 19.185 23.5377 18.9482 23.4443L16.1824 22.3596L18.9451 21.2719ZM56.4826 24.6245L61.2263 26.4942H61.2232C61.4149 26.5694 61.5793 26.6996 61.6951 26.8678C61.8109 27.036 61.8729 27.2345 61.8729 27.4377C61.8729 27.641 61.8109 27.8395 61.6951 28.0077C61.5793 28.1759 61.4149 28.3061 61.2232 28.3813L56.4362 30.2673L54.5469 34.0515C54.4618 34.2216 54.3301 34.3648 54.1666 34.465C54.0031 34.5651 53.8144 34.6182 53.6219 34.6182C53.4294 34.6182 53.2407 34.5651 53.0772 34.465C52.9137 34.3648 52.782 34.2216 52.6969 34.0515L50.8128 30.2673L46.0257 28.3813C45.834 28.3061 45.6696 28.1759 45.5538 28.0077C45.438 27.8395 45.3761 27.641 45.3761 27.4377C45.3761 27.2345 45.438 27.036 45.5538 26.8678C45.6696 26.6996 45.834 26.5694 46.0257 26.4942L50.7695 24.6245L52.668 19.9526C52.7444 19.7638 52.8765 19.6019 53.0473 19.4879C53.2181 19.3738 53.4197 19.3128 53.626 19.3128C53.8324 19.3128 54.034 19.3738 54.2048 19.4879C54.3756 19.6019 54.5077 19.7638 54.5841 19.9526L56.4826 24.6245ZM54.7625 29.0211C54.8748 28.7955 55.0681 28.6189 55.3049 28.5255L58.0676 27.4377L55.3049 26.35C55.1751 26.299 55.0571 26.2226 54.9582 26.1254C54.8593 26.0281 54.7814 25.9121 54.7295 25.7843L53.625 23.0624L52.5205 25.7843C52.4685 25.9121 52.3907 26.0281 52.2918 26.1254C52.1929 26.2226 52.0749 26.299 51.9451 26.35L49.1824 27.4377L51.9482 28.5224C52.185 28.6159 52.3783 28.7925 52.4906 29.0181L53.625 31.2971L54.7625 29.0211ZM6.5312 52.3262C7.03997 51.9914 7.63811 51.8127 8.25 51.8127C9.07051 51.8127 9.85742 52.1338 10.4376 52.7052C11.0178 53.2766 11.3438 54.0515 11.3438 54.8596C11.3438 55.4622 11.1623 56.0513 10.8224 56.5524C10.4824 57.0534 9.99924 57.444 9.43393 57.6746C8.86862 57.9052 8.24657 57.9655 7.64644 57.8479C7.04631 57.7304 6.49506 57.4402 6.06239 57.0141C5.62972 56.588 5.33507 56.0451 5.2157 55.454C5.09632 54.863 5.15759 54.2504 5.39175 53.6936C5.62591 53.1369 6.02244 52.661 6.5312 52.3262ZM7.67707 55.7041C7.84666 55.8157 8.04604 55.8752 8.25 55.8752C8.52351 55.8752 8.78581 55.7682 8.9792 55.5778C9.1726 55.3873 9.28125 55.129 9.28125 54.8596C9.28125 54.6587 9.22077 54.4624 9.10745 54.2954C8.99414 54.1283 8.83308 53.9982 8.64464 53.9213C8.45621 53.8444 8.24886 53.8243 8.04881 53.8635C7.84877 53.9027 7.66502 53.9994 7.5208 54.1415C7.37657 54.2835 7.27836 54.4645 7.23857 54.6615C7.19877 54.8585 7.2192 55.0627 7.29725 55.2483C7.3753 55.4339 7.50748 55.5925 7.67707 55.7041Z" fill="url(#paint0_radial_131_191)"/>
<defs>
<radialGradient id="paint0_radial_131_191" cx="0" cy="0" r="1" gradientUnits="userSpaceOnUse" gradientTransform="translate(11.2011 9.82315) rotate(44.3605) scale(76.8424 306.77)">
<stop stop-color="#FF0E0E"/>
<stop offset="1" stop-color="#FF0000" stop-opacity="0"/>
</radialGradient>
</defs>
</svg>
