<svg width="44" height="60" viewBox="0 0 44 60" fill="none" xmlns="http://www.w3.org/2000/svg">
<g clip-path="url(#clip0_429_836)">
<path d="M4.54007 6.96016L4.53201 12.585V40.415C4.53201 42.6987 5.4524 44.8889 7.09072 46.5038C8.72904 48.1186 10.9511 49.0258 13.268 49.0258H36.4279C36.0105 50.1881 35.2379 51.1944 34.2165 51.9061C33.195 52.6178 31.9748 53 30.7239 53H13.268C9.88173 53 6.63413 51.6741 4.23967 49.3139C1.8452 46.9538 0.5 43.7528 0.5 40.415V12.585C0.5 9.9885 2.18538 7.77619 4.54007 6.96016ZM25.0361 0C26.6408 0 28.1811 0.627925 29.3154 1.74865L41.7286 13.9892C42.8629 15.1073 43.5 16.6254 43.5 18.2045V40.415C43.5 41.9961 42.8628 43.5123 41.7286 44.6303C40.5944 45.7483 39.056 46.3763 37.452 46.3763H13.2734C11.6694 46.3763 10.131 45.7483 8.99681 44.6303C7.86259 43.5123 7.22539 41.9961 7.22539 40.415V5.96131C7.22539 4.38027 7.86259 2.86399 8.99681 1.74603C10.131 0.628064 11.6694 0 13.2734 0H25.0361ZM24.692 3.97421H13.2734C12.7387 3.97421 12.2259 4.18356 11.8479 4.55621C11.4698 4.92887 11.2574 5.4343 11.2574 5.96131V40.415C11.2574 41.5119 12.1606 42.4021 13.2734 42.4021H37.452C37.9867 42.4021 38.4994 42.1928 38.8775 41.8201C39.2556 41.4475 39.468 40.942 39.468 40.415V18.5542H30.74C29.208 18.5545 27.7329 17.9816 26.6128 16.9513C25.4927 15.921 24.811 14.5101 24.7055 13.0036L24.692 12.5956V3.97421ZM28.724 6.78529L28.7267 12.5956C28.7267 13.6024 29.4847 14.4317 30.4686 14.5641L30.7427 14.5827L36.6295 14.58L28.7267 6.78529H28.724Z" fill="#BE2E39"/>
</g>
<defs>
<clipPath id="clip0_429_836">
<rect width="43" height="60" fill="white" transform="translate(0.5)"/>
</clipPath>
</defs>
</svg>
