<svg width="62" height="61" viewBox="0 0 62 61" fill="none" xmlns="http://www.w3.org/2000/svg">
<path d="M8.83659 5.64248C8.47522 5.30576 7.99727 5.12244 7.50342 5.13116C7.00958 5.13987 6.53839 5.33993 6.18913 5.68919C5.83987 6.03845 5.63981 6.50963 5.6311 7.00348C5.62239 7.49733 5.8057 7.97528 6.14242 8.33664L10.5598 12.7591C9.18384 12.9392 7.92027 13.6135 7.00466 14.6563C6.08904 15.6992 5.58385 17.0393 5.58325 18.4271V37.4896C5.58325 39.0063 6.18576 40.4609 7.25823 41.5333C8.33071 42.6058 9.7853 43.2083 11.302 43.2083H41.0141L44.8113 47.0081C44.6556 47.0162 44.4996 47.0205 44.3437 47.0208H11.6858C12.355 48.1805 13.3179 49.1434 14.4776 49.8127C15.6372 50.482 16.9527 50.834 18.2916 50.8333H44.3437C45.6399 50.8333 46.8853 50.63 48.0545 50.2513L53.1632 55.36C53.3392 55.542 53.5496 55.6871 53.7822 55.7869C54.0148 55.8867 54.265 55.9392 54.5181 55.9413C54.7712 55.9433 55.0222 55.895 55.2564 55.799C55.4907 55.7031 55.7034 55.5614 55.8823 55.3824C56.0612 55.2033 56.2027 54.9904 56.2984 54.7561C56.3941 54.5218 56.4423 54.2707 56.4399 54.0176C56.4376 53.7645 56.3849 53.5144 56.2849 53.2819C56.1849 53.0494 56.0396 52.8391 55.8574 52.6633L8.83659 5.64248ZM37.2016 39.3958H17.0208V37.4896C17.0208 35.9729 16.4182 34.5183 15.3458 33.4458C14.2733 32.3733 12.8187 31.7708 11.302 31.7708H9.39575V24.1458H11.302C12.6902 24.1458 14.031 23.6409 15.0743 22.7252C16.1176 21.8096 16.7923 20.5457 16.9725 19.1692L21.1306 23.3274C20.0059 24.7951 19.4528 26.6214 19.5743 28.4665C19.6958 30.3116 20.4836 32.0496 21.7911 33.3571C23.0986 34.6646 24.8367 35.4525 26.6818 35.574C28.5268 35.6955 30.3532 35.1424 31.8209 34.0176L37.2016 39.3958ZM23.8756 26.0699L29.0759 31.2701C28.3499 31.684 27.508 31.8478 26.6798 31.7365C25.8515 31.6251 25.0828 31.2448 24.4919 30.6538C23.901 30.0629 23.5206 29.2942 23.4092 28.466C23.2979 27.6377 23.4618 26.7959 23.8756 26.0699ZM9.39575 18.4271C9.39575 17.9215 9.59659 17.4366 9.95408 17.0791C10.3116 16.7216 10.7964 16.5208 11.302 16.5208H13.2083V18.4271C13.2083 18.9326 13.0074 19.4175 12.6499 19.775C12.2924 20.1325 11.8076 20.3333 11.302 20.3333H9.39575V18.4271ZM11.302 39.3958C10.7964 39.3958 10.3116 39.195 9.95408 38.8375C9.59659 38.48 9.39575 37.9951 9.39575 37.4896V35.5833H11.302C11.8076 35.5833 12.2924 35.7841 12.6499 36.1416C13.0074 36.4991 13.2083 36.984 13.2083 37.4896V39.3958H11.302ZM43.0728 31.7708C42.2977 31.7699 41.5305 31.9273 40.8184 32.2334L44.1658 35.5833H44.9765V36.3966L48.3265 39.744C48.6325 39.0319 48.7899 38.2647 48.789 37.4896V18.4271C48.789 16.9108 48.1869 15.4566 47.115 14.3842C46.043 13.3118 44.5891 12.709 43.0728 12.7083H21.2908L25.1033 16.5208H37.3541V18.4271C37.3541 19.1781 37.502 19.9217 37.7894 20.6155C38.0768 21.3094 38.498 21.9398 39.0291 22.4708C40.1015 23.5433 41.5561 24.1458 43.0728 24.1458H44.9791V31.7708H43.0728ZM44.9791 18.4271V20.3333H43.0728C42.5673 20.3333 42.0824 20.1325 41.7249 19.775C41.3674 19.4175 41.1666 18.9326 41.1666 18.4271V16.5208H43.0728C43.5784 16.5208 44.0633 16.7216 44.4208 17.0791C44.7783 17.4366 44.9791 17.9215 44.9791 18.4271ZM51.4908 42.9059L54.2485 45.6636C55.616 43.7065 56.4166 41.3275 56.4166 38.7604V25.4166C56.417 24.0778 56.0649 22.7624 55.3956 21.6028C54.7264 20.4432 53.7636 19.4803 52.6041 18.8109V38.7604C52.606 40.2163 52.2219 41.6467 51.4908 42.9059Z" fill="#BE2E39"/>
</svg>
