<svg width="54" height="60" viewBox="0 0 54 60" fill="none" xmlns="http://www.w3.org/2000/svg">
<path d="M35.4801 8.8335C36.5726 8.83345 37.6482 9.10361 38.6111 9.61991C39.5739 10.1362 40.3942 10.8826 40.9987 11.7927L41.2306 12.1725L45.634 19.8752H48.2001C48.4037 19.8751 48.6011 19.9454 48.7589 20.0742C48.9166 20.203 49.025 20.3823 49.0658 20.5818L49.0834 20.7585V21.8075C49.0837 22.1604 48.9782 22.5053 48.7806 22.7978C48.583 23.0902 48.3024 23.3168 47.9748 23.4482L47.6922 23.5366C48.5197 25.2551 48.8879 27.1587 48.761 29.0618L48.7014 29.6956L47.1003 42.5062C46.9744 43.515 46.5042 44.4496 45.7692 45.152C45.0341 45.8545 44.0793 46.2818 43.0657 46.3619L42.7168 46.3752H40.2501C39.1358 46.3755 38.0626 45.9547 37.2455 45.197C36.4285 44.4394 35.928 43.4009 35.8445 42.2897L35.8334 41.9585H18.1667C18.1671 43.0728 17.7463 44.146 16.9886 44.963C16.231 45.7801 15.1925 46.2806 14.0813 46.3641L13.7501 46.3752H11.2834C10.2664 46.3758 9.28043 46.0255 8.49186 45.3833C7.70329 44.7412 7.16046 43.8466 6.95504 42.8507L6.89983 42.5062L5.29879 29.6978C5.06221 27.8033 5.3209 25.8798 6.04962 24.1152L6.308 23.5344L6.255 23.5233C5.91232 23.4378 5.60312 23.2516 5.36733 22.9886C5.13154 22.7257 4.97998 22.3981 4.93221 22.0482L4.91675 21.8075V20.7585C4.91671 20.5549 4.98702 20.3575 5.1158 20.1997C5.24457 20.042 5.42389 19.9336 5.62341 19.8928L5.80008 19.8752H8.36837L12.7696 12.1725C13.3117 11.2236 14.0802 10.4236 15.0064 9.84373C15.9327 9.26385 16.988 8.9221 18.0784 8.84895L18.5201 8.8335H35.4801ZM44.1368 26.5797C42.9949 27.831 41.4109 28.589 39.7201 28.693L39.2652 28.7085H14.735C13.8195 28.7144 12.913 28.528 12.0742 28.1613C11.2354 27.7945 10.4829 27.2557 9.86562 26.5797C9.68331 27.2467 9.60656 27.9382 9.63816 28.629L9.68233 29.148L11.2834 41.9585H13.7501V39.7502C13.7502 39.2093 13.9487 38.6872 14.3082 38.283C14.6676 37.8788 15.1629 37.6206 15.7 37.5573L15.9584 37.5418H38.0418C38.5826 37.5419 39.1047 37.7405 39.5089 38.0999C39.9131 38.4593 40.1713 38.9546 40.2346 39.4918L40.2501 39.7502V41.9585H42.7168L44.3178 29.148C44.4282 28.2823 44.3642 27.41 44.1368 26.5797ZM13.1693 30.6916L19.2267 33.9643C20.0505 34.4104 19.7082 35.6625 18.7718 35.625L13.6617 35.4196C13.0919 35.3968 12.553 35.1544 12.1578 34.7432C11.7626 34.332 11.5419 33.7838 11.5417 33.2135V31.6677C11.5416 31.4764 11.5912 31.2883 11.6857 31.122C11.7801 30.9556 11.9162 30.8166 12.0805 30.7187C12.2448 30.6207 12.4317 30.5671 12.623 30.5631C12.8143 30.5592 13.0033 30.6049 13.1715 30.696L13.1693 30.6916ZM42.4562 31.6632V33.2113C42.4567 33.782 42.2362 34.3307 41.8409 34.7424C41.4457 35.1541 40.9064 35.3968 40.3362 35.4196L35.2261 35.6228C34.2898 35.6603 33.9453 34.4082 34.7712 33.9621L40.8265 30.6938C40.9947 30.6027 41.1837 30.5569 41.375 30.5609C41.5662 30.5649 41.7532 30.6185 41.9175 30.7164C42.0818 30.8144 42.2178 30.9534 42.3123 31.1197C42.4067 31.2861 42.4563 31.4719 42.4562 31.6632ZM35.4801 13.2502H18.5201C18.1308 13.2503 17.7485 13.3533 17.4119 13.5488C17.0753 13.7442 16.7963 14.0252 16.6032 14.3632L12.8182 20.9882C12.6264 21.324 12.5261 21.7042 12.5274 22.091C12.5287 22.4777 12.6315 22.8573 12.8256 23.1918C13.0197 23.5263 13.2982 23.8039 13.6333 23.997C13.9684 24.19 14.3483 24.2917 14.735 24.2918H39.2652C39.6519 24.2917 40.0318 24.19 40.3669 23.997C40.702 23.8039 40.9805 23.5263 41.1746 23.1918C41.3686 22.8573 41.4715 22.4777 41.4728 22.091C41.4741 21.7042 41.3738 21.324 41.182 20.9882L37.3969 14.3632C37.2037 14.0248 36.9243 13.7437 36.5873 13.5482C36.2503 13.3527 35.8675 13.2499 35.4779 13.2502H35.4801Z" fill="#BE2E39"/>
</svg>
