<svg width="80" height="56" viewBox="0 0 80 56" fill="none" xmlns="http://www.w3.org/2000/svg">
<g clip-path="url(#clip0_429_861)">
<path d="M9.85711 17.8138C9.85675 14.8615 10.5886 11.9554 11.9868 9.35692C13.3849 6.75843 15.4056 4.54903 17.8671 2.92743C20.3286 1.30583 23.1536 0.322895 26.0881 0.0670255C29.0226 -0.188844 31.9746 0.290381 34.6784 1.4616C37.3823 2.63281 39.7533 4.45929 41.5782 6.77674C43.4031 9.0942 44.6246 11.8299 45.1329 14.7379C45.6412 17.6459 45.4204 20.6349 44.4902 23.4362C43.56 26.2374 41.9497 28.7629 39.8041 30.7857C43.8499 32.7534 47.3626 35.6699 50.0443 39.2879C52.7261 42.9059 54.4978 47.1188 55.2092 51.5692C55.2876 52.0644 55.2678 52.5702 55.1511 53.0578C55.0344 53.5454 54.8231 54.0051 54.5291 54.4108C54.2351 54.8165 53.8643 55.1602 53.4378 55.4222C53.0113 55.6843 52.5375 55.8596 52.0434 55.9381C51.5493 56.0166 51.0446 55.9968 50.5582 55.8799C50.0717 55.7629 49.613 55.5511 49.2082 55.2564C48.8035 54.9618 48.4606 54.5901 48.1991 54.1627C47.9376 53.7352 47.7627 53.2603 47.6844 52.7651C46.9228 47.983 44.4852 43.6297 40.8093 40.4868C37.1334 37.344 32.46 35.6175 27.6283 35.6175C22.7966 35.6175 18.1232 37.344 14.4473 40.4868C10.7714 43.6297 8.33381 47.983 7.57224 52.7651C7.49356 53.2603 7.31833 53.7351 7.05656 54.1625C6.79479 54.5898 6.45161 54.9613 6.0466 55.2557C5.64159 55.5501 5.18269 55.7617 4.6961 55.8783C4.20952 55.995 3.70477 56.0144 3.21068 55.9356C2.71659 55.8567 2.24284 55.6811 1.81647 55.4187C1.39011 55.1563 1.01947 54.8124 0.725735 54.4065C0.431998 54.0005 0.220909 53.5406 0.104521 53.0529C-0.0118666 52.5652 -0.0312742 52.0593 0.0474065 51.5641C0.759955 47.1154 2.5322 42.9044 5.21391 39.2882C7.89562 35.672 11.4077 32.7571 15.4525 30.7907C13.6839 29.1263 12.2748 27.1158 11.3123 24.8837C10.3499 22.6516 9.85462 20.2454 9.85711 17.8138ZM55.5545 10.1802C58.5046 10.1823 61.3906 11.0426 63.8623 12.6568C66.334 14.271 68.2851 16.5695 69.4786 19.2735C70.6722 21.9775 71.0569 24.9706 70.5861 27.8895C70.1153 30.8084 68.8093 33.5275 66.8265 35.7169C69.9171 37.2547 72.6632 39.4067 74.8978 42.0418C77.1324 44.6769 78.8087 47.7401 79.8249 51.045C80.0262 51.6866 80.0545 52.3701 79.907 53.0262C79.7595 53.6823 79.4414 54.2876 78.985 54.7806C78.5287 55.2737 77.9503 55.6369 77.3086 55.8335C76.6669 56.0301 75.9847 56.053 75.3313 55.8999C74.6785 55.7475 74.0772 55.4256 73.5879 54.9664C73.0985 54.5072 72.7384 53.9271 72.5438 53.2842C71.6338 50.3336 69.9754 47.6702 67.7309 45.5544C65.4864 43.4386 62.7324 41.9427 59.7383 41.213C58.9069 41.0119 58.1672 40.536 57.6384 39.862C57.1097 39.1881 56.8228 38.3554 56.8239 37.4981V35.7067C56.8234 34.9961 57.0209 34.2995 57.3941 33.6953C57.7673 33.0911 58.3013 32.6034 58.9361 32.2869C60.4754 31.5223 61.7116 30.2586 62.4438 28.7009C63.1761 27.1433 63.3614 25.3833 62.9697 23.7068C62.578 22.0302 61.6323 20.5357 60.2861 19.4659C58.94 18.3961 57.2725 17.8138 55.5545 17.8138C54.5445 17.8138 53.5759 17.4116 52.8618 16.6958C52.1476 15.9801 51.7464 15.0093 51.7464 13.997C51.7464 12.9847 52.1476 12.0139 52.8618 11.2981C53.5759 10.5823 54.5445 10.1802 55.5545 10.1802ZM27.6283 7.63572C26.276 7.60507 24.9312 7.84552 23.6728 8.34295C22.4145 8.84038 21.268 9.58476 20.3006 10.5324C19.3333 11.48 18.5646 12.6118 18.0396 13.8613C17.5147 15.1108 17.2441 16.4529 17.2438 17.8086C17.2434 19.1644 17.5133 20.5065 18.0376 21.7563C18.562 23.006 19.3301 24.1382 20.297 25.0863C21.2639 26.0345 22.41 26.7794 23.6681 27.2775C24.9262 27.7755 26.2709 28.0167 27.6232 27.9867C30.2765 27.9279 32.8014 26.8303 34.6574 24.929C36.5134 23.0277 37.553 20.4737 37.5537 17.8137C37.5544 15.1537 36.516 12.5992 34.661 10.6969C32.8059 8.79466 30.2816 7.69586 27.6283 7.63572Z" fill="#BE2E39"/>
</g>
<defs>
<clipPath id="clip0_429_861">
<rect width="80" height="56" fill="white"/>
</clipPath>
</defs>
</svg>
