<svg width="42" height="57" viewBox="0 0 42 57" fill="none" xmlns="http://www.w3.org/2000/svg">
<g clip-path="url(#clip0_429_850)">
<path d="M38.7006 54V35.8949C38.7001 33.5504 38.2377 31.2289 37.3399 29.0631C36.4421 26.8973 35.1264 24.9296 33.468 23.2723L28.4955 18.2998V35.0967C28.4955 37.3662 25.7491 38.5061 24.1426 36.8996L20.8403 33.5999C19.5653 32.3249 16.5028 31.5599 14.4602 33.5999C12.4202 35.6399 13.1852 38.6999 14.4602 39.9749L28.4955 54" stroke="#BE2E39" stroke-width="5" stroke-linecap="round" stroke-linejoin="round"/>
<path d="M18.3001 3H23.4001C24.7527 3 26.0499 3.53732 27.0064 4.49376C27.9628 5.4502 28.5001 6.74741 28.5001 8.10002V13.2M18.3001 3C18.3001 6.39917 20.3401 13.2 28.5001 13.2M18.3001 3H13.2M28.5001 13.2V28.5001M13.2 3H8.10002C6.74741 3 5.4502 3.53732 4.49376 4.49376C3.53732 5.4502 3 6.74741 3 8.10002V13.2M13.2 3C13.2 6.39917 11.16 13.2 3 13.2M3 28.5001V33.6001C3 34.9528 3.53732 36.25 4.49376 37.2064C5.4502 38.1628 6.74741 38.7002 8.10002 38.7002H13.2C13.2 35.301 11.16 28.5001 3 28.5001ZM3 28.5001V13.2" stroke="#BE2E39" stroke-width="5" stroke-linecap="round" stroke-linejoin="round"/>
<path d="M13.2003 20.8498C13.2003 22.2582 14.3419 23.3998 15.7503 23.3998C17.1586 23.3998 18.3003 22.2582 18.3003 20.8498C18.3003 19.4415 17.1586 18.2998 15.7503 18.2998C14.3419 18.2998 13.2003 19.4415 13.2003 20.8498Z" stroke="#BE2E39" stroke-width="5" stroke-linecap="round" stroke-linejoin="round"/>
</g>
<defs>
<clipPath id="clip0_429_850">
<rect width="41" height="57" fill="white" transform="translate(0.5)"/>
</clipPath>
</defs>
</svg>
