<svg width="34" height="61" viewBox="0 0 34 61" fill="none" xmlns="http://www.w3.org/2000/svg">
<path fill-rule="evenodd" clip-rule="evenodd" d="M18.6179 38.9847C18.0207 39.2321 17.3807 39.3594 16.7344 39.3594C15.7609 39.3594 14.8093 39.0707 13.9999 38.5299C13.1905 37.9891 12.5597 37.2204 12.1872 36.321C11.8146 35.4217 11.7172 34.4321 11.9071 33.4773C12.097 32.5226 12.5657 31.6456 13.2541 30.9572C13.9424 30.2689 14.8194 29.8001 15.7742 29.6102C16.7289 29.4203 17.7185 29.5178 18.6179 29.8903C19.5173 30.2628 20.2859 30.8937 20.8268 31.7031C21.3676 32.5125 21.6562 33.4641 21.6562 34.4375C21.6562 35.0839 21.5289 35.7239 21.2816 36.321C21.0342 36.9182 20.6717 37.4608 20.2147 37.9178C19.7576 38.3748 19.215 38.7374 18.6179 38.9847ZM16.7344 37.3906C16.1503 37.3906 15.5793 37.2174 15.0937 36.8929C14.6081 36.5685 14.2296 36.1072 14.006 35.5676C13.7825 35.028 13.724 34.4342 13.838 33.8614C13.9519 33.2885 14.2332 32.7623 14.6462 32.3493C15.0592 31.9363 15.5854 31.6551 16.1582 31.5411C16.7311 31.4272 17.3249 31.4857 17.8645 31.7092C18.4041 31.9327 18.8653 32.3112 19.1898 32.7968C19.5143 33.2825 19.6875 33.8534 19.6875 34.4375C19.6875 35.2207 19.3764 35.9719 18.8225 36.5257C18.2687 37.0795 17.5176 37.3906 16.7344 37.3906Z" fill="black"/>
<path fill-rule="evenodd" clip-rule="evenodd" d="M18.6179 38.9847C18.0207 39.2321 17.3807 39.3594 16.7344 39.3594C15.7609 39.3594 14.8093 39.0707 13.9999 38.5299C13.1905 37.9891 12.5597 37.2204 12.1872 36.321C11.8146 35.4217 11.7172 34.4321 11.9071 33.4773C12.097 32.5226 12.5657 31.6456 13.2541 30.9572C13.9424 30.2689 14.8194 29.8001 15.7742 29.6102C16.7289 29.4203 17.7185 29.5178 18.6179 29.8903C19.5173 30.2628 20.2859 30.8937 20.8268 31.7031C21.3676 32.5125 21.6562 33.4641 21.6562 34.4375C21.6562 35.0839 21.5289 35.7239 21.2816 36.321C21.0342 36.9182 20.6717 37.4608 20.2147 37.9178C19.7576 38.3748 19.215 38.7374 18.6179 38.9847ZM16.7344 37.3906C16.1503 37.3906 15.5793 37.2174 15.0937 36.8929C14.6081 36.5685 14.2296 36.1072 14.006 35.5676C13.7825 35.028 13.724 34.4342 13.838 33.8614C13.9519 33.2885 14.2332 32.7623 14.6462 32.3493C15.0592 31.9363 15.5854 31.6551 16.1582 31.5411C16.7311 31.4272 17.3249 31.4857 17.8645 31.7092C18.4041 31.9327 18.8653 32.3112 19.1898 32.7968C19.5143 33.2825 19.6875 33.8534 19.6875 34.4375C19.6875 35.2207 19.3764 35.9719 18.8225 36.5257C18.2687 37.0795 17.5176 37.3906 16.7344 37.3906Z" fill="#1B30EB"/>
<path fill-rule="evenodd" clip-rule="evenodd" d="M18.6179 38.9847C18.0207 39.2321 17.3807 39.3594 16.7344 39.3594C15.7609 39.3594 14.8093 39.0707 13.9999 38.5299C13.1905 37.9891 12.5597 37.2204 12.1872 36.321C11.8146 35.4217 11.7172 34.4321 11.9071 33.4773C12.097 32.5226 12.5657 31.6456 13.2541 30.9572C13.9424 30.2689 14.8194 29.8001 15.7742 29.6102C16.7289 29.4203 17.7185 29.5178 18.6179 29.8903C19.5173 30.2628 20.2859 30.8937 20.8268 31.7031C21.3676 32.5125 21.6562 33.4641 21.6562 34.4375C21.6562 35.0839 21.5289 35.7239 21.2816 36.321C21.0342 36.9182 20.6717 37.4608 20.2147 37.9178C19.7576 38.3748 19.215 38.7374 18.6179 38.9847ZM16.7344 37.3906C16.1503 37.3906 15.5793 37.2174 15.0937 36.8929C14.6081 36.5685 14.2296 36.1072 14.006 35.5676C13.7825 35.028 13.724 34.4342 13.838 33.8614C13.9519 33.2885 14.2332 32.7623 14.6462 32.3493C15.0592 31.9363 15.5854 31.6551 16.1582 31.5411C16.7311 31.4272 17.3249 31.4857 17.8645 31.7092C18.4041 31.9327 18.8653 32.3112 19.1898 32.7968C19.5143 33.2825 19.6875 33.8534 19.6875 34.4375C19.6875 35.2207 19.3764 35.9719 18.8225 36.5257C18.2687 37.0795 17.5176 37.3906 16.7344 37.3906Z" fill="url(#paint0_radial_169_273)"/>
<path fill-rule="evenodd" clip-rule="evenodd" d="M23.297 47.2124C21.3545 48.5103 19.0707 49.2031 16.7344 49.2031C13.6015 49.2031 10.5969 47.9586 8.38168 45.7433C6.1664 43.5281 4.92188 40.5235 4.92188 37.3906C4.92188 35.0544 5.61467 32.7705 6.91264 30.828C8.21062 28.8854 10.0555 27.3714 12.2139 26.4773C14.3724 25.5833 16.7475 25.3493 19.0389 25.8051C21.3303 26.2609 23.4351 27.3859 25.0871 29.0379C26.7391 30.69 27.8641 32.7947 28.3199 35.0861C28.7757 37.3775 28.5418 39.7526 27.6477 41.9111C26.7536 44.0695 25.2396 45.9144 23.297 47.2124ZM16.7344 47.2543C18.8675 47.2543 20.9419 46.5558 22.6406 45.2656V42.3125C22.6406 42.0514 22.5369 41.8011 22.3523 41.6165C22.1677 41.4319 21.9173 41.3281 21.6562 41.3281H11.8125C11.5514 41.3281 11.301 41.4319 11.1164 41.6165C10.9318 41.8011 10.8281 42.0514 10.8281 42.3125V45.2656C12.5268 46.5558 14.6013 47.2543 16.7344 47.2543ZM23.695 30.4301C21.8489 28.584 19.3451 27.5469 16.7344 27.5469C14.1237 27.5469 11.6199 28.584 9.77379 30.4301C7.92773 32.2761 6.89062 34.7799 6.89062 37.3906C6.88345 39.5217 7.575 41.5964 8.85938 43.2969V42.3125C8.85938 41.5293 9.17051 40.7782 9.72433 40.2243C10.2781 39.6705 11.0293 39.3594 11.8125 39.3594L16.7344 39.3594L21.6562 39.3594C22.4395 39.3594 23.1906 39.6705 23.7444 40.2243C24.2982 40.7782 24.6094 41.5293 24.6094 42.3125V43.2969C25.8938 41.5964 26.5853 39.5217 26.5781 37.3906C26.5781 34.7799 25.541 32.2761 23.695 30.4301Z" fill="black"/>
<path fill-rule="evenodd" clip-rule="evenodd" d="M23.297 47.2124C21.3545 48.5103 19.0707 49.2031 16.7344 49.2031C13.6015 49.2031 10.5969 47.9586 8.38168 45.7433C6.1664 43.5281 4.92188 40.5235 4.92188 37.3906C4.92188 35.0544 5.61467 32.7705 6.91264 30.828C8.21062 28.8854 10.0555 27.3714 12.2139 26.4773C14.3724 25.5833 16.7475 25.3493 19.0389 25.8051C21.3303 26.2609 23.4351 27.3859 25.0871 29.0379C26.7391 30.69 27.8641 32.7947 28.3199 35.0861C28.7757 37.3775 28.5418 39.7526 27.6477 41.9111C26.7536 44.0695 25.2396 45.9144 23.297 47.2124ZM16.7344 47.2543C18.8675 47.2543 20.9419 46.5558 22.6406 45.2656V42.3125C22.6406 42.0514 22.5369 41.8011 22.3523 41.6165C22.1677 41.4319 21.9173 41.3281 21.6562 41.3281H11.8125C11.5514 41.3281 11.301 41.4319 11.1164 41.6165C10.9318 41.8011 10.8281 42.0514 10.8281 42.3125V45.2656C12.5268 46.5558 14.6013 47.2543 16.7344 47.2543ZM23.695 30.4301C21.8489 28.584 19.3451 27.5469 16.7344 27.5469C14.1237 27.5469 11.6199 28.584 9.77379 30.4301C7.92773 32.2761 6.89062 34.7799 6.89062 37.3906C6.88345 39.5217 7.575 41.5964 8.85938 43.2969V42.3125C8.85938 41.5293 9.17051 40.7782 9.72433 40.2243C10.2781 39.6705 11.0293 39.3594 11.8125 39.3594L16.7344 39.3594L21.6562 39.3594C22.4395 39.3594 23.1906 39.6705 23.7444 40.2243C24.2982 40.7782 24.6094 41.5293 24.6094 42.3125V43.2969C25.8938 41.5964 26.5853 39.5217 26.5781 37.3906C26.5781 34.7799 25.541 32.2761 23.695 30.4301Z" fill="#1B30EB"/>
<path fill-rule="evenodd" clip-rule="evenodd" d="M23.297 47.2124C21.3545 48.5103 19.0707 49.2031 16.7344 49.2031C13.6015 49.2031 10.5969 47.9586 8.38168 45.7433C6.1664 43.5281 4.92188 40.5235 4.92188 37.3906C4.92188 35.0544 5.61467 32.7705 6.91264 30.828C8.21062 28.8854 10.0555 27.3714 12.2139 26.4773C14.3724 25.5833 16.7475 25.3493 19.0389 25.8051C21.3303 26.2609 23.4351 27.3859 25.0871 29.0379C26.7391 30.69 27.8641 32.7947 28.3199 35.0861C28.7757 37.3775 28.5418 39.7526 27.6477 41.9111C26.7536 44.0695 25.2396 45.9144 23.297 47.2124ZM16.7344 47.2543C18.8675 47.2543 20.9419 46.5558 22.6406 45.2656V42.3125C22.6406 42.0514 22.5369 41.8011 22.3523 41.6165C22.1677 41.4319 21.9173 41.3281 21.6562 41.3281H11.8125C11.5514 41.3281 11.301 41.4319 11.1164 41.6165C10.9318 41.8011 10.8281 42.0514 10.8281 42.3125V45.2656C12.5268 46.5558 14.6013 47.2543 16.7344 47.2543ZM23.695 30.4301C21.8489 28.584 19.3451 27.5469 16.7344 27.5469C14.1237 27.5469 11.6199 28.584 9.77379 30.4301C7.92773 32.2761 6.89062 34.7799 6.89062 37.3906C6.88345 39.5217 7.575 41.5964 8.85938 43.2969V42.3125C8.85938 41.5293 9.17051 40.7782 9.72433 40.2243C10.2781 39.6705 11.0293 39.3594 11.8125 39.3594L16.7344 39.3594L21.6562 39.3594C22.4395 39.3594 23.1906 39.6705 23.7444 40.2243C24.2982 40.7782 24.6094 41.5293 24.6094 42.3125V43.2969C25.8938 41.5964 26.5853 39.5217 26.5781 37.3906C26.5781 34.7799 25.541 32.2761 23.695 30.4301Z" fill="url(#paint1_radial_169_273)"/>
<path d="M5.90625 57.0781V50.1875H3.9375V57.0781H5.90625Z" fill="black"/>
<path d="M5.90625 57.0781V50.1875H3.9375V57.0781H5.90625Z" fill="#1B30EB"/>
<path d="M5.90625 57.0781V50.1875H3.9375V57.0781H5.90625Z" fill="url(#paint2_radial_169_273)"/>
<path d="M17.7188 50.1875V57.0781H15.75V50.1875H17.7188Z" fill="black"/>
<path d="M17.7188 50.1875V57.0781H15.75V50.1875H17.7188Z" fill="#1B30EB"/>
<path d="M17.7188 50.1875V57.0781H15.75V50.1875H17.7188Z" fill="url(#paint3_radial_169_273)"/>
<path d="M8.85938 55.1094H6.89062V57.0781H8.85938V55.1094Z" fill="black"/>
<path d="M8.85938 55.1094H6.89062V57.0781H8.85938V55.1094Z" fill="#1B30EB"/>
<path d="M8.85938 55.1094H6.89062V57.0781H8.85938V55.1094Z" fill="url(#paint4_radial_169_273)"/>
<path d="M6.89062 50.1875H8.85938V54.125H6.89062V50.1875Z" fill="black"/>
<path d="M6.89062 50.1875H8.85938V54.125H6.89062V50.1875Z" fill="#1B30EB"/>
<path d="M6.89062 50.1875H8.85938V54.125H6.89062V50.1875Z" fill="url(#paint5_radial_169_273)"/>
<path d="M11.8125 57.0781V55.1094H9.84375V57.0781H11.8125Z" fill="black"/>
<path d="M11.8125 57.0781V55.1094H9.84375V57.0781H11.8125Z" fill="#1B30EB"/>
<path d="M11.8125 57.0781V55.1094H9.84375V57.0781H11.8125Z" fill="url(#paint6_radial_169_273)"/>
<path d="M9.84375 50.1875H11.8125V54.125H9.84375V50.1875Z" fill="black"/>
<path d="M9.84375 50.1875H11.8125V54.125H9.84375V50.1875Z" fill="#1B30EB"/>
<path d="M9.84375 50.1875H11.8125V54.125H9.84375V50.1875Z" fill="url(#paint7_radial_169_273)"/>
<path d="M14.7656 55.1094H12.7969V57.0781H14.7656V55.1094Z" fill="black"/>
<path d="M14.7656 55.1094H12.7969V57.0781H14.7656V55.1094Z" fill="#1B30EB"/>
<path d="M14.7656 55.1094H12.7969V57.0781H14.7656V55.1094Z" fill="url(#paint8_radial_169_273)"/>
<path d="M12.7969 50.1875H14.7656V54.125H12.7969V50.1875Z" fill="black"/>
<path d="M12.7969 50.1875H14.7656V54.125H12.7969V50.1875Z" fill="#1B30EB"/>
<path d="M12.7969 50.1875H14.7656V54.125H12.7969V50.1875Z" fill="url(#paint9_radial_169_273)"/>
<path d="M29.5312 50.1875H27.5625V57.0781H29.5312V50.1875Z" fill="black"/>
<path d="M29.5312 50.1875H27.5625V57.0781H29.5312V50.1875Z" fill="#1B30EB"/>
<path d="M29.5312 50.1875H27.5625V57.0781H29.5312V50.1875Z" fill="url(#paint10_radial_169_273)"/>
<path d="M18.7031 55.1094H20.6719V57.0781H18.7031V55.1094Z" fill="black"/>
<path d="M18.7031 55.1094H20.6719V57.0781H18.7031V55.1094Z" fill="#1B30EB"/>
<path d="M18.7031 55.1094H20.6719V57.0781H18.7031V55.1094Z" fill="url(#paint11_radial_169_273)"/>
<path d="M20.6719 50.1875H18.7031V54.125H20.6719V50.1875Z" fill="black"/>
<path d="M20.6719 50.1875H18.7031V54.125H20.6719V50.1875Z" fill="#1B30EB"/>
<path d="M20.6719 50.1875H18.7031V54.125H20.6719V50.1875Z" fill="url(#paint12_radial_169_273)"/>
<path d="M23.625 55.1094V57.0781H21.6562V55.1094H23.625Z" fill="black"/>
<path d="M23.625 55.1094V57.0781H21.6562V55.1094H23.625Z" fill="#1B30EB"/>
<path d="M23.625 55.1094V57.0781H21.6562V55.1094H23.625Z" fill="url(#paint13_radial_169_273)"/>
<path d="M23.625 54.125V50.1875H21.6562V54.125H23.625Z" fill="black"/>
<path d="M23.625 54.125V50.1875H21.6562V54.125H23.625Z" fill="#1B30EB"/>
<path d="M23.625 54.125V50.1875H21.6562V54.125H23.625Z" fill="url(#paint14_radial_169_273)"/>
<path d="M24.6094 55.1094H26.5781V57.0781H24.6094V55.1094Z" fill="black"/>
<path d="M24.6094 55.1094H26.5781V57.0781H24.6094V55.1094Z" fill="#1B30EB"/>
<path d="M24.6094 55.1094H26.5781V57.0781H24.6094V55.1094Z" fill="url(#paint15_radial_169_273)"/>
<path d="M26.5781 50.1875H24.6094V54.125H26.5781V50.1875Z" fill="black"/>
<path d="M26.5781 50.1875H24.6094V54.125H26.5781V50.1875Z" fill="#1B30EB"/>
<path d="M26.5781 50.1875H24.6094V54.125H26.5781V50.1875Z" fill="url(#paint16_radial_169_273)"/>
<path fill-rule="evenodd" clip-rule="evenodd" d="M0 57.0781V17.7031C0 16.9199 0.311132 16.1688 0.86495 15.615C1.41877 15.0611 2.16991 14.75 2.95312 14.75H6.60516L0.137813 2.42564C0.0514159 2.276 0.00593117 2.10625 0.00593117 1.93345C0.00593117 1.76066 0.0514159 1.59091 0.137813 1.44127C0.226152 1.29615 0.350545 1.17637 0.498891 1.09357C0.647238 1.01077 0.814489 0.967777 0.984375 0.968767H10.8281C11.0062 0.969242 11.1808 1.01802 11.3334 1.10989C11.4859 1.20177 11.6107 1.3333 11.6944 1.49049L16.7344 11.0586L21.7744 1.49049C21.8581 1.3333 21.9828 1.20177 22.1354 1.10989C22.2879 1.01802 22.4625 0.969242 22.6406 0.968767H32.4844C32.6541 0.969219 32.8208 1.01354 32.9683 1.09743C33.1158 1.18131 33.2392 1.30191 33.3264 1.44753C33.4135 1.59314 33.4616 1.75881 33.4658 1.92847C33.4701 2.09813 33.4304 2.266 33.3506 2.4158L26.8636 14.75H30.5156C31.2988 14.75 32.05 15.0611 32.6038 15.615C33.1576 16.1688 33.4688 16.9199 33.4688 17.7031V57.0781C33.4688 57.8614 33.1576 58.6125 32.6038 59.1663C32.05 59.7201 31.2988 60.0313 30.5156 60.0313H2.95312C2.16991 60.0313 1.41877 59.7201 0.86495 59.1663C0.311132 58.6125 0 57.8614 0 57.0781ZM30.8503 2.93752H23.2312L17.8467 13.175L21.2625 19.6719H22.05L30.8503 2.93752ZM24.5272 22.0208C24.5796 21.9008 24.6076 21.7716 24.6094 21.6406C24.6063 21.4022 24.5168 21.173 24.3575 20.9955C24.1982 20.8181 23.9799 20.7045 23.7431 20.676L23.5069 21.1189C23.4232 21.2761 23.2984 21.4076 23.1459 21.4995C22.9933 21.5914 22.8187 21.6402 22.6406 21.6406H10.8281C10.65 21.6402 10.4754 21.5914 10.3229 21.4995C10.1703 21.4076 10.0456 21.2761 9.96188 21.1189L9.72562 20.676C9.51334 20.6965 9.31489 20.7905 9.16453 20.9417C9.06974 21.0321 8.99392 21.1404 8.94152 21.2604C8.88912 21.3804 8.8612 21.5097 8.85938 21.6406C8.85938 21.9017 8.96309 22.1521 9.14769 22.3367C9.3323 22.5213 9.58268 22.625 9.84375 22.625H23.625C23.7518 22.6271 23.8777 22.6028 23.9946 22.5536C24.1115 22.5045 24.217 22.4316 24.3042 22.3395C24.399 22.2492 24.4748 22.1409 24.5272 22.0208ZM10.2375 2.93752H2.61844L11.4188 19.6719H19.0378L10.2375 2.93752ZM8.78063 18.8844L7.63875 16.7188H2.95312C2.69205 16.7188 2.44167 16.8225 2.25707 17.0071C2.07246 17.1917 1.96875 17.4421 1.96875 17.7031V57.0781C1.96875 57.3392 2.07246 57.5896 2.25707 57.7742C2.44167 57.9588 2.69205 58.0625 2.95312 58.0625H30.5156C30.7767 58.0625 31.0271 57.9588 31.2117 57.7742C31.3963 57.5896 31.5 57.3392 31.5 57.0781V17.7031C31.5 17.4421 31.3963 17.1917 31.2117 17.0071C31.0271 16.8225 30.7767 16.7188 30.5156 16.7188H25.83L24.6783 18.8942C25.2351 19.1068 25.7146 19.4829 26.0537 19.9731C26.3928 20.4633 26.5756 21.0446 26.5781 21.6406C26.5781 22.4239 26.267 23.175 25.7132 23.7288C25.1594 24.2826 24.4082 24.5938 23.625 24.5938H9.84375C9.06053 24.5938 8.30939 24.2826 7.75557 23.7288C7.20176 23.175 6.89062 22.4239 6.89062 21.6406C6.89481 21.2485 6.97705 20.8612 7.13253 20.5012C7.28802 20.1412 7.51365 19.8158 7.79625 19.5439C8.07747 19.2611 8.41207 19.0369 8.78063 18.8844Z" fill="black"/>
<path fill-rule="evenodd" clip-rule="evenodd" d="M0 57.0781V17.7031C0 16.9199 0.311132 16.1688 0.86495 15.615C1.41877 15.0611 2.16991 14.75 2.95312 14.75H6.60516L0.137813 2.42564C0.0514159 2.276 0.00593117 2.10625 0.00593117 1.93345C0.00593117 1.76066 0.0514159 1.59091 0.137813 1.44127C0.226152 1.29615 0.350545 1.17637 0.498891 1.09357C0.647238 1.01077 0.814489 0.967777 0.984375 0.968767H10.8281C11.0062 0.969242 11.1808 1.01802 11.3334 1.10989C11.4859 1.20177 11.6107 1.3333 11.6944 1.49049L16.7344 11.0586L21.7744 1.49049C21.8581 1.3333 21.9828 1.20177 22.1354 1.10989C22.2879 1.01802 22.4625 0.969242 22.6406 0.968767H32.4844C32.6541 0.969219 32.8208 1.01354 32.9683 1.09743C33.1158 1.18131 33.2392 1.30191 33.3264 1.44753C33.4135 1.59314 33.4616 1.75881 33.4658 1.92847C33.4701 2.09813 33.4304 2.266 33.3506 2.4158L26.8636 14.75H30.5156C31.2988 14.75 32.05 15.0611 32.6038 15.615C33.1576 16.1688 33.4688 16.9199 33.4688 17.7031V57.0781C33.4688 57.8614 33.1576 58.6125 32.6038 59.1663C32.05 59.7201 31.2988 60.0313 30.5156 60.0313H2.95312C2.16991 60.0313 1.41877 59.7201 0.86495 59.1663C0.311132 58.6125 0 57.8614 0 57.0781ZM30.8503 2.93752H23.2312L17.8467 13.175L21.2625 19.6719H22.05L30.8503 2.93752ZM24.5272 22.0208C24.5796 21.9008 24.6076 21.7716 24.6094 21.6406C24.6063 21.4022 24.5168 21.173 24.3575 20.9955C24.1982 20.8181 23.9799 20.7045 23.7431 20.676L23.5069 21.1189C23.4232 21.2761 23.2984 21.4076 23.1459 21.4995C22.9933 21.5914 22.8187 21.6402 22.6406 21.6406H10.8281C10.65 21.6402 10.4754 21.5914 10.3229 21.4995C10.1703 21.4076 10.0456 21.2761 9.96188 21.1189L9.72562 20.676C9.51334 20.6965 9.31489 20.7905 9.16453 20.9417C9.06974 21.0321 8.99392 21.1404 8.94152 21.2604C8.88912 21.3804 8.8612 21.5097 8.85938 21.6406C8.85938 21.9017 8.96309 22.1521 9.14769 22.3367C9.3323 22.5213 9.58268 22.625 9.84375 22.625H23.625C23.7518 22.6271 23.8777 22.6028 23.9946 22.5536C24.1115 22.5045 24.217 22.4316 24.3042 22.3395C24.399 22.2492 24.4748 22.1409 24.5272 22.0208ZM10.2375 2.93752H2.61844L11.4188 19.6719H19.0378L10.2375 2.93752ZM8.78063 18.8844L7.63875 16.7188H2.95312C2.69205 16.7188 2.44167 16.8225 2.25707 17.0071C2.07246 17.1917 1.96875 17.4421 1.96875 17.7031V57.0781C1.96875 57.3392 2.07246 57.5896 2.25707 57.7742C2.44167 57.9588 2.69205 58.0625 2.95312 58.0625H30.5156C30.7767 58.0625 31.0271 57.9588 31.2117 57.7742C31.3963 57.5896 31.5 57.3392 31.5 57.0781V17.7031C31.5 17.4421 31.3963 17.1917 31.2117 17.0071C31.0271 16.8225 30.7767 16.7188 30.5156 16.7188H25.83L24.6783 18.8942C25.2351 19.1068 25.7146 19.4829 26.0537 19.9731C26.3928 20.4633 26.5756 21.0446 26.5781 21.6406C26.5781 22.4239 26.267 23.175 25.7132 23.7288C25.1594 24.2826 24.4082 24.5938 23.625 24.5938H9.84375C9.06053 24.5938 8.30939 24.2826 7.75557 23.7288C7.20176 23.175 6.89062 22.4239 6.89062 21.6406C6.89481 21.2485 6.97705 20.8612 7.13253 20.5012C7.28802 20.1412 7.51365 19.8158 7.79625 19.5439C8.07747 19.2611 8.41207 19.0369 8.78063 18.8844Z" fill="#1B30EB"/>
<path fill-rule="evenodd" clip-rule="evenodd" d="M0 57.0781V17.7031C0 16.9199 0.311132 16.1688 0.86495 15.615C1.41877 15.0611 2.16991 14.75 2.95312 14.75H6.60516L0.137813 2.42564C0.0514159 2.276 0.00593117 2.10625 0.00593117 1.93345C0.00593117 1.76066 0.0514159 1.59091 0.137813 1.44127C0.226152 1.29615 0.350545 1.17637 0.498891 1.09357C0.647238 1.01077 0.814489 0.967777 0.984375 0.968767H10.8281C11.0062 0.969242 11.1808 1.01802 11.3334 1.10989C11.4859 1.20177 11.6107 1.3333 11.6944 1.49049L16.7344 11.0586L21.7744 1.49049C21.8581 1.3333 21.9828 1.20177 22.1354 1.10989C22.2879 1.01802 22.4625 0.969242 22.6406 0.968767H32.4844C32.6541 0.969219 32.8208 1.01354 32.9683 1.09743C33.1158 1.18131 33.2392 1.30191 33.3264 1.44753C33.4135 1.59314 33.4616 1.75881 33.4658 1.92847C33.4701 2.09813 33.4304 2.266 33.3506 2.4158L26.8636 14.75H30.5156C31.2988 14.75 32.05 15.0611 32.6038 15.615C33.1576 16.1688 33.4688 16.9199 33.4688 17.7031V57.0781C33.4688 57.8614 33.1576 58.6125 32.6038 59.1663C32.05 59.7201 31.2988 60.0313 30.5156 60.0313H2.95312C2.16991 60.0313 1.41877 59.7201 0.86495 59.1663C0.311132 58.6125 0 57.8614 0 57.0781ZM30.8503 2.93752H23.2312L17.8467 13.175L21.2625 19.6719H22.05L30.8503 2.93752ZM24.5272 22.0208C24.5796 21.9008 24.6076 21.7716 24.6094 21.6406C24.6063 21.4022 24.5168 21.173 24.3575 20.9955C24.1982 20.8181 23.9799 20.7045 23.7431 20.676L23.5069 21.1189C23.4232 21.2761 23.2984 21.4076 23.1459 21.4995C22.9933 21.5914 22.8187 21.6402 22.6406 21.6406H10.8281C10.65 21.6402 10.4754 21.5914 10.3229 21.4995C10.1703 21.4076 10.0456 21.2761 9.96188 21.1189L9.72562 20.676C9.51334 20.6965 9.31489 20.7905 9.16453 20.9417C9.06974 21.0321 8.99392 21.1404 8.94152 21.2604C8.88912 21.3804 8.8612 21.5097 8.85938 21.6406C8.85938 21.9017 8.96309 22.1521 9.14769 22.3367C9.3323 22.5213 9.58268 22.625 9.84375 22.625H23.625C23.7518 22.6271 23.8777 22.6028 23.9946 22.5536C24.1115 22.5045 24.217 22.4316 24.3042 22.3395C24.399 22.2492 24.4748 22.1409 24.5272 22.0208ZM10.2375 2.93752H2.61844L11.4188 19.6719H19.0378L10.2375 2.93752ZM8.78063 18.8844L7.63875 16.7188H2.95312C2.69205 16.7188 2.44167 16.8225 2.25707 17.0071C2.07246 17.1917 1.96875 17.4421 1.96875 17.7031V57.0781C1.96875 57.3392 2.07246 57.5896 2.25707 57.7742C2.44167 57.9588 2.69205 58.0625 2.95312 58.0625H30.5156C30.7767 58.0625 31.0271 57.9588 31.2117 57.7742C31.3963 57.5896 31.5 57.3392 31.5 57.0781V17.7031C31.5 17.4421 31.3963 17.1917 31.2117 17.0071C31.0271 16.8225 30.7767 16.7188 30.5156 16.7188H25.83L24.6783 18.8942C25.2351 19.1068 25.7146 19.4829 26.0537 19.9731C26.3928 20.4633 26.5756 21.0446 26.5781 21.6406C26.5781 22.4239 26.267 23.175 25.7132 23.7288C25.1594 24.2826 24.4082 24.5938 23.625 24.5938H9.84375C9.06053 24.5938 8.30939 24.2826 7.75557 23.7288C7.20176 23.175 6.89062 22.4239 6.89062 21.6406C6.89481 21.2485 6.97705 20.8612 7.13253 20.5012C7.28802 20.1412 7.51365 19.8158 7.79625 19.5439C8.07747 19.2611 8.41207 19.0369 8.78063 18.8844Z" fill="url(#paint17_radial_169_273)"/>
<defs>
<radialGradient id="paint0_radial_169_273" cx="0" cy="0" r="1" gradientUnits="userSpaceOnUse" gradientTransform="translate(6.059 9.62447) rotate(60.2209) scale(59.8358 205.997)">
<stop stop-color="#1B30EB"/>
<stop offset="1" stop-color="#1B30EB" stop-opacity="0"/>
</radialGradient>
<radialGradient id="paint1_radial_169_273" cx="0" cy="0" r="1" gradientUnits="userSpaceOnUse" gradientTransform="translate(6.059 9.62447) rotate(60.2209) scale(59.8358 205.997)">
<stop stop-color="#1B30EB"/>
<stop offset="1" stop-color="#1B30EB" stop-opacity="0"/>
</radialGradient>
<radialGradient id="paint2_radial_169_273" cx="0" cy="0" r="1" gradientUnits="userSpaceOnUse" gradientTransform="translate(6.059 9.62447) rotate(60.2209) scale(59.8358 205.997)">
<stop stop-color="#1B30EB"/>
<stop offset="1" stop-color="#1B30EB" stop-opacity="0"/>
</radialGradient>
<radialGradient id="paint3_radial_169_273" cx="0" cy="0" r="1" gradientUnits="userSpaceOnUse" gradientTransform="translate(6.059 9.62447) rotate(60.2209) scale(59.8358 205.997)">
<stop stop-color="#1B30EB"/>
<stop offset="1" stop-color="#1B30EB" stop-opacity="0"/>
</radialGradient>
<radialGradient id="paint4_radial_169_273" cx="0" cy="0" r="1" gradientUnits="userSpaceOnUse" gradientTransform="translate(6.059 9.62447) rotate(60.2209) scale(59.8358 205.997)">
<stop stop-color="#1B30EB"/>
<stop offset="1" stop-color="#1B30EB" stop-opacity="0"/>
</radialGradient>
<radialGradient id="paint5_radial_169_273" cx="0" cy="0" r="1" gradientUnits="userSpaceOnUse" gradientTransform="translate(6.059 9.62447) rotate(60.2209) scale(59.8358 205.997)">
<stop stop-color="#1B30EB"/>
<stop offset="1" stop-color="#1B30EB" stop-opacity="0"/>
</radialGradient>
<radialGradient id="paint6_radial_169_273" cx="0" cy="0" r="1" gradientUnits="userSpaceOnUse" gradientTransform="translate(6.059 9.62447) rotate(60.2209) scale(59.8358 205.997)">
<stop stop-color="#1B30EB"/>
<stop offset="1" stop-color="#1B30EB" stop-opacity="0"/>
</radialGradient>
<radialGradient id="paint7_radial_169_273" cx="0" cy="0" r="1" gradientUnits="userSpaceOnUse" gradientTransform="translate(6.059 9.62447) rotate(60.2209) scale(59.8358 205.997)">
<stop stop-color="#1B30EB"/>
<stop offset="1" stop-color="#1B30EB" stop-opacity="0"/>
</radialGradient>
<radialGradient id="paint8_radial_169_273" cx="0" cy="0" r="1" gradientUnits="userSpaceOnUse" gradientTransform="translate(6.059 9.62447) rotate(60.2209) scale(59.8358 205.997)">
<stop stop-color="#1B30EB"/>
<stop offset="1" stop-color="#1B30EB" stop-opacity="0"/>
</radialGradient>
<radialGradient id="paint9_radial_169_273" cx="0" cy="0" r="1" gradientUnits="userSpaceOnUse" gradientTransform="translate(6.059 9.62447) rotate(60.2209) scale(59.8358 205.997)">
<stop stop-color="#1B30EB"/>
<stop offset="1" stop-color="#1B30EB" stop-opacity="0"/>
</radialGradient>
<radialGradient id="paint10_radial_169_273" cx="0" cy="0" r="1" gradientUnits="userSpaceOnUse" gradientTransform="translate(6.059 9.62447) rotate(60.2209) scale(59.8358 205.997)">
<stop stop-color="#1B30EB"/>
<stop offset="1" stop-color="#1B30EB" stop-opacity="0"/>
</radialGradient>
<radialGradient id="paint11_radial_169_273" cx="0" cy="0" r="1" gradientUnits="userSpaceOnUse" gradientTransform="translate(6.059 9.62447) rotate(60.2209) scale(59.8358 205.997)">
<stop stop-color="#1B30EB"/>
<stop offset="1" stop-color="#1B30EB" stop-opacity="0"/>
</radialGradient>
<radialGradient id="paint12_radial_169_273" cx="0" cy="0" r="1" gradientUnits="userSpaceOnUse" gradientTransform="translate(6.059 9.62447) rotate(60.2209) scale(59.8358 205.997)">
<stop stop-color="#1B30EB"/>
<stop offset="1" stop-color="#1B30EB" stop-opacity="0"/>
</radialGradient>
<radialGradient id="paint13_radial_169_273" cx="0" cy="0" r="1" gradientUnits="userSpaceOnUse" gradientTransform="translate(6.059 9.62447) rotate(60.2209) scale(59.8358 205.997)">
<stop stop-color="#1B30EB"/>
<stop offset="1" stop-color="#1B30EB" stop-opacity="0"/>
</radialGradient>
<radialGradient id="paint14_radial_169_273" cx="0" cy="0" r="1" gradientUnits="userSpaceOnUse" gradientTransform="translate(6.059 9.62447) rotate(60.2209) scale(59.8358 205.997)">
<stop stop-color="#1B30EB"/>
<stop offset="1" stop-color="#1B30EB" stop-opacity="0"/>
</radialGradient>
<radialGradient id="paint15_radial_169_273" cx="0" cy="0" r="1" gradientUnits="userSpaceOnUse" gradientTransform="translate(6.059 9.62447) rotate(60.2209) scale(59.8358 205.997)">
<stop stop-color="#1B30EB"/>
<stop offset="1" stop-color="#1B30EB" stop-opacity="0"/>
</radialGradient>
<radialGradient id="paint16_radial_169_273" cx="0" cy="0" r="1" gradientUnits="userSpaceOnUse" gradientTransform="translate(6.059 9.62447) rotate(60.2209) scale(59.8358 205.997)">
<stop stop-color="#1B30EB"/>
<stop offset="1" stop-color="#1B30EB" stop-opacity="0"/>
</radialGradient>
<radialGradient id="paint17_radial_169_273" cx="0" cy="0" r="1" gradientUnits="userSpaceOnUse" gradientTransform="translate(6.059 9.62447) rotate(60.2209) scale(59.8358 205.997)">
<stop stop-color="#1B30EB"/>
<stop offset="1" stop-color="#1B30EB" stop-opacity="0"/>
</radialGradient>
</defs>
</svg>
