<svg width="56" height="60" viewBox="0 0 56 60" fill="none" xmlns="http://www.w3.org/2000/svg">
<path d="M16.3889 14.1111V3M38.6111 14.1111V3M13.6111 25.2222H41.3889M8.05556 53H46.9444C48.4179 53 49.8309 52.4147 50.8728 51.3728C51.9147 50.3309 52.5 48.9179 52.5 47.4444V14.1111C52.5 12.6377 51.9147 11.2246 50.8728 10.1827C49.8309 9.14087 48.4179 8.55556 46.9444 8.55556H8.05556C6.58213 8.55556 5.16905 9.14087 4.12718 10.1827C3.08532 11.2246 2.5 12.6377 2.5 14.1111V47.4444C2.5 48.9179 3.08532 50.3309 4.12718 51.3728C5.16905 52.4147 6.58213 53 8.05556 53Z" stroke="#BE2E39" stroke-width="5" stroke-linecap="round" stroke-linejoin="round"/>
</svg>
