<svg width="66" height="57" viewBox="0 0 66 57" fill="none" xmlns="http://www.w3.org/2000/svg">
<g clip-path="url(#clip0_429_857)">
<path d="M31.6459 8.125C34.3083 8.12521 36.8975 8.99683 39.0179 10.6068C41.1384 12.2167 42.6737 14.4764 43.3893 17.0408L43.5301 17.596L48.5947 16.3313C48.9648 16.2391 49.3503 16.2262 49.7258 16.2934C50.1013 16.3606 50.4584 16.5063 50.7737 16.7211C51.089 16.9359 51.3553 17.2149 51.5553 17.5397C51.7552 17.8646 51.8843 18.228 51.934 18.6062L51.9584 18.9583V23.8604C53.4853 25.3244 54.7366 27.0508 55.6526 28.9575L56.0263 29.7917H57.3751C58.0384 29.7918 58.6787 30.0353 59.1744 30.4761C59.6701 30.9169 59.9868 31.5243 60.0645 32.1831L60.0834 32.5V40.625C60.0835 41.0708 59.9735 41.5097 59.7633 41.9027C59.553 42.2958 59.249 42.6309 58.8782 42.8783L58.5857 43.0462L55.4224 44.6306C54.1274 47.1361 52.2515 49.2952 49.9515 50.9275L49.2501 51.3988V54.1667C49.25 54.83 49.0065 55.4703 48.5656 55.966C48.1248 56.4617 47.5174 56.7784 46.8586 56.856L46.5418 56.875H38.4167C37.7534 56.8749 37.1131 56.6314 36.6174 56.1906C36.1217 55.7498 35.805 55.1423 35.7274 54.4835L35.7084 54.1667H33.0001C33 54.83 32.7565 55.4703 32.3156 55.966C31.8748 56.4617 31.2674 56.7784 30.6086 56.856L30.2917 56.875H22.1667C21.5034 56.8749 20.8631 56.6314 20.3674 56.1906C19.8717 55.7498 19.555 55.1423 19.4774 54.4835L19.4584 54.1667V51.3988C17.5019 50.1479 15.8118 48.5227 14.4853 46.6166C13.1588 44.7105 12.222 42.5611 11.7288 40.2919C10.1318 39.8166 8.71937 38.862 7.68273 37.5575C6.64608 36.253 6.03528 34.6615 5.933 32.9983L5.91675 32.5V31.1458C5.91751 30.4555 6.18184 29.7916 6.65571 29.2896C7.12959 28.7877 7.77725 28.4856 8.46636 28.4452C9.15547 28.4047 9.83403 28.6289 10.3634 29.072C10.8927 29.515 11.2329 30.1435 11.3145 30.829L11.3334 31.1458V32.5C11.3334 32.9008 11.4201 33.2827 11.5772 33.624C11.9906 31.1857 12.9127 28.8618 14.2837 26.8035C15.6546 24.7452 17.4436 22.9986 19.5342 21.6775C19.3421 19.9726 19.5121 18.2463 20.0331 16.6115C20.5541 14.9768 21.4144 13.4706 22.5577 12.1912C23.701 10.9119 25.1015 9.88845 26.6676 9.18774C28.2338 8.48702 29.9302 8.12488 31.6459 8.125ZM46.5418 22.425L39.0722 24.2938L38.7472 24.356L38.4167 24.375H28.9376C26.1991 24.3732 23.5398 25.2937 21.3885 26.9881C19.2372 28.6826 17.7192 31.0522 17.0794 33.7148C16.4395 36.3775 16.7151 39.1781 17.8616 41.665C19.0081 44.1519 20.9588 46.1802 23.399 47.4229C23.7922 47.6239 24.1303 47.9181 24.3838 48.2797C24.6373 48.6412 24.7985 49.0593 24.8534 49.4975L24.8751 49.8333V51.4583H27.5834C27.5835 50.795 27.827 50.1547 28.2679 49.659C28.7087 49.1633 29.3161 48.8466 29.9749 48.769L30.2917 48.75H38.4167C39.0801 48.7501 39.7204 48.9936 40.2161 49.4344C40.7118 49.8752 41.0285 50.4827 41.1061 51.1415L41.1251 51.4583H43.8334V49.8333C43.8337 49.3346 43.9716 48.8456 44.2321 48.4203C44.4925 47.995 44.8653 47.6498 45.3095 47.4229C47.7947 46.1506 49.7707 44.0676 50.9103 41.5187C51.1134 41.0628 51.4386 40.6719 51.8501 40.3894L52.1724 40.1998L54.6668 38.9512V35.2083H54.1061C53.5164 35.2082 52.9429 35.0155 52.4726 34.6596C52.0024 34.3038 51.6611 33.8042 51.5007 33.2367C50.8232 30.8542 49.4365 28.7344 47.5249 27.1592C46.9945 26.721 46.6507 26.0974 46.5634 25.415L46.5418 25.071V22.4277V22.425ZM43.8334 29.7917C44.5517 29.7917 45.2406 30.077 45.7485 30.5849C46.2564 31.0928 46.5418 31.7817 46.5418 32.5C46.5418 33.2183 46.2564 33.9072 45.7485 34.4151C45.2406 34.923 44.5517 35.2083 43.8334 35.2083C43.1151 35.2083 42.4262 34.923 41.9183 34.4151C41.4104 33.9072 41.1251 33.2183 41.1251 32.5C41.1251 31.7817 41.4104 31.0928 41.9183 30.5849C42.4262 30.077 43.1151 29.7917 43.8334 29.7917ZM31.6459 13.5417C30.0055 13.5417 28.4208 14.1372 27.1864 15.2177C25.952 16.2982 25.1519 17.79 24.9347 19.416C26.2471 19.1113 27.5902 18.9577 28.9376 18.9583H38.0836L38.2732 18.9123C37.952 17.3928 37.1183 16.0299 35.9117 15.0521C34.7051 14.0743 33.199 13.541 31.6459 13.5417Z" fill="#BE2E39"/>
</g>
<defs>
<clipPath id="clip0_429_857">
<rect width="65" height="57" fill="white" transform="translate(0.5)"/>
</clipPath>
</defs>
</svg>
