<svg width="59" height="60" viewBox="0 0 59 60" fill="none" xmlns="http://www.w3.org/2000/svg">
<g clip-path="url(#clip0_131_176)">
<path fill-rule="evenodd" clip-rule="evenodd" d="M59 23.7928C59 22.5585 58.0127 21.5546 56.7991 21.5546H55.4359C54.91 21.5546 54.427 21.7436 54.048 22.0577L52.9216 18.4271C52.4678 16.964 51.1491 15.9811 49.6403 15.9811H34.7318C34.3761 13.856 33.3716 12.0985 32.2508 10.3179H33.3681C36.1999 10.3179 36.2046 5.84152 33.3681 5.84152H32.0049C31.479 5.84152 30.996 6.03054 30.6171 6.34454L29.4906 2.71366C29.0368 1.25082 27.7181 0.267883 26.2093 0.267883H16.2282C15.1452 0.267883 15.096 2.02794 16.2282 2.02794H26.2093C26.9593 2.02794 27.6146 2.5163 27.8402 3.2432L29.489 8.55775H6.00494L7.65375 3.2432C7.87932 2.5163 8.53469 2.02794 9.28467 2.02794H10.5138C11.5968 2.02794 11.6461 0.267883 10.5138 0.267883H9.28455C7.77559 0.267883 6.45689 1.25082 6.0031 2.71366L4.87674 6.34454C4.49772 6.03043 4.01473 5.84152 3.48882 5.84152H2.12559C-0.706221 5.84152 -0.710836 10.3179 2.12559 10.3179H3.24306C1.74771 12.6933 0.597244 15.0547 0.597244 17.9581V26.2531C0.597244 27.3861 1.5038 28.3079 2.61827 28.3079H4.19876C5.31312 28.3079 6.21979 27.3863 6.21979 26.2531V23.3136H23.4077C23.3744 23.4681 23.3557 23.6282 23.3557 23.7928C23.3557 25.0271 24.343 26.0311 25.5566 26.0311H26.6739C25.5513 27.8147 24.5547 29.5619 24.1947 31.6921H15.0344C13.5254 31.6921 12.2067 32.675 11.7529 34.138L10.6266 37.7687C10.2475 37.4546 9.76454 37.2656 9.23863 37.2656H7.87539C6.66181 37.2656 5.67449 38.2696 5.67449 39.5038C5.67449 40.7379 6.66181 41.7421 7.87539 41.7421H8.99287L8.1695 43.0499C6.97726 44.9441 6.34705 47.1337 6.34705 49.3823V57.6772C6.34705 58.8101 7.2536 59.7319 8.36807 59.7319H9.94869C11.063 59.7319 11.9697 58.8102 11.9697 57.6772V54.7378H35.0076V57.6774C35.0076 58.8103 35.9141 59.7321 37.0286 59.7321H38.6091C39.7235 59.7321 40.6301 58.8104 40.6301 57.6774L40.6466 49.3825C40.6466 48.2812 38.9159 48.2311 38.9159 49.3825V52.9777H38.1015L38.0755 51.2513C38.0508 49.6192 36.7248 48.2912 35.1196 48.2912C32.4362 48.2912 30.0053 49.9057 28.9269 52.4043L28.6793 52.9777H18.3147L18.0672 52.4043C16.9886 49.9057 14.5577 48.2912 11.8744 48.2912C10.2692 48.2912 8.94325 49.6189 8.91844 51.2513L8.89202 52.9777H8.07766V49.3824C8.07766 47.4709 8.61349 45.6093 9.627 43.9991L11.0477 41.7422H35.9455C36.6618 42.88 37.4813 44.0123 38.0329 45.2452C38.4816 46.2474 40.0772 45.5638 39.608 44.5157C39.1694 43.5362 38.5693 42.6458 38.0005 41.7422H39.1179C40.5003 41.7422 41.5614 40.3972 41.2674 39.0267H52.6885V41.9662C52.6885 43.0992 53.5951 44.021 54.7096 44.021H56.2902C57.4045 44.021 58.3112 43.0993 58.3112 41.9662L58.3276 33.6714C58.3276 31.4227 57.6974 29.233 56.5051 27.3391L55.6819 26.0312H56.7992C58.0127 26.0311 59 25.0271 59 23.7928ZM38.8992 57.6773C38.8992 57.8398 38.7689 57.9719 38.6089 57.9719H37.0284C36.8683 57.9719 36.7381 57.8398 36.7381 57.6773V54.7378H38.8992V57.6773ZM35.1193 50.0512C35.7848 50.0512 36.3344 50.6017 36.3446 51.2783L36.3704 52.9776H30.5714C31.4017 51.1949 33.1708 50.0512 35.1193 50.0512ZM10.6486 51.2785C10.6589 50.6017 11.2087 50.0512 11.8741 50.0512C13.8224 50.0512 15.5917 51.1949 16.4219 52.9776H10.623L10.6486 51.2785ZM10.2388 54.7378V57.6774C10.2388 57.8399 10.1086 57.9721 9.94845 57.9721H8.36796C8.20792 57.9721 8.07766 57.8399 8.07766 57.6774V54.7378H10.2388ZM54.9656 23.7928C54.9656 23.5292 55.1765 23.3147 55.4358 23.3147H56.799C57.0583 23.3147 57.2692 23.5292 57.2692 23.7928C57.2692 24.0566 57.0583 24.2711 56.799 24.2711H54.9655L54.9656 23.7928ZM51.2711 18.9565L52.9199 24.2711H29.4357L31.0845 18.9564C31.1263 18.8217 31.1829 18.6954 31.252 18.5787C31.2535 18.5763 31.2547 18.574 31.2562 18.5717C31.5611 18.0624 32.1071 17.7411 32.7154 17.7411H49.6402C50.3901 17.7411 51.0455 18.2295 51.2711 18.9565ZM28.4641 21.5535H24.8223C25.6527 19.771 27.4214 18.627 29.3696 18.627C29.3704 18.627 29.3712 18.6272 29.372 18.6272L28.4641 21.5535ZM31.5347 8.07972C31.5347 7.81606 31.7456 7.60157 32.0049 7.60157H33.3681C33.976 7.60157 33.976 8.55787 33.3681 8.55787H31.5346L31.5347 8.07972ZM1.65541 8.07972C1.65541 7.81606 1.86633 7.60157 2.12559 7.60157H3.48882C3.7482 7.60157 3.95912 7.81606 3.95912 8.07972V8.55787H2.12559C1.86633 8.55787 1.65541 8.34338 1.65541 8.07972ZM2.32797 17.9581C2.32797 14.978 3.79031 12.7131 5.29812 10.3179H30.1959C31.3277 12.116 32.5482 13.8396 32.9716 15.9811H32.7155C31.7718 15.9811 30.9025 16.3656 30.2727 17.0115C29.9828 16.917 29.679 16.867 29.3696 16.867C26.6863 16.867 24.2555 18.4815 23.1768 20.9802L22.9293 21.5537H12.5647L12.3172 20.9802C11.2387 18.4815 8.80779 16.867 6.12448 16.867C4.51929 16.867 3.19333 18.1948 3.16852 19.8272L3.14244 21.5537H2.32808L2.32797 17.9581ZM4.48895 26.2531C4.48895 26.4156 4.3588 26.5479 4.19865 26.5479H2.61815C2.45812 26.5479 2.32785 26.4156 2.32785 26.2531V23.3136H4.48895V26.2531ZM4.87317 21.5535L4.8989 19.8543C4.90917 19.1775 5.45896 18.627 6.12436 18.627C8.0727 18.627 9.84196 19.7707 10.6722 21.5535H4.87317ZM25.0863 23.7928C25.0863 23.5292 25.2972 23.3147 25.5565 23.3147H26.9197C27.179 23.3147 27.3899 23.5292 27.3899 23.7928V24.2711H25.5563C25.2972 24.2711 25.0863 24.0566 25.0863 23.7928ZM7.4051 39.5039C7.4051 39.2402 7.61602 39.0258 7.87528 39.0258H9.23863C9.498 39.0258 9.70892 39.2402 9.70892 39.5039V39.9822H7.87539C7.61613 39.9822 7.4051 39.7677 7.4051 39.5039ZM11.7546 39.9822L13.4034 34.6675C13.629 33.9406 14.2844 33.4522 15.0344 33.4522H31.959C32.7091 33.4522 33.3646 33.9406 33.59 34.6676L35.2387 39.9822H11.7546ZM39.5882 39.5039C39.5882 39.7677 39.3773 39.9822 39.1181 39.9822H37.2844C37.2094 39.6348 37.2828 39.0369 37.7446 39.0267H39.128C39.3825 39.0323 39.5882 39.2436 39.5882 39.5039ZM48.2525 37.2666C49.0828 35.4839 50.852 34.3402 52.8003 34.3402C53.4659 34.3402 54.0154 34.8907 54.0257 35.5674L54.0515 37.2666H48.2525ZM56.5804 41.9662C56.5804 42.1287 56.4501 42.261 56.2901 42.261H54.7094C54.5494 42.261 54.4191 42.1287 54.4191 41.9662V39.0267H56.5804V41.9662ZM56.5967 33.6714V37.2668H55.7825L55.7563 35.5404C55.7316 33.9082 54.4056 32.5802 52.8005 32.5802C50.1171 32.5802 47.6864 34.1947 46.6077 36.6933L46.3602 37.2668H36.2111L35.2405 34.1382C34.7867 32.6751 33.4681 31.6922 31.9591 31.6922H25.9553C26.3835 29.5493 27.5958 27.8313 28.729 26.0312H53.6269L55.0476 28.2881C56.0609 29.8981 56.5967 31.7597 56.5967 33.6714Z" fill="black"/>
<path fill-rule="evenodd" clip-rule="evenodd" d="M59 23.7928C59 22.5585 58.0127 21.5546 56.7991 21.5546H55.4359C54.91 21.5546 54.427 21.7436 54.048 22.0577L52.9216 18.4271C52.4678 16.964 51.1491 15.9811 49.6403 15.9811H34.7318C34.3761 13.856 33.3716 12.0985 32.2508 10.3179H33.3681C36.1999 10.3179 36.2046 5.84152 33.3681 5.84152H32.0049C31.479 5.84152 30.996 6.03054 30.6171 6.34454L29.4906 2.71366C29.0368 1.25082 27.7181 0.267883 26.2093 0.267883H16.2282C15.1452 0.267883 15.096 2.02794 16.2282 2.02794H26.2093C26.9593 2.02794 27.6146 2.5163 27.8402 3.2432L29.489 8.55775H6.00494L7.65375 3.2432C7.87932 2.5163 8.53469 2.02794 9.28467 2.02794H10.5138C11.5968 2.02794 11.6461 0.267883 10.5138 0.267883H9.28455C7.77559 0.267883 6.45689 1.25082 6.0031 2.71366L4.87674 6.34454C4.49772 6.03043 4.01473 5.84152 3.48882 5.84152H2.12559C-0.706221 5.84152 -0.710836 10.3179 2.12559 10.3179H3.24306C1.74771 12.6933 0.597244 15.0547 0.597244 17.9581V26.2531C0.597244 27.3861 1.5038 28.3079 2.61827 28.3079H4.19876C5.31312 28.3079 6.21979 27.3863 6.21979 26.2531V23.3136H23.4077C23.3744 23.4681 23.3557 23.6282 23.3557 23.7928C23.3557 25.0271 24.343 26.0311 25.5566 26.0311H26.6739C25.5513 27.8147 24.5547 29.5619 24.1947 31.6921H15.0344C13.5254 31.6921 12.2067 32.675 11.7529 34.138L10.6266 37.7687C10.2475 37.4546 9.76454 37.2656 9.23863 37.2656H7.87539C6.66181 37.2656 5.67449 38.2696 5.67449 39.5038C5.67449 40.7379 6.66181 41.7421 7.87539 41.7421H8.99287L8.1695 43.0499C6.97726 44.9441 6.34705 47.1337 6.34705 49.3823V57.6772C6.34705 58.8101 7.2536 59.7319 8.36807 59.7319H9.94869C11.063 59.7319 11.9697 58.8102 11.9697 57.6772V54.7378H35.0076V57.6774C35.0076 58.8103 35.9141 59.7321 37.0286 59.7321H38.6091C39.7235 59.7321 40.6301 58.8104 40.6301 57.6774L40.6466 49.3825C40.6466 48.2812 38.9159 48.2311 38.9159 49.3825V52.9777H38.1015L38.0755 51.2513C38.0508 49.6192 36.7248 48.2912 35.1196 48.2912C32.4362 48.2912 30.0053 49.9057 28.9269 52.4043L28.6793 52.9777H18.3147L18.0672 52.4043C16.9886 49.9057 14.5577 48.2912 11.8744 48.2912C10.2692 48.2912 8.94325 49.6189 8.91844 51.2513L8.89202 52.9777H8.07766V49.3824C8.07766 47.4709 8.61349 45.6093 9.627 43.9991L11.0477 41.7422H35.9455C36.6618 42.88 37.4813 44.0123 38.0329 45.2452C38.4816 46.2474 40.0772 45.5638 39.608 44.5157C39.1694 43.5362 38.5693 42.6458 38.0005 41.7422H39.1179C40.5003 41.7422 41.5614 40.3972 41.2674 39.0267H52.6885V41.9662C52.6885 43.0992 53.5951 44.021 54.7096 44.021H56.2902C57.4045 44.021 58.3112 43.0993 58.3112 41.9662L58.3276 33.6714C58.3276 31.4227 57.6974 29.233 56.5051 27.3391L55.6819 26.0312H56.7992C58.0127 26.0311 59 25.0271 59 23.7928ZM38.8992 57.6773C38.8992 57.8398 38.7689 57.9719 38.6089 57.9719H37.0284C36.8683 57.9719 36.7381 57.8398 36.7381 57.6773V54.7378H38.8992V57.6773ZM35.1193 50.0512C35.7848 50.0512 36.3344 50.6017 36.3446 51.2783L36.3704 52.9776H30.5714C31.4017 51.1949 33.1708 50.0512 35.1193 50.0512ZM10.6486 51.2785C10.6589 50.6017 11.2087 50.0512 11.8741 50.0512C13.8224 50.0512 15.5917 51.1949 16.4219 52.9776H10.623L10.6486 51.2785ZM10.2388 54.7378V57.6774C10.2388 57.8399 10.1086 57.9721 9.94845 57.9721H8.36796C8.20792 57.9721 8.07766 57.8399 8.07766 57.6774V54.7378H10.2388ZM54.9656 23.7928C54.9656 23.5292 55.1765 23.3147 55.4358 23.3147H56.799C57.0583 23.3147 57.2692 23.5292 57.2692 23.7928C57.2692 24.0566 57.0583 24.2711 56.799 24.2711H54.9655L54.9656 23.7928ZM51.2711 18.9565L52.9199 24.2711H29.4357L31.0845 18.9564C31.1263 18.8217 31.1829 18.6954 31.252 18.5787C31.2535 18.5763 31.2547 18.574 31.2562 18.5717C31.5611 18.0624 32.1071 17.7411 32.7154 17.7411H49.6402C50.3901 17.7411 51.0455 18.2295 51.2711 18.9565ZM28.4641 21.5535H24.8223C25.6527 19.771 27.4214 18.627 29.3696 18.627C29.3704 18.627 29.3712 18.6272 29.372 18.6272L28.4641 21.5535ZM31.5347 8.07972C31.5347 7.81606 31.7456 7.60157 32.0049 7.60157H33.3681C33.976 7.60157 33.976 8.55787 33.3681 8.55787H31.5346L31.5347 8.07972ZM1.65541 8.07972C1.65541 7.81606 1.86633 7.60157 2.12559 7.60157H3.48882C3.7482 7.60157 3.95912 7.81606 3.95912 8.07972V8.55787H2.12559C1.86633 8.55787 1.65541 8.34338 1.65541 8.07972ZM2.32797 17.9581C2.32797 14.978 3.79031 12.7131 5.29812 10.3179H30.1959C31.3277 12.116 32.5482 13.8396 32.9716 15.9811H32.7155C31.7718 15.9811 30.9025 16.3656 30.2727 17.0115C29.9828 16.917 29.679 16.867 29.3696 16.867C26.6863 16.867 24.2555 18.4815 23.1768 20.9802L22.9293 21.5537H12.5647L12.3172 20.9802C11.2387 18.4815 8.80779 16.867 6.12448 16.867C4.51929 16.867 3.19333 18.1948 3.16852 19.8272L3.14244 21.5537H2.32808L2.32797 17.9581ZM4.48895 26.2531C4.48895 26.4156 4.3588 26.5479 4.19865 26.5479H2.61815C2.45812 26.5479 2.32785 26.4156 2.32785 26.2531V23.3136H4.48895V26.2531ZM4.87317 21.5535L4.8989 19.8543C4.90917 19.1775 5.45896 18.627 6.12436 18.627C8.0727 18.627 9.84196 19.7707 10.6722 21.5535H4.87317ZM25.0863 23.7928C25.0863 23.5292 25.2972 23.3147 25.5565 23.3147H26.9197C27.179 23.3147 27.3899 23.5292 27.3899 23.7928V24.2711H25.5563C25.2972 24.2711 25.0863 24.0566 25.0863 23.7928ZM7.4051 39.5039C7.4051 39.2402 7.61602 39.0258 7.87528 39.0258H9.23863C9.498 39.0258 9.70892 39.2402 9.70892 39.5039V39.9822H7.87539C7.61613 39.9822 7.4051 39.7677 7.4051 39.5039ZM11.7546 39.9822L13.4034 34.6675C13.629 33.9406 14.2844 33.4522 15.0344 33.4522H31.959C32.7091 33.4522 33.3646 33.9406 33.59 34.6676L35.2387 39.9822H11.7546ZM39.5882 39.5039C39.5882 39.7677 39.3773 39.9822 39.1181 39.9822H37.2844C37.2094 39.6348 37.2828 39.0369 37.7446 39.0267H39.128C39.3825 39.0323 39.5882 39.2436 39.5882 39.5039ZM48.2525 37.2666C49.0828 35.4839 50.852 34.3402 52.8003 34.3402C53.4659 34.3402 54.0154 34.8907 54.0257 35.5674L54.0515 37.2666H48.2525ZM56.5804 41.9662C56.5804 42.1287 56.4501 42.261 56.2901 42.261H54.7094C54.5494 42.261 54.4191 42.1287 54.4191 41.9662V39.0267H56.5804V41.9662ZM56.5967 33.6714V37.2668H55.7825L55.7563 35.5404C55.7316 33.9082 54.4056 32.5802 52.8005 32.5802C50.1171 32.5802 47.6864 34.1947 46.6077 36.6933L46.3602 37.2668H36.2111L35.2405 34.1382C34.7867 32.6751 33.4681 31.6922 31.9591 31.6922H25.9553C26.3835 29.5493 27.5958 27.8313 28.729 26.0312H53.6269L55.0476 28.2881C56.0609 29.8981 56.5967 31.7597 56.5967 33.6714Z" fill="#B41622"/>
<path fill-rule="evenodd" clip-rule="evenodd" d="M59 23.7928C59 22.5585 58.0127 21.5546 56.7991 21.5546H55.4359C54.91 21.5546 54.427 21.7436 54.048 22.0577L52.9216 18.4271C52.4678 16.964 51.1491 15.9811 49.6403 15.9811H34.7318C34.3761 13.856 33.3716 12.0985 32.2508 10.3179H33.3681C36.1999 10.3179 36.2046 5.84152 33.3681 5.84152H32.0049C31.479 5.84152 30.996 6.03054 30.6171 6.34454L29.4906 2.71366C29.0368 1.25082 27.7181 0.267883 26.2093 0.267883H16.2282C15.1452 0.267883 15.096 2.02794 16.2282 2.02794H26.2093C26.9593 2.02794 27.6146 2.5163 27.8402 3.2432L29.489 8.55775H6.00494L7.65375 3.2432C7.87932 2.5163 8.53469 2.02794 9.28467 2.02794H10.5138C11.5968 2.02794 11.6461 0.267883 10.5138 0.267883H9.28455C7.77559 0.267883 6.45689 1.25082 6.0031 2.71366L4.87674 6.34454C4.49772 6.03043 4.01473 5.84152 3.48882 5.84152H2.12559C-0.706221 5.84152 -0.710836 10.3179 2.12559 10.3179H3.24306C1.74771 12.6933 0.597244 15.0547 0.597244 17.9581V26.2531C0.597244 27.3861 1.5038 28.3079 2.61827 28.3079H4.19876C5.31312 28.3079 6.21979 27.3863 6.21979 26.2531V23.3136H23.4077C23.3744 23.4681 23.3557 23.6282 23.3557 23.7928C23.3557 25.0271 24.343 26.0311 25.5566 26.0311H26.6739C25.5513 27.8147 24.5547 29.5619 24.1947 31.6921H15.0344C13.5254 31.6921 12.2067 32.675 11.7529 34.138L10.6266 37.7687C10.2475 37.4546 9.76454 37.2656 9.23863 37.2656H7.87539C6.66181 37.2656 5.67449 38.2696 5.67449 39.5038C5.67449 40.7379 6.66181 41.7421 7.87539 41.7421H8.99287L8.1695 43.0499C6.97726 44.9441 6.34705 47.1337 6.34705 49.3823V57.6772C6.34705 58.8101 7.2536 59.7319 8.36807 59.7319H9.94869C11.063 59.7319 11.9697 58.8102 11.9697 57.6772V54.7378H35.0076V57.6774C35.0076 58.8103 35.9141 59.7321 37.0286 59.7321H38.6091C39.7235 59.7321 40.6301 58.8104 40.6301 57.6774L40.6466 49.3825C40.6466 48.2812 38.9159 48.2311 38.9159 49.3825V52.9777H38.1015L38.0755 51.2513C38.0508 49.6192 36.7248 48.2912 35.1196 48.2912C32.4362 48.2912 30.0053 49.9057 28.9269 52.4043L28.6793 52.9777H18.3147L18.0672 52.4043C16.9886 49.9057 14.5577 48.2912 11.8744 48.2912C10.2692 48.2912 8.94325 49.6189 8.91844 51.2513L8.89202 52.9777H8.07766V49.3824C8.07766 47.4709 8.61349 45.6093 9.627 43.9991L11.0477 41.7422H35.9455C36.6618 42.88 37.4813 44.0123 38.0329 45.2452C38.4816 46.2474 40.0772 45.5638 39.608 44.5157C39.1694 43.5362 38.5693 42.6458 38.0005 41.7422H39.1179C40.5003 41.7422 41.5614 40.3972 41.2674 39.0267H52.6885V41.9662C52.6885 43.0992 53.5951 44.021 54.7096 44.021H56.2902C57.4045 44.021 58.3112 43.0993 58.3112 41.9662L58.3276 33.6714C58.3276 31.4227 57.6974 29.233 56.5051 27.3391L55.6819 26.0312H56.7992C58.0127 26.0311 59 25.0271 59 23.7928ZM38.8992 57.6773C38.8992 57.8398 38.7689 57.9719 38.6089 57.9719H37.0284C36.8683 57.9719 36.7381 57.8398 36.7381 57.6773V54.7378H38.8992V57.6773ZM35.1193 50.0512C35.7848 50.0512 36.3344 50.6017 36.3446 51.2783L36.3704 52.9776H30.5714C31.4017 51.1949 33.1708 50.0512 35.1193 50.0512ZM10.6486 51.2785C10.6589 50.6017 11.2087 50.0512 11.8741 50.0512C13.8224 50.0512 15.5917 51.1949 16.4219 52.9776H10.623L10.6486 51.2785ZM10.2388 54.7378V57.6774C10.2388 57.8399 10.1086 57.9721 9.94845 57.9721H8.36796C8.20792 57.9721 8.07766 57.8399 8.07766 57.6774V54.7378H10.2388ZM54.9656 23.7928C54.9656 23.5292 55.1765 23.3147 55.4358 23.3147H56.799C57.0583 23.3147 57.2692 23.5292 57.2692 23.7928C57.2692 24.0566 57.0583 24.2711 56.799 24.2711H54.9655L54.9656 23.7928ZM51.2711 18.9565L52.9199 24.2711H29.4357L31.0845 18.9564C31.1263 18.8217 31.1829 18.6954 31.252 18.5787C31.2535 18.5763 31.2547 18.574 31.2562 18.5717C31.5611 18.0624 32.1071 17.7411 32.7154 17.7411H49.6402C50.3901 17.7411 51.0455 18.2295 51.2711 18.9565ZM28.4641 21.5535H24.8223C25.6527 19.771 27.4214 18.627 29.3696 18.627C29.3704 18.627 29.3712 18.6272 29.372 18.6272L28.4641 21.5535ZM31.5347 8.07972C31.5347 7.81606 31.7456 7.60157 32.0049 7.60157H33.3681C33.976 7.60157 33.976 8.55787 33.3681 8.55787H31.5346L31.5347 8.07972ZM1.65541 8.07972C1.65541 7.81606 1.86633 7.60157 2.12559 7.60157H3.48882C3.7482 7.60157 3.95912 7.81606 3.95912 8.07972V8.55787H2.12559C1.86633 8.55787 1.65541 8.34338 1.65541 8.07972ZM2.32797 17.9581C2.32797 14.978 3.79031 12.7131 5.29812 10.3179H30.1959C31.3277 12.116 32.5482 13.8396 32.9716 15.9811H32.7155C31.7718 15.9811 30.9025 16.3656 30.2727 17.0115C29.9828 16.917 29.679 16.867 29.3696 16.867C26.6863 16.867 24.2555 18.4815 23.1768 20.9802L22.9293 21.5537H12.5647L12.3172 20.9802C11.2387 18.4815 8.80779 16.867 6.12448 16.867C4.51929 16.867 3.19333 18.1948 3.16852 19.8272L3.14244 21.5537H2.32808L2.32797 17.9581ZM4.48895 26.2531C4.48895 26.4156 4.3588 26.5479 4.19865 26.5479H2.61815C2.45812 26.5479 2.32785 26.4156 2.32785 26.2531V23.3136H4.48895V26.2531ZM4.87317 21.5535L4.8989 19.8543C4.90917 19.1775 5.45896 18.627 6.12436 18.627C8.0727 18.627 9.84196 19.7707 10.6722 21.5535H4.87317ZM25.0863 23.7928C25.0863 23.5292 25.2972 23.3147 25.5565 23.3147H26.9197C27.179 23.3147 27.3899 23.5292 27.3899 23.7928V24.2711H25.5563C25.2972 24.2711 25.0863 24.0566 25.0863 23.7928ZM7.4051 39.5039C7.4051 39.2402 7.61602 39.0258 7.87528 39.0258H9.23863C9.498 39.0258 9.70892 39.2402 9.70892 39.5039V39.9822H7.87539C7.61613 39.9822 7.4051 39.7677 7.4051 39.5039ZM11.7546 39.9822L13.4034 34.6675C13.629 33.9406 14.2844 33.4522 15.0344 33.4522H31.959C32.7091 33.4522 33.3646 33.9406 33.59 34.6676L35.2387 39.9822H11.7546ZM39.5882 39.5039C39.5882 39.7677 39.3773 39.9822 39.1181 39.9822H37.2844C37.2094 39.6348 37.2828 39.0369 37.7446 39.0267H39.128C39.3825 39.0323 39.5882 39.2436 39.5882 39.5039ZM48.2525 37.2666C49.0828 35.4839 50.852 34.3402 52.8003 34.3402C53.4659 34.3402 54.0154 34.8907 54.0257 35.5674L54.0515 37.2666H48.2525ZM56.5804 41.9662C56.5804 42.1287 56.4501 42.261 56.2901 42.261H54.7094C54.5494 42.261 54.4191 42.1287 54.4191 41.9662V39.0267H56.5804V41.9662ZM56.5967 33.6714V37.2668H55.7825L55.7563 35.5404C55.7316 33.9082 54.4056 32.5802 52.8005 32.5802C50.1171 32.5802 47.6864 34.1947 46.6077 36.6933L46.3602 37.2668H36.2111L35.2405 34.1382C34.7867 32.6751 33.4681 31.6922 31.9591 31.6922H25.9553C26.3835 29.5493 27.5958 27.8313 28.729 26.0312H53.6269L55.0476 28.2881C56.0609 29.8981 56.5967 31.7597 56.5967 33.6714Z" fill="url(#paint0_radial_131_176)"/>
</g>
<defs>
<radialGradient id="paint0_radial_131_176" cx="0" cy="0" r="1" gradientUnits="userSpaceOnUse" gradientTransform="translate(10.681 8.98248) rotate(44.945) scale(74.0168 295.562)">
<stop stop-color="#FF0E0E"/>
<stop offset="1" stop-color="#FF0000" stop-opacity="0"/>
</radialGradient>
<clipPath id="clip0_131_176">
<rect width="59" height="60" fill="white"/>
</clipPath>
</defs>
</svg>
