<svg width="50" height="60" viewBox="0 0 50 60" fill="none" xmlns="http://www.w3.org/2000/svg">
<g clip-path="url(#clip0_429_826)">
<path d="M12.525 22.1204L26 8.67915L39.475 22.1204C42.1398 24.7787 43.9544 28.1656 44.6895 31.8527C45.4246 35.5398 45.0472 39.3615 43.6048 42.8347C42.1625 46.3078 39.7201 49.2763 36.5865 51.3648C33.4529 53.4533 29.7687 54.568 26 54.568C22.2313 54.568 18.5471 53.4533 15.4135 51.3648C12.2799 49.2763 9.83748 46.3078 8.39516 42.8347C6.95283 39.3615 6.57535 35.5398 7.31046 31.8527C8.04556 28.1656 9.86024 24.7787 12.525 22.1204ZM43.3242 18.2808L26 1L8.67579 18.2808C5.24943 21.6986 2.91606 26.0532 1.97075 30.7938C1.02544 35.5344 1.51064 40.4482 3.36499 44.9137C5.21935 49.3793 8.35957 53.196 12.3886 55.8814C16.4176 58.5667 21.1544 60 26 60C30.8456 60 35.5824 58.5667 39.6114 55.8814C43.6404 53.196 46.7807 49.3793 48.635 44.9137C50.4894 40.4482 50.9746 35.5344 50.0293 30.7938C49.0839 26.0532 46.7506 21.6986 43.3242 18.2808ZM37.5504 27.8879L33.7012 24.0483L14.4496 43.2489L18.3016 47.0912L37.5504 27.8879ZM15.4106 30.7689C15.7872 31.158 16.2378 31.4683 16.736 31.6817C17.2342 31.8952 17.77 32.0075 18.3122 32.0122C18.8544 32.0169 19.392 31.9139 19.8939 31.7091C20.3957 31.5043 20.8516 31.2018 21.235 30.8194C21.6184 30.437 21.9216 29.9822 22.1269 29.4816C22.3322 28.9811 22.4355 28.4447 22.4308 27.9039C22.4261 27.3631 22.3135 26.8286 22.0995 26.3317C21.8855 25.8347 21.5744 25.3853 21.1844 25.0096C20.4143 24.2676 19.3828 23.8571 18.3122 23.8664C17.2415 23.8756 16.2174 24.304 15.4603 25.0592C14.7032 25.8144 14.2738 26.836 14.2645 27.9039C14.2552 28.9719 14.6667 30.0007 15.4106 30.7689ZM36.584 46.13C36.2073 46.519 35.7567 46.8293 35.2586 47.0427C34.7604 47.2562 34.2246 47.3686 33.6824 47.3733C33.1402 47.378 32.6025 47.2749 32.1007 47.0701C31.5989 46.8653 31.1429 46.5629 30.7596 46.1804C30.3762 45.798 30.073 45.3432 29.8676 44.8427C29.6623 44.3421 29.559 43.8057 29.5637 43.2649C29.5684 42.7241 29.6811 42.1896 29.8951 41.6927C30.1091 41.1958 30.4202 40.7463 30.8102 40.3706C31.5825 39.6416 32.6094 39.2418 33.6726 39.2563C34.7358 39.2708 35.7514 39.6984 36.5035 40.4482C37.2555 41.198 37.6847 42.2109 37.6997 43.2714C37.7148 44.332 37.3145 45.3592 36.584 46.13Z" fill="#BE2E39"/>
</g>
<defs>
<clipPath id="clip0_429_826">
<rect width="50" height="60" fill="white"/>
</clipPath>
</defs>
</svg>
