<svg width="52" height="61" viewBox="0 0 52 61" fill="none" xmlns="http://www.w3.org/2000/svg">
<path d="M13.8125 10.625C13.1821 10.625 12.5658 10.8119 12.0416 11.1622C11.5174 11.5124 11.1089 12.0103 10.8676 12.5927C10.6264 13.1751 10.5633 13.816 10.6862 14.4344C10.8092 15.0527 11.1128 15.6206 11.5586 16.0664C12.0044 16.5122 12.5723 16.8158 13.1907 16.9388C13.809 17.0617 14.4499 16.9986 15.0323 16.7574C15.6147 16.5161 16.1126 16.1076 16.4628 15.5834C16.8131 15.0592 17 14.4429 17 13.8125C17 12.9671 16.6642 12.1564 16.0664 11.5586C15.4686 10.9608 14.6579 10.625 13.8125 10.625ZM13.8125 10.625C13.1821 10.625 12.5658 10.8119 12.0416 11.1622C11.5174 11.5124 11.1089 12.0103 10.8676 12.5927C10.6264 13.1751 10.5633 13.816 10.6862 14.4344C10.8092 15.0527 11.1128 15.6206 11.5586 16.0664C12.0044 16.5122 12.5723 16.8158 13.1907 16.9388C13.809 17.0617 14.4499 16.9986 15.0323 16.7574C15.6147 16.5161 16.1126 16.1076 16.4628 15.5834C16.8131 15.0592 17 14.4429 17 13.8125C17 12.9671 16.6642 12.1564 16.0664 11.5586C15.4686 10.9608 14.6579 10.625 13.8125 10.625ZM45.4963 24.6075L26.3713 5.4825C25.5744 4.69217 24.4973 4.24911 23.375 4.25H8.5C7.37283 4.25 6.29183 4.69777 5.4948 5.4948C4.69777 6.29183 4.25 7.37283 4.25 8.5V23.375C4.24956 23.9358 4.36011 24.4912 4.57529 25.0091C4.79047 25.5269 5.10602 25.9971 5.50375 26.3925L6.375 27.2425C7.72988 26.4313 9.23219 25.8968 10.795 25.67L8.5 23.375V8.5H23.375L42.5 27.625L27.625 42.5L25.33 40.205C25.106 41.7685 24.5713 43.2713 23.7575 44.625L24.6288 45.4963C25.4221 46.2944 26.4997 46.7453 27.625 46.75C28.7504 46.7453 29.8279 46.2944 30.6213 45.4963L45.4963 30.6213C46.2944 29.8279 46.7453 28.7504 46.75 27.625C46.7504 27.0642 46.6399 26.5088 46.4247 25.9909C46.2095 25.4731 45.894 25.0029 45.4963 24.6075ZM13.8125 10.625C13.1821 10.625 12.5658 10.8119 12.0416 11.1622C11.5174 11.5124 11.1089 12.0103 10.8676 12.5927C10.6264 13.1751 10.5633 13.816 10.6862 14.4344C10.8092 15.0527 11.1128 15.6206 11.5586 16.0664C12.0044 16.5122 12.5723 16.8158 13.1907 16.9388C13.809 17.0617 14.4499 16.9986 15.0323 16.7574C15.6147 16.5161 16.1126 16.1076 16.4628 15.5834C16.8131 15.0592 17 14.4429 17 13.8125C17 12.9671 16.6642 12.1564 16.0664 11.5586C15.4686 10.9608 14.6579 10.625 13.8125 10.625ZM21.25 40.375H14.875V46.75H10.625V40.375H4.25V36.125H10.625V29.75H14.875V36.125H21.25V40.375Z" fill="#BE2E39"/>
</svg>
