<svg width="62" height="62" viewBox="0 0 62 62" fill="none" xmlns="http://www.w3.org/2000/svg">
<path fill-rule="evenodd" clip-rule="evenodd" d="M54.4191 6.34306L59.1628 8.21181C59.3552 8.28668 59.5202 8.41679 59.6365 8.58522C59.7528 8.75366 59.815 8.95265 59.815 9.15634C59.815 9.36004 59.7528 9.55903 59.6365 9.72747C59.5202 9.8959 59.3552 10.026 59.1628 10.1009L54.3778 11.9899L52.4906 15.7681C52.4062 15.9398 52.2743 16.0846 52.1102 16.1859C51.946 16.2872 51.7562 16.341 51.5625 16.341C51.3688 16.341 51.179 16.2872 51.0148 16.1859C50.8507 16.0846 50.7188 15.9398 50.6344 15.7681L48.7472 11.9899L48.4275 11.8579C48.3422 13.3795 47.9391 14.8674 47.2436 16.2287C46.548 17.59 45.5749 18.7954 44.385 19.7696C44.0456 20.0508 43.7735 20.4024 43.5881 20.7992C43.4027 21.196 43.3086 21.6282 43.3125 22.0649V35.5626H47.4375C48.2248 35.56 48.9963 35.78 49.6603 36.1967C50.3243 36.6134 50.8528 37.2091 51.1831 37.913C51.5133 38.6169 51.6313 39.3994 51.523 40.1674C51.4148 40.9354 51.0849 41.6567 50.5725 42.2454C51.113 42.5602 51.5733 42.9926 51.9181 43.5095C52.2628 44.0264 52.4829 44.6141 52.5616 45.2277C52.6402 45.8413 52.5752 46.4645 52.3717 47.0495C52.1681 47.6346 51.8314 48.1661 51.3872 48.6032C51.1415 48.8379 50.868 49.0425 50.5725 49.2126C51.2078 49.9346 51.5591 50.8572 51.5625 51.8126C51.5651 52.3481 51.4598 52.8787 51.2527 53.3739C51.0456 53.869 50.7408 54.3187 50.3559 54.697C49.9174 55.1254 49.3846 55.4486 48.7987 55.6415C49.2156 56.2529 49.4559 56.9643 49.4939 57.6998C49.532 58.4352 49.3663 59.167 49.0146 59.8169C48.663 60.4668 48.1385 61.0103 47.4975 61.3894C46.8564 61.7684 46.1227 61.9687 45.375 61.9688H25.0903C23.9747 61.9683 22.8894 61.6119 21.9966 60.9532L20.0784 59.5313C19.5423 59.137 18.8914 58.9233 18.2222 58.922H16.5V60.9532C16.5 61.2226 16.3913 61.4809 16.198 61.6714C16.0046 61.8618 15.7423 61.9688 15.4687 61.9688H1.03125C0.757745 61.9688 0.495443 61.8618 0.302046 61.6714C0.108649 61.4809 0 61.2226 0 60.9532V31.5001C0 31.2307 0.108649 30.9724 0.302046 30.7819C0.495443 30.5915 0.757745 30.4845 1.03125 30.4845H15.4687C15.7423 30.4845 16.0046 30.5915 16.198 30.7819C16.3913 30.9724 16.5 31.2307 16.5 31.5001V33.5313H17.8819C18.2884 33.5335 18.6912 33.4555 19.0667 33.302C19.4421 33.1485 19.7826 32.9226 20.0681 32.6376L24.8737 27.9048C25.3533 27.4332 25.9226 27.0595 26.549 26.8051C27.1755 26.5506 27.8467 26.4204 28.5244 26.422H30.9375V22.0649C30.9414 21.6282 30.8473 21.196 30.6619 20.7992C30.4765 20.4024 30.2044 20.0508 29.865 19.7696C28.3793 18.5501 27.235 16.9766 26.5406 15.1988C25.8462 13.421 25.6249 11.4979 25.8977 9.6122C26.1705 7.72646 26.9284 5.94073 28.0992 4.42466C29.2701 2.90859 30.8151 1.71252 32.5875 0.950094C32.7454 0.884972 32.9169 0.858353 33.0874 0.872498C33.258 0.886644 33.4226 0.941136 33.5672 1.03134C33.7097 1.12515 33.8265 1.25203 33.9074 1.40081C33.9884 1.54959 34.0309 1.71569 34.0312 1.88447V11.6954L37.125 13.9806L40.2187 11.6954V1.88447C40.2191 1.71569 40.2616 1.54959 40.3426 1.40081C40.4235 1.25203 40.5403 1.12515 40.6828 1.03134C40.8275 0.941377 40.9921 0.887027 41.1626 0.872885C41.3331 0.858743 41.5046 0.885225 41.6625 0.950094C44.312 2.08774 46.4189 4.18091 47.5509 6.80009L48.7059 6.34306L50.6034 1.67119C50.6795 1.48175 50.8116 1.3192 50.9826 1.20466C51.1536 1.09012 51.3557 1.02887 51.5625 1.02887C51.7693 1.02887 51.9714 1.09012 52.1424 1.20466C52.3134 1.3192 52.4455 1.48175 52.5216 1.67119L54.4191 6.34306ZM2.0625 59.9376H14.4375V32.5157H2.0625V59.9376ZM48.914 38.1457C48.5156 37.7762 47.9845 37.5777 47.4375 37.5938H34.0312C33.2115 37.5914 32.426 37.2696 31.8463 36.6988C31.2667 36.1279 30.9399 35.3543 30.9375 34.547V28.4532H28.5244C28.1179 28.4511 27.715 28.5291 27.3396 28.6826C26.9641 28.8361 26.6236 29.062 26.3381 29.347L21.5325 34.0798C21.053 34.5513 20.4837 34.925 19.8572 35.1795C19.2308 35.4339 18.5595 35.5641 17.8819 35.5626H16.5V56.8907H18.2222C19.3377 56.8913 20.4231 57.2476 21.3159 57.9063L23.2341 59.3282C23.7702 59.7226 24.4211 59.9363 25.0903 59.9376H45.375C45.8976 59.9147 46.3918 59.6971 46.7576 59.3288C47.1234 58.9606 47.3335 58.4692 47.3452 57.9542C47.357 57.4391 47.1697 56.9389 46.8211 56.5548C46.4725 56.1707 45.9888 55.9313 45.4678 55.8852L39.1875 55.8751C38.914 55.8751 38.6517 55.7681 38.4583 55.5776C38.2649 55.3872 38.1562 55.1288 38.1562 54.8595C38.1562 54.5901 38.2649 54.3318 38.4583 54.1413C38.6517 53.9508 38.914 53.8438 39.1875 53.8438L47.4272 53.854H47.4375C47.9845 53.8675 48.5145 53.6664 48.911 53.295C49.3075 52.9236 49.5379 52.4123 49.5516 51.8735C49.5652 51.3348 49.361 50.8128 48.9839 50.4223C48.6068 50.0319 48.0876 49.805 47.5406 49.7915L39.1875 49.7813C38.914 49.7813 38.6517 49.6743 38.4583 49.4839C38.2649 49.2934 38.1562 49.0351 38.1562 48.7657C38.1562 48.4964 38.2649 48.238 38.4583 48.0476C38.6517 47.8571 38.914 47.7501 39.1875 47.7501L48.4584 47.7602H48.4687C49.0171 47.7602 49.543 47.5457 49.9308 47.1638C50.3186 46.7819 50.5364 46.264 50.5364 45.7239C50.5364 45.1839 50.3186 44.6659 49.9308 44.284C49.543 43.9021 49.0171 43.6876 48.4687 43.6876H39.1875C38.914 43.6876 38.6517 43.5806 38.4583 43.3901C38.2649 43.1997 38.1562 42.9413 38.1562 42.672C38.1562 42.4026 38.2649 42.1443 38.4583 41.9538C38.6517 41.7633 38.914 41.6563 39.1875 41.6563H47.5612C48.1083 41.6402 48.6263 41.4107 49.0015 41.0183C49.3767 40.626 49.5783 40.1029 49.5619 39.5642C49.5455 39.0254 49.3124 38.5152 48.914 38.1457ZM41.7197 19.9356C42.0335 19.2685 42.4928 18.6777 43.065 18.2056C44.1125 17.3505 44.9552 16.2779 45.5329 15.0647C46.1105 13.8515 46.4087 12.5276 46.4062 11.1876C46.4062 11.1684 46.4039 11.1492 46.4015 11.129C46.3988 11.1063 46.3959 11.0824 46.3959 11.0556L43.9622 10.1009C43.7698 10.026 43.6048 9.8959 43.4885 9.72747C43.3722 9.55903 43.31 9.36004 43.31 9.15634C43.31 8.95265 43.3722 8.75366 43.4885 8.58522C43.6048 8.41679 43.7698 8.28668 43.9622 8.21181L45.6431 7.55166C44.9334 5.93993 43.7659 4.56447 42.2812 3.59072V12.2032C42.2801 12.3607 42.2424 12.5158 42.1709 12.6567C42.0994 12.7975 41.996 12.9204 41.8687 13.0157L37.7437 16.0626C37.5659 16.196 37.3485 16.2683 37.125 16.2683C36.9014 16.2683 36.6841 16.196 36.5062 16.0626L32.3812 13.0157C32.254 12.9204 32.1506 12.7975 32.0791 12.6567C32.0076 12.5158 31.9698 12.3607 31.9687 12.2032V3.59072C30.7685 4.37956 29.7717 5.43342 29.0578 6.66842C28.3439 7.90342 27.9325 9.28548 27.8564 10.7046C27.7803 12.1238 28.0416 13.5408 28.6194 14.843C29.1973 16.1452 30.0758 17.2966 31.185 18.2056C31.7572 18.6777 32.2165 19.2685 32.5303 19.9356C32.844 20.6027 33.0044 21.3298 33 22.0649V34.547C33 34.8163 33.1086 35.0747 33.302 35.2651C33.4954 35.4556 33.7577 35.5626 34.0312 35.5626H36.0937V25.4063C36.0937 25.137 36.2024 24.8787 36.3958 24.6882C36.5892 24.4977 36.8515 24.3907 37.125 24.3907C37.3985 24.3907 37.6608 24.4977 37.8542 24.6882C38.0476 24.8787 38.1562 25.137 38.1562 25.4063V35.5626H41.25V22.0649C41.2456 21.3298 41.406 20.6027 41.7197 19.9356ZM52.6969 10.7407C52.811 10.5145 53.0055 10.3374 53.2434 10.2431L56.0072 9.15634L53.2434 8.06963C53.1118 8.02039 52.9923 7.94425 52.8928 7.84621C52.7932 7.74818 52.7159 7.63048 52.6659 7.50088L51.5625 4.779L50.4591 7.50088C50.4091 7.63048 50.3318 7.74818 50.2322 7.84621C50.1327 7.94425 50.0132 8.02039 49.8816 8.06963L47.2931 9.08525C47.288 9.08525 47.2854 9.08779 47.2828 9.09033C47.2802 9.09287 47.2776 9.09541 47.2725 9.09541C47.2673 9.09541 47.2647 9.09541 47.2635 9.09669C47.2622 9.09797 47.2622 9.10051 47.2622 9.10556L47.1178 9.15634L49.8816 10.2431C50.1195 10.3374 50.314 10.5145 50.4281 10.7407L51.5625 13.0157L52.6969 10.7407ZM13.0237 23.303L17.8107 25.189L19.6969 28.9732C19.782 29.1433 19.9137 29.2865 20.0772 29.3867C20.2407 29.4868 20.4294 29.5399 20.6219 29.5399C20.8144 29.5399 21.0031 29.4868 21.1666 29.3867C21.3301 29.2865 21.4618 29.1433 21.5469 28.9732L23.4362 25.189L28.2232 23.303C28.415 23.2278 28.5793 23.0977 28.6951 22.9294C28.8109 22.7612 28.8729 22.5627 28.8729 22.3595C28.8729 22.1562 28.8109 21.9577 28.6951 21.7895C28.5793 21.6213 28.415 21.4912 28.2232 21.416L23.4795 19.5462L21.581 14.8743C21.5046 14.6855 21.3725 14.5236 21.2017 14.4096C21.0309 14.2955 20.8293 14.2346 20.6229 14.2346C20.4166 14.2346 20.215 14.2955 20.0442 14.4096C19.8734 14.5236 19.7413 14.6855 19.6649 14.8743L17.7664 19.5462L13.0226 21.416C12.8309 21.4912 12.6665 21.6213 12.5507 21.7895C12.4349 21.9577 12.373 22.1562 12.373 22.3595C12.373 22.5627 12.4349 22.7612 12.5507 22.9294C12.6665 23.0977 12.832 23.2278 13.0237 23.303ZM18.9451 21.2717C19.0749 21.2208 19.1929 21.1443 19.2918 21.0471C19.3907 20.9498 19.4685 20.8338 19.5205 20.706L20.625 17.9842L21.7295 20.706C21.7815 20.8338 21.8593 20.9498 21.9582 21.0471C22.0571 21.1443 22.1751 21.2208 22.3049 21.2717L25.0676 22.3595L22.3049 23.4472C22.0681 23.5406 21.8748 23.7172 21.7625 23.9428L20.625 26.2188L19.4906 23.9398C19.3783 23.7142 19.185 23.5376 18.9482 23.4442L16.1824 22.3595L18.9451 21.2717ZM56.4826 24.6243L61.2263 26.4941H61.2232C61.4149 26.5693 61.5793 26.6994 61.6951 26.8676C61.8109 27.0358 61.8729 27.2344 61.8729 27.4376C61.8729 27.6408 61.8109 27.8394 61.6951 28.0076C61.5793 28.1758 61.4149 28.3059 61.2232 28.3811L56.4362 30.2671L54.5469 34.0513C54.4618 34.2214 54.3301 34.3646 54.1666 34.4648C54.0031 34.5649 53.8144 34.618 53.6219 34.618C53.4294 34.618 53.2407 34.5649 53.0772 34.4648C52.9137 34.3646 52.782 34.2214 52.6969 34.0513L50.8128 30.2671L46.0257 28.3811C45.834 28.3059 45.6696 28.1758 45.5538 28.0076C45.438 27.8394 45.3761 27.6408 45.3761 27.4376C45.3761 27.2344 45.438 27.0358 45.5538 26.8676C45.6696 26.6994 45.834 26.5693 46.0257 26.4941L50.7695 24.6243L52.668 19.9524C52.7444 19.7636 52.8765 19.6017 53.0473 19.4877C53.2181 19.3736 53.4197 19.3127 53.626 19.3127C53.8324 19.3127 54.034 19.3736 54.2048 19.4877C54.3756 19.6017 54.5077 19.7636 54.5841 19.9524L56.4826 24.6243ZM54.7625 29.021C54.8748 28.7953 55.0681 28.6188 55.3049 28.5253L58.0676 27.4376L55.3049 26.3499C55.1751 26.2989 55.0571 26.2225 54.9582 26.1252C54.8593 26.028 54.7814 25.9119 54.7295 25.7842L53.625 23.0623L52.5205 25.7842C52.4685 25.9119 52.3907 26.028 52.2918 26.1252C52.1929 26.2225 52.0749 26.2989 51.9451 26.3499L49.1824 27.4376L51.9482 28.5223C52.185 28.6157 52.3783 28.7923 52.4906 29.0179L53.625 31.297L54.7625 29.021ZM6.5312 52.3261C7.03997 51.9913 7.63811 51.8126 8.25 51.8126C9.07051 51.8126 9.85742 52.1336 10.4376 52.705C11.0178 53.2764 11.3438 54.0514 11.3438 54.8595C11.3438 55.4621 11.1623 56.0512 10.8224 56.5522C10.4824 57.0533 9.99924 57.4438 9.43393 57.6744C8.86862 57.905 8.24657 57.9654 7.64644 57.8478C7.04631 57.7302 6.49506 57.44 6.06239 57.0139C5.62972 56.5878 5.33507 56.0449 5.2157 55.4539C5.09632 54.8628 5.15759 54.2502 5.39175 53.6935C5.62591 53.1367 6.02244 52.6609 6.5312 52.3261ZM7.67707 55.7039C7.84666 55.8155 8.04604 55.8751 8.25 55.8751C8.52351 55.8751 8.78581 55.7681 8.9792 55.5776C9.1726 55.3872 9.28125 55.1288 9.28125 54.8595C9.28125 54.6586 9.22077 54.4622 9.10745 54.2952C8.99414 54.1282 8.83308 53.998 8.64464 53.9212C8.45621 53.8443 8.24886 53.8242 8.04881 53.8634C7.84877 53.9025 7.66502 53.9993 7.5208 54.1413C7.37657 54.2833 7.27836 54.4643 7.23857 54.6613C7.19877 54.8583 7.2192 55.0625 7.29725 55.2481C7.3753 55.4337 7.50748 55.5923 7.67707 55.7039Z" fill="black"/>
<path fill-rule="evenodd" clip-rule="evenodd" d="M54.4191 6.34306L59.1628 8.21181C59.3552 8.28668 59.5202 8.41679 59.6365 8.58522C59.7528 8.75366 59.815 8.95265 59.815 9.15634C59.815 9.36004 59.7528 9.55903 59.6365 9.72747C59.5202 9.8959 59.3552 10.026 59.1628 10.1009L54.3778 11.9899L52.4906 15.7681C52.4062 15.9398 52.2743 16.0846 52.1102 16.1859C51.946 16.2872 51.7562 16.341 51.5625 16.341C51.3688 16.341 51.179 16.2872 51.0148 16.1859C50.8507 16.0846 50.7188 15.9398 50.6344 15.7681L48.7472 11.9899L48.4275 11.8579C48.3422 13.3795 47.9391 14.8674 47.2436 16.2287C46.548 17.59 45.5749 18.7954 44.385 19.7696C44.0456 20.0508 43.7735 20.4024 43.5881 20.7992C43.4027 21.196 43.3086 21.6282 43.3125 22.0649V35.5626H47.4375C48.2248 35.56 48.9963 35.78 49.6603 36.1967C50.3243 36.6134 50.8528 37.2091 51.1831 37.913C51.5133 38.6169 51.6313 39.3994 51.523 40.1674C51.4148 40.9354 51.0849 41.6567 50.5725 42.2454C51.113 42.5602 51.5733 42.9926 51.9181 43.5095C52.2628 44.0264 52.4829 44.6141 52.5616 45.2277C52.6402 45.8413 52.5752 46.4645 52.3717 47.0495C52.1681 47.6346 51.8314 48.1661 51.3872 48.6032C51.1415 48.8379 50.868 49.0425 50.5725 49.2126C51.2078 49.9346 51.5591 50.8572 51.5625 51.8126C51.5651 52.3481 51.4598 52.8787 51.2527 53.3739C51.0456 53.869 50.7408 54.3187 50.3559 54.697C49.9174 55.1254 49.3846 55.4486 48.7987 55.6415C49.2156 56.2529 49.4559 56.9643 49.4939 57.6998C49.532 58.4352 49.3663 59.167 49.0146 59.8169C48.663 60.4668 48.1385 61.0103 47.4975 61.3894C46.8564 61.7684 46.1227 61.9687 45.375 61.9688H25.0903C23.9747 61.9683 22.8894 61.6119 21.9966 60.9532L20.0784 59.5313C19.5423 59.137 18.8914 58.9233 18.2222 58.922H16.5V60.9532C16.5 61.2226 16.3913 61.4809 16.198 61.6714C16.0046 61.8618 15.7423 61.9688 15.4687 61.9688H1.03125C0.757745 61.9688 0.495443 61.8618 0.302046 61.6714C0.108649 61.4809 0 61.2226 0 60.9532V31.5001C0 31.2307 0.108649 30.9724 0.302046 30.7819C0.495443 30.5915 0.757745 30.4845 1.03125 30.4845H15.4687C15.7423 30.4845 16.0046 30.5915 16.198 30.7819C16.3913 30.9724 16.5 31.2307 16.5 31.5001V33.5313H17.8819C18.2884 33.5335 18.6912 33.4555 19.0667 33.302C19.4421 33.1485 19.7826 32.9226 20.0681 32.6376L24.8737 27.9048C25.3533 27.4332 25.9226 27.0595 26.549 26.8051C27.1755 26.5506 27.8467 26.4204 28.5244 26.422H30.9375V22.0649C30.9414 21.6282 30.8473 21.196 30.6619 20.7992C30.4765 20.4024 30.2044 20.0508 29.865 19.7696C28.3793 18.5501 27.235 16.9766 26.5406 15.1988C25.8462 13.421 25.6249 11.4979 25.8977 9.6122C26.1705 7.72646 26.9284 5.94073 28.0992 4.42466C29.2701 2.90859 30.8151 1.71252 32.5875 0.950094C32.7454 0.884972 32.9169 0.858353 33.0874 0.872498C33.258 0.886644 33.4226 0.941136 33.5672 1.03134C33.7097 1.12515 33.8265 1.25203 33.9074 1.40081C33.9884 1.54959 34.0309 1.71569 34.0312 1.88447V11.6954L37.125 13.9806L40.2187 11.6954V1.88447C40.2191 1.71569 40.2616 1.54959 40.3426 1.40081C40.4235 1.25203 40.5403 1.12515 40.6828 1.03134C40.8275 0.941377 40.9921 0.887027 41.1626 0.872885C41.3331 0.858743 41.5046 0.885225 41.6625 0.950094C44.312 2.08774 46.4189 4.18091 47.5509 6.80009L48.7059 6.34306L50.6034 1.67119C50.6795 1.48175 50.8116 1.3192 50.9826 1.20466C51.1536 1.09012 51.3557 1.02887 51.5625 1.02887C51.7693 1.02887 51.9714 1.09012 52.1424 1.20466C52.3134 1.3192 52.4455 1.48175 52.5216 1.67119L54.4191 6.34306ZM2.0625 59.9376H14.4375V32.5157H2.0625V59.9376ZM48.914 38.1457C48.5156 37.7762 47.9845 37.5777 47.4375 37.5938H34.0312C33.2115 37.5914 32.426 37.2696 31.8463 36.6988C31.2667 36.1279 30.9399 35.3543 30.9375 34.547V28.4532H28.5244C28.1179 28.4511 27.715 28.5291 27.3396 28.6826C26.9641 28.8361 26.6236 29.062 26.3381 29.347L21.5325 34.0798C21.053 34.5513 20.4837 34.925 19.8572 35.1795C19.2308 35.4339 18.5595 35.5641 17.8819 35.5626H16.5V56.8907H18.2222C19.3377 56.8913 20.4231 57.2476 21.3159 57.9063L23.2341 59.3282C23.7702 59.7226 24.4211 59.9363 25.0903 59.9376H45.375C45.8976 59.9147 46.3918 59.6971 46.7576 59.3288C47.1234 58.9606 47.3335 58.4692 47.3452 57.9542C47.357 57.4391 47.1697 56.9389 46.8211 56.5548C46.4725 56.1707 45.9888 55.9313 45.4678 55.8852L39.1875 55.8751C38.914 55.8751 38.6517 55.7681 38.4583 55.5776C38.2649 55.3872 38.1562 55.1288 38.1562 54.8595C38.1562 54.5901 38.2649 54.3318 38.4583 54.1413C38.6517 53.9508 38.914 53.8438 39.1875 53.8438L47.4272 53.854H47.4375C47.9845 53.8675 48.5145 53.6664 48.911 53.295C49.3075 52.9236 49.5379 52.4123 49.5516 51.8735C49.5652 51.3348 49.361 50.8128 48.9839 50.4223C48.6068 50.0319 48.0876 49.805 47.5406 49.7915L39.1875 49.7813C38.914 49.7813 38.6517 49.6743 38.4583 49.4839C38.2649 49.2934 38.1562 49.0351 38.1562 48.7657C38.1562 48.4964 38.2649 48.238 38.4583 48.0476C38.6517 47.8571 38.914 47.7501 39.1875 47.7501L48.4584 47.7602H48.4687C49.0171 47.7602 49.543 47.5457 49.9308 47.1638C50.3186 46.7819 50.5364 46.264 50.5364 45.7239C50.5364 45.1839 50.3186 44.6659 49.9308 44.284C49.543 43.9021 49.0171 43.6876 48.4687 43.6876H39.1875C38.914 43.6876 38.6517 43.5806 38.4583 43.3901C38.2649 43.1997 38.1562 42.9413 38.1562 42.672C38.1562 42.4026 38.2649 42.1443 38.4583 41.9538C38.6517 41.7633 38.914 41.6563 39.1875 41.6563H47.5612C48.1083 41.6402 48.6263 41.4107 49.0015 41.0183C49.3767 40.626 49.5783 40.1029 49.5619 39.5642C49.5455 39.0254 49.3124 38.5152 48.914 38.1457ZM41.7197 19.9356C42.0335 19.2685 42.4928 18.6777 43.065 18.2056C44.1125 17.3505 44.9552 16.2779 45.5329 15.0647C46.1105 13.8515 46.4087 12.5276 46.4062 11.1876C46.4062 11.1684 46.4039 11.1492 46.4015 11.129C46.3988 11.1063 46.3959 11.0824 46.3959 11.0556L43.9622 10.1009C43.7698 10.026 43.6048 9.8959 43.4885 9.72747C43.3722 9.55903 43.31 9.36004 43.31 9.15634C43.31 8.95265 43.3722 8.75366 43.4885 8.58522C43.6048 8.41679 43.7698 8.28668 43.9622 8.21181L45.6431 7.55166C44.9334 5.93993 43.7659 4.56447 42.2812 3.59072V12.2032C42.2801 12.3607 42.2424 12.5158 42.1709 12.6567C42.0994 12.7975 41.996 12.9204 41.8687 13.0157L37.7437 16.0626C37.5659 16.196 37.3485 16.2683 37.125 16.2683C36.9014 16.2683 36.6841 16.196 36.5062 16.0626L32.3812 13.0157C32.254 12.9204 32.1506 12.7975 32.0791 12.6567C32.0076 12.5158 31.9698 12.3607 31.9687 12.2032V3.59072C30.7685 4.37956 29.7717 5.43342 29.0578 6.66842C28.3439 7.90342 27.9325 9.28548 27.8564 10.7046C27.7803 12.1238 28.0416 13.5408 28.6194 14.843C29.1973 16.1452 30.0758 17.2966 31.185 18.2056C31.7572 18.6777 32.2165 19.2685 32.5303 19.9356C32.844 20.6027 33.0044 21.3298 33 22.0649V34.547C33 34.8163 33.1086 35.0747 33.302 35.2651C33.4954 35.4556 33.7577 35.5626 34.0312 35.5626H36.0937V25.4063C36.0937 25.137 36.2024 24.8787 36.3958 24.6882C36.5892 24.4977 36.8515 24.3907 37.125 24.3907C37.3985 24.3907 37.6608 24.4977 37.8542 24.6882C38.0476 24.8787 38.1562 25.137 38.1562 25.4063V35.5626H41.25V22.0649C41.2456 21.3298 41.406 20.6027 41.7197 19.9356ZM52.6969 10.7407C52.811 10.5145 53.0055 10.3374 53.2434 10.2431L56.0072 9.15634L53.2434 8.06963C53.1118 8.02039 52.9923 7.94425 52.8928 7.84621C52.7932 7.74818 52.7159 7.63048 52.6659 7.50088L51.5625 4.779L50.4591 7.50088C50.4091 7.63048 50.3318 7.74818 50.2322 7.84621C50.1327 7.94425 50.0132 8.02039 49.8816 8.06963L47.2931 9.08525C47.288 9.08525 47.2854 9.08779 47.2828 9.09033C47.2802 9.09287 47.2776 9.09541 47.2725 9.09541C47.2673 9.09541 47.2647 9.09541 47.2635 9.09669C47.2622 9.09797 47.2622 9.10051 47.2622 9.10556L47.1178 9.15634L49.8816 10.2431C50.1195 10.3374 50.314 10.5145 50.4281 10.7407L51.5625 13.0157L52.6969 10.7407ZM13.0237 23.303L17.8107 25.189L19.6969 28.9732C19.782 29.1433 19.9137 29.2865 20.0772 29.3867C20.2407 29.4868 20.4294 29.5399 20.6219 29.5399C20.8144 29.5399 21.0031 29.4868 21.1666 29.3867C21.3301 29.2865 21.4618 29.1433 21.5469 28.9732L23.4362 25.189L28.2232 23.303C28.415 23.2278 28.5793 23.0977 28.6951 22.9294C28.8109 22.7612 28.8729 22.5627 28.8729 22.3595C28.8729 22.1562 28.8109 21.9577 28.6951 21.7895C28.5793 21.6213 28.415 21.4912 28.2232 21.416L23.4795 19.5462L21.581 14.8743C21.5046 14.6855 21.3725 14.5236 21.2017 14.4096C21.0309 14.2955 20.8293 14.2346 20.6229 14.2346C20.4166 14.2346 20.215 14.2955 20.0442 14.4096C19.8734 14.5236 19.7413 14.6855 19.6649 14.8743L17.7664 19.5462L13.0226 21.416C12.8309 21.4912 12.6665 21.6213 12.5507 21.7895C12.4349 21.9577 12.373 22.1562 12.373 22.3595C12.373 22.5627 12.4349 22.7612 12.5507 22.9294C12.6665 23.0977 12.832 23.2278 13.0237 23.303ZM18.9451 21.2717C19.0749 21.2208 19.1929 21.1443 19.2918 21.0471C19.3907 20.9498 19.4685 20.8338 19.5205 20.706L20.625 17.9842L21.7295 20.706C21.7815 20.8338 21.8593 20.9498 21.9582 21.0471C22.0571 21.1443 22.1751 21.2208 22.3049 21.2717L25.0676 22.3595L22.3049 23.4472C22.0681 23.5406 21.8748 23.7172 21.7625 23.9428L20.625 26.2188L19.4906 23.9398C19.3783 23.7142 19.185 23.5376 18.9482 23.4442L16.1824 22.3595L18.9451 21.2717ZM56.4826 24.6243L61.2263 26.4941H61.2232C61.4149 26.5693 61.5793 26.6994 61.6951 26.8676C61.8109 27.0358 61.8729 27.2344 61.8729 27.4376C61.8729 27.6408 61.8109 27.8394 61.6951 28.0076C61.5793 28.1758 61.4149 28.3059 61.2232 28.3811L56.4362 30.2671L54.5469 34.0513C54.4618 34.2214 54.3301 34.3646 54.1666 34.4648C54.0031 34.5649 53.8144 34.618 53.6219 34.618C53.4294 34.618 53.2407 34.5649 53.0772 34.4648C52.9137 34.3646 52.782 34.2214 52.6969 34.0513L50.8128 30.2671L46.0257 28.3811C45.834 28.3059 45.6696 28.1758 45.5538 28.0076C45.438 27.8394 45.3761 27.6408 45.3761 27.4376C45.3761 27.2344 45.438 27.0358 45.5538 26.8676C45.6696 26.6994 45.834 26.5693 46.0257 26.4941L50.7695 24.6243L52.668 19.9524C52.7444 19.7636 52.8765 19.6017 53.0473 19.4877C53.2181 19.3736 53.4197 19.3127 53.626 19.3127C53.8324 19.3127 54.034 19.3736 54.2048 19.4877C54.3756 19.6017 54.5077 19.7636 54.5841 19.9524L56.4826 24.6243ZM54.7625 29.021C54.8748 28.7953 55.0681 28.6188 55.3049 28.5253L58.0676 27.4376L55.3049 26.3499C55.1751 26.2989 55.0571 26.2225 54.9582 26.1252C54.8593 26.028 54.7814 25.9119 54.7295 25.7842L53.625 23.0623L52.5205 25.7842C52.4685 25.9119 52.3907 26.028 52.2918 26.1252C52.1929 26.2225 52.0749 26.2989 51.9451 26.3499L49.1824 27.4376L51.9482 28.5223C52.185 28.6157 52.3783 28.7923 52.4906 29.0179L53.625 31.297L54.7625 29.021ZM6.5312 52.3261C7.03997 51.9913 7.63811 51.8126 8.25 51.8126C9.07051 51.8126 9.85742 52.1336 10.4376 52.705C11.0178 53.2764 11.3438 54.0514 11.3438 54.8595C11.3438 55.4621 11.1623 56.0512 10.8224 56.5522C10.4824 57.0533 9.99924 57.4438 9.43393 57.6744C8.86862 57.905 8.24657 57.9654 7.64644 57.8478C7.04631 57.7302 6.49506 57.44 6.06239 57.0139C5.62972 56.5878 5.33507 56.0449 5.2157 55.4539C5.09632 54.8628 5.15759 54.2502 5.39175 53.6935C5.62591 53.1367 6.02244 52.6609 6.5312 52.3261ZM7.67707 55.7039C7.84666 55.8155 8.04604 55.8751 8.25 55.8751C8.52351 55.8751 8.78581 55.7681 8.9792 55.5776C9.1726 55.3872 9.28125 55.1288 9.28125 54.8595C9.28125 54.6586 9.22077 54.4622 9.10745 54.2952C8.99414 54.1282 8.83308 53.998 8.64464 53.9212C8.45621 53.8443 8.24886 53.8242 8.04881 53.8634C7.84877 53.9025 7.66502 53.9993 7.5208 54.1413C7.37657 54.2833 7.27836 54.4643 7.23857 54.6613C7.19877 54.8583 7.2192 55.0625 7.29725 55.2481C7.3753 55.4337 7.50748 55.5923 7.67707 55.7039Z" fill="#70AA87"/>
<path fill-rule="evenodd" clip-rule="evenodd" d="M54.4191 6.34306L59.1628 8.21181C59.3552 8.28668 59.5202 8.41679 59.6365 8.58522C59.7528 8.75366 59.815 8.95265 59.815 9.15634C59.815 9.36004 59.7528 9.55903 59.6365 9.72747C59.5202 9.8959 59.3552 10.026 59.1628 10.1009L54.3778 11.9899L52.4906 15.7681C52.4062 15.9398 52.2743 16.0846 52.1102 16.1859C51.946 16.2872 51.7562 16.341 51.5625 16.341C51.3688 16.341 51.179 16.2872 51.0148 16.1859C50.8507 16.0846 50.7188 15.9398 50.6344 15.7681L48.7472 11.9899L48.4275 11.8579C48.3422 13.3795 47.9391 14.8674 47.2436 16.2287C46.548 17.59 45.5749 18.7954 44.385 19.7696C44.0456 20.0508 43.7735 20.4024 43.5881 20.7992C43.4027 21.196 43.3086 21.6282 43.3125 22.0649V35.5626H47.4375C48.2248 35.56 48.9963 35.78 49.6603 36.1967C50.3243 36.6134 50.8528 37.2091 51.1831 37.913C51.5133 38.6169 51.6313 39.3994 51.523 40.1674C51.4148 40.9354 51.0849 41.6567 50.5725 42.2454C51.113 42.5602 51.5733 42.9926 51.9181 43.5095C52.2628 44.0264 52.4829 44.6141 52.5616 45.2277C52.6402 45.8413 52.5752 46.4645 52.3717 47.0495C52.1681 47.6346 51.8314 48.1661 51.3872 48.6032C51.1415 48.8379 50.868 49.0425 50.5725 49.2126C51.2078 49.9346 51.5591 50.8572 51.5625 51.8126C51.5651 52.3481 51.4598 52.8787 51.2527 53.3739C51.0456 53.869 50.7408 54.3187 50.3559 54.697C49.9174 55.1254 49.3846 55.4486 48.7987 55.6415C49.2156 56.2529 49.4559 56.9643 49.4939 57.6998C49.532 58.4352 49.3663 59.167 49.0146 59.8169C48.663 60.4668 48.1385 61.0103 47.4975 61.3894C46.8564 61.7684 46.1227 61.9687 45.375 61.9688H25.0903C23.9747 61.9683 22.8894 61.6119 21.9966 60.9532L20.0784 59.5313C19.5423 59.137 18.8914 58.9233 18.2222 58.922H16.5V60.9532C16.5 61.2226 16.3913 61.4809 16.198 61.6714C16.0046 61.8618 15.7423 61.9688 15.4687 61.9688H1.03125C0.757745 61.9688 0.495443 61.8618 0.302046 61.6714C0.108649 61.4809 0 61.2226 0 60.9532V31.5001C0 31.2307 0.108649 30.9724 0.302046 30.7819C0.495443 30.5915 0.757745 30.4845 1.03125 30.4845H15.4687C15.7423 30.4845 16.0046 30.5915 16.198 30.7819C16.3913 30.9724 16.5 31.2307 16.5 31.5001V33.5313H17.8819C18.2884 33.5335 18.6912 33.4555 19.0667 33.302C19.4421 33.1485 19.7826 32.9226 20.0681 32.6376L24.8737 27.9048C25.3533 27.4332 25.9226 27.0595 26.549 26.8051C27.1755 26.5506 27.8467 26.4204 28.5244 26.422H30.9375V22.0649C30.9414 21.6282 30.8473 21.196 30.6619 20.7992C30.4765 20.4024 30.2044 20.0508 29.865 19.7696C28.3793 18.5501 27.235 16.9766 26.5406 15.1988C25.8462 13.421 25.6249 11.4979 25.8977 9.6122C26.1705 7.72646 26.9284 5.94073 28.0992 4.42466C29.2701 2.90859 30.8151 1.71252 32.5875 0.950094C32.7454 0.884972 32.9169 0.858353 33.0874 0.872498C33.258 0.886644 33.4226 0.941136 33.5672 1.03134C33.7097 1.12515 33.8265 1.25203 33.9074 1.40081C33.9884 1.54959 34.0309 1.71569 34.0312 1.88447V11.6954L37.125 13.9806L40.2187 11.6954V1.88447C40.2191 1.71569 40.2616 1.54959 40.3426 1.40081C40.4235 1.25203 40.5403 1.12515 40.6828 1.03134C40.8275 0.941377 40.9921 0.887027 41.1626 0.872885C41.3331 0.858743 41.5046 0.885225 41.6625 0.950094C44.312 2.08774 46.4189 4.18091 47.5509 6.80009L48.7059 6.34306L50.6034 1.67119C50.6795 1.48175 50.8116 1.3192 50.9826 1.20466C51.1536 1.09012 51.3557 1.02887 51.5625 1.02887C51.7693 1.02887 51.9714 1.09012 52.1424 1.20466C52.3134 1.3192 52.4455 1.48175 52.5216 1.67119L54.4191 6.34306ZM2.0625 59.9376H14.4375V32.5157H2.0625V59.9376ZM48.914 38.1457C48.5156 37.7762 47.9845 37.5777 47.4375 37.5938H34.0312C33.2115 37.5914 32.426 37.2696 31.8463 36.6988C31.2667 36.1279 30.9399 35.3543 30.9375 34.547V28.4532H28.5244C28.1179 28.4511 27.715 28.5291 27.3396 28.6826C26.9641 28.8361 26.6236 29.062 26.3381 29.347L21.5325 34.0798C21.053 34.5513 20.4837 34.925 19.8572 35.1795C19.2308 35.4339 18.5595 35.5641 17.8819 35.5626H16.5V56.8907H18.2222C19.3377 56.8913 20.4231 57.2476 21.3159 57.9063L23.2341 59.3282C23.7702 59.7226 24.4211 59.9363 25.0903 59.9376H45.375C45.8976 59.9147 46.3918 59.6971 46.7576 59.3288C47.1234 58.9606 47.3335 58.4692 47.3452 57.9542C47.357 57.4391 47.1697 56.9389 46.8211 56.5548C46.4725 56.1707 45.9888 55.9313 45.4678 55.8852L39.1875 55.8751C38.914 55.8751 38.6517 55.7681 38.4583 55.5776C38.2649 55.3872 38.1562 55.1288 38.1562 54.8595C38.1562 54.5901 38.2649 54.3318 38.4583 54.1413C38.6517 53.9508 38.914 53.8438 39.1875 53.8438L47.4272 53.854H47.4375C47.9845 53.8675 48.5145 53.6664 48.911 53.295C49.3075 52.9236 49.5379 52.4123 49.5516 51.8735C49.5652 51.3348 49.361 50.8128 48.9839 50.4223C48.6068 50.0319 48.0876 49.805 47.5406 49.7915L39.1875 49.7813C38.914 49.7813 38.6517 49.6743 38.4583 49.4839C38.2649 49.2934 38.1562 49.0351 38.1562 48.7657C38.1562 48.4964 38.2649 48.238 38.4583 48.0476C38.6517 47.8571 38.914 47.7501 39.1875 47.7501L48.4584 47.7602H48.4687C49.0171 47.7602 49.543 47.5457 49.9308 47.1638C50.3186 46.7819 50.5364 46.264 50.5364 45.7239C50.5364 45.1839 50.3186 44.6659 49.9308 44.284C49.543 43.9021 49.0171 43.6876 48.4687 43.6876H39.1875C38.914 43.6876 38.6517 43.5806 38.4583 43.3901C38.2649 43.1997 38.1562 42.9413 38.1562 42.672C38.1562 42.4026 38.2649 42.1443 38.4583 41.9538C38.6517 41.7633 38.914 41.6563 39.1875 41.6563H47.5612C48.1083 41.6402 48.6263 41.4107 49.0015 41.0183C49.3767 40.626 49.5783 40.1029 49.5619 39.5642C49.5455 39.0254 49.3124 38.5152 48.914 38.1457ZM41.7197 19.9356C42.0335 19.2685 42.4928 18.6777 43.065 18.2056C44.1125 17.3505 44.9552 16.2779 45.5329 15.0647C46.1105 13.8515 46.4087 12.5276 46.4062 11.1876C46.4062 11.1684 46.4039 11.1492 46.4015 11.129C46.3988 11.1063 46.3959 11.0824 46.3959 11.0556L43.9622 10.1009C43.7698 10.026 43.6048 9.8959 43.4885 9.72747C43.3722 9.55903 43.31 9.36004 43.31 9.15634C43.31 8.95265 43.3722 8.75366 43.4885 8.58522C43.6048 8.41679 43.7698 8.28668 43.9622 8.21181L45.6431 7.55166C44.9334 5.93993 43.7659 4.56447 42.2812 3.59072V12.2032C42.2801 12.3607 42.2424 12.5158 42.1709 12.6567C42.0994 12.7975 41.996 12.9204 41.8687 13.0157L37.7437 16.0626C37.5659 16.196 37.3485 16.2683 37.125 16.2683C36.9014 16.2683 36.6841 16.196 36.5062 16.0626L32.3812 13.0157C32.254 12.9204 32.1506 12.7975 32.0791 12.6567C32.0076 12.5158 31.9698 12.3607 31.9687 12.2032V3.59072C30.7685 4.37956 29.7717 5.43342 29.0578 6.66842C28.3439 7.90342 27.9325 9.28548 27.8564 10.7046C27.7803 12.1238 28.0416 13.5408 28.6194 14.843C29.1973 16.1452 30.0758 17.2966 31.185 18.2056C31.7572 18.6777 32.2165 19.2685 32.5303 19.9356C32.844 20.6027 33.0044 21.3298 33 22.0649V34.547C33 34.8163 33.1086 35.0747 33.302 35.2651C33.4954 35.4556 33.7577 35.5626 34.0312 35.5626H36.0937V25.4063C36.0937 25.137 36.2024 24.8787 36.3958 24.6882C36.5892 24.4977 36.8515 24.3907 37.125 24.3907C37.3985 24.3907 37.6608 24.4977 37.8542 24.6882C38.0476 24.8787 38.1562 25.137 38.1562 25.4063V35.5626H41.25V22.0649C41.2456 21.3298 41.406 20.6027 41.7197 19.9356ZM52.6969 10.7407C52.811 10.5145 53.0055 10.3374 53.2434 10.2431L56.0072 9.15634L53.2434 8.06963C53.1118 8.02039 52.9923 7.94425 52.8928 7.84621C52.7932 7.74818 52.7159 7.63048 52.6659 7.50088L51.5625 4.779L50.4591 7.50088C50.4091 7.63048 50.3318 7.74818 50.2322 7.84621C50.1327 7.94425 50.0132 8.02039 49.8816 8.06963L47.2931 9.08525C47.288 9.08525 47.2854 9.08779 47.2828 9.09033C47.2802 9.09287 47.2776 9.09541 47.2725 9.09541C47.2673 9.09541 47.2647 9.09541 47.2635 9.09669C47.2622 9.09797 47.2622 9.10051 47.2622 9.10556L47.1178 9.15634L49.8816 10.2431C50.1195 10.3374 50.314 10.5145 50.4281 10.7407L51.5625 13.0157L52.6969 10.7407ZM13.0237 23.303L17.8107 25.189L19.6969 28.9732C19.782 29.1433 19.9137 29.2865 20.0772 29.3867C20.2407 29.4868 20.4294 29.5399 20.6219 29.5399C20.8144 29.5399 21.0031 29.4868 21.1666 29.3867C21.3301 29.2865 21.4618 29.1433 21.5469 28.9732L23.4362 25.189L28.2232 23.303C28.415 23.2278 28.5793 23.0977 28.6951 22.9294C28.8109 22.7612 28.8729 22.5627 28.8729 22.3595C28.8729 22.1562 28.8109 21.9577 28.6951 21.7895C28.5793 21.6213 28.415 21.4912 28.2232 21.416L23.4795 19.5462L21.581 14.8743C21.5046 14.6855 21.3725 14.5236 21.2017 14.4096C21.0309 14.2955 20.8293 14.2346 20.6229 14.2346C20.4166 14.2346 20.215 14.2955 20.0442 14.4096C19.8734 14.5236 19.7413 14.6855 19.6649 14.8743L17.7664 19.5462L13.0226 21.416C12.8309 21.4912 12.6665 21.6213 12.5507 21.7895C12.4349 21.9577 12.373 22.1562 12.373 22.3595C12.373 22.5627 12.4349 22.7612 12.5507 22.9294C12.6665 23.0977 12.832 23.2278 13.0237 23.303ZM18.9451 21.2717C19.0749 21.2208 19.1929 21.1443 19.2918 21.0471C19.3907 20.9498 19.4685 20.8338 19.5205 20.706L20.625 17.9842L21.7295 20.706C21.7815 20.8338 21.8593 20.9498 21.9582 21.0471C22.0571 21.1443 22.1751 21.2208 22.3049 21.2717L25.0676 22.3595L22.3049 23.4472C22.0681 23.5406 21.8748 23.7172 21.7625 23.9428L20.625 26.2188L19.4906 23.9398C19.3783 23.7142 19.185 23.5376 18.9482 23.4442L16.1824 22.3595L18.9451 21.2717ZM56.4826 24.6243L61.2263 26.4941H61.2232C61.4149 26.5693 61.5793 26.6994 61.6951 26.8676C61.8109 27.0358 61.8729 27.2344 61.8729 27.4376C61.8729 27.6408 61.8109 27.8394 61.6951 28.0076C61.5793 28.1758 61.4149 28.3059 61.2232 28.3811L56.4362 30.2671L54.5469 34.0513C54.4618 34.2214 54.3301 34.3646 54.1666 34.4648C54.0031 34.5649 53.8144 34.618 53.6219 34.618C53.4294 34.618 53.2407 34.5649 53.0772 34.4648C52.9137 34.3646 52.782 34.2214 52.6969 34.0513L50.8128 30.2671L46.0257 28.3811C45.834 28.3059 45.6696 28.1758 45.5538 28.0076C45.438 27.8394 45.3761 27.6408 45.3761 27.4376C45.3761 27.2344 45.438 27.0358 45.5538 26.8676C45.6696 26.6994 45.834 26.5693 46.0257 26.4941L50.7695 24.6243L52.668 19.9524C52.7444 19.7636 52.8765 19.6017 53.0473 19.4877C53.2181 19.3736 53.4197 19.3127 53.626 19.3127C53.8324 19.3127 54.034 19.3736 54.2048 19.4877C54.3756 19.6017 54.5077 19.7636 54.5841 19.9524L56.4826 24.6243ZM54.7625 29.021C54.8748 28.7953 55.0681 28.6188 55.3049 28.5253L58.0676 27.4376L55.3049 26.3499C55.1751 26.2989 55.0571 26.2225 54.9582 26.1252C54.8593 26.028 54.7814 25.9119 54.7295 25.7842L53.625 23.0623L52.5205 25.7842C52.4685 25.9119 52.3907 26.028 52.2918 26.1252C52.1929 26.2225 52.0749 26.2989 51.9451 26.3499L49.1824 27.4376L51.9482 28.5223C52.185 28.6157 52.3783 28.7923 52.4906 29.0179L53.625 31.297L54.7625 29.021ZM6.5312 52.3261C7.03997 51.9913 7.63811 51.8126 8.25 51.8126C9.07051 51.8126 9.85742 52.1336 10.4376 52.705C11.0178 53.2764 11.3438 54.0514 11.3438 54.8595C11.3438 55.4621 11.1623 56.0512 10.8224 56.5522C10.4824 57.0533 9.99924 57.4438 9.43393 57.6744C8.86862 57.905 8.24657 57.9654 7.64644 57.8478C7.04631 57.7302 6.49506 57.44 6.06239 57.0139C5.62972 56.5878 5.33507 56.0449 5.2157 55.4539C5.09632 54.8628 5.15759 54.2502 5.39175 53.6935C5.62591 53.1367 6.02244 52.6609 6.5312 52.3261ZM7.67707 55.7039C7.84666 55.8155 8.04604 55.8751 8.25 55.8751C8.52351 55.8751 8.78581 55.7681 8.9792 55.5776C9.1726 55.3872 9.28125 55.1288 9.28125 54.8595C9.28125 54.6586 9.22077 54.4622 9.10745 54.2952C8.99414 54.1282 8.83308 53.998 8.64464 53.9212C8.45621 53.8443 8.24886 53.8242 8.04881 53.8634C7.84877 53.9025 7.66502 53.9993 7.5208 54.1413C7.37657 54.2833 7.27836 54.4643 7.23857 54.6613C7.19877 54.8583 7.2192 55.0625 7.29725 55.2481C7.3753 55.4337 7.50748 55.5923 7.67707 55.7039Z" fill="url(#paint0_radial_169_4277)"/>
<defs>
<radialGradient id="paint0_radial_169_4277" cx="0" cy="0" r="1" gradientUnits="userSpaceOnUse" gradientTransform="translate(11.2011 9.82315) rotate(44.3605) scale(76.8424 306.77)">
<stop stop-color="#7DA377"/>
<stop offset="1" stop-color="#70AA87" stop-opacity="0"/>
</radialGradient>
</defs>
</svg>
