<svg width="25" height="25" viewBox="0 0 25 25" fill="none" xmlns="http://www.w3.org/2000/svg">
<path d="M21.5 10.25H22.25C22.664 10.25 23 9.914 23 9.5C23 9.086 22.664 8.75 22.25 8.75H20.4245L19.2665 6.82025C18.593 5.6975 17.3608 5 16.0513 5H8.94875C7.63925 5 6.407 5.6975 5.7335 6.82025L4.5755 8.75H2.75C2.336 8.75 2 9.086 2 9.5C2 9.914 2.336 10.25 2.75 10.25H3.5L3.05 10.85C2.37275 11.753 2 12.8713 2 14V17.75C2 18.9905 3.0095 20 4.25 20H5.75C6.9905 20 8 18.9905 8 17.75H17C17 18.9905 18.0095 20 19.25 20H20.75C21.9905 20 23 18.9905 23 17.75V14C23 12.8713 22.6273 11.7523 21.95 10.85L21.5 10.25ZM7.01975 7.59275C7.424 6.91925 8.16275 6.5 8.94875 6.5H16.052C16.838 6.5 17.5768 6.9185 17.981 7.59275L18.989 9.27275L18.4678 9.62C17.8498 10.0317 17.1305 10.25 16.3873 10.25H8.612C7.8695 10.25 7.15025 10.0325 6.53225 9.62075L6.011 9.27275L7.019 7.592L7.01975 7.59275ZM21.5007 17.75C21.5007 18.1632 21.164 18.5 20.7507 18.5H19.2507C18.8375 18.5 18.5007 18.1632 18.5007 17.75V17C18.5007 16.586 18.1647 16.25 17.7507 16.25H7.25C6.836 16.25 6.5 16.586 6.5 17V17.75C6.5 18.1632 6.16325 18.5 5.75 18.5H4.25C3.83675 18.5 3.5 18.1632 3.5 17.75V14C3.5 13.1938 3.76625 12.3942 4.25 11.75L5.174 10.5178L5.7005 10.8687C6.566 11.4455 7.5725 11.75 8.612 11.75H16.3873C17.4275 11.75 18.434 11.4448 19.2995 10.868L19.8253 10.5178L20.7493 11.75C21.233 12.3942 21.4993 13.1938 21.4993 14V17.75H21.5007Z" fill="white"/>
<path d="M19.25 14.75C19.6642 14.75 20 14.4142 20 14C20 13.5858 19.6642 13.25 19.25 13.25C18.8358 13.25 18.5 13.5858 18.5 14C18.5 14.4142 18.8358 14.75 19.25 14.75Z" fill="white"/>
<path d="M5.75 14.75C6.16421 14.75 6.5 14.4142 6.5 14C6.5 13.5858 6.16421 13.25 5.75 13.25C5.33579 13.25 5 13.5858 5 14C5 14.4142 5.33579 14.75 5.75 14.75Z" fill="white"/>
</svg>
