<svg width="24" height="24" viewBox="0 0 24 24" fill="none" xmlns="http://www.w3.org/2000/svg">
<g clip-path="url(#clip0_169_6116)">
<path fill-rule="evenodd" clip-rule="evenodd" d="M7 10.999C9.205 10.999 11 9.206 11 7C11 4.794 9.205 3 7 3C4.795 3 3 4.794 3 7C3 9.205 4.795 10.999 7 10.999ZM7 5C8.104 5 9 5.898 9 7C9 8.103 8.104 8.999 7 8.999C5.896 8.999 5 8.103 5 7C5 5.898 5.896 5 7 5ZM17 13C14.795 13 13 14.794 13 17C13 19.206 14.795 21 17 21C19.205 21 21 19.206 21 17C21 14.794 19.205 13 17 13ZM17 19C15.896 19 15 18.103 15 17C15 15.898 15.896 15 17 15C18.104 15 19 15.898 19 17C19 18.103 18.104 19 17 19ZM3.29248 19.293L19.292 3.29342L20.7055 4.70691L4.70597 20.7065L3.29248 19.293Z" fill="#1E1E1E"/>
<path fill-rule="evenodd" clip-rule="evenodd" d="M7 10.999C9.205 10.999 11 9.206 11 7C11 4.794 9.205 3 7 3C4.795 3 3 4.794 3 7C3 9.205 4.795 10.999 7 10.999ZM7 5C8.104 5 9 5.898 9 7C9 8.103 8.104 8.999 7 8.999C5.896 8.999 5 8.103 5 7C5 5.898 5.896 5 7 5ZM17 13C14.795 13 13 14.794 13 17C13 19.206 14.795 21 17 21C19.205 21 21 19.206 21 17C21 14.794 19.205 13 17 13ZM17 19C15.896 19 15 18.103 15 17C15 15.898 15.896 15 17 15C18.104 15 19 15.898 19 17C19 18.103 18.104 19 17 19ZM3.29248 19.293L19.292 3.29342L20.7055 4.70691L4.70597 20.7065L3.29248 19.293Z" fill="url(#paint0_radial_169_6116)"/>
</g>
<defs>
<radialGradient id="paint0_radial_169_6116" cx="0" cy="0" r="1" gradientUnits="userSpaceOnUse" gradientTransform="translate(14.8911 25.3548) rotate(87.6426) scale(124.073 15.7109)">
<stop stop-color="#70AA87"/>
<stop offset="1" stop-color="#70AA87" stop-opacity="0"/>
</radialGradient>
<clipPath id="clip0_169_6116">
<rect width="24" height="24" fill="white"/>
</clipPath>
</defs>
</svg>
