<svg width="18" height="18" viewBox="0 0 18 18" fill="none" xmlns="http://www.w3.org/2000/svg">
<g clip-path="url(#clip0_449_147)">
<path d="M10.77 3.05899L11.4652 2.36383C12.617 1.21206 14.4844 1.21206 15.6362 2.36383C16.7879 3.51561 16.7879 5.38301 15.6362 6.53479L14.941 7.22995M10.77 3.05899C10.77 3.05899 10.8569 4.53621 12.1604 5.83963C13.4638 7.14306 14.941 7.22995 14.941 7.22995M10.77 3.05899L9 4.82904M14.941 7.22995L10.9955 11.1754L8.67096 13.5L8.55008 13.6209C8.1172 14.0538 7.90077 14.2702 7.66212 14.4563C7.38061 14.6759 7.07602 14.8641 6.75373 15.0177C6.48052 15.1479 6.19014 15.2447 5.60938 15.4383L3.14844 16.2586M3.14844 16.2586L2.54688 16.4592C2.26108 16.5544 1.94599 16.48 1.73297 16.267C1.51995 16.054 1.44557 15.7389 1.54084 15.4531L1.74136 14.8516M3.14844 16.2586L1.74136 14.8516M1.74136 14.8516L2.56167 12.3906C2.75526 11.8099 2.85205 11.5195 2.98226 11.2463C3.13585 10.924 3.3241 10.6194 3.54367 10.3379C3.72981 10.0992 3.94625 9.8828 4.37912 9.44992L6.375 7.45404" stroke="#98AEC3" stroke-width="1.5" stroke-linecap="round"/>
</g>
<defs>
<clipPath id="clip0_449_147">
<rect width="18" height="18" fill="white"/>
</clipPath>
</defs>
</svg>
