<svg width="12" height="13" viewBox="0 0 12 13" fill="none" xmlns="http://www.w3.org/2000/svg">
<path d="M11.25 5.84375H10.6828L9.35625 2.85781C9.30362 2.74259 9.21921 2.64478 9.11293 2.57587C9.00665 2.50695 8.88291 2.46979 8.75625 2.46875H3.24375C3.11709 2.46979 2.99335 2.50695 2.88707 2.57587C2.78079 2.64478 2.69638 2.74259 2.64375 2.85781L1.31719 5.84375H0.75C0.675408 5.84375 0.603871 5.87338 0.551126 5.92613C0.498382 5.97887 0.46875 6.05041 0.46875 6.125C0.46875 6.19959 0.498382 6.27113 0.551126 6.32387C0.603871 6.37662 0.675408 6.40625 0.75 6.40625H1.21875V10.25C1.21875 10.424 1.28789 10.591 1.41096 10.714C1.53403 10.8371 1.70095 10.9062 1.875 10.9062H3C3.17405 10.9062 3.34097 10.8371 3.46404 10.714C3.58711 10.591 3.65625 10.424 3.65625 10.25V9.40625H8.34375V10.25C8.34375 10.424 8.41289 10.591 8.53596 10.714C8.65903 10.8371 8.82595 10.9062 9 10.9062H10.125C10.299 10.9062 10.466 10.8371 10.589 10.714C10.7121 10.591 10.7812 10.424 10.7812 10.25V6.40625H11.25C11.3246 6.40625 11.3961 6.37662 11.4489 6.32387C11.5016 6.27113 11.5312 6.19959 11.5312 6.125C11.5312 6.05041 11.5016 5.97887 11.4489 5.92613C11.3961 5.87338 11.3246 5.84375 11.25 5.84375ZM3.15938 3.0875C3.16656 3.07102 3.17834 3.05696 3.1933 3.04698C3.20826 3.03701 3.22577 3.03155 3.24375 3.03125H8.75625C8.77423 3.03155 8.79174 3.03701 8.8067 3.04698C8.82166 3.05696 8.83344 3.07102 8.84063 3.0875L10.0688 5.84375H1.93125L3.15938 3.0875ZM10.2188 10.25C10.2188 10.2749 10.2089 10.2987 10.1913 10.3163C10.1737 10.3339 10.1499 10.3438 10.125 10.3438H9C8.97514 10.3438 8.95129 10.3339 8.93371 10.3163C8.91613 10.2987 8.90625 10.2749 8.90625 10.25V9.125C8.90625 9.05041 8.87662 8.97887 8.82387 8.92613C8.77113 8.87338 8.69959 8.84375 8.625 8.84375H3.375C3.30041 8.84375 3.22887 8.87338 3.17613 8.92613C3.12338 8.97887 3.09375 9.05041 3.09375 9.125V10.25C3.09375 10.2749 3.08387 10.2987 3.06629 10.3163C3.04871 10.3339 3.02486 10.3438 3 10.3438H1.875C1.85014 10.3438 1.82629 10.3339 1.80871 10.3163C1.79113 10.2987 1.78125 10.2749 1.78125 10.25V6.40625H10.2188V10.25Z" fill="black"/>
</svg>
