<svg width="12" height="13" viewBox="0 0 12 13" fill="none" xmlns="http://www.w3.org/2000/svg">
<path d="M5.99995 1.7C5.70747 1.69972 5.42495 1.80628 5.2055 1.99964C4.98605 2.193 4.84478 2.45985 4.80823 2.75004C4.77168 3.04023 4.84237 3.33378 5.00702 3.57552C5.17167 3.81725 5.41893 3.99054 5.70235 4.0628C5.70079 4.07514 5.69999 4.08756 5.69995 4.1V6.2C5.69995 6.27956 5.73156 6.35587 5.78782 6.41213C5.84408 6.46839 5.92039 6.5 5.99995 6.5C6.07952 6.5 6.15582 6.46839 6.21208 6.41213C6.26834 6.35587 6.29995 6.27956 6.29995 6.2V4.1C6.29991 4.08756 6.29911 4.07514 6.29755 4.0628C6.58097 3.99054 6.82824 3.81725 6.99288 3.57552C7.15753 3.33378 7.22822 3.04023 7.19167 2.75004C7.15512 2.45985 7.01385 2.193 6.7944 1.99964C6.57495 1.80628 6.29243 1.69972 5.99995 1.7ZM5.39995 2.9C5.39995 2.74087 5.46317 2.58826 5.57569 2.47573C5.68821 2.36321 5.84082 2.3 5.99995 2.3C6.15908 2.3 6.31169 2.36321 6.42422 2.47573C6.53674 2.58826 6.59995 2.74087 6.59995 2.9C6.59995 3.05913 6.53674 3.21174 6.42422 3.32426C6.31169 3.43678 6.15908 3.5 5.99995 3.5C5.84082 3.5 5.68821 3.43678 5.57569 3.32426C5.46317 3.21174 5.39995 3.05913 5.39995 2.9ZM2.39995 2.9C2.24082 2.9 2.08821 2.96321 1.97569 3.07573C1.86317 3.18826 1.79995 3.34087 1.79995 3.5V10.1C1.79995 10.2591 1.86317 10.4117 1.97569 10.5243C2.08821 10.6368 2.24082 10.7 2.39995 10.7C2.55908 10.7 2.71169 10.6368 2.82422 10.5243C2.93674 10.4117 2.99995 10.2591 2.99995 10.1V7.7C2.99995 7.62043 3.03156 7.54413 3.08782 7.48787C3.14408 7.4316 3.22039 7.4 3.29995 7.4H5.09995C5.17952 7.4 5.25582 7.4316 5.31208 7.48787C5.36834 7.54413 5.39995 7.62043 5.39995 7.7V10.1C5.39995 10.2591 5.46317 10.4117 5.57569 10.5243C5.68821 10.6368 5.84082 10.7 5.99995 10.7C6.15908 10.7 6.31169 10.6368 6.42422 10.5243C6.53674 10.4117 6.59995 10.2591 6.59995 10.1V8C6.59995 7.92043 6.63156 7.84413 6.68782 7.78787C6.74408 7.7316 6.82039 7.7 6.89995 7.7H9.89995C9.97952 7.7 10.0558 7.66839 10.1121 7.61213C10.1683 7.55587 10.2 7.47956 10.2 7.4V3.5C10.2 3.34087 10.1367 3.18826 10.0242 3.07573C9.91169 2.96321 9.75908 2.9 9.59995 2.9C9.44082 2.9 9.28821 2.96321 9.17569 3.07573C9.06317 3.18826 8.99995 3.34087 8.99995 3.5V5.9C8.99995 5.97956 8.96834 6.05587 8.91208 6.11213C8.85582 6.16839 8.77952 6.2 8.69995 6.2H7.19995C7.12039 6.2 7.04408 6.16839 6.98782 6.11213C6.93156 6.05587 6.89995 5.97956 6.89995 5.9C6.89995 5.82043 6.93156 5.74413 6.98782 5.68787C7.04408 5.6316 7.12039 5.6 7.19995 5.6H8.39995V3.5C8.39995 3.18174 8.52638 2.87651 8.75142 2.65147C8.97647 2.42643 9.28169 2.3 9.59995 2.3C9.91821 2.3 10.2234 2.42643 10.4485 2.65147C10.6735 2.87651 10.8 3.18174 10.8 3.5V7.4C10.8 7.63869 10.7051 7.86761 10.5363 8.03639C10.3676 8.20518 10.1386 8.3 9.89995 8.3H7.19995V10.1C7.19995 10.4183 7.07352 10.7235 6.84848 10.9485C6.62344 11.1736 6.31821 11.3 5.99995 11.3C5.68169 11.3 5.37647 11.1736 5.15142 10.9485C4.92638 10.7235 4.79995 10.4183 4.79995 10.1V8H3.59995V10.1C3.59995 10.4183 3.47352 10.7235 3.24848 10.9485C3.02344 11.1736 2.71821 11.3 2.39995 11.3C2.08169 11.3 1.77647 11.1736 1.55142 10.9485C1.32638 10.7235 1.19995 10.4183 1.19995 10.1V3.5C1.19995 3.18174 1.32638 2.87651 1.55142 2.65147C1.77647 2.42643 2.08169 2.3 2.39995 2.3C2.71821 2.3 3.02344 2.42643 3.24848 2.65147C3.47352 2.87651 3.59995 3.18174 3.59995 3.5V5.6H4.79995C4.87952 5.6 4.95582 5.6316 5.01208 5.68787C5.06834 5.74413 5.09995 5.82043 5.09995 5.9C5.09995 5.97956 5.06834 6.05587 5.01208 6.11213C4.95582 6.16839 4.87952 6.2 4.79995 6.2H3.29995C3.22039 6.2 3.14408 6.16839 3.08782 6.11213C3.03156 6.05587 2.99995 5.97956 2.99995 5.9V3.5C2.99995 3.34087 2.93674 3.18826 2.82422 3.07573C2.71169 2.96321 2.55908 2.9 2.39995 2.9Z" fill="black"/>
</svg>
