<svg width="10" height="10" viewBox="0 0 10 10" fill="none" xmlns="http://www.w3.org/2000/svg">
<path d="M3.75 0.810345C3.75 0.728036 3.71708 0.649099 3.65847 0.590898C3.59987 0.532697 3.52038 0.5 3.4375 0.5C3.35462 0.5 3.27513 0.532697 3.21653 0.590898C3.15792 0.649099 3.125 0.728036 3.125 0.810345V1.43103H2.5C2.16848 1.43103 1.85054 1.56182 1.61612 1.79463C1.3817 2.02743 1.25 2.34318 1.25 2.67241V4.53448H0.625V2.98276C0.625 2.90045 0.592076 2.82151 0.533471 2.76331C0.474866 2.70511 0.39538 2.67241 0.3125 2.67241C0.22962 2.67241 0.150134 2.70511 0.0915292 2.76331C0.0329241 2.82151 0 2.90045 0 2.98276V6.7069C0 6.78921 0.0329241 6.86814 0.0915292 6.92634C0.150134 6.98454 0.22962 7.01724 0.3125 7.01724C0.39538 7.01724 0.474866 6.98454 0.533471 6.92634C0.592076 6.86814 0.625 6.78921 0.625 6.7069V5.15517H1.25V6.94214C1.25007 7.27134 1.38181 7.58704 1.61625 7.81979L3.125 9.31814C3.24218 9.43455 3.40113 9.49996 3.56687 9.5H6.99438C7.11041 9.49994 7.22414 9.4678 7.32283 9.40718C7.42151 9.34655 7.50126 9.25984 7.55312 9.15676L8.00625 8.25862H8.75C9.08152 8.25862 9.39946 8.12783 9.63388 7.89503C9.8683 7.66222 10 7.34648 10 7.01724V3.91379C10 3.58456 9.8683 3.26881 9.63388 3.03601C9.39946 2.8032 9.08152 2.67241 8.75 2.67241H8.00562L7.55312 1.77428C7.50126 1.67119 7.42151 1.58448 7.32283 1.52386C7.22414 1.46324 7.11041 1.4311 6.99438 1.43103H5.625V0.810345C5.625 0.728036 5.59208 0.649099 5.53347 0.590898C5.47487 0.532697 5.39538 0.5 5.3125 0.5C5.22962 0.5 5.15013 0.532697 5.09153 0.590898C5.03292 0.649099 5 0.728036 5 0.810345V1.43103H3.75V0.810345ZM2.5 2.05172H6.99438L7.44688 2.94986C7.49874 3.05295 7.57849 3.13966 7.67717 3.20028C7.77586 3.2609 7.88959 3.29304 8.00562 3.2931H8.75C8.91576 3.2931 9.07473 3.3585 9.19194 3.4749C9.30915 3.5913 9.375 3.74918 9.375 3.91379V7.01724C9.375 7.18186 9.30915 7.33973 9.19194 7.45613C9.07473 7.57254 8.91576 7.63793 8.75 7.63793H8.00562C7.88959 7.63799 7.77586 7.67013 7.67717 7.73076C7.57849 7.79138 7.49874 7.87809 7.44688 7.98117L6.99375 8.87931H3.56687L2.05813 7.38097C1.94091 7.26459 1.87504 7.10674 1.875 6.94214V2.67241C1.875 2.5078 1.94085 2.34992 2.05806 2.23352C2.17527 2.11712 2.33424 2.05172 2.5 2.05172Z" fill="black"/>
</svg>
