<svg width="21" height="16" viewBox="0 0 21 16" fill="none" xmlns="http://www.w3.org/2000/svg">
<path d="M0 1.5C0 0.671573 0.671573 0 1.5 0H18.5C19.3284 0 20 0.671573 20 1.5C20 2.32843 19.3284 3 18.5 3H1.5C0.671573 3 0 2.32843 0 1.5ZM0 7.5C0 6.67157 0.671573 6 1.5 6H18.5C19.3284 6 20 6.67157 20 7.5C20 8.32843 19.3284 9 18.5 9H1.5C0.671573 9 0 8.32843 0 7.5ZM0 13.5C0 12.6716 0.671573 12 1.5 12H18.5C19.3284 12 20 12.6716 20 13.5C20 14.3284 19.3284 15 18.5 15H1.5C0.671573 15 0 14.3284 0 13.5Z" fill="#361B85"/>
<path d="M0 1.5C0 0.671573 0.671573 0 1.5 0H18.5C19.3284 0 20 0.671573 20 1.5C20 2.32843 19.3284 3 18.5 3H1.5C0.671573 3 0 2.32843 0 1.5ZM0 7.5C0 6.67157 0.671573 6 1.5 6H18.5C19.3284 6 20 6.67157 20 7.5C20 8.32843 19.3284 9 18.5 9H1.5C0.671573 9 0 8.32843 0 7.5ZM0 13.5C0 12.6716 0.671573 12 1.5 12H18.5C19.3284 12 20 12.6716 20 13.5C20 14.3284 19.3284 15 18.5 15H1.5C0.671573 15 0 14.3284 0 13.5Z" fill="url(#paint0_radial_166_2429)" fill-opacity="0.56"/>
<path d="M0 1.5C0 0.671573 0.671573 0 1.5 0H18.5C19.3284 0 20 0.671573 20 1.5C20 2.32843 19.3284 3 18.5 3H1.5C0.671573 3 0 2.32843 0 1.5ZM0 7.5C0 6.67157 0.671573 6 1.5 6H18.5C19.3284 6 20 6.67157 20 7.5C20 8.32843 19.3284 9 18.5 9H1.5C0.671573 9 0 8.32843 0 7.5ZM0 13.5C0 12.6716 0.671573 12 1.5 12H18.5C19.3284 12 20 12.6716 20 13.5C20 14.3284 19.3284 15 18.5 15H1.5C0.671573 15 0 14.3284 0 13.5Z" fill="url(#paint1_radial_166_2429)" fill-opacity="0.56"/>
<path d="M0 1.5C0 0.671573 0.671573 0 1.5 0H18.5C19.3284 0 20 0.671573 20 1.5C20 2.32843 19.3284 3 18.5 3H1.5C0.671573 3 0 2.32843 0 1.5ZM0 7.5C0 6.67157 0.671573 6 1.5 6H18.5C19.3284 6 20 6.67157 20 7.5C20 8.32843 19.3284 9 18.5 9H1.5C0.671573 9 0 8.32843 0 7.5ZM0 13.5C0 12.6716 0.671573 12 1.5 12H18.5C19.3284 12 20 12.6716 20 13.5C20 14.3284 19.3284 15 18.5 15H1.5C0.671573 15 0 14.3284 0 13.5Z" fill="url(#paint2_radial_166_2429)" fill-opacity="0.56"/>
<defs>
<radialGradient id="paint0_radial_166_2429" cx="0" cy="0" r="1" gradientUnits="userSpaceOnUse" gradientTransform="translate(17.4744 6.76507e-06) rotate(110.531) scale(28.8054 30.8513)">
<stop stop-color="#4024EE"/>
<stop offset="1" stop-color="#3312FF" stop-opacity="0"/>
</radialGradient>
<radialGradient id="paint1_radial_166_2429" cx="0" cy="0" r="1" gradientUnits="userSpaceOnUse" gradientTransform="translate(7.37201 15) rotate(89.1768) scale(26.1317 11.5824)">
<stop stop-color="#7F6CFB"/>
<stop offset="1" stop-color="#7F6CFB" stop-opacity="0"/>
</radialGradient>
<radialGradient id="paint2_radial_166_2429" cx="0" cy="0" r="1" gradientUnits="userSpaceOnUse" gradientTransform="translate(0.955632 2.54032) rotate(26.3078) scale(19.3792 88.187)">
<stop stop-color="#361B85"/>
<stop offset="1" stop-color="#361B85" stop-opacity="0"/>
</radialGradient>
</defs>
</svg>
