<svg width="21" height="16" viewBox="0 0 21 16" fill="none" xmlns="http://www.w3.org/2000/svg">
<path d="M0 1.79167C0 1.0783 0.578299 0.5 1.29167 0.5H19.375C20.0884 0.5 20.6667 1.0783 20.6667 1.79167V1.79167C20.6667 2.50503 20.0884 3.08333 19.375 3.08333H1.29166C0.578296 3.08333 0 2.50503 0 1.79167V1.79167ZM0 8.25C0 7.53663 0.578299 6.95833 1.29167 6.95833H19.375C20.0884 6.95833 20.6667 7.53663 20.6667 8.25V8.25C20.6667 8.96337 20.0884 9.54167 19.375 9.54167H1.29166C0.578296 9.54167 0 8.96337 0 8.25V8.25ZM0 14.7083C0 13.995 0.578299 13.4167 1.29167 13.4167H19.375C20.0884 13.4167 20.6667 13.995 20.6667 14.7083V14.7083C20.6667 15.4217 20.0884 16 19.375 16H1.29166C0.578296 16 0 15.4217 0 14.7083V14.7083Z" fill="#361B85"/>
<path d="M0 1.79167C0 1.0783 0.578299 0.5 1.29167 0.5H19.375C20.0884 0.5 20.6667 1.0783 20.6667 1.79167V1.79167C20.6667 2.50503 20.0884 3.08333 19.375 3.08333H1.29166C0.578296 3.08333 0 2.50503 0 1.79167V1.79167ZM0 8.25C0 7.53663 0.578299 6.95833 1.29167 6.95833H19.375C20.0884 6.95833 20.6667 7.53663 20.6667 8.25V8.25C20.6667 8.96337 20.0884 9.54167 19.375 9.54167H1.29166C0.578296 9.54167 0 8.96337 0 8.25V8.25ZM0 14.7083C0 13.995 0.578299 13.4167 1.29167 13.4167H19.375C20.0884 13.4167 20.6667 13.995 20.6667 14.7083V14.7083C20.6667 15.4217 20.0884 16 19.375 16H1.29166C0.578296 16 0 15.4217 0 14.7083V14.7083Z" fill="url(#paint0_radial_166_25)" fill-opacity="0.56"/>
<path d="M0 1.79167C0 1.0783 0.578299 0.5 1.29167 0.5H19.375C20.0884 0.5 20.6667 1.0783 20.6667 1.79167V1.79167C20.6667 2.50503 20.0884 3.08333 19.375 3.08333H1.29166C0.578296 3.08333 0 2.50503 0 1.79167V1.79167ZM0 8.25C0 7.53663 0.578299 6.95833 1.29167 6.95833H19.375C20.0884 6.95833 20.6667 7.53663 20.6667 8.25V8.25C20.6667 8.96337 20.0884 9.54167 19.375 9.54167H1.29166C0.578296 9.54167 0 8.96337 0 8.25V8.25ZM0 14.7083C0 13.995 0.578299 13.4167 1.29167 13.4167H19.375C20.0884 13.4167 20.6667 13.995 20.6667 14.7083V14.7083C20.6667 15.4217 20.0884 16 19.375 16H1.29166C0.578296 16 0 15.4217 0 14.7083V14.7083Z" fill="url(#paint1_radial_166_25)" fill-opacity="0.56"/>
<path d="M0 1.79167C0 1.0783 0.578299 0.5 1.29167 0.5H19.375C20.0884 0.5 20.6667 1.0783 20.6667 1.79167V1.79167C20.6667 2.50503 20.0884 3.08333 19.375 3.08333H1.29166C0.578296 3.08333 0 2.50503 0 1.79167V1.79167ZM0 8.25C0 7.53663 0.578299 6.95833 1.29167 6.95833H19.375C20.0884 6.95833 20.6667 7.53663 20.6667 8.25V8.25C20.6667 8.96337 20.0884 9.54167 19.375 9.54167H1.29166C0.578296 9.54167 0 8.96337 0 8.25V8.25ZM0 14.7083C0 13.995 0.578299 13.4167 1.29167 13.4167H19.375C20.0884 13.4167 20.6667 13.995 20.6667 14.7083V14.7083C20.6667 15.4217 20.0884 16 19.375 16H1.29166C0.578296 16 0 15.4217 0 14.7083V14.7083Z" fill="url(#paint2_radial_166_25)" fill-opacity="0.56"/>
<defs>
<radialGradient id="paint0_radial_166_25" cx="0" cy="0" r="1" gradientUnits="userSpaceOnUse" gradientTransform="translate(18.0569 0.500007) rotate(110.531) scale(29.7656 31.8797)">
<stop stop-color="#4024EE"/>
<stop offset="1" stop-color="#3312FF" stop-opacity="0"/>
</radialGradient>
<radialGradient id="paint1_radial_166_25" cx="0" cy="0" r="1" gradientUnits="userSpaceOnUse" gradientTransform="translate(7.61775 16) rotate(89.1768) scale(27.0028 11.9685)">
<stop stop-color="#7F6CFB"/>
<stop offset="1" stop-color="#7F6CFB" stop-opacity="0"/>
</radialGradient>
<radialGradient id="paint2_radial_166_25" cx="0" cy="0" r="1" gradientUnits="userSpaceOnUse" gradientTransform="translate(0.987486 3.125) rotate(26.3078) scale(20.0252 91.1265)">
<stop stop-color="#361B85"/>
<stop offset="1" stop-color="#361B85" stop-opacity="0"/>
</radialGradient>
</defs>
</svg>
