<svg width="8" height="4" viewBox="0 0 8 4" fill="none" xmlns="http://www.w3.org/2000/svg">
<path d="M3.61126 3.80212C3.76582 3.9295 3.9665 4 4.17456 4C4.38262 4 4.5833 3.9295 4.73786 3.80212L7.79777 1.13712C7.9273 1.01795 8 0.856742 8 0.68871C8 0.520677 7.9273 0.359472 7.79777 0.240302C7.73312 0.180687 7.65621 0.13337 7.57146 0.101079C7.48672 0.068788 7.39582 0.0521629 7.30401 0.0521629C7.21221 0.0521629 7.12131 0.068788 7.03657 0.101079C6.95182 0.13337 6.87491 0.180687 6.81026 0.240302L4.25801 2.441C4.22628 2.46649 4.1855 2.48055 4.14327 2.48055C4.10103 2.48055 4.06025 2.46649 4.02852 2.441L1.15638 0.157617C1.01712 0.0462829 0.835216 -0.00989778 0.650673 0.00143387C0.46613 0.0127655 0.294067 0.0906814 0.172336 0.218041C0.0506052 0.3454 -0.0108221 0.511771 0.00156776 0.680552C0.0139576 0.849334 0.0991495 1.0067 0.238402 1.11804L3.61126 3.80212Z" fill="#361B85"/>
</svg>
