<svg width="108" height="39" viewBox="0 0 108 39" fill="none" xmlns="http://www.w3.org/2000/svg">
<path d="M6.91406 2.04102L2.20703 15H0.283203L5.70312 0.78125H6.94336L6.91406 2.04102ZM10.8594 15L6.14258 2.04102L6.11328 0.78125H7.35352L12.793 15H10.8594ZM10.6152 9.73633V11.2793H2.62695V9.73633H10.6152ZM23.1641 10.4785H25.0391C24.9414 11.377 24.6842 12.181 24.2676 12.8906C23.8509 13.6003 23.2617 14.1634 22.5 14.5801C21.7383 14.9902 20.7878 15.1953 19.6484 15.1953C18.8151 15.1953 18.0566 15.0391 17.373 14.7266C16.696 14.4141 16.1133 13.9714 15.625 13.3984C15.1367 12.819 14.7591 12.1257 14.4922 11.3184C14.2318 10.5046 14.1016 9.59961 14.1016 8.60352V7.1875C14.1016 6.19141 14.2318 5.28971 14.4922 4.48242C14.7591 3.66862 15.14 2.97201 15.6348 2.39258C16.1361 1.81315 16.7383 1.36719 17.4414 1.05469C18.1445 0.742188 18.9355 0.585938 19.8145 0.585938C20.8887 0.585938 21.7969 0.78776 22.5391 1.19141C23.2812 1.59505 23.8574 2.15495 24.2676 2.87109C24.6842 3.58073 24.9414 4.4043 25.0391 5.3418H23.1641C23.0729 4.67773 22.9036 4.10807 22.6562 3.63281C22.4089 3.15104 22.0573 2.77995 21.6016 2.51953C21.1458 2.25911 20.5501 2.12891 19.8145 2.12891C19.1829 2.12891 18.6263 2.24935 18.1445 2.49023C17.6693 2.73112 17.2689 3.07292 16.9434 3.51562C16.6243 3.95833 16.3835 4.48893 16.2207 5.10742C16.0579 5.72591 15.9766 6.41276 15.9766 7.16797V8.60352C15.9766 9.30013 16.0482 9.95443 16.1914 10.5664C16.3411 11.1784 16.5658 11.7155 16.8652 12.1777C17.1647 12.64 17.5456 13.0046 18.0078 13.2715C18.4701 13.5319 19.0169 13.6621 19.6484 13.6621C20.4492 13.6621 21.0872 13.5352 21.5625 13.2812C22.0378 13.0273 22.3958 12.6628 22.6367 12.1875C22.8841 11.7122 23.0599 11.1426 23.1641 10.4785ZM31.0938 8.21289V9.69727H26.3281V8.21289H31.0938ZM43.6426 7.91992V13.125C43.4668 13.3854 43.1868 13.6784 42.8027 14.0039C42.4186 14.3229 41.888 14.6029 41.2109 14.8438C40.5404 15.0781 39.6745 15.1953 38.6133 15.1953C37.7474 15.1953 36.9499 15.0456 36.2207 14.7461C35.498 14.4401 34.8698 13.9974 34.3359 13.418C33.8086 12.832 33.3984 12.1224 33.1055 11.2891C32.819 10.4492 32.6758 9.4987 32.6758 8.4375V7.33398C32.6758 6.27279 32.7995 5.32552 33.0469 4.49219C33.3008 3.65885 33.6719 2.95247 34.1602 2.37305C34.6484 1.78711 35.2474 1.3444 35.957 1.04492C36.6667 0.738932 37.4805 0.585938 38.3984 0.585938C39.4857 0.585938 40.3939 0.77474 41.123 1.15234C41.8587 1.52344 42.4316 2.03776 42.8418 2.69531C43.2585 3.35286 43.5254 4.10156 43.6426 4.94141H41.7578C41.6732 4.42708 41.5039 3.95833 41.25 3.53516C41.0026 3.11198 40.6478 2.77344 40.1855 2.51953C39.7233 2.25911 39.1276 2.12891 38.3984 2.12891C37.7409 2.12891 37.1712 2.24935 36.6895 2.49023C36.2077 2.73112 35.8105 3.07617 35.498 3.52539C35.1855 3.97461 34.9512 4.51823 34.7949 5.15625C34.6452 5.79427 34.5703 6.51367 34.5703 7.31445V8.4375C34.5703 9.25781 34.6647 9.99023 34.8535 10.6348C35.0488 11.2793 35.3255 11.8294 35.6836 12.2852C36.0417 12.7344 36.4681 13.0762 36.9629 13.3105C37.4642 13.5449 38.0176 13.6621 38.623 13.6621C39.2936 13.6621 39.8372 13.6068 40.2539 13.4961C40.6706 13.3789 40.9961 13.2422 41.2305 13.0859C41.4648 12.9232 41.6439 12.7702 41.7676 12.627V9.44336H38.4766V7.91992H43.6426ZM52.0312 2.04102L47.3242 15H45.4004L50.8203 0.78125H52.0605L52.0312 2.04102ZM55.9766 15L51.2598 2.04102L51.2305 0.78125H52.4707L57.9102 15H55.9766ZM55.7324 9.73633V11.2793H47.7441V9.73633H55.7324ZM59.8145 0.78125H64.5215C65.5892 0.78125 66.4909 0.94401 67.2266 1.26953C67.9688 1.59505 68.5319 2.07682 68.916 2.71484C69.3066 3.34635 69.502 4.12435 69.502 5.04883C69.502 5.69987 69.3685 6.29557 69.1016 6.83594C68.8411 7.36979 68.4635 7.82552 67.9688 8.20312C67.4805 8.57422 66.8945 8.85091 66.2109 9.0332L65.6836 9.23828H61.2598L61.2402 7.70508H64.5801C65.2572 7.70508 65.8203 7.58789 66.2695 7.35352C66.7188 7.11263 67.0573 6.79036 67.2852 6.38672C67.513 5.98307 67.627 5.53711 67.627 5.04883C67.627 4.50195 67.5195 4.02344 67.3047 3.61328C67.0898 3.20312 66.7513 2.88737 66.2891 2.66602C65.8333 2.43815 65.2441 2.32422 64.5215 2.32422H61.6992V15H59.8145V0.78125ZM68.125 15L64.668 8.55469L66.6309 8.54492L70.1367 14.8828V15H68.125ZM77.4023 2.04102L72.6953 15H70.7715L76.1914 0.78125H77.4316L77.4023 2.04102ZM81.3477 15L76.6309 2.04102L76.6016 0.78125H77.8418L83.2812 15H81.3477ZM81.1035 9.73633V11.2793H73.1152V9.73633H81.1035ZM95.5762 7.91992V13.125C95.4004 13.3854 95.1204 13.6784 94.7363 14.0039C94.3522 14.3229 93.8216 14.6029 93.1445 14.8438C92.474 15.0781 91.6081 15.1953 90.5469 15.1953C89.681 15.1953 88.8835 15.0456 88.1543 14.7461C87.4316 14.4401 86.8034 13.9974 86.2695 13.418C85.7422 12.832 85.332 12.1224 85.0391 11.2891C84.7526 10.4492 84.6094 9.4987 84.6094 8.4375V7.33398C84.6094 6.27279 84.7331 5.32552 84.9805 4.49219C85.2344 3.65885 85.6055 2.95247 86.0938 2.37305C86.582 1.78711 87.181 1.3444 87.8906 1.04492C88.6003 0.738932 89.4141 0.585938 90.332 0.585938C91.4193 0.585938 92.3275 0.77474 93.0566 1.15234C93.7923 1.52344 94.3652 2.03776 94.7754 2.69531C95.1921 3.35286 95.459 4.10156 95.5762 4.94141H93.6914C93.6068 4.42708 93.4375 3.95833 93.1836 3.53516C92.9362 3.11198 92.5814 2.77344 92.1191 2.51953C91.6569 2.25911 91.0612 2.12891 90.332 2.12891C89.6745 2.12891 89.1048 2.24935 88.623 2.49023C88.1413 2.73112 87.7441 3.07617 87.4316 3.52539C87.1191 3.97461 86.8848 4.51823 86.7285 5.15625C86.5788 5.79427 86.5039 6.51367 86.5039 7.31445V8.4375C86.5039 9.25781 86.5983 9.99023 86.7871 10.6348C86.9824 11.2793 87.2591 11.8294 87.6172 12.2852C87.9753 12.7344 88.4017 13.0762 88.8965 13.3105C89.3978 13.5449 89.9512 13.6621 90.5566 13.6621C91.2272 13.6621 91.7708 13.6068 92.1875 13.4961C92.6042 13.3789 92.9297 13.2422 93.1641 13.0859C93.3984 12.9232 93.5775 12.7702 93.7012 12.627V9.44336H90.4102V7.91992H95.5762ZM107.734 13.4668V15H100.205V13.4668H107.734ZM100.586 0.78125V15H98.7012V0.78125H100.586ZM106.738 6.89453V8.42773H100.205V6.89453H106.738ZM107.637 0.78125V2.32422H100.205V0.78125H107.637ZM6.9043 23.7812V38H5.04883V23.7812H6.9043ZM11.4746 23.7812V25.3242H0.488281V23.7812H11.4746ZM15.6055 23.7812V38H13.7207V23.7812H15.6055ZM18.8672 30.2949V31.7793H15.4883V30.2949H18.8672ZM29.0723 30.4414V31.3398C29.0723 32.4076 28.9388 33.3646 28.6719 34.2109C28.4049 35.0573 28.0208 35.7767 27.5195 36.3691C27.0182 36.9616 26.416 37.4141 25.7129 37.7266C25.0163 38.0391 24.235 38.1953 23.3691 38.1953C22.5293 38.1953 21.7578 38.0391 21.0547 37.7266C20.3581 37.4141 19.7526 36.9616 19.2383 36.3691C18.7305 35.7767 18.3366 35.0573 18.0566 34.2109C17.7767 33.3646 17.6367 32.4076 17.6367 31.3398V30.4414C17.6367 29.3737 17.7734 28.4199 18.0469 27.5801C18.3268 26.7337 18.7207 26.0143 19.2285 25.4219C19.7363 24.8229 20.3385 24.3672 21.0352 24.0547C21.7383 23.7422 22.5098 23.5859 23.3496 23.5859C24.2155 23.5859 24.9967 23.7422 25.6934 24.0547C26.3965 24.3672 26.9987 24.8229 27.5 25.4219C28.0078 26.0143 28.3952 26.7337 28.6621 27.5801C28.9355 28.4199 29.0723 29.3737 29.0723 30.4414ZM27.207 31.3398V30.4219C27.207 29.5755 27.1191 28.8268 26.9434 28.1758C26.7741 27.5247 26.5234 26.9779 26.1914 26.5352C25.8594 26.0924 25.4525 25.7572 24.9707 25.5293C24.4954 25.3014 23.9551 25.1875 23.3496 25.1875C22.7637 25.1875 22.2331 25.3014 21.7578 25.5293C21.2891 25.7572 20.8854 26.0924 20.5469 26.5352C20.2148 26.9779 19.9577 27.5247 19.7754 28.1758C19.5931 28.8268 19.502 29.5755 19.502 30.4219V31.3398C19.502 32.1927 19.5931 32.9479 19.7754 33.6055C19.9577 34.2565 20.2181 34.8066 20.5566 35.2559C20.9017 35.6986 21.3086 36.0339 21.7773 36.2617C22.2526 36.4896 22.7832 36.6035 23.3691 36.6035C23.9811 36.6035 24.5247 36.4896 25 36.2617C25.4753 36.0339 25.8757 35.6986 26.2012 35.2559C26.5332 34.8066 26.7839 34.2565 26.9531 33.6055C27.1224 32.9479 27.207 32.1927 27.207 31.3398ZM32.0703 23.7812H33.8965L38.5547 35.373L43.2031 23.7812H45.0391L39.2578 38H37.832L32.0703 23.7812ZM31.4746 23.7812H33.0859L33.3496 32.4531V38H31.4746V23.7812ZM44.0137 23.7812H45.625V38H43.75V32.4531L44.0137 23.7812ZM57.9688 36.4668V38H50.4395V36.4668H57.9688ZM50.8203 23.7812V38H48.9355V23.7812H50.8203ZM56.9727 29.8945V31.4277H50.4395V29.8945H56.9727ZM57.8711 23.7812V25.3242H50.4395V23.7812H57.8711ZM69.5898 29.8945V31.4277H61.8945V29.8945H69.5898ZM62.1875 23.7812V38H60.3027V23.7812H62.1875ZM71.2305 23.7812V38H69.3555V23.7812H71.2305ZM75.957 29.5723H79.834C80.8757 29.5723 81.7546 29.748 82.4707 30.0996C83.1868 30.4447 83.7305 30.9297 84.1016 31.5547C84.4727 32.1797 84.6582 32.9121 84.6582 33.752C84.6582 34.377 84.554 34.9499 84.3457 35.4707C84.1374 35.985 83.8281 36.4342 83.418 36.8184C83.0078 37.196 82.5033 37.4889 81.9043 37.6973C81.3053 37.8991 80.6152 38 79.834 38H74.5215V23.7812H76.4062V36.4668H79.834C80.5306 36.4668 81.0938 36.3398 81.5234 36.0859C81.9596 35.8255 82.2786 35.487 82.4805 35.0703C82.6823 34.6536 82.7832 34.2077 82.7832 33.7324C82.7832 33.2572 82.6823 32.821 82.4805 32.4238C82.2786 32.0267 81.9596 31.7109 81.5234 31.4766C81.0938 31.2357 80.5306 31.1152 79.834 31.1152H75.957V29.5723Z" fill="white"/>
</svg>
