<svg width="44" height="44" viewBox="0 0 44 44" fill="none" xmlns="http://www.w3.org/2000/svg">
<rect width="44" height="44" rx="4" fill="#F4F4F4"/>
<g clip-path="url(#clip0_143_1989)">
<path d="M17.4476 19.7048C18.819 22.4001 21.0286 24.6001 23.7238 25.981L25.819 23.8858C26.0762 23.6286 26.4571 23.5429 26.7905 23.6572C27.8571 24.0096 29.0095 24.2001 30.1905 24.2001C30.7143 24.2001 31.1429 24.6286 31.1429 25.1524V28.4762C31.1429 29.0001 30.7143 29.4286 30.1905 29.4286C21.2476 29.4286 14 22.181 14 13.2381C14 12.7143 14.4286 12.2858 14.9524 12.2858H18.2857C18.8095 12.2858 19.2381 12.7143 19.2381 13.2381C19.2381 14.4286 19.4286 15.5715 19.781 16.6381C19.8857 16.9715 19.8095 17.3429 19.5429 17.6096L17.4476 19.7048Z" fill="#5890da"/>
</g>
<defs>
<clipPath id="clip0_143_1989">
<rect width="16" height="16" fill="white" transform="translate(14 14)"/>
</clipPath>
</defs>
</svg>
