<svg width="18" height="18" viewBox="0 0 18 18" fill="none" xmlns="http://www.w3.org/2000/svg">
<path d="M15 11.2575C14.121 11.2575 13.26 11.1203 12.444 10.851C12.0457 10.7137 11.5935 10.8195 11.3317 11.0865L9.714 12.3082C7.85775 11.3175 6.66975 10.1302 5.6925 8.2875L6.88125 6.708C7.1805 6.40875 7.28775 5.97075 7.1595 5.5605C6.888 4.73925 6.75 3.8775 6.75 3C6.75 2.37975 6.24525 1.875 5.625 1.875H3C2.37975 1.875 1.875 2.37975 1.875 3C1.875 10.2367 7.76325 16.125 15 16.125C15.6202 16.125 16.125 15.6202 16.125 15V12.3825C16.125 11.7622 15.6202 11.2575 15 11.2575Z" fill="#D6D6D6"/>
</svg>
