<svg width="8" height="4" viewBox="0 0 8 4" fill="none" xmlns="http://www.w3.org/2000/svg">
<path d="M4.38874 0.197879C4.23418 0.0704961 4.0335 0 3.82544 0C3.61738 0 3.4167 0.0704961 3.26214 0.197879L0.202227 2.86288C0.0727019 2.98205 4.76837e-07 3.14326 4.76837e-07 3.31129C4.76837e-07 3.47932 0.0727019 3.64053 0.202227 3.7597C0.266877 3.81931 0.343793 3.86663 0.428538 3.89892C0.513284 3.93121 0.604181 3.94784 0.695986 3.94784C0.787792 3.94784 0.878689 3.93121 0.963434 3.89892C1.04818 3.86663 1.12509 3.81931 1.18974 3.7597L3.74199 1.559C3.77372 1.53351 3.8145 1.51945 3.85673 1.51945C3.89897 1.51945 3.93975 1.53351 3.97148 1.559L6.84362 3.84238C6.98288 3.95372 7.16478 4.0099 7.34933 3.99857C7.53387 3.98723 7.70593 3.90932 7.82766 3.78196C7.94939 3.6546 8.01082 3.48823 7.99843 3.31945C7.98604 3.15067 7.90085 2.9933 7.7616 2.88196L4.38874 0.197879Z" fill="#361B85"/>
</svg>
