<svg width="24" height="24" viewBox="0 0 24 24" fill="none" xmlns="http://www.w3.org/2000/svg">
<path d="M11.43 14.84C11.6522 15.0403 11.9408 15.1511 12.24 15.1511C12.5392 15.1511 12.8277 15.0403 13.05 14.84L17.45 10.65C17.6362 10.4626 17.7408 10.2092 17.7408 9.94499C17.7408 9.68081 17.6362 9.42736 17.45 9.23999C17.357 9.14626 17.2464 9.07187 17.1246 9.0211C17.0027 8.97033 16.872 8.94419 16.74 8.94419C16.608 8.94419 16.4773 8.97033 16.3554 9.0211C16.2336 9.07187 16.123 9.14626 16.03 9.23999L12.36 12.7C12.3144 12.7401 12.2557 12.7622 12.195 12.7622C12.1343 12.7622 12.0756 12.7401 12.03 12.7L7.89999 9.10999C7.69975 8.93495 7.43818 8.84662 7.17282 8.86444C6.90745 8.88225 6.66004 9.00475 6.48499 9.20499C6.30995 9.40523 6.22162 9.6668 6.23944 9.93217C6.25725 10.1975 6.37975 10.445 6.57999 10.62L11.43 14.84Z" fill="#70AA87"/>
</svg>
