<svg width="72" height="72" viewBox="0 0 72 72" fill="none" xmlns="http://www.w3.org/2000/svg">
<path d="M60.3136 12.1465H55.2687V7.09634C55.2687 4.17591 52.8928 1.80005 49.9727 1.80005H20.388C19.9106 1.80005 19.4529 1.98954 19.1154 2.32704L6.91406 14.5217C6.57656 14.8592 6.38672 15.3173 6.38672 15.7947V54.5601C6.38672 57.4805 8.76258 59.8564 11.6827 59.8564H16.7325V64.9009C16.7325 67.8228 19.1063 70.2 22.0242 70.2H60.3136C63.2358 70.2 65.613 67.8228 65.613 64.9009V17.4386C65.613 14.5206 63.2358 12.1465 60.3136 12.1465ZM18.588 7.944V12.2984C18.588 13.2339 17.8273 13.9947 16.8921 13.9947H12.5341L18.588 7.944ZM11.6827 56.2564C10.7475 56.2564 9.98672 55.4956 9.98672 54.5601V17.5947H16.8921C19.8122 17.5947 22.188 15.2188 22.188 12.2984V5.40005H49.9727C50.9079 5.40005 51.6687 6.16083 51.6687 7.09634V54.5601C51.6687 55.4956 50.9079 56.2564 49.9727 56.2564H11.6827ZM62.0131 64.9009C62.0131 65.8379 61.2509 66.6 60.3136 66.6H22.0242C21.0912 66.6 20.3325 65.8379 20.3325 64.9009V59.8564H49.9727C52.8928 59.8564 55.2687 57.4805 55.2687 54.5601V15.7465H60.3136C61.2509 15.7465 62.0131 16.5056 62.0131 17.4386V64.9009Z" fill="#4024EE"/>
<path d="M41.1718 15.5806H28.4143C27.42 15.5806 26.6143 16.3863 26.6143 17.3806C26.6143 18.3748 27.42 19.1806 28.4143 19.1806H41.1718C42.166 19.1806 42.9718 18.3748 42.9718 17.3806C42.9718 16.3863 42.166 15.5806 41.1718 15.5806Z" fill="#4024EE"/>
<path d="M41.1716 29.0282H20.4836C19.4894 29.0282 18.6836 29.834 18.6836 30.8282C18.6836 31.8224 19.4894 32.6282 20.4836 32.6282H41.1716C42.1659 32.6282 42.9716 31.8224 42.9716 30.8282C42.9716 29.834 42.1659 29.0282 41.1716 29.0282Z" fill="#4024EE"/>
<path d="M32.5513 42.4755H20.4836C19.4894 42.4755 18.6836 43.2812 18.6836 44.2755C18.6836 45.2697 19.4894 46.0755 20.4836 46.0755H32.5513C33.5455 46.0755 34.3513 45.2697 34.3513 44.2755C34.3513 43.2812 33.5455 42.4755 32.5513 42.4755Z" fill="#4024EE"/>
</svg>
