<svg width="83" height="83" viewBox="0 0 83 83" fill="none" xmlns="http://www.w3.org/2000/svg">
<g clip-path="url(#clip0_169_6300)">
<path d="M20.9181 0C20.0228 0 19.2969 0.726088 19.2969 1.62126C19.2969 2.51659 20.0228 3.24251 20.9181 3.24251C30.0762 3.24251 37.5267 10.8865 37.5267 20.2826C37.5267 21.178 38.2528 21.9039 39.148 21.9039C40.0433 21.9039 40.7692 21.1778 40.7692 20.2826C40.7694 9.09871 31.8641 0 20.9181 0Z" fill="#7DA377"/>
<path d="M20.9128 7.69165C20.0174 7.69165 19.2915 8.41774 19.2915 9.31291C19.2915 10.2082 20.0174 10.9342 20.9128 10.9342C25.9276 10.9342 30.0074 15.1278 30.0074 20.2824C30.0074 21.1777 30.7335 21.9036 31.6287 21.9036C32.524 21.9036 33.2499 21.1775 33.2499 20.2824C33.2501 13.3399 27.7155 7.69165 20.9128 7.69165Z" fill="#7DA377"/>
<path d="M20.9445 14.7771C20.049 14.7771 19.3232 15.5029 19.3232 16.3984C19.3232 17.2937 20.0493 18.0196 20.9445 18.0196C22.1161 18.0196 23.0689 19.0124 23.0689 20.2327C23.0689 21.1281 23.7949 21.854 24.6902 21.854C25.5855 21.854 26.3115 21.1279 26.3115 20.2327C26.3116 17.2245 23.9038 14.7771 20.9445 14.7771Z" fill="#7DA377"/>
<path d="M74.3255 12.8496H70.7317C69.8364 12.8496 69.1105 13.5755 69.1105 14.4709C69.1105 15.3662 69.8364 16.0921 70.7317 16.0921H74.3255C77.3203 16.0921 79.7568 18.5286 79.7568 21.5234V43.5312C79.7568 45.2556 78.9481 46.7935 77.6912 47.7892V43.5494C77.6912 40.2417 75.3311 37.4007 72.0795 36.7943L71.0314 36.599C71.2652 35.8824 71.3931 35.1189 71.3931 34.3254V30.5998C71.3931 26.5488 68.0974 23.2531 64.0465 23.2531C59.9955 23.2531 56.7 26.5488 56.7 30.5998V34.3254C56.7 35.1189 56.8281 35.8824 57.0617 36.599L56.0136 36.7943C52.7619 37.4006 50.4019 40.2416 50.4019 43.5494V48.2494C48.7633 47.3133 47.6556 45.5497 47.6556 43.5312V21.5234C47.6556 18.5286 50.0921 16.0921 53.0869 16.0921H56.951C57.8463 16.0921 58.5722 15.3662 58.5722 14.4709C58.5722 13.5755 57.8461 12.8496 56.951 12.8496H53.0869C48.3042 12.8496 44.4131 16.7407 44.4131 21.5234V43.5312C44.4131 48.314 48.3042 52.2051 53.0869 52.2051H61.2452V56.8665C61.2452 57.5213 61.6392 58.112 62.2437 58.3633C62.445 58.4471 62.6564 58.4878 62.8662 58.4878C63.2863 58.4878 63.6996 58.3244 64.0094 58.0167L69.8576 52.2051H74.3255C79.1082 52.2051 82.9993 48.314 82.9993 43.5312V21.5234C82.9993 16.7407 79.1082 12.8496 74.3255 12.8496ZM59.9424 30.5998C59.9424 28.3367 61.7833 26.4957 64.0463 26.4957C66.3094 26.4957 68.1504 28.3367 68.1504 30.5998V34.3254C68.1504 36.5884 66.3094 38.4295 64.0463 38.4295C61.7833 38.4295 59.9424 36.5884 59.9424 34.3254V30.5998ZM74.4482 48.9591C74.4072 48.9601 74.3665 48.9622 74.3252 48.9622H69.1891V48.9626C68.7608 48.9626 68.35 49.132 68.0462 49.4336L64.4877 52.9699V50.5836C64.4877 49.6883 63.7617 48.9624 62.8665 48.9624H53.6446V43.5492C53.6446 41.8025 54.891 40.302 56.6081 39.9817L58.8937 39.5555C60.2207 40.8632 62.0405 41.6718 64.0465 41.6718C66.0523 41.6718 67.8724 40.8629 69.1994 39.5553L71.4852 39.9815C73.2024 40.3019 74.4487 41.8022 74.4487 43.5492V48.9591H74.4482Z" fill="#7DA377"/>
<path d="M64.2034 13.3252C63.902 13.0221 63.4836 12.8502 63.0573 12.8502C62.6309 12.8502 62.2125 13.0221 61.911 13.3252C61.6095 13.6253 61.436 14.0437 61.436 14.4715C61.436 14.8978 61.6093 15.3162 61.911 15.6178C62.2125 15.9191 62.6308 16.0927 63.0573 16.0927C63.4836 16.0927 63.902 15.9193 64.2034 15.6178C64.5049 15.3146 64.6785 14.898 64.6785 14.4715C64.6785 14.0435 64.5051 13.6267 64.2034 13.3252Z" fill="#7DA377"/>
<path d="M30.1328 54.5396C29.8312 54.238 29.4146 54.0646 28.9865 54.0646C28.5601 54.0646 28.1417 54.238 27.8404 54.5396C27.5389 54.8411 27.3652 55.2593 27.3652 55.6858C27.3652 56.1138 27.5387 56.5306 27.8404 56.8321C28.1434 57.1353 28.5601 57.3085 28.9865 57.3085C29.4128 57.3085 29.8312 57.1353 30.1328 56.8321C30.4359 56.5306 30.6077 56.1136 30.6077 55.6858C30.6077 55.2595 30.4359 54.8412 30.1328 54.5396Z" fill="#7DA377"/>
<path d="M65.6193 69.1996L53.1985 56.7786C51.545 55.1251 48.9438 54.8832 47.014 56.203L39.0866 61.6236C38.4431 62.0634 37.5765 61.9828 37.0252 61.4315L34.4037 58.8098C33.7708 58.1771 32.7445 58.177 32.1107 58.8098C31.4776 59.4429 31.4776 60.4694 32.1107 61.1029L34.7321 63.7245C36.3857 65.3779 38.9865 65.6202 40.9166 64.3002L48.8441 58.8797C49.4872 58.4399 50.3541 58.5203 50.9055 59.0717L63.3265 71.4926C63.9585 72.1245 63.9584 73.1533 63.3263 73.7857C55.3615 81.7504 42.4017 81.7504 34.4369 73.7857L9.21564 48.564C5.35711 44.7057 3.23251 39.5759 3.23251 34.1193C3.23251 28.6627 5.35727 23.5327 9.2158 19.6742C9.52203 19.368 9.92908 19.1996 10.3621 19.1996C10.7952 19.1996 11.2025 19.3681 11.5085 19.6744L23.9293 32.0954C24.4803 32.6464 24.5611 33.5135 24.1214 34.1567L18.7011 42.0842C17.3811 44.0141 17.6233 46.615 19.2766 48.2687L23.2172 52.2092C23.8504 52.8421 24.8767 52.8421 25.5102 52.2092C26.1433 51.5762 26.1433 50.5496 25.5102 49.9162L21.5697 45.9756C21.0187 45.4246 20.9379 44.5577 21.3777 43.9144L26.7982 35.9869C28.1179 34.0569 27.8757 31.4558 26.2224 29.8025L13.8016 17.3815C11.9052 15.4851 8.81944 15.4851 6.92276 17.3815C-2.30629 26.6107 -2.30629 41.6277 6.92276 50.8569L32.1441 76.0781C36.7587 80.6927 42.8201 83 48.8815 83C54.9431 82.9998 61.0046 80.6925 65.6192 76.0781C67.5155 74.1817 67.5155 71.0961 65.6193 69.1996Z" fill="#7DA377"/>
<path d="M21.8405 39.8658L12.0124 30.0378C11.3791 29.4049 10.3528 29.4049 9.71941 30.0378C9.08637 30.671 9.08637 31.6976 9.71941 32.3308L19.5476 42.1588C19.8642 42.4753 20.2789 42.6337 20.694 42.6337C21.1089 42.6337 21.5239 42.4753 21.8405 42.1588C22.4735 41.5256 22.4735 40.499 21.8405 39.8658Z" fill="#7DA377"/>
<path d="M59.4553 77.4805L49.1145 67.1397C48.4811 66.5068 47.4548 66.5068 46.8215 67.1397C46.1884 67.7729 46.1884 68.7995 46.8215 69.4327L57.1623 79.7735C57.4789 80.09 57.8935 80.2483 58.3087 80.2483C58.7235 80.2483 59.1385 80.09 59.4553 79.7735C60.0883 79.1402 60.0883 78.1137 59.4553 77.4805Z" fill="#7DA377"/>
</g>
<defs>
<clipPath id="clip0_169_6300">
<rect width="83" height="83" fill="white"/>
</clipPath>
</defs>
</svg>
