<svg width="79" height="79" viewBox="0 0 79 79" fill="none" xmlns="http://www.w3.org/2000/svg">
<g clip-path="url(#clip0_169_10336)">
<path d="M45.0547 32.4023H33.9453C33.0931 32.4023 32.4023 33.0933 32.4023 33.9453V45.0547C32.4023 45.9067 33.0931 46.5977 33.9453 46.5977H45.0547C45.9069 46.5977 46.5977 45.9067 46.5977 45.0547V33.9453C46.5977 33.0933 45.9069 32.4023 45.0547 32.4023ZM43.5117 43.5117H35.4883V35.4883H43.5117V43.5117Z" fill="#6A452B"/>
<path d="M73.7539 8.33203C70.8611 8.33203 68.5078 10.6854 68.5078 13.5781C68.5078 16.4709 70.8611 18.8242 73.7539 18.8242C76.6467 18.8242 79 16.4709 79 13.5781C79 10.6854 76.6467 8.33203 73.7539 8.33203ZM73.7539 15.7383C72.5627 15.7383 71.5938 14.7693 71.5938 13.5781C71.5938 12.387 72.5627 11.418 73.7539 11.418C74.9451 11.418 75.9141 12.387 75.9141 13.5781C75.9141 14.7693 74.9451 15.7383 73.7539 15.7383Z" fill="#6A452B"/>
<path d="M65.8213 12.4826C65.5344 12.1958 65.1363 12.0305 64.7305 12.0305C64.3231 12.0305 63.925 12.1956 63.638 12.4826C63.3511 12.7696 63.1875 13.1677 63.1875 13.5735C63.1875 13.9793 63.3511 14.3774 63.638 14.6644C63.9266 14.9512 64.3231 15.1165 64.7305 15.1165C65.1363 15.1165 65.5344 14.9514 65.8213 14.6644C66.1083 14.3774 66.2734 13.9793 66.2734 13.5735C66.2734 13.1677 66.1083 12.7696 65.8213 12.4826Z" fill="#6A452B"/>
<path d="M64.1155 41.043C64.776 43.1851 66.7739 44.7461 69.1297 44.7461C72.0224 44.7461 74.3758 42.3928 74.3758 39.5C74.3758 36.6072 72.0223 34.2539 69.1297 34.2539C66.7737 34.2539 64.7759 35.8149 64.1155 37.957H54.621V25.9219C54.621 25.0698 53.9302 24.3789 53.078 24.3789H50.6093V15.1165H59.2533C60.1055 15.1165 60.7963 14.4255 60.7963 13.5735C60.7963 12.7215 60.1055 12.0305 59.2533 12.0305H49.0663C48.2141 12.0305 47.5233 12.7215 47.5233 13.5735V24.3789H41.0429V14.8846C43.1848 14.224 44.746 12.2263 44.746 9.87037C44.746 6.97761 42.3927 4.62428 39.4999 4.62428C36.6071 4.62428 34.2538 6.97761 34.2538 9.87037C34.2538 12.2263 35.815 14.2242 37.9569 14.8846V24.3789H25.9218C25.0696 24.3789 24.3788 25.0698 24.3788 25.9219V28.3906H15.1162V10.2617C17.2606 9.60267 18.8241 7.60375 18.8241 5.24609C18.8241 2.35334 16.4708 0 13.578 0C10.6853 0 8.33193 2.35334 8.33193 5.24609C8.33193 7.60036 9.89079 9.59696 12.0303 10.2589V29.9336C12.0303 30.7856 12.7211 31.4766 13.5732 31.4766H24.3788V37.957H14.8843C14.2238 35.8149 12.2259 34.2539 9.87012 34.2539C6.97736 34.2539 4.62402 36.6072 4.62402 39.5C4.62402 42.3928 6.97736 44.7461 9.87012 44.7461C12.2261 44.7461 14.2239 43.1851 14.8843 41.043H24.3788V53.0781C24.3788 53.9302 25.0696 54.6211 25.9218 54.6211H28.3905V63.8835H19.7465C18.8943 63.8835 18.2035 64.5745 18.2035 65.4265C18.2035 66.2785 18.8943 66.9695 19.7465 66.9695H29.9335C30.7857 66.9695 31.4765 66.2785 31.4765 65.4265V54.6211H37.9569V64.1154C35.815 64.776 34.2538 66.7737 34.2538 69.1296C34.2538 72.0224 36.6071 74.3757 39.4999 74.3757C42.3927 74.3757 44.746 72.0224 44.746 69.1296C44.746 66.7737 43.1848 64.7758 41.0429 64.1154V54.6211H53.078C53.9302 54.6211 54.621 53.9302 54.621 53.0781V50.6094H63.8836V68.7383C61.7392 69.3973 60.1757 71.3962 60.1757 73.7539C60.1757 76.6467 62.529 79 65.4218 79C68.3145 79 70.6679 76.6467 70.6679 73.7539C70.6679 71.3996 69.109 69.403 66.9695 68.7411V49.0664C66.9695 48.2144 66.2787 47.5234 65.4266 47.5234H54.621V41.043H64.1155ZM69.1297 37.3398C70.3209 37.3398 71.2898 38.3088 71.2898 39.5C71.2898 40.6912 70.3207 41.6602 69.1297 41.6602C67.9385 41.6602 66.9695 40.6912 66.9695 39.5C66.9695 38.3088 67.9385 37.3398 69.1297 37.3398ZM13.578 7.40625C12.3869 7.40625 11.4179 6.43727 11.4179 5.24609C11.4179 4.05492 12.3869 3.08594 13.578 3.08594C14.7692 3.08594 15.7382 4.05492 15.7382 5.24609C15.7382 6.43727 14.7692 7.40625 13.578 7.40625ZM9.87012 41.6602C8.67895 41.6602 7.70996 40.6912 7.70996 39.5C7.70996 38.3088 8.67895 37.3398 9.87012 37.3398C11.0613 37.3398 12.0303 38.3088 12.0303 39.5C12.0303 40.6912 11.0613 41.6602 9.87012 41.6602ZM37.3397 9.87037C37.3397 8.6792 38.3087 7.71022 39.4999 7.71022C40.6911 7.71022 41.6601 8.6792 41.6601 9.87037C41.6601 11.0615 40.6911 12.0305 39.4999 12.0305C38.3087 12.0305 37.3397 11.0615 37.3397 9.87037ZM41.6601 69.1296C41.6601 70.3208 40.6911 71.2898 39.4999 71.2898C38.3087 71.2898 37.3397 70.3208 37.3397 69.1296C37.3397 67.9385 38.3087 66.9695 39.4999 66.9695C40.6911 66.9695 41.6601 67.9385 41.6601 69.1296ZM51.5351 51.5352H27.4647V27.4648H51.5351V51.5352ZM65.4218 71.5938C66.6129 71.5938 67.5819 72.5627 67.5819 73.7539C67.5819 74.9451 66.6129 75.9141 65.4218 75.9141C64.2306 75.9141 63.2616 74.9451 63.2616 73.7539C63.2616 72.5627 64.2306 71.5938 65.4218 71.5938Z" fill="#6A452B"/>
<path d="M5.24609 60.1758C2.35334 60.1758 0 62.5291 0 65.4219C0 68.3146 2.35334 70.668 5.24609 70.668C8.13885 70.668 10.4922 68.3146 10.4922 65.4219C10.4922 62.5291 8.13885 60.1758 5.24609 60.1758ZM5.24609 67.582C4.05492 67.582 3.08594 66.613 3.08594 65.4219C3.08594 64.2307 4.05492 63.2617 5.24609 63.2617C6.43727 63.2617 7.40625 64.2307 7.40625 65.4219C7.40625 66.613 6.43727 67.582 5.24609 67.582Z" fill="#6A452B"/>
<path d="M15.3633 64.3356C15.0763 64.0486 14.6783 63.8835 14.2725 63.8835C13.8667 63.8835 13.4686 64.0485 13.1816 64.3356C12.8946 64.6225 12.7295 65.0206 12.7295 65.4265C12.7295 65.8323 12.8946 66.2304 13.1816 66.5172C13.4686 66.8042 13.8667 66.9695 14.2725 66.9695C14.6783 66.9695 15.0763 66.8044 15.3633 66.5172C15.6503 66.2304 15.8154 65.8323 15.8154 65.4265C15.8154 65.0206 15.6503 64.6225 15.3633 64.3356Z" fill="#6A452B"/>
</g>
<defs>
<clipPath id="clip0_169_10336">
<rect width="79" height="79" fill="white"/>
</clipPath>
</defs>
</svg>
