<svg width="732" height="167" viewBox="0 0 732 167" fill="none" xmlns="http://www.w3.org/2000/svg">
<path d="M113.931 110.719C114.059 110.719 114.188 110.695 114.313 110.641C114.808 110.429 115.038 109.857 114.828 109.362C114.828 109.362 114.539 108.685 113.946 107.546C113.698 107.07 113.113 106.883 112.631 107.133C112.154 107.381 111.968 107.97 112.217 108.448C112.758 109.487 113.026 110.11 113.035 110.129C113.192 110.497 113.552 110.719 113.931 110.719Z" fill="#D2D4D9"/>
<path d="M113.529 108.863C114.01 108.616 114.192 108.031 113.945 107.55C113.698 107.069 113.112 106.887 112.632 107.134C112.151 107.381 111.968 107.966 112.216 108.447C112.385 108.785 112.735 108.967 113.087 108.967C113.231 108.967 113.386 108.941 113.529 108.863Z" fill="#D2D4D9"/>
<path d="M111.098 105.522C111.281 105.522 111.462 105.47 111.618 105.379C112.073 105.093 112.216 104.482 111.93 104.027C111.214 102.896 110.447 101.765 109.655 100.673C109.343 100.257 108.706 100.166 108.289 100.465C108.043 100.647 107.899 100.933 107.886 101.245C107.886 101.453 107.951 101.661 108.081 101.83C108.848 102.883 109.587 103.975 110.265 105.054C110.265 105.054 110.265 105.067 110.278 105.067C110.461 105.353 110.76 105.522 111.098 105.522ZM106.392 99.113C106.627 99.113 106.848 99.022 107.029 98.879C107.25 98.684 107.381 98.411 107.367 98.112C107.367 97.891 107.289 97.67 107.133 97.501C106.262 96.487 105.352 95.499 104.416 94.563L104.377 94.524C104.377 94.524 104.364 94.524 104.364 94.511C104 94.16 103.362 94.16 102.999 94.524C102.816 94.706 102.712 94.953 102.712 95.213C102.712 95.486 102.816 95.72 102.999 95.902C103.922 96.825 104.806 97.787 105.651 98.762V98.775C105.846 98.983 106.106 99.113 106.392 99.113ZM100.75 93.51C101.036 93.51 101.31 93.38 101.504 93.159C101.647 92.99 101.725 92.769 101.725 92.535C101.725 92.249 101.608 91.989 101.387 91.794C101.387 91.794 101.374 91.794 101.374 91.781L101.322 91.742C100.282 90.884 99.203 90.065 98.137 89.324C97.708 89.025 97.071 89.155 96.772 89.571C96.668 89.74 96.603 89.922 96.603 90.117C96.603 90.442 96.759 90.754 97.032 90.936C98.085 91.664 99.1237 92.444 100.126 93.276C100.126 93.289 100.126 93.289 100.139 93.289C100.308 93.432 100.529 93.51 100.75 93.51ZM44.85 91.677C45.981 91.677 47.138 91.599 48.308 91.456H48.321C48.802 91.391 49.166 90.988 49.179 90.507C49.179 90.455 49.166 90.403 49.166 90.351C49.101 89.831 48.633 89.441 48.074 89.519C46.7467 89.688 45.4597 89.753 44.252 89.727H44.226C43.706 89.727 43.264 90.143 43.251 90.676C43.2367 91.209 43.6657 91.651 44.1987 91.664C44.421 91.677 44.629 91.677 44.85 91.677ZM40.3 91.222C40.7563 91.222 41.158 90.897 41.249 90.442C41.262 90.377 41.275 90.312 41.275 90.247C41.275 89.792 40.95 89.389 40.495 89.298C39.273 89.038 38.077 88.674 36.92 88.193C36.92 88.18 36.907 88.18 36.8927 88.18C36.8797 88.18 36.8797 88.167 36.8797 88.167C36.3857 87.972 35.8137 88.219 35.6187 88.7C35.5667 88.817 35.5394 88.947 35.5394 89.077C35.5394 89.467 35.7747 89.818 36.1244 89.974C36.1244 89.974 36.1244 89.974 36.1374 89.974C36.1517 89.974 36.1647 89.987 36.1764 89.987C37.4374 90.52 38.7634 90.923 40.1037 91.196C40.17 91.209 40.235 91.222 40.3 91.222ZM52.104 90.689C52.1833 90.689 52.26 90.676 52.338 90.663C52.338 90.663 52.338 90.663 52.3523 90.65C52.3653 90.65 52.3653 90.65 52.3783 90.65C53.6133 90.325 54.9133 89.909 56.2263 89.415C56.2263 89.415 56.2263 89.415 56.2393 89.415C56.6163 89.272 56.8633 88.908 56.8633 88.492C56.8633 88.375 56.836 88.271 56.7983 88.154C56.615 87.673 56.0313 87.4 55.5503 87.595C54.3023 88.05 53.0803 88.453 51.8843 88.765H51.8453V88.778C51.4163 88.895 51.1303 89.272 51.1303 89.714C51.1303 89.805 51.1433 89.883 51.1576 89.961C51.272 90.39 51.649 90.689 52.104 90.689ZM94.198 89.025C94.5503 89.025 94.8753 88.83 95.056 88.518C95.1353 88.375 95.173 88.206 95.173 88.05C95.173 87.686 94.9793 87.361 94.666 87.192C93.483 86.542 92.248 85.957 90.987 85.424C90.493 85.229 89.908 85.476 89.713 85.957C89.661 86.074 89.635 86.204 89.635 86.334C89.635 86.724 89.869 87.075 90.233 87.231C91.416 87.712 92.586 88.284 93.73 88.908C93.873 88.986 94.029 89.025 94.198 89.025ZM33.02 88.18C33.345 88.18 33.6427 88.024 33.826 87.738C33.943 87.582 33.995 87.387 33.995 87.192C33.982 86.867 33.826 86.568 33.553 86.399C32.526 85.723 31.512 84.93 30.5487 84.046C30.1717 83.695 29.5217 83.721 29.1707 84.098C29.0017 84.28 28.9107 84.514 28.9107 84.761C28.9107 85.021 29.0277 85.281 29.2227 85.463V85.476C29.2357 85.489 29.2487 85.502 29.2604 85.515C30.3017 86.464 31.3807 87.309 32.4844 88.024C32.643 88.128 32.825 88.18 33.02 88.18ZM59.579 87.998C59.696 87.998 59.813 87.972 59.917 87.933C59.9313 87.933 59.9313 87.933 59.9313 87.933C59.9443 87.933 59.9573 87.92 59.969 87.92C61.1793 87.452 62.413 87.023 63.6233 86.659C64.038 86.529 64.311 86.152 64.311 85.723C64.311 85.632 64.298 85.528 64.2733 85.437C64.1173 84.93 63.5713 84.631 63.0513 84.787C61.7903 85.177 60.5033 85.619 59.2306 86.113C58.8536 86.256 58.6066 86.633 58.6066 87.036C58.6066 87.153 58.6339 87.27 58.6716 87.374C58.812 87.751 59.1773 87.998 59.579 87.998ZM86.8543 85.983C87.2963 85.983 87.6733 85.697 87.7903 85.281C87.8293 85.19 87.8293 85.099 87.8293 84.995C87.8293 84.566 87.542 84.202 87.1273 84.072C85.8273 83.695 84.4883 83.396 83.148 83.162C82.6293 83.071 82.108 83.435 82.017 83.955C82.017 84.02 82.004 84.059 82.004 84.111C81.991 84.592 82.342 85.008 82.823 85.086C84.071 85.294 85.3333 85.593 86.5813 85.957C86.5943 85.957 86.5943 85.957 86.6073 85.957C86.6853 85.983 86.775 85.983 86.8543 85.983ZM67.1853 85.671C67.2503 85.671 67.327 85.671 67.392 85.645C68.679 85.359 69.966 85.125 71.227 84.956C71.708 84.891 72.0603 84.488 72.072 84.007C72.072 83.955 72.072 83.903 72.059 83.851C71.9927 83.344 71.5117 82.967 70.98 83.019H70.9657C70.9397 83.019 70.9137 83.032 70.8877 83.032C69.6137 83.214 68.3007 83.448 66.9604 83.747C66.5184 83.851 66.1934 84.254 66.2077 84.722C66.2077 84.787 66.2207 84.852 66.2337 84.917C66.3273 85.359 66.729 85.671 67.1853 85.671ZM79.04 84.644C79.5483 84.644 79.9773 84.241 80.002 83.734C80.002 83.708 80.002 83.695 80.002 83.682C80.015 83.162 79.612 82.733 79.092 82.694C77.74 82.616 76.362 82.603 75.088 82.655H75.0503H74.9983C74.49 82.694 74.0883 83.11 74.0883 83.63V83.669C74.1143 84.215 74.5693 84.631 75.1023 84.605C76.4153 84.553 77.74 84.566 78.975 84.644C79.0023 84.644 79.014 84.644 79.04 84.644ZM27.17 82.85C27.391 82.85 27.612 82.772 27.781 82.629C28.015 82.434 28.145 82.161 28.145 81.875C28.145 81.641 28.054 81.42 27.9097 81.251C27.1297 80.302 26.351 79.249 25.6217 78.131C25.3357 77.702 24.7117 77.559 24.2697 77.845C24.0097 78.027 23.8407 78.326 23.8407 78.651C23.8277 78.846 23.8797 79.028 23.9837 79.184C23.9837 79.184 23.9837 79.197 23.9967 79.197C24.0097 79.223 24.024 79.236 24.0357 79.249C24.7767 80.406 25.5827 81.485 26.4017 82.486C26.4017 82.486 26.4017 82.486 26.4147 82.499C26.598 82.72 26.871 82.85 27.17 82.85ZM22.789 76.207C22.945 76.207 23.101 76.168 23.244 76.103C23.569 75.934 23.764 75.596 23.764 75.245C23.764 75.076 23.725 74.92 23.647 74.777C23.049 73.659 22.477 72.476 21.9427 71.254C21.7347 70.786 21.1367 70.552 20.657 70.76C20.3047 70.916 20.072 71.28 20.085 71.67C20.085 71.8 20.111 71.93 20.163 72.047C20.722 73.334 21.32 74.556 21.931 75.7C21.931 75.7 21.931 75.7 21.944 75.713C22.113 76.025 22.438 76.207 22.789 76.207ZM19.565 68.94C19.6833 68.94 19.8003 68.914 19.9043 68.875C20.2813 68.732 20.54 68.368 20.54 67.952C20.54 67.848 20.514 67.731 20.475 67.627C20.033 66.392 19.604 65.144 19.227 63.896C19.058 63.389 18.512 63.09 18.0063 63.246C17.5903 63.376 17.3173 63.753 17.3173 64.182C17.3173 64.286 17.3303 64.377 17.3563 64.468C17.771 65.833 18.2 67.068 18.642 68.277V68.29C18.785 68.68 19.162 68.94 19.565 68.94ZM17.199 61.322C17.277 61.322 17.355 61.322 17.4447 61.296C17.8737 61.179 18.174 60.789 18.174 60.347C18.174 60.269 18.1597 60.178 18.1467 60.1C17.8217 58.865 17.5097 57.578 17.2367 56.265C17.1197 55.758 16.5867 55.407 16.068 55.524C15.626 55.615 15.301 56.018 15.301 56.486C15.301 56.551 15.314 56.616 15.327 56.681C15.6 57.981 15.912 59.294 16.25 60.594C16.367 61.023 16.7583 61.322 17.199 61.322ZM15.5103 53.535C15.561 53.535 15.6273 53.535 15.6793 53.522C16.1343 53.444 16.471 53.054 16.4853 52.586C16.4853 52.521 16.4853 52.456 16.471 52.391C16.237 51.104 16.029 49.791 15.8483 48.491C15.7833 47.971 15.3023 47.581 14.7563 47.659C14.2753 47.724 13.923 48.127 13.9113 48.608C13.9113 48.647 13.9113 48.699 13.9243 48.738V48.751V48.803L13.9373 48.829C14.1076 50.051 14.3143 51.364 14.5496 52.729C14.638 53.197 15.041 53.535 15.5103 53.535ZM14.417 45.644C14.4443 45.644 14.4833 45.631 14.508 45.631C15.002 45.579 15.379 45.163 15.392 44.669C15.392 44.63 15.379 44.604 15.379 44.565C15.379 44.552 15.379 44.539 15.379 44.513C15.327 43.993 14.8603 43.616 14.313 43.655C14.0543 43.681 13.819 43.798 13.663 44.006C13.494 44.201 13.4173 44.461 13.442 44.721V44.747C13.494 45.254 13.91 45.644 14.417 45.644Z" fill="#D2D4D9"/>
<path d="M14.4064 45.5959C14.4376 45.5959 14.4701 45.5946 14.5026 45.592C15.0382 45.5387 15.4308 45.0629 15.3775 44.5273C15.2605 43.3261 15.2202 42.6371 15.2202 42.6267C15.189 42.0898 14.721 41.6634 14.1906 41.7102C13.6524 41.7414 13.2429 42.2016 13.2728 42.7398C13.2728 42.7398 13.3144 43.4574 13.4379 44.7171C13.486 45.2202 13.9111 45.5959 14.4064 45.5959Z" fill="#D2D4D9"/>
<path d="M114.449 112.292C114.581 112.292 114.711 112.266 114.835 112.213C115.143 112.08 115.362 111.798 115.413 111.466L116.962 101.415C117.044 100.884 116.679 100.386 116.147 100.304C115.61 100.226 115.117 100.587 115.036 101.119L113.723 109.63L106.664 104.747C106.22 104.438 105.614 104.552 105.306 104.994C105.001 105.437 105.111 106.045 105.553 106.35L113.893 112.119C114.059 112.235 114.254 112.292 114.449 112.292Z" fill="#D2D4D9"/>
<path d="M715.931 110.719C716.059 110.719 716.188 110.695 716.313 110.641C716.808 110.429 717.038 109.857 716.828 109.362C716.828 109.362 716.539 108.685 715.946 107.546C715.698 107.07 715.113 106.883 714.631 107.133C714.154 107.381 713.968 107.97 714.217 108.448C714.758 109.487 715.026 110.11 715.035 110.129C715.192 110.497 715.552 110.719 715.931 110.719Z" fill="#D2D4D9"/>
<path d="M715.529 108.863C716.01 108.616 716.192 108.031 715.945 107.55C715.698 107.069 715.112 106.887 714.632 107.134C714.151 107.381 713.968 107.966 714.216 108.447C714.385 108.785 714.735 108.967 715.087 108.967C715.231 108.967 715.386 108.941 715.529 108.863Z" fill="#D2D4D9"/>
<path d="M713.098 105.522C713.281 105.522 713.462 105.47 713.618 105.379C714.073 105.093 714.216 104.482 713.93 104.027C713.214 102.896 712.447 101.765 711.655 100.673C711.343 100.257 710.706 100.166 710.289 100.465C710.043 100.647 709.899 100.933 709.886 101.245C709.886 101.453 709.951 101.661 710.081 101.83C710.848 102.883 711.587 103.975 712.265 105.054C712.265 105.054 712.265 105.067 712.278 105.067C712.461 105.353 712.76 105.522 713.098 105.522ZM708.392 99.113C708.627 99.113 708.848 99.022 709.029 98.879C709.25 98.684 709.381 98.411 709.367 98.112C709.367 97.891 709.289 97.67 709.133 97.501C708.262 96.487 707.352 95.499 706.416 94.563L706.377 94.524C706.377 94.524 706.364 94.524 706.364 94.511C706 94.16 705.362 94.16 704.999 94.524C704.816 94.706 704.712 94.953 704.712 95.213C704.712 95.486 704.816 95.72 704.999 95.902C705.922 96.825 706.806 97.787 707.651 98.762V98.775C707.846 98.983 708.106 99.113 708.392 99.113ZM702.75 93.51C703.036 93.51 703.31 93.38 703.504 93.159C703.647 92.99 703.725 92.769 703.725 92.535C703.725 92.249 703.608 91.989 703.387 91.794C703.387 91.794 703.374 91.794 703.374 91.781L703.322 91.742C702.282 90.884 701.203 90.065 700.137 89.324C699.708 89.025 699.071 89.155 698.772 89.571C698.668 89.74 698.603 89.922 698.603 90.117C698.603 90.442 698.759 90.754 699.032 90.936C700.085 91.664 701.124 92.444 702.126 93.276C702.126 93.289 702.126 93.289 702.139 93.289C702.308 93.432 702.529 93.51 702.75 93.51ZM646.85 91.677C647.981 91.677 649.138 91.599 650.308 91.456H650.321C650.802 91.391 651.166 90.988 651.179 90.507C651.179 90.455 651.166 90.403 651.166 90.351C651.101 89.831 650.633 89.441 650.074 89.519C648.747 89.688 647.46 89.753 646.252 89.727H646.226C645.706 89.727 645.264 90.143 645.251 90.676C645.237 91.209 645.666 91.651 646.199 91.664C646.421 91.677 646.629 91.677 646.85 91.677ZM642.3 91.222C642.756 91.222 643.158 90.897 643.249 90.442C643.262 90.377 643.275 90.312 643.275 90.247C643.275 89.792 642.95 89.389 642.495 89.298C641.273 89.038 640.077 88.674 638.92 88.193C638.92 88.18 638.907 88.18 638.893 88.18C638.88 88.18 638.88 88.167 638.88 88.167C638.386 87.972 637.814 88.219 637.619 88.7C637.567 88.817 637.539 88.947 637.539 89.077C637.539 89.467 637.775 89.818 638.124 89.974C638.124 89.974 638.124 89.974 638.137 89.974C638.152 89.974 638.165 89.987 638.176 89.987C639.437 90.52 640.763 90.923 642.104 91.196C642.17 91.209 642.235 91.222 642.3 91.222ZM654.104 90.689C654.183 90.689 654.26 90.676 654.338 90.663C654.338 90.663 654.338 90.663 654.352 90.65C654.365 90.65 654.365 90.65 654.378 90.65C655.613 90.325 656.913 89.909 658.226 89.415C658.226 89.415 658.226 89.415 658.239 89.415C658.616 89.272 658.863 88.908 658.863 88.492C658.863 88.375 658.836 88.271 658.798 88.154C658.615 87.673 658.031 87.4 657.55 87.595C656.302 88.05 655.08 88.453 653.884 88.765H653.845V88.778C653.416 88.895 653.13 89.272 653.13 89.714C653.13 89.805 653.143 89.883 653.158 89.961C653.272 90.39 653.649 90.689 654.104 90.689ZM696.198 89.025C696.55 89.025 696.875 88.83 697.056 88.518C697.135 88.375 697.173 88.206 697.173 88.05C697.173 87.686 696.979 87.361 696.666 87.192C695.483 86.542 694.248 85.957 692.987 85.424C692.493 85.229 691.908 85.476 691.713 85.957C691.661 86.074 691.635 86.204 691.635 86.334C691.635 86.724 691.869 87.075 692.233 87.231C693.416 87.712 694.586 88.284 695.73 88.908C695.873 88.986 696.029 89.025 696.198 89.025ZM635.02 88.18C635.345 88.18 635.643 88.024 635.826 87.738C635.943 87.582 635.995 87.387 635.995 87.192C635.982 86.867 635.826 86.568 635.553 86.399C634.526 85.723 633.512 84.93 632.549 84.046C632.172 83.695 631.522 83.721 631.171 84.098C631.002 84.28 630.911 84.514 630.911 84.761C630.911 85.021 631.028 85.281 631.223 85.463V85.476C631.236 85.489 631.249 85.502 631.26 85.515C632.302 86.464 633.381 87.309 634.484 88.024C634.643 88.128 634.825 88.18 635.02 88.18ZM661.579 87.998C661.696 87.998 661.813 87.972 661.917 87.933C661.931 87.933 661.931 87.933 661.931 87.933C661.944 87.933 661.957 87.92 661.969 87.92C663.179 87.452 664.413 87.023 665.623 86.659C666.038 86.529 666.311 86.152 666.311 85.723C666.311 85.632 666.298 85.528 666.273 85.437C666.117 84.93 665.571 84.631 665.051 84.787C663.79 85.177 662.503 85.619 661.231 86.113C660.854 86.256 660.607 86.633 660.607 87.036C660.607 87.153 660.634 87.27 660.672 87.374C660.812 87.751 661.177 87.998 661.579 87.998ZM688.854 85.983C689.296 85.983 689.673 85.697 689.79 85.281C689.829 85.19 689.829 85.099 689.829 84.995C689.829 84.566 689.542 84.202 689.127 84.072C687.827 83.695 686.488 83.396 685.148 83.162C684.629 83.071 684.108 83.435 684.017 83.955C684.017 84.02 684.004 84.059 684.004 84.111C683.991 84.592 684.342 85.008 684.823 85.086C686.071 85.294 687.333 85.593 688.581 85.957C688.594 85.957 688.594 85.957 688.607 85.957C688.685 85.983 688.775 85.983 688.854 85.983ZM669.185 85.671C669.25 85.671 669.327 85.671 669.392 85.645C670.679 85.359 671.966 85.125 673.227 84.956C673.708 84.891 674.06 84.488 674.072 84.007C674.072 83.955 674.072 83.903 674.059 83.851C673.993 83.344 673.512 82.967 672.98 83.019H672.966C672.94 83.019 672.914 83.032 672.888 83.032C671.614 83.214 670.301 83.448 668.96 83.747C668.518 83.851 668.193 84.254 668.208 84.722C668.208 84.787 668.221 84.852 668.234 84.917C668.327 85.359 668.729 85.671 669.185 85.671ZM681.04 84.644C681.548 84.644 681.977 84.241 682.002 83.734C682.002 83.708 682.002 83.695 682.002 83.682C682.015 83.162 681.612 82.733 681.092 82.694C679.74 82.616 678.362 82.603 677.088 82.655H677.05H676.998C676.49 82.694 676.088 83.11 676.088 83.63V83.669C676.114 84.215 676.569 84.631 677.102 84.605C678.415 84.553 679.74 84.566 680.975 84.644C681.002 84.644 681.014 84.644 681.04 84.644ZM629.17 82.85C629.391 82.85 629.612 82.772 629.781 82.629C630.015 82.434 630.145 82.161 630.145 81.875C630.145 81.641 630.054 81.42 629.91 81.251C629.13 80.302 628.351 79.249 627.622 78.131C627.336 77.702 626.712 77.559 626.27 77.845C626.01 78.027 625.841 78.326 625.841 78.651C625.828 78.846 625.88 79.028 625.984 79.184C625.984 79.184 625.984 79.197 625.997 79.197C626.01 79.223 626.024 79.236 626.036 79.249C626.777 80.406 627.583 81.485 628.402 82.486C628.402 82.486 628.402 82.486 628.415 82.499C628.598 82.72 628.871 82.85 629.17 82.85ZM624.789 76.207C624.945 76.207 625.101 76.168 625.244 76.103C625.569 75.934 625.764 75.596 625.764 75.245C625.764 75.076 625.725 74.92 625.647 74.777C625.049 73.659 624.477 72.476 623.943 71.254C623.735 70.786 623.137 70.552 622.657 70.76C622.305 70.916 622.072 71.28 622.085 71.67C622.085 71.8 622.111 71.93 622.163 72.047C622.722 73.334 623.32 74.556 623.931 75.7C623.931 75.7 623.931 75.7 623.944 75.713C624.113 76.025 624.438 76.207 624.789 76.207ZM621.565 68.94C621.683 68.94 621.8 68.914 621.904 68.875C622.281 68.732 622.54 68.368 622.54 67.952C622.54 67.848 622.514 67.731 622.475 67.627C622.033 66.392 621.604 65.144 621.227 63.896C621.058 63.389 620.512 63.09 620.006 63.246C619.59 63.376 619.317 63.753 619.317 64.182C619.317 64.286 619.33 64.377 619.356 64.468C619.771 65.833 620.2 67.068 620.642 68.277V68.29C620.785 68.68 621.162 68.94 621.565 68.94ZM619.199 61.322C619.277 61.322 619.355 61.322 619.445 61.296C619.874 61.179 620.174 60.789 620.174 60.347C620.174 60.269 620.16 60.178 620.147 60.1C619.822 58.865 619.51 57.578 619.237 56.265C619.12 55.758 618.587 55.407 618.068 55.524C617.626 55.615 617.301 56.018 617.301 56.486C617.301 56.551 617.314 56.616 617.327 56.681C617.6 57.981 617.912 59.294 618.25 60.594C618.367 61.023 618.758 61.322 619.199 61.322ZM617.51 53.535C617.561 53.535 617.627 53.535 617.679 53.522C618.134 53.444 618.471 53.054 618.485 52.586C618.485 52.521 618.485 52.456 618.471 52.391C618.237 51.104 618.029 49.791 617.848 48.491C617.783 47.971 617.302 47.581 616.756 47.659C616.275 47.724 615.923 48.127 615.911 48.608C615.911 48.647 615.911 48.699 615.924 48.738V48.751V48.803L615.937 48.829C616.108 50.051 616.314 51.364 616.55 52.729C616.638 53.197 617.041 53.535 617.51 53.535ZM616.417 45.644C616.444 45.644 616.483 45.631 616.508 45.631C617.002 45.579 617.379 45.163 617.392 44.669C617.392 44.63 617.379 44.604 617.379 44.565C617.379 44.552 617.379 44.539 617.379 44.513C617.327 43.993 616.86 43.616 616.313 43.655C616.054 43.681 615.819 43.798 615.663 44.006C615.494 44.201 615.417 44.461 615.442 44.721V44.747C615.494 45.254 615.91 45.644 616.417 45.644Z" fill="#D2D4D9"/>
<path d="M616.406 45.5959C616.438 45.5959 616.47 45.5946 616.503 45.592C617.038 45.5387 617.431 45.0629 617.377 44.5273C617.26 43.3261 617.22 42.6371 617.22 42.6267C617.189 42.0898 616.721 41.6634 616.191 41.7102C615.652 41.7414 615.243 42.2016 615.273 42.7398C615.273 42.7398 615.314 43.4574 615.438 44.7171C615.486 45.2202 615.911 45.5959 616.406 45.5959Z" fill="#D2D4D9"/>
<path d="M716.449 112.292C716.581 112.292 716.711 112.266 716.835 112.213C717.143 112.08 717.362 111.798 717.413 111.466L718.962 101.415C719.044 100.884 718.679 100.386 718.147 100.304C717.61 100.226 717.117 100.587 717.036 101.119L715.723 109.63L708.664 104.747C708.22 104.438 707.614 104.552 707.306 104.994C707.001 105.437 707.111 106.045 707.553 106.35L715.893 112.119C716.059 112.235 716.254 112.292 716.449 112.292Z" fill="#D2D4D9"/>
<path d="M301.257 98.6815C301.181 98.7683 301.12 98.8716 301.081 98.9886C300.929 99.4522 301.18 99.953 301.643 100.107C301.643 100.107 302.278 100.317 303.409 100.597C303.882 100.715 304.362 100.424 304.48 99.9488C304.597 99.4749 304.308 98.9949 303.832 98.8778C302.8 98.6226 302.215 98.4322 302.197 98.4258C301.851 98.3113 301.484 98.4239 301.257 98.6815Z" fill="#D2D4D9"/>
<path d="M302.76 99.5281C302.64 100.004 302.929 100.479 303.405 100.599C303.888 100.711 304.363 100.422 304.476 99.955C304.596 99.4792 304.315 98.9953 303.831 98.8837L303.839 98.8748C303.5 98.7959 303.164 98.9091 302.954 99.1481C302.86 99.2543 302.793 99.3839 302.76 99.5281Z" fill="#D2D4D9"/>
<path d="M306.494 99.8778C306.385 100.002 306.311 100.157 306.279 100.318C306.244 100.554 306.3 100.776 306.438 100.977C306.575 101.16 306.776 101.29 307.012 101.325C308.22 101.525 309.443 101.69 310.661 101.789C311.133 101.843 311.577 101.463 311.622 100.984C311.646 100.707 311.546 100.445 311.334 100.258C311.183 100.125 311.011 100.053 310.826 100.031C309.649 99.9213 308.46 99.7705 307.303 99.5843C306.999 99.5366 306.697 99.6476 306.494 99.8778ZM313.683 100.52C313.542 100.679 313.463 100.876 313.468 101.085C313.468 101.352 313.576 101.605 313.77 101.776C313.938 101.908 314.135 101.988 314.336 101.992C315.582 102.005 316.818 101.977 318.025 101.893C318.491 101.863 318.881 101.421 318.843 100.947C318.828 100.713 318.723 100.494 318.538 100.347C318.361 100.191 318.147 100.113 317.905 100.12C316.74 100.21 315.554 100.234 314.358 100.218C314.098 100.209 313.854 100.325 313.683 100.52ZM320.892 100.031C320.713 100.235 320.637 100.499 320.679 100.755C320.708 100.954 320.812 101.14 320.962 101.273C321.158 101.461 321.422 101.536 321.686 101.486C322.929 101.307 324.142 101.055 325.311 100.764C325.763 100.644 326.066 100.14 325.945 99.6876C325.909 99.5143 325.808 99.3618 325.675 99.2448C325.454 99.0498 325.156 98.9765 324.876 99.0444C323.741 99.3334 322.577 99.5656 321.417 99.7391C321.409 99.7479 321.409 99.7479 321.409 99.7479C321.203 99.7861 321.025 99.8809 320.892 100.031ZM355.689 63.0654C355.003 63.8445 354.361 64.6791 353.749 65.5706C353.512 65.9283 353.568 66.418 353.888 66.7155C353.923 66.7467 353.959 66.7779 353.993 66.7925C354.395 67.0681 354.94 66.9668 355.224 66.556C355.889 65.5693 356.609 64.6628 357.368 63.8374L357.392 63.8108C357.704 63.4567 357.678 62.9149 357.323 62.5862C356.968 62.2574 356.4 62.2765 356.071 62.6316C355.947 62.7733 355.814 62.9238 355.689 63.0654ZM358.73 60.2401C358.449 60.5588 358.436 61.0194 358.684 61.3633C358.72 61.4112 358.764 61.4502 358.809 61.4892C359.118 61.7623 359.588 61.7828 359.923 61.5276C360.841 60.8426 361.831 60.2368 362.845 59.7464C363.276 59.5437 363.459 58.9971 363.256 58.5668C363.199 58.4533 363.134 58.3654 363.046 58.2874C362.78 58.0533 362.401 58.002 362.084 58.1474L362.076 58.1563C362.052 58.1662 362.035 58.1672 362.02 58.1849C360.916 58.7227 359.854 59.3749 358.856 60.1151C358.808 60.1516 358.769 60.1958 358.73 60.2401ZM352.008 68.5981C351.962 68.6512 351.916 68.721 351.878 68.7819C351.343 69.8523 350.847 70.9872 350.395 72.1778C350.395 72.1778 350.395 72.1778 350.387 72.1867C350.267 72.537 350.367 72.9237 350.64 73.1489C350.72 73.2191 350.807 73.2805 350.901 73.3163C351.347 73.4889 351.875 73.2466 352.048 72.8009C352.471 71.6957 352.939 70.6295 353.428 69.6289C353.443 69.6112 353.451 69.6023 353.458 69.5768L353.466 69.568C353.644 69.2056 353.55 68.7768 353.258 68.5193C353.196 68.4647 353.135 68.4268 353.066 68.3976C352.711 68.211 352.274 68.2971 352.008 68.5981ZM327.879 98.2614C327.668 98.5004 327.598 98.8476 327.709 99.1499C327.759 99.2889 327.842 99.4091 327.957 99.5105C328.196 99.7211 328.544 99.7912 328.846 99.6802C330.014 99.247 331.163 98.7649 332.249 98.2282C332.679 98.0255 332.87 97.47 332.659 97.0485C332.602 96.9351 332.538 96.8472 332.45 96.7692C332.175 96.5273 331.788 96.4849 331.48 96.638C330.426 97.156 329.343 97.6172 328.239 98.0129C328.1 98.0635 327.98 98.1463 327.879 98.2614ZM365.162 57.1005C364.966 57.3219 364.894 57.6357 364.971 57.9235C365.024 58.0958 365.116 58.2404 365.249 58.3574C365.47 58.5525 365.776 58.6169 366.063 58.5402C367.148 58.2377 368.289 58.032 369.46 57.9163C369.933 57.8613 370.298 57.412 370.243 56.9389C370.229 56.7224 370.124 56.52 369.956 56.3717C369.77 56.2079 369.531 56.1227 369.273 56.1473C368.02 56.2849 366.78 56.5136 365.597 56.839C365.588 56.8312 365.588 56.8312 365.58 56.8401C365.415 56.8839 365.271 56.9766 365.162 57.1005ZM349.347 75.3122C349.277 75.3919 349.215 75.4794 349.188 75.5814C348.774 76.6944 348.317 77.8017 347.832 78.869C347.679 79.2214 347.764 79.6424 348.056 79.8999C348.118 79.9545 348.197 80.0081 348.282 80.0362C348.704 80.2353 349.251 80.0252 349.442 79.5952C349.934 78.5191 350.39 77.3951 350.819 76.2477C350.827 76.2389 350.833 76.2134 350.841 76.2045C350.849 76.1956 350.84 76.1878 350.848 76.179C350.969 75.8453 350.861 75.4508 350.578 75.2178C350.508 75.1554 350.42 75.094 350.318 75.067C349.975 74.9382 349.589 75.0378 349.347 75.3122ZM334.342 95.0864C334.084 95.3786 334.061 95.8147 334.258 96.1451C334.313 96.2252 334.367 96.2887 334.438 96.3511C334.738 96.5997 335.157 96.6234 335.487 96.4104C336.516 95.7602 337.532 95.0357 338.503 94.2554C338.877 93.956 338.933 93.3922 338.625 93.0104C338.597 92.9703 338.571 92.9469 338.535 92.9157C338.216 92.6182 337.729 92.5987 337.388 92.8794C336.48 93.6055 335.529 94.2925 334.549 94.9229C334.54 94.9151 334.532 94.9239 334.532 94.9239C334.46 94.9703 334.396 95.0245 334.342 95.0864ZM346.375 81.8787C346.328 81.9318 346.289 81.9761 346.251 82.037C345.682 83.0762 345.068 84.093 344.428 85.0698C344.191 85.4275 344.247 85.9172 344.575 86.2059C344.61 86.2371 344.646 86.2683 344.672 86.2917C345.082 86.5585 345.635 86.4484 345.902 86.0386C346.575 85.0431 347.21 83.983 347.81 82.8918C348.012 82.5195 347.925 82.0652 347.607 81.7843C347.554 81.7541 347.51 81.7151 347.458 81.685C347.095 81.4905 346.64 81.5777 346.375 81.8787ZM339.959 90.5686C339.647 90.9227 339.672 91.4478 339.994 91.7787L340.029 91.8099C340.383 92.122 340.917 92.105 341.256 91.7743C342.097 90.927 342.917 90.0142 343.724 89.0269C344.019 88.6572 343.976 88.1164 343.622 87.8043L343.587 87.7731C343.208 87.4709 342.627 87.541 342.35 87.9097C341.55 88.8881 340.761 89.7656 339.998 90.5243C339.982 90.542 339.975 90.5509 339.959 90.5686ZM372.311 56.3235C372.178 56.474 372.099 56.6713 372.087 56.8811C372.078 57.1408 372.195 57.401 372.39 57.5726C372.54 57.7053 372.729 57.777 372.931 57.7977C372.938 57.7888 372.938 57.7888 372.947 57.7966C372.964 57.7956 372.981 57.7945 372.997 57.7935C374.069 57.8262 375.205 57.9301 376.394 58.0976C376.403 58.1054 376.419 58.1043 376.445 58.1111C376.445 58.1111 376.453 58.1022 376.462 58.11C376.917 58.1649 377.38 57.818 377.442 57.3542C377.491 57.0669 377.389 56.7724 377.168 56.5773C377.035 56.4603 376.871 56.3787 376.702 56.3559C375.445 56.176 374.209 56.0617 373.002 56.0207C372.735 56.0209 372.483 56.1288 372.311 56.3235ZM379.447 57.3281C379.354 57.4343 379.286 57.564 379.254 57.7082C379.182 58.0221 379.286 58.3499 379.534 58.5683C379.64 58.662 379.762 58.7379 379.897 58.7628C379.906 58.7706 379.906 58.7706 379.906 58.7706C379.932 58.7773 379.957 58.7841 379.974 58.7831C381.052 59.0411 382.184 59.3626 383.327 59.7253C383.787 59.8635 384.298 59.6055 384.445 59.1531C384.548 58.8038 384.45 58.4338 384.176 58.2086C384.088 58.1306 383.984 58.0703 383.873 58.0355C382.704 57.6661 381.504 57.3321 380.324 57.0471L380.307 57.0481C379.993 56.976 379.666 57.0802 379.447 57.3281ZM386.347 59.493C386.277 59.5726 386.225 59.6679 386.189 59.7621C386.052 60.1135 386.152 60.5002 386.426 60.7421C386.506 60.8123 386.593 60.8736 386.687 60.9095C387.742 61.3196 388.849 61.7764 389.985 62.29C390.415 62.4802 390.954 62.279 391.152 61.8402C391.305 61.4877 391.229 61.0745 390.937 60.817C390.866 60.7546 390.797 60.7088 390.71 60.6641C389.566 60.1594 388.432 59.6791 387.327 59.2556C386.985 59.1267 386.589 59.2185 386.347 59.493ZM392.946 62.446C392.891 62.508 392.853 62.5689 392.824 62.6376C392.647 63 392.716 63.4387 393.034 63.7029C393.087 63.7497 393.14 63.7965 393.209 63.8256C394.262 64.3611 395.326 64.9211 396.375 65.5154C396.791 65.74 397.333 65.5887 397.574 65.1722C397.785 64.8077 397.697 64.3368 397.387 64.0637C397.335 64.0335 397.291 63.9945 397.239 63.9644C396.164 63.3633 395.083 62.7878 394.012 62.2533L393.995 62.2377C393.641 62.0677 393.204 62.1539 392.946 62.446ZM399.263 65.9686C399.224 66.0129 399.202 66.0561 399.171 66.1081C398.944 66.4736 399.033 66.9613 399.36 67.2333C399.395 67.2645 399.43 67.2957 399.474 67.3181C400.491 67.9478 401.51 68.5941 402.496 69.2426C402.897 69.5016 403.451 69.4081 403.726 68.9895C403.962 68.6318 403.898 68.1342 403.579 67.8534L403.473 67.7597L403.464 67.7519C402.478 67.1035 401.45 66.4493 400.381 65.8061C400.025 65.5861 399.544 65.6499 399.263 65.9686ZM405.301 69.9686C405.285 69.9863 405.262 70.0129 405.255 70.0384C404.977 70.407 405.034 70.9134 405.38 71.2177C405.397 71.2333 405.424 71.2567 405.45 71.2801L405.459 71.2879C405.468 71.2957 405.485 71.2947 405.485 71.2947C405.871 71.588 406.425 71.4945 406.71 71.1004C407.002 70.6974 406.909 70.1431 406.514 69.8586L406.467 69.8951L406.497 69.843C406.497 69.843 406.488 69.8352 406.471 69.8363C406.111 69.5663 405.605 69.6234 405.301 69.9686Z" fill="#D2D4D9"/>
<path d="M405.333 69.9925C405.315 70.0137 405.296 70.0366 405.279 70.0594C404.992 70.4562 405.082 71.009 405.478 71.2951C406.367 71.9371 406.861 72.3232 406.868 72.3285C407.253 72.6295 407.793 72.5854 408.11 72.1774C408.411 71.7931 408.345 71.2372 407.959 70.9354C407.959 70.9354 407.447 70.533 406.515 69.8594C406.142 69.592 405.631 69.6552 405.333 69.9925Z" fill="#D2D4D9"/>
<path d="M404.215 61.3247C404.013 61.5531 403.935 61.879 404.039 62.1893L407.013 71.1272L397.703 69.9019C397.219 69.8371 396.773 70.1804 396.71 70.6643C396.646 71.1491 396.988 71.5932 397.473 71.6571L408.185 73.0673C408.487 73.1068 408.802 72.9941 408.982 72.7537C409.176 72.519 409.236 72.2001 409.14 71.911L405.719 61.6311C405.564 61.1677 405.064 60.9167 404.6 61.0713C404.445 61.122 404.315 61.2114 404.215 61.3247Z" fill="#D2D4D9"/>
</svg>
