<svg width="83" height="83" viewBox="0 0 83 83" fill="none" xmlns="http://www.w3.org/2000/svg">
<g clip-path="url(#clip0_159_2400)">
<path d="M83 34.9767C82.9992 34.5754 82.7846 34.2049 82.437 34.0051L76.7351 30.7304L82.4393 27.4379C82.7868 27.2371 83.0008 26.8662 83 26.4649C82.9992 26.0637 82.7846 25.6935 82.437 25.4938C72.7171 19.9138 62.9978 14.3316 53.2792 8.74786C52.9323 8.54846 52.5066 8.54895 52.1598 8.74899L0.561549 38.5398C0.213987 38.7402 2.29454e-06 39.1113 0.000812841 39.5122C0.00162339 39.9134 0.215446 40.2836 0.563819 40.4837C2.46406 41.5756 4.3648 42.6663 6.26521 43.7581L0.560739 47.0512C0.213176 47.2516 -0.000808252 47.6227 2.29455e-06 48.0235C0.000812841 48.4248 0.215446 48.7953 0.563008 48.9951L6.26472 52.2697L0.560739 55.5623C0.213176 55.7631 -0.000808252 56.134 2.29455e-06 56.5349C0.000812841 56.9362 0.215446 57.3067 0.563008 57.5065L29.7208 74.2524C29.8939 74.3517 30.0867 74.4013 30.2794 74.4013C30.473 74.4013 30.6664 74.3512 30.8402 74.2509L82.4391 44.4604C82.7867 44.26 83.0006 43.889 82.9998 43.4877C82.999 43.0868 82.7844 42.7163 82.4368 42.5165L76.7351 39.2421L82.4391 35.949C82.7868 35.7485 83.0008 35.3776 83 34.9767ZM52.722 11.0148C61.6906 16.1676 70.6599 21.3189 79.6299 26.4688L60.2089 37.6787C59.5911 37.3289 58.4576 36.6808 56.9837 35.8357L68.0245 29.4649C68.2896 29.3116 68.4808 29.0568 68.5531 28.7591C68.6261 28.462 68.5736 28.1475 68.4085 27.8894C68.1712 27.5177 67.8228 26.7783 68.1602 26.0039C68.3879 25.48 68.185 24.8683 67.6899 24.584L55.7536 17.7239C55.4644 17.558 55.1162 17.5288 54.8029 17.6457C53.2695 18.2183 51.1766 18.1277 49.473 17.416C49.1517 17.2824 48.7829 17.3043 48.4799 17.4799L36.7964 24.2264C36.3663 23.9787 35.9534 23.741 35.5725 23.5217L33.3106 22.2196L52.722 11.0148ZM66.007 28.0389L54.733 34.5443C50.139 31.9066 43.8107 28.2645 39.0436 25.5202L49.1396 19.6896C51.0709 20.3646 53.255 20.4494 55.0705 19.9188L65.8208 26.0973C65.7258 26.7357 65.7893 27.3966 66.007 28.0389ZM22.7697 28.3046C23.8533 28.9271 24.937 29.5489 26.0207 30.1714L14.9987 36.5386C14.7336 36.6916 14.5423 36.9465 14.47 37.2439C14.3971 37.5416 14.4496 37.8556 14.6146 38.1136C14.852 38.4854 15.2004 39.2247 14.8636 39.9983C14.6359 40.5223 14.8388 41.1339 15.3339 41.4182L27.2665 48.2677C27.5549 48.4338 27.9047 48.4627 28.2172 48.3458C29.7492 47.7737 31.842 47.8635 33.5479 48.5744C33.6858 48.6324 33.8327 48.661 33.9794 48.661C34.1736 48.661 34.3678 48.6105 34.5402 48.5105L36.3788 47.4487C39.6588 45.5545 42.9382 43.6605 46.2187 41.7684L49.681 43.7559L30.2777 54.9622C21.3077 49.8129 12.3369 44.6616 3.36896 39.5084L22.7697 28.3046ZM17.0163 37.9637L28.2694 31.4628C33.0158 34.1887 37.7624 36.9145 42.5091 39.6393L43.9692 40.4774C41.0647 42.1529 38.1609 43.8293 35.2573 45.5062L33.8809 46.3013C31.948 45.6263 29.7654 45.5433 27.9493 46.073L17.2034 39.9048C17.2976 39.2667 17.234 38.6058 17.0163 37.9637ZM8.51399 45.0497C15.5826 49.1103 22.6511 53.1708 29.7208 57.2291C29.8939 57.3285 30.0867 57.3781 30.2794 57.3781C30.473 57.3781 30.6672 57.328 30.8402 57.2276L50.8104 45.6939L50.8247 51.6117L30.278 63.4739L3.36928 48.0198L8.51399 45.0497ZM30.278 71.9854L3.36928 56.5314L8.51447 53.5617L29.7208 65.741C29.8939 65.8403 30.0867 65.8899 30.2794 65.8899C30.473 65.8899 30.6664 65.8399 30.8402 65.7395L50.831 54.198L50.8454 60.1114L30.278 71.9854ZM53.0856 58.8181L53.0492 43.7495C53.0485 43.3486 52.8337 42.9787 52.4861 42.7795C52.4861 42.7795 31.2177 30.5712 25.0153 27.0077L31.0658 23.5157C31.0658 23.5157 57.2319 38.5808 59.0997 39.5995L59.1312 55.3271L53.0856 58.8181ZM79.6307 43.4918L61.3719 54.0339L61.36 48.119L74.4891 40.5391L79.6307 43.4918ZM61.3547 45.5319L61.3428 39.6148L74.4884 32.0269L79.6307 34.9802L61.3547 45.5319ZM27.016 41.6797C26.7064 41.1433 26.8897 40.4573 27.4265 40.1478L32.3402 37.3106C32.8755 37.0003 33.5626 37.1838 33.8721 37.721C34.1817 38.2574 33.9984 38.9435 33.4616 39.2529L28.5479 42.0902C28.3713 42.1925 28.1785 42.2406 27.9879 42.2406C27.6009 42.2405 27.2234 42.0398 27.016 41.6797ZM56.6316 24.5793C56.9412 25.1157 56.7579 25.8018 56.2212 26.1112L51.8996 28.6064C51.7229 28.7087 51.5302 28.7569 51.3396 28.7569C50.9526 28.7569 50.575 28.556 50.3677 28.1961C50.0581 27.6597 50.2414 26.9736 50.7782 26.6642L55.0997 24.169C55.6356 23.859 56.322 24.0419 56.6316 24.5793Z" fill="#E12025" stroke="#E12025" stroke-width="1.3"/>
</g>
<defs>
<clipPath id="clip0_159_2400">
<rect width="83" height="83" fill="white"/>
</clipPath>
</defs>
</svg>
