<svg width="50" height="30" viewBox="0 0 50 30" fill="none" xmlns="http://www.w3.org/2000/svg">
<path d="M19.767 12.5102V17.4307C19.767 19.5655 19.5392 21.4075 19.0836 22.9565C18.628 24.4925 17.9706 25.7552 17.1115 26.7445C16.2654 27.7208 15.2566 28.4432 14.085 28.9118C12.9135 29.3805 11.6118 29.6148 10.1799 29.6148C9.03438 29.6148 7.96697 29.4716 6.97767 29.1852C5.98836 28.8858 5.09669 28.4237 4.30264 27.7989C3.52161 27.1741 2.84472 26.3865 2.27197 25.4363C1.71223 24.473 1.28267 23.3275 0.983271 21.9997C0.683877 20.672 0.53418 19.149 0.53418 17.4307V12.5102C0.53418 10.3754 0.76198 8.54652 1.21758 7.02351C1.6862 5.48749 2.34356 4.23133 3.18968 3.25505C4.04881 2.27876 5.06415 1.56282 6.23569 1.10722C7.40723 0.6386 8.70895 0.404291 10.1408 0.404291C11.2863 0.404291 12.3472 0.553989 13.3235 0.853383C14.3128 1.13976 15.2045 1.58885 15.9985 2.20066C16.7926 2.81246 17.4695 3.6 18.0292 4.56327C18.589 5.51352 19.0185 6.65252 19.3179 7.98027C19.6173 9.295 19.767 10.805 19.767 12.5102ZM14.1241 18.1727V11.7487C14.1241 10.7204 14.0655 9.8222 13.9483 9.05418C13.8442 8.28617 13.6815 7.63532 13.4602 7.10161C13.2389 6.55489 12.9656 6.11231 12.6401 5.77386C12.3147 5.43542 11.9437 5.18809 11.5272 5.03189C11.1106 4.87568 10.6485 4.79758 10.1408 4.79758C9.50299 4.79758 8.93675 4.92124 8.4421 5.16857C7.96046 5.41589 7.55042 5.81292 7.21198 6.35964C6.87353 6.89334 6.61319 7.60928 6.43095 8.50746C6.26172 9.39263 6.17711 10.4731 6.17711 11.7487V18.1727C6.17711 19.201 6.22918 20.1057 6.33332 20.8868C6.45047 21.6678 6.6197 22.3382 6.84099 22.8979C7.07529 23.4446 7.34866 23.8937 7.66107 24.2452C7.9865 24.5836 8.35748 24.831 8.77403 24.9872C9.2036 25.1434 9.67222 25.2215 10.1799 25.2215C10.8047 25.2215 11.3579 25.0978 11.8396 24.8505C12.3342 24.5901 12.7508 24.1866 13.0892 23.6399C13.4407 23.0802 13.701 22.3512 13.8702 21.453C14.0395 20.5548 14.1241 19.4614 14.1241 18.1727Z" fill="white"/>
<path d="M23.5159 7.76549V6.26201C23.5159 5.18158 23.7503 4.19879 24.2189 3.31362C24.6875 2.42846 25.3774 1.71902 26.2886 1.18532C27.1998 0.651617 28.3193 0.384766 29.647 0.384766C31.0138 0.384766 32.1528 0.651617 33.064 1.18532C33.9882 1.71902 34.6782 2.42846 35.1338 3.31362C35.6024 4.19879 35.8367 5.18158 35.8367 6.26201V7.76549C35.8367 8.81988 35.6024 9.78965 35.1338 10.6748C34.6782 11.56 33.9948 12.2694 33.0836 12.8031C32.1724 13.3368 31.0464 13.6037 29.7056 13.6037C28.3518 13.6037 27.2128 13.3368 26.2886 12.8031C25.3774 12.2694 24.6875 11.56 24.2189 10.6748C23.7503 9.78965 23.5159 8.81988 23.5159 7.76549ZM27.2454 6.26201V7.76549C27.2454 8.22109 27.33 8.65716 27.4992 9.07371C27.6814 9.47724 27.9548 9.80918 28.3193 10.0695C28.6968 10.3168 29.1524 10.4405 29.6861 10.4405C30.2458 10.4405 30.7014 10.3168 31.0529 10.0695C31.4043 9.80918 31.6647 9.47724 31.8339 9.07371C32.0031 8.65716 32.0877 8.22109 32.0877 7.76549V6.26201C32.0877 5.78037 31.9966 5.33779 31.8144 4.93426C31.6452 4.51771 31.3783 4.18577 31.0138 3.93845C30.6624 3.6781 30.2068 3.54793 29.647 3.54793C29.1263 3.54793 28.6838 3.6781 28.3193 3.93845C27.9548 4.18577 27.6814 4.51771 27.4992 4.93426C27.33 5.33779 27.2454 5.78037 27.2454 6.26201ZM37.1059 23.757V22.2536C37.1059 21.1862 37.3402 20.2099 37.8088 19.3247C38.2904 18.4395 38.9868 17.7301 39.898 17.1964C40.8222 16.6627 41.9547 16.3959 43.2955 16.3959C44.6493 16.3959 45.7818 16.6627 46.693 17.1964C47.6042 17.7301 48.2941 18.4395 48.7627 19.3247C49.2313 20.2099 49.4656 21.1862 49.4656 22.2536V23.757C49.4656 24.8245 49.2313 25.8007 48.7627 26.6859C48.3071 27.5711 47.6237 28.2805 46.7125 28.8142C45.8013 29.3479 44.6753 29.6148 43.3346 29.6148C41.9808 29.6148 40.8418 29.3479 39.9176 28.8142C38.9933 28.2805 38.2904 27.5711 37.8088 26.6859C37.3402 25.8007 37.1059 24.8245 37.1059 23.757ZM40.8548 22.2536V23.757C40.8548 24.2257 40.9589 24.6683 41.1672 25.0848C41.3755 25.5013 41.6618 25.8333 42.0263 26.0806C42.4038 26.3279 42.8399 26.4516 43.3346 26.4516C43.9594 26.4516 44.4475 26.3279 44.799 26.0806C45.1504 25.8333 45.3913 25.5013 45.5214 25.0848C45.6646 24.6683 45.7362 24.2257 45.7362 23.757V22.2536C45.7362 21.785 45.6451 21.3489 45.4629 20.9453C45.2806 20.5288 45.0073 20.1969 44.6428 19.9495C44.2913 19.6892 43.8422 19.559 43.2955 19.559C42.7488 19.559 42.2932 19.6892 41.9287 19.9495C41.5772 20.1969 41.3104 20.5288 41.1281 20.9453C40.9459 21.3489 40.8548 21.785 40.8548 22.2536ZM44.6818 4.85615L30.799 27.0764L28.0654 25.6315L41.9482 3.41125L44.6818 4.85615Z" fill="white"/>
</svg>
