<svg width="83" height="81" viewBox="0 0 83 81" fill="none" xmlns="http://www.w3.org/2000/svg">
<path d="M0.424805 70.2716V37.1193C0.424805 36.2469 0.749081 35.429 1.39763 34.7747C2.04619 34.1204 2.80283 33.7932 3.72161 33.7932H18.5302C19.395 33.7932 20.2057 34.1204 20.8542 34.7747C21.5028 35.429 21.827 36.1924 21.827 37.1193V70.2716C21.827 71.144 21.5028 71.9619 20.8542 72.6163C20.2057 73.2706 19.449 73.5977 18.5302 73.5977H3.72161C2.85688 73.5977 2.04619 73.2706 1.39763 72.6163C0.749081 71.9619 0.424805 71.1986 0.424805 70.2716ZM7.01842 63.6739C7.01842 64.6008 7.3427 65.4187 7.99125 66.0185C8.6398 66.6728 9.39645 67 10.3152 67C11.18 67 11.9907 66.6728 12.6392 66.0185C13.2878 65.3642 13.612 64.6008 13.612 63.6739C13.612 62.8014 13.2878 61.9835 12.6392 61.3292C11.9907 60.6749 11.234 60.3477 10.3152 60.3477C9.39645 60.3477 8.58576 60.6749 7.99125 61.3292C7.3427 61.9835 7.01842 62.7469 7.01842 63.6739ZM25.0698 70.2716V37.0648C25.0698 36.1924 25.3941 35.429 25.9886 34.8292C26.5831 34.1749 27.3397 33.8477 28.2045 33.7932C29.0152 33.7387 30.3123 32.7027 32.0958 30.7397C33.8793 28.7767 35.6088 26.7047 37.2842 24.4691C39.6082 21.4702 41.3377 19.3981 42.4726 18.2531C43.0671 17.6533 43.6076 16.7809 44.04 15.7449C44.4723 14.7088 44.7966 13.8909 44.9588 13.2366C45.1209 12.5823 45.3371 11.5463 45.6614 10.1286C45.8775 8.76543 46.0937 7.72942 46.3099 6.96605C46.472 6.20267 46.8504 5.33025 47.3368 4.29424C47.8232 3.25823 48.4177 2.3858 49.0663 1.73148C49.7148 1.07716 50.4715 0.75 51.3902 0.75C52.9576 0.75 54.3628 0.91358 55.6058 1.29527C56.8489 1.67695 57.8758 2.11317 58.6865 2.65844C59.4971 3.2037 60.1997 3.91255 60.7402 4.73045C61.2807 5.60288 61.713 6.36625 61.9833 7.0751C62.2535 7.78395 62.4697 8.60185 62.5778 9.63786C62.7399 10.6739 62.7939 11.4372 62.848 11.9825V14C62.848 15.3086 62.6859 16.6173 62.3616 17.9259C62.0373 19.2346 61.713 20.2706 61.3888 21.034C61.0645 21.7973 60.5781 22.7788 59.9836 23.9239C59.8755 24.142 59.7133 24.4146 59.4971 24.8508C59.281 25.287 59.0648 25.6687 58.9567 25.9959C58.7945 26.323 58.6865 26.7593 58.5243 27.25H72.7384C75.3867 27.25 77.7107 28.2315 79.6563 30.1944C81.602 32.1574 82.5748 34.5021 82.5748 37.1739C82.5748 40.1183 81.656 42.7356 79.7644 44.9167C80.2508 46.4434 80.521 47.7521 80.521 48.8426C80.6291 51.4599 79.8725 53.8591 78.3052 55.9311C78.8997 57.8395 78.8997 59.9115 78.3052 61.9835C77.8188 63.9465 76.8459 65.5823 75.5488 66.8364C75.8731 70.7078 75.0084 73.8158 73.0087 76.215C70.7928 78.8323 67.4419 80.1955 62.902 80.25H56.3084C54.0385 80.25 51.6064 79.9774 48.9041 79.4321C46.2559 78.8868 44.1481 78.3961 42.6888 77.9053C41.1755 77.4146 39.1218 76.7603 36.5276 75.8333C32.312 74.3611 29.6097 73.5977 28.4207 73.5432C27.5559 73.4887 26.7452 73.1615 26.0967 72.5072C25.3941 71.9619 25.0698 71.1986 25.0698 70.2716Z" fill="white"/>
</svg>
