<svg width="18" height="10" viewBox="0 0 18 10" fill="none" xmlns="http://www.w3.org/2000/svg">
<path d="M0.458578 0.434299C1.07002 -0.144756 2.06135 -0.144755 2.67279 0.434299L10.1006 7.46877C10.7121 8.04782 10.7121 8.98666 10.1006 9.56571C9.48921 10.1448 8.49787 10.1448 7.88643 9.56571L0.458578 2.53124C-0.152859 1.95219 -0.152859 1.01335 0.458578 0.434299Z" fill="#50CA81"/>
<path d="M17.5414 0.434291C18.1529 1.01335 18.1529 1.95218 17.5414 2.53123L10.1136 9.5657C9.50213 10.1448 8.5108 10.1448 7.89936 9.5657C7.28792 8.98665 7.28792 8.04781 7.89936 7.46876L15.3272 0.434291C15.9387 -0.144764 16.93 -0.144764 17.5414 0.434291Z" fill="#50CA81"/>
</svg>
