<svg width="15" height="24" viewBox="0 0 15 24" fill="none" xmlns="http://www.w3.org/2000/svg">
<path d="M1.5258 22.6696C0.768107 21.8794 0.768107 20.5982 1.5258 19.808L10.7304 10.2087C11.4881 9.41851 12.7165 9.41851 13.4742 10.2087C14.2319 10.9989 14.2319 12.28 13.4742 13.0702L4.26965 22.6696C3.51195 23.4598 2.28349 23.4598 1.5258 22.6696Z" fill="white"/>
<path d="M1.52579 0.59264C2.28348 -0.197548 3.51194 -0.197548 4.26964 0.59264L13.4742 10.192C14.2319 10.9822 14.2319 12.2633 13.4742 13.0535C12.7165 13.8437 11.4881 13.8437 10.7304 13.0535L1.52579 3.45416C0.768095 2.66397 0.768096 1.38283 1.52579 0.59264Z" fill="white"/>
</svg>
