<svg width="20" height="20" viewBox="0 0 20 20" fill="none" xmlns="http://www.w3.org/2000/svg">
<path d="M3.41421 0.65146C2.63317 -0.129588 1.36683 -0.129588 0.585786 0.65146C-0.195262 1.43251 -0.195262 2.69884 0.585786 3.47989L7.10614 10.0002L0.586458 16.5199C-0.19459 17.301 -0.194591 18.5673 0.586458 19.3484C1.36751 20.1294 2.63384 20.1294 3.41489 19.3484L9.93457 12.8287L16.4543 19.3484C17.2353 20.1294 18.5016 20.1294 19.2827 19.3484C20.0637 18.5673 20.0637 17.301 19.2827 16.5199L12.763 10.0002L19.2834 3.47989C20.0644 2.69884 20.0644 1.43251 19.2834 0.65146C18.5023 -0.129588 17.236 -0.129588 16.4549 0.65146L9.93457 7.17182L3.41421 0.65146Z" fill="#383838"/>
</svg>
