<svg width="76" height="34" viewBox="0 0 76 34" fill="none" xmlns="http://www.w3.org/2000/svg">
<path d="M15.3267 23.1433V27H4.81369V23.1433H15.3267ZM6.59919 6.20256V27H1.58552V6.20256H6.59919ZM34.1244 16.187V17.0298C34.1244 18.6201 33.9006 20.0485 33.453 21.315C33.015 22.572 32.3912 23.648 31.5818 24.5432C30.7724 25.4288 29.8154 26.1096 28.7107 26.5858C27.6061 27.0524 26.3872 27.2857 25.0541 27.2857C23.7114 27.2857 22.4829 27.0524 21.3688 26.5858C20.2642 26.1096 19.3024 25.4288 18.4834 24.5432C17.674 23.648 17.0455 22.572 16.598 21.315C16.1599 20.0485 15.9409 18.6201 15.9409 17.0298V16.187C15.9409 14.5968 16.1599 13.1684 16.598 11.9019C17.0455 10.6353 17.6693 9.55929 18.4692 8.67369C19.2786 7.77856 20.2356 7.09769 21.3402 6.63108C22.4544 6.15495 23.6828 5.91688 25.0255 5.91688C26.3587 5.91688 27.5776 6.15495 28.6822 6.63108C29.7963 7.09769 30.7581 7.77856 31.5675 8.67369C32.377 9.55929 33.0055 10.6353 33.453 11.9019C33.9006 13.1684 34.1244 14.5968 34.1244 16.187ZM29.0393 17.0298V16.1585C29.0393 15.13 28.9488 14.2254 28.7679 13.4445C28.5965 12.6541 28.3394 11.9923 27.9966 11.4591C27.6537 10.9258 27.23 10.5258 26.7253 10.2592C26.2301 9.98305 25.6635 9.84497 25.0255 9.84497C24.3589 9.84497 23.778 9.98305 23.2828 10.2592C22.7877 10.5258 22.3734 10.9258 22.0401 11.4591C21.7069 11.9923 21.4545 12.6541 21.2831 13.4445C21.1212 14.2254 21.0403 15.13 21.0403 16.1585V17.0298C21.0403 18.0487 21.1212 18.9534 21.2831 19.7438C21.4545 20.5246 21.7069 21.1864 22.0401 21.7292C22.383 22.272 22.802 22.6815 23.2971 22.9576C23.8018 23.2338 24.3875 23.3719 25.0541 23.3719C25.6921 23.3719 26.2587 23.2338 26.7538 22.9576C27.249 22.6815 27.6633 22.272 27.9966 21.7292C28.3394 21.1864 28.5965 20.5246 28.7679 19.7438C28.9488 18.9534 29.0393 18.0487 29.0393 17.0298ZM53.7362 15.8871V24.4289C53.3839 24.8193 52.8411 25.2383 52.1079 25.6859C51.3841 26.1239 50.47 26.5001 49.3653 26.8143C48.2607 27.1286 46.9609 27.2857 45.4658 27.2857C44.085 27.2857 42.8328 27.0667 41.7091 26.6286C40.5855 26.1811 39.6189 25.5288 38.8095 24.6717C38.0096 23.8052 37.3906 22.7481 36.9526 21.5007C36.5241 20.2437 36.3098 18.8058 36.3098 17.1869V16.0299C36.3098 14.4111 36.5288 12.9732 36.9669 11.7162C37.4049 10.4592 38.0191 9.40217 38.8095 8.54513C39.6094 7.67857 40.5474 7.02151 41.6234 6.57394C42.709 6.12638 43.8994 5.9026 45.1944 5.9026C47.1085 5.9026 48.6654 6.20732 49.8653 6.81677C51.0651 7.4167 51.9745 8.24993 52.5935 9.31646C53.2125 10.3735 53.5886 11.5971 53.722 12.9874H48.9083C48.813 12.3018 48.6321 11.7209 48.3655 11.2448C48.1084 10.7591 47.737 10.3925 47.2513 10.1449C46.7657 9.88782 46.1372 9.75927 45.3658 9.75927C44.7659 9.75927 44.2184 9.88782 43.7232 10.1449C43.2375 10.402 42.8233 10.7925 42.4805 11.3162C42.1377 11.8304 41.871 12.478 41.6806 13.2588C41.4996 14.0397 41.4092 14.9539 41.4092 16.0014V17.1869C41.4092 18.2249 41.4949 19.1343 41.6663 19.9152C41.8472 20.696 42.1139 21.3483 42.4662 21.8721C42.8281 22.3863 43.2851 22.7767 43.8375 23.0433C44.3993 23.3005 45.0611 23.429 45.8229 23.429C46.3562 23.429 46.8133 23.3862 47.1942 23.3005C47.5751 23.2052 47.8893 23.091 48.1369 22.9576C48.394 22.8148 48.5893 22.6815 48.7226 22.5577V19.3295H45.2373V15.8871H53.7362ZM74.2623 16.187V17.0298C74.2623 18.6201 74.0385 20.0485 73.5909 21.315C73.1529 22.572 72.5292 23.648 71.7197 24.5432C70.9103 25.4288 69.9533 26.1096 68.8487 26.5858C67.744 27.0524 66.5251 27.2857 65.192 27.2857C63.8493 27.2857 62.6209 27.0524 61.5067 26.5858C60.4021 26.1096 59.4403 25.4288 58.6214 24.5432C57.8119 23.648 57.1834 22.572 56.7359 21.315C56.2978 20.0485 56.0788 18.6201 56.0788 17.0298V16.187C56.0788 14.5968 56.2978 13.1684 56.7359 11.9019C57.1834 10.6353 57.8072 9.55929 58.6071 8.67369C59.4165 7.77856 60.3735 7.09769 61.4781 6.63108C62.5923 6.15495 63.8207 5.91688 65.1634 5.91688C66.4966 5.91688 67.7155 6.15495 68.8201 6.63108C69.9342 7.09769 70.896 7.77856 71.7055 8.67369C72.5149 9.55929 73.1434 10.6353 73.5909 11.9019C74.0385 13.1684 74.2623 14.5968 74.2623 16.187ZM69.1772 17.0298V16.1585C69.1772 15.13 69.0867 14.2254 68.9058 13.4445C68.7344 12.6541 68.4773 11.9923 68.1345 11.4591C67.7916 10.9258 67.3679 10.5258 66.8632 10.2592C66.368 9.98305 65.8014 9.84497 65.1634 9.84497C64.4968 9.84497 63.9159 9.98305 63.4208 10.2592C62.9256 10.5258 62.5113 10.9258 62.1781 11.4591C61.8448 11.9923 61.5924 12.6541 61.421 13.4445C61.2591 14.2254 61.1782 15.13 61.1782 16.1585V17.0298C61.1782 18.0487 61.2591 18.9534 61.421 19.7438C61.5924 20.5246 61.8448 21.1864 62.1781 21.7292C62.5209 22.272 62.9399 22.6815 63.435 22.9576C63.9397 23.2338 64.5254 23.3719 65.192 23.3719C65.83 23.3719 66.3966 23.2338 66.8918 22.9576C67.3869 22.6815 67.8012 22.272 68.1345 21.7292C68.4773 21.1864 68.7344 20.5246 68.9058 19.7438C69.0867 18.9534 69.1772 18.0487 69.1772 17.0298Z" fill="#383838"/>
</svg>
