<svg width="27" height="20" viewBox="0 0 27 20" fill="none" xmlns="http://www.w3.org/2000/svg">
<path d="M0 2C0 0.895431 0.895431 0 2 0H24.4414C25.546 0 26.4414 0.895431 26.4414 2C26.4414 3.10457 25.546 4 24.4414 4H2C0.895431 4 0 3.10457 0 2Z" fill="#383838"/>
<path d="M0 10C0 8.89543 0.895431 8 2 8H24.4414C25.546 8 26.4414 8.89543 26.4414 10C26.4414 11.1046 25.546 12 24.4414 12H2C0.895431 12 0 11.1046 0 10Z" fill="#383838"/>
<path d="M0 18C0 16.8954 0.895431 16 2 16H24.4414C25.546 16 26.4414 16.8954 26.4414 18C26.4414 19.1046 25.546 20 24.4414 20H2C0.895431 20 0 19.1046 0 18Z" fill="#383838"/>
</svg>
