<svg width="18" height="33" viewBox="0 0 18 33" fill="none" xmlns="http://www.w3.org/2000/svg">
<path d="M0.781738 31.6848C-0.26056 30.5978 -0.26056 28.8354 0.781738 27.7484L13.4438 14.5433C14.4861 13.4563 16.176 13.4563 17.2183 14.5433C18.2606 15.6303 18.2606 17.3927 17.2183 18.4797L4.55623 31.6848C3.51393 32.7717 1.82404 32.7717 0.781738 31.6848Z" fill="#383838"/>
<path d="M0.781723 1.31525C1.82402 0.228249 3.51392 0.228248 4.55622 1.31525L17.2183 14.5203C18.2606 15.6073 18.2606 17.3697 17.2183 18.4567C16.176 19.5437 14.4861 19.5437 13.4438 18.4567L0.781722 5.25162C-0.260576 4.16462 -0.260576 2.40225 0.781723 1.31525Z" fill="#383838"/>
</svg>
