<svg width="26" height="30" viewBox="0 0 26 30" fill="none" xmlns="http://www.w3.org/2000/svg">
<path d="M15.2795 18.7145H0.0800781V14.7189H15.1792C16.5311 14.7189 17.622 14.5114 18.452 14.0965C19.2819 13.6681 19.8909 13.0725 20.2791 12.3095C20.6673 11.5465 20.8614 10.6563 20.8614 9.63903C20.8614 8.7288 20.6673 7.87881 20.2791 7.08905C19.8909 6.29929 19.2886 5.65678 18.472 5.16151C17.6555 4.65285 16.5913 4.39852 15.2795 4.39852H9.21582V29.6172H4.1761V0.382812H15.2795C17.5283 0.382812 19.4425 0.777691 21.022 1.56745C22.6015 2.3572 23.8129 3.44814 24.6562 4.84025C25.4995 6.21898 25.9212 7.80518 25.9212 9.59887C25.9212 11.513 25.4928 13.1528 24.6362 14.5181C23.7929 15.8701 22.5748 16.9075 20.9819 17.6303C19.4023 18.3531 17.5016 18.7145 15.2795 18.7145ZM15.7614 20.8629V24.8586H0.0800781V20.8629H15.7614Z" fill="white"/>
</svg>
