<svg width="19" height="11" viewBox="0 0 19 11" fill="none" xmlns="http://www.w3.org/2000/svg">
<path d="M0.958578 0.934299C1.57002 0.355244 2.56135 0.355245 3.17279 0.934299L10.6006 7.96877C11.2121 8.54782 11.2121 9.48666 10.6006 10.0657C9.98921 10.6448 8.99787 10.6448 8.38643 10.0657L0.958578 3.03124C0.347141 2.45219 0.347141 1.51335 0.958578 0.934299Z" fill="#AFAFAF"/>
<path d="M18.0414 0.934291C18.6529 1.51335 18.6529 2.45218 18.0414 3.03123L10.6136 10.0657C10.0021 10.6448 9.0108 10.6448 8.39936 10.0657C7.78792 9.48665 7.78792 8.54781 8.39936 7.96876L15.8272 0.934291C16.4387 0.355236 17.43 0.355236 18.0414 0.934291Z" fill="#AFAFAF"/>
</svg>
