<svg width="24" height="24" viewBox="0 0 24 24" fill="none" xmlns="http://www.w3.org/2000/svg">
<path d="M11.2788 15.6781L5.62881 10.0181C5.53508 9.9251 5.46068 9.8145 5.40991 9.69264C5.35915 9.57079 5.33301 9.44008 5.33301 9.30807C5.33301 9.17606 5.35915 9.04535 5.40991 8.92349C5.46068 8.80163 5.53508 8.69103 5.62881 8.59807C5.81617 8.41182 6.06962 8.30727 6.33381 8.30727C6.59799 8.30727 6.85144 8.41182 7.03881 8.59807L12.0388 13.5481L16.9888 8.59807C17.1762 8.41182 17.4296 8.30727 17.6938 8.30727C17.958 8.30727 18.2114 8.41182 18.3988 8.59807C18.4933 8.69068 18.5685 8.80113 18.62 8.923C18.6715 9.04488 18.6983 9.17576 18.6988 9.30807C18.6983 9.44037 18.6715 9.57126 18.62 9.69313C18.5685 9.81501 18.4933 9.92545 18.3988 10.0181L12.7488 15.6781C12.6552 15.7796 12.5415 15.8606 12.415 15.916C12.2885 15.9714 12.1519 16 12.0138 16C11.8757 16 11.7391 15.9714 11.6126 15.916C11.4861 15.8606 11.3724 15.7796 11.2788 15.6781Z" fill="#0500FF"/>
</svg>
