<svg width="46" height="45" viewBox="0 0 46 45" fill="none" xmlns="http://www.w3.org/2000/svg">
<rect width="45.5917" height="44.0969" rx="22.0485" fill="#AFAFAF"/>
<path fill-rule="evenodd" clip-rule="evenodd" d="M22.4471 30.9421H24.3902C24.3902 30.9421 24.977 30.8795 25.277 30.5673C25.5528 30.2803 25.5439 29.7418 25.5439 29.7418C25.5439 29.7418 25.5059 27.2201 26.7158 26.8487C27.9089 26.4827 29.4407 29.2858 31.0641 30.3638C32.2919 31.1793 33.2248 31.0008 33.2248 31.0008L37.5662 30.9421C37.5662 30.9421 39.8371 30.8066 38.7602 29.0796C38.6721 28.9385 38.1329 27.8021 35.5322 25.4673C32.8098 23.0235 33.1748 23.4188 36.4538 19.1917C38.4508 16.6174 39.249 15.0458 38.9996 14.3728C38.7619 13.7315 37.293 13.9009 37.293 13.9009L32.4051 13.9301C32.4051 13.9301 32.0424 13.8824 31.7739 14.0378C31.5112 14.1899 31.3425 14.5451 31.3425 14.5451C31.3425 14.5451 30.5686 16.537 29.5372 18.2313C27.3606 21.806 26.4902 21.9952 26.1344 21.7729C25.3066 21.2555 25.5135 19.6948 25.5135 18.5857C25.5135 15.1213 26.0568 13.6769 24.4555 13.303C23.9243 13.179 23.5329 13.097 22.174 13.0836C20.4298 13.0664 18.9539 13.0888 18.118 13.4848C17.5619 13.7482 17.1329 14.335 17.3943 14.3688C17.7175 14.4104 18.449 14.5598 18.8368 15.0702C19.3378 15.7295 19.3203 17.2096 19.3203 17.2096C19.3203 17.2096 19.6082 21.2877 18.6481 21.7942C17.9894 22.1416 17.0855 21.4323 15.1449 18.1891C14.1509 16.5279 13.4 14.6914 13.4 14.6914C13.4 14.6914 13.2555 14.3483 12.9972 14.1646C12.684 13.9421 12.2464 13.8715 12.2464 13.8715L7.60134 13.9009C7.60134 13.9009 6.90421 13.9197 6.64802 14.213C6.4201 14.4741 6.62982 15.0134 6.62982 15.0134C6.62982 15.0134 10.2661 23.2423 14.3839 27.3891C18.16 31.1917 22.4471 30.9421 22.4471 30.9421Z" fill="white"/>
</svg>
