<svg width="25" height="24" viewBox="0 0 25 24" fill="none" xmlns="http://www.w3.org/2000/svg">
<path d="M17.987 21.9896V4.26878C17.987 3.0215 16.9759 2.01038 15.7286 2.01038H7.49864C6.25136 2.01038 5.24023 3.0215 5.24023 4.26878V21.9896" stroke="#828282" stroke-width="1.49573"/>
<path d="M2.79688 21.9897H6.62595M22.4209 21.9897H17.1559H14.5234H11.8909" stroke="#828282" stroke-width="1.49573" stroke-linecap="round"/>
<path d="M5.24023 10.0742L17.987 10.0742" stroke="#828282" stroke-width="1.49573" stroke-linecap="round"/>
<path d="M15.4933 7.80181L15.4933 5.03769C15.4933 4.94204 15.4158 4.8645 15.3201 4.8645L11.6139 4.8645L7.90759 4.8645C7.81194 4.8645 7.7344 4.94204 7.7344 5.03769L7.73438 7.62631C7.73438 7.72323 7.81295 7.80181 7.90988 7.80181L10.1359 7.80181" stroke="#828282" stroke-width="1.49573" stroke-linecap="round"/>
<path d="M20.0859 3.97388L22.9577 7.09662V10.3284C22.9577 10.5197 22.8027 10.6748 22.6114 10.6748H21.0306C20.8393 10.6748 20.6842 10.5197 20.6842 10.3284V7.09662" stroke="#828282" stroke-width="1.49573" stroke-linecap="round"/>
<path d="M21.7936 10.656V18.4288C21.7936 19.2476 21.1299 19.9113 20.3111 19.9113H18.5918" stroke="#828282" stroke-width="1.49573" stroke-linecap="round"/>
</svg>
