<svg width="25" height="24" viewBox="0 0 25 24" fill="none" xmlns="http://www.w3.org/2000/svg">
<path fill-rule="evenodd" clip-rule="evenodd" d="M12.8769 5.88977C11.1353 5.88977 9.50727 6.36684 8.1135 7.19719C7.75765 7.4092 7.29732 7.29258 7.08532 6.93674C6.87332 6.58089 6.98993 6.12055 7.34578 5.90855C8.96523 4.94374 10.8576 4.38977 12.8769 4.38977C18.8589 4.38977 23.7069 9.24467 23.7069 15.2316C23.7069 16.8283 23.3616 18.3463 22.741 19.7132L22.5413 20.1532H19.7628C19.3486 20.1532 19.0128 19.8174 19.0128 19.4032C19.0128 18.989 19.3486 18.6532 19.7628 18.6532H21.5615C21.9779 17.5944 22.2069 16.4406 22.2069 15.2316C22.2069 10.0714 18.0289 5.88977 12.8769 5.88977ZM6.22944 7.60826C6.5244 7.89907 6.52776 8.37393 6.23695 8.66889C4.57292 10.3566 3.54688 12.6733 3.54688 15.2316C3.54688 16.4406 3.77587 17.5944 4.19229 18.6532H17.4675C17.8817 18.6532 18.2175 18.989 18.2175 19.4032C18.2175 19.8174 17.8817 20.1532 17.4675 20.1532H3.21246L3.01272 19.7132C2.39213 18.3463 2.04688 16.8283 2.04688 15.2316C2.04688 12.2637 3.23912 9.57293 5.16881 7.61576C5.45962 7.3208 5.93449 7.31744 6.22944 7.60826Z" fill="#828282"/>
<path fill-rule="evenodd" clip-rule="evenodd" d="M12.8767 9.39032C9.78702 9.39032 7.38672 11.6888 7.38672 14.4003C7.38672 14.8145 7.05093 15.1503 6.63672 15.1503C6.22251 15.1503 5.88672 14.8145 5.88672 14.4003C5.88672 10.7496 9.0739 7.89032 12.8767 7.89032C16.6795 7.89032 19.8667 10.7496 19.8667 14.4003C19.8667 14.8145 19.5309 15.1503 19.1167 15.1503C18.7025 15.1503 18.3667 14.8145 18.3667 14.4003C18.3667 11.6888 15.9664 9.39032 12.8767 9.39032Z" fill="#828282"/>
<path fill-rule="evenodd" clip-rule="evenodd" d="M12.8768 17.3646C11.8608 17.3646 11.0371 18.1882 11.0371 19.2043C11.0371 19.6185 10.7013 19.9543 10.2871 19.9543C9.8729 19.9543 9.53711 19.6185 9.53711 19.2043C9.53711 17.3598 11.0324 15.8646 12.8768 15.8646C14.7213 15.8646 16.2166 17.3598 16.2166 19.2043C16.2166 19.6185 15.8808 19.9543 15.4666 19.9543C15.0523 19.9543 14.7166 19.6185 14.7166 19.2043C14.7166 18.1882 13.8929 17.3646 12.8768 17.3646Z" fill="#828282"/>
<path fill-rule="evenodd" clip-rule="evenodd" d="M16.7667 13.8698C17.0596 14.1627 17.0596 14.6376 16.7667 14.9305L14.8467 16.8505C14.5538 17.1434 14.079 17.1434 13.7861 16.8505C13.4932 16.5576 13.4932 16.0827 13.7861 15.7898L15.7061 13.8698C15.999 13.5769 16.4738 13.5769 16.7667 13.8698Z" fill="#828282"/>
</svg>
