<svg width="15" height="16" viewBox="0 0 15 16" fill="none" xmlns="http://www.w3.org/2000/svg">
<path d="M12.6001 6.4L11.4721 5.264L6.2001 10.536L4.1281 8.472L3.0001 9.6L6.2001 12.8L12.6001 6.4ZM13.4001 1.6H10.0561C9.7201 0.672 8.8401 0 7.8001 0C6.7601 0 5.8801 0.672 5.5441 1.6H2.2001C2.0881 1.6 1.9841 1.608 1.8801 1.632C1.5681 1.696 1.2881 1.856 1.0721 2.072C0.928098 2.216 0.808098 2.392 0.728098 2.584C0.648098 2.768 0.600098 2.976 0.600098 3.2V14.4C0.600098 14.616 0.648098 14.832 0.728098 15.024C0.808098 15.216 0.928098 15.384 1.0721 15.536C1.2881 15.752 1.5681 15.912 1.8801 15.976C1.9841 15.992 2.0881 16 2.2001 16H13.4001C14.2801 16 15.0001 15.28 15.0001 14.4V3.2C15.0001 2.32 14.2801 1.6 13.4001 1.6ZM7.8001 1.4C8.1281 1.4 8.4001 1.672 8.4001 2C8.4001 2.328 8.1281 2.6 7.8001 2.6C7.4721 2.6 7.2001 2.328 7.2001 2C7.2001 1.672 7.4721 1.4 7.8001 1.4ZM13.4001 14.4H2.2001V3.2H13.4001V14.4Z" fill="white"/>
</svg>
