<svg width="16" height="16" viewBox="0 0 16 16" fill="none" xmlns="http://www.w3.org/2000/svg">
<path fill-rule="evenodd" clip-rule="evenodd" d="M2 8.07374C2 4.7193 4.71931 2 8.07374 2C11.4282 2 14.1475 4.7193 14.1475 8.07374C14.1475 11.4282 11.4282 14.1475 8.07374 14.1475C4.71931 14.1475 2 11.4282 2 8.07374ZM8.5738 3.56149C8.5738 3.28535 8.34994 3.06149 8.0738 3.06149C7.79766 3.06149 7.5738 3.28535 7.5738 3.56149V4.09232C7.5738 4.36847 7.79766 4.59232 8.0738 4.59232C8.34994 4.59232 8.5738 4.36847 8.5738 4.09232V3.56149ZM5.23679 4.52945C5.04153 4.33418 4.72494 4.33418 4.52968 4.52945C4.33442 4.72471 4.33442 5.04129 4.52968 5.23655L4.90504 5.61191C5.1003 5.80717 5.41688 5.80717 5.61214 5.61191C5.8074 5.41665 5.8074 5.10006 5.61214 4.9048L5.23679 4.52945ZM11.6179 5.23655C11.8132 5.04129 11.8132 4.72471 11.6179 4.52945C11.4227 4.33418 11.1061 4.33418 10.9108 4.52945L10.5355 4.9048C10.3402 5.10006 10.3402 5.41665 10.5355 5.61191C10.7307 5.80717 11.0473 5.80717 11.2426 5.61191L11.6179 5.23655ZM7.15359 6.19046C6.99309 5.96575 6.68082 5.9137 6.45611 6.0742C6.2314 6.23469 6.17935 6.54697 6.33985 6.77168L7.66686 8.62959C7.79735 8.81228 8.03361 8.8856 8.2446 8.80888L11.1642 7.74722C11.4238 7.65285 11.5576 7.36597 11.4633 7.10645C11.3689 6.84693 11.082 6.71305 10.8225 6.80742L8.25984 7.73928L7.15359 6.19046ZM3.56173 7.57357C3.28558 7.57357 3.06173 7.79742 3.06173 8.07357C3.06173 8.34971 3.28558 8.57357 3.56173 8.57357H4.09256C4.3687 8.57357 4.59256 8.34971 4.59256 8.07357C4.59256 7.79742 4.3687 7.57357 4.09256 7.57357H3.56173ZM12.055 7.57357C11.7789 7.57357 11.555 7.79742 11.555 8.07357C11.555 8.34971 11.7789 8.57357 12.055 8.57357H12.5859C12.862 8.57357 13.0859 8.34971 13.0859 8.07357C13.0859 7.79742 12.862 7.57357 12.5859 7.57357H12.055ZM5.61214 11.2423C5.8074 11.0471 5.8074 10.7305 5.61214 10.5352C5.41688 10.34 5.1003 10.34 4.90504 10.5352L4.52968 10.9106C4.33442 11.1058 4.33442 11.4224 4.52968 11.6177C4.72494 11.8129 5.04153 11.8129 5.23679 11.6177L5.61214 11.2423ZM11.2426 10.5352C11.0473 10.34 10.7307 10.34 10.5355 10.5352C10.3402 10.7305 10.3402 11.0471 10.5355 11.2423L10.9108 11.6177C11.1061 11.8129 11.4227 11.8129 11.6179 11.6177C11.8132 11.4224 11.8132 11.1058 11.6179 10.9106L11.2426 10.5352ZM8.5738 12.0548C8.5738 11.7787 8.34994 11.5548 8.0738 11.5548C7.79766 11.5548 7.5738 11.7787 7.5738 12.0548V12.5856C7.5738 12.8618 7.79766 13.0856 8.0738 13.0856C8.34994 13.0856 8.5738 12.8618 8.5738 12.5856V12.0548Z" fill="#9D9CAF"/>
</svg>
