<svg width="48" height="48" viewBox="0 0 48 48" fill="none" xmlns="http://www.w3.org/2000/svg">
<path d="M7.60492 36.4704L6.69437 36.8838L6.96069 37.4704H7.60492V36.4704ZM40.3951 36.4704V37.4704H41.0393L41.3056 36.8838L40.3951 36.4704ZM32.1975 37.4704C32.7498 37.4704 33.1975 37.0226 33.1975 36.4704C33.1975 35.9181 32.7498 35.4704 32.1975 35.4704V37.4704ZM36.2963 35.4704C35.744 35.4704 35.2963 35.9181 35.2963 36.4704C35.2963 37.0226 35.744 37.4704 36.2963 37.4704V35.4704ZM14.2967 12.6643C13.8222 12.947 13.6667 13.5607 13.9494 14.0352C14.2321 14.5097 14.8459 14.6652 15.3203 14.3825L14.2967 12.6643ZM11.9014 17.0638C12.2891 16.6705 12.2847 16.0374 11.8914 15.6496C11.4981 15.2619 10.865 15.2663 10.4772 15.6596L11.9014 17.0638ZM24 12C33.3877 12 41 19.6195 41 29.0212H43C43 18.5172 34.4945 10 24 10V12ZM8.51547 36.057C7.54246 33.9138 7 31.5323 7 29.0212H5C5 31.8231 5.60578 34.486 6.69437 36.8838L8.51547 36.057ZM41 29.0212C41 31.5323 40.4575 33.9138 39.4845 36.057L41.3056 36.8838C42.3942 34.486 43 31.8231 43 29.0212H41ZM7.60492 37.4704H24V35.4704H7.60492V37.4704ZM24 37.4704H32.1975V35.4704H24V37.4704ZM36.2963 37.4704H40.3951V35.4704H36.2963V37.4704ZM15.3203 14.3825C17.8602 12.8693 20.8272 12 24 12V10C20.4569 10 17.1375 10.9718 14.2967 12.6643L15.3203 14.3825ZM7 29.0212C7 24.3602 8.86981 20.1385 11.9014 17.0638L10.4772 15.6596C7.09142 19.0936 5 23.814 5 29.0212H7Z" fill="#8B98A7"/>
<path d="M11.8574 27.5367C11.8574 28.089 12.3051 28.5367 12.8574 28.5367C13.4097 28.5367 13.8574 28.089 13.8574 27.5367H11.8574ZM34.1431 27.5367C34.1431 28.089 34.5908 28.5367 35.1431 28.5367C35.6954 28.5367 36.1431 28.089 36.1431 27.5367H34.1431ZM13.8574 27.5367C13.8574 22.4822 18.3217 18.251 24.0003 18.251V16.251C17.3708 16.251 11.8574 21.2299 11.8574 27.5367H13.8574ZM24.0003 18.251C29.6789 18.251 34.1431 22.4822 34.1431 27.5367H36.1431C36.1431 21.2299 30.6297 16.251 24.0003 16.251V18.251Z" fill="#8B98A7"/>
<path d="M18.3755 36.115C18.3755 36.6673 18.8232 37.115 19.3755 37.115C19.9278 37.115 20.3755 36.6673 20.3755 36.115H18.3755ZM27.6245 36.115C27.6245 36.6673 28.0722 37.115 28.6245 37.115C29.1768 37.115 29.6245 36.6673 29.6245 36.115H27.6245ZM20.3755 36.115C20.3755 34.1132 21.9982 32.4905 24 32.4905V30.4905C20.8937 30.4905 18.3755 33.0087 18.3755 36.115H20.3755ZM24 32.4905C26.0018 32.4905 27.6245 34.1132 27.6245 36.115H29.6245C29.6245 33.0087 27.1063 30.4905 24 30.4905V32.4905Z" fill="#8B98A7"/>
<path d="M30.7072 28.2435C31.0977 27.853 31.0977 27.2198 30.7072 26.8293C30.3167 26.4387 29.6835 26.4387 29.293 26.8293L30.7072 28.2435ZM25.8644 30.2578C25.4739 30.6484 25.4739 31.2815 25.8644 31.6721C26.255 32.0626 26.8881 32.0626 27.2786 31.6721L25.8644 30.2578ZM29.293 26.8293L25.8644 30.2578L27.2786 31.6721L30.7072 28.2435L29.293 26.8293Z" fill="#8B98A7"/>
</svg>
