<svg width="48" height="48" viewBox="0 0 48 48" fill="none" xmlns="http://www.w3.org/2000/svg">
<path d="M18.7598 9H35.1648" stroke="#8B98A7" stroke-width="2" stroke-linecap="round"/>
<path d="M6 20.2402L6 36.6452" stroke="#8B98A7" stroke-width="2" stroke-linecap="round"/>
<path d="M11.1646 29.4434L12.1646 29.4434L12.1646 27.4434L11.1646 27.4434L11.1646 29.4434ZM6.00002 27.4434L5.00002 27.4434L5.00002 29.4434L6.00002 29.4434L6.00002 27.4434ZM11.1646 27.4434L6.00002 27.4434L6.00002 29.4434L11.1646 29.4434L11.1646 27.4434Z" fill="#8B98A7"/>
<path d="M25.9626 14.4685L25.9626 15.4685L27.9626 15.4685L27.9626 14.4685L25.9626 14.4685ZM27.9626 10.823L27.9626 9.82295L25.9626 9.82295L25.9626 10.823L27.9626 10.823ZM27.9626 14.4685L27.9626 10.823L25.9626 10.823L25.9626 14.4685L27.9626 14.4685Z" fill="#8B98A7"/>
<path d="M17.2939 18.5749V19.5749H18.2939V18.5749H17.2939ZM36.8322 18.5749H35.8322V19.5749H36.8322V18.5749ZM37.5401 35.6377V34.6377H37.1177L36.8232 34.9405L37.5401 35.6377ZM34.7548 38.5015L34.0379 37.8042L34.0379 37.8042L34.7548 38.5015ZM26.4259 38.5317C25.8736 38.5317 25.4259 38.9794 25.4259 39.5317C25.4259 40.084 25.8736 40.5317 26.4259 40.5317V38.5317ZM19.0991 40.5317C19.6514 40.5317 20.0991 40.084 20.0991 39.5317C20.0991 38.9794 19.6514 38.5317 19.0991 38.5317V40.5317ZM12.7722 36.1292V27.7081H10.7722V36.1292H12.7722ZM12.7722 27.7081V21.9774H10.7722V27.7081H12.7722ZM15.1747 19.5749H17.2939V17.5749H15.1747V19.5749ZM18.2939 18.5749V17.871H16.2939V18.5749H18.2939ZM20.6964 15.4685H26.4259V13.4685H20.6964V15.4685ZM26.4259 15.4685H33.4297V13.4685H26.4259V15.4685ZM35.8322 17.871V18.5749H37.8322V17.871H35.8322ZM36.8322 19.5749H38.5974V17.5749H36.8322V19.5749ZM40.9999 21.9774V27.7081H42.9999V21.9774H40.9999ZM40.9999 27.7081V32.2352H42.9999V27.7081H40.9999ZM38.5974 34.6377H37.5401V36.6377H38.5974V34.6377ZM36.8232 34.9405L34.0379 37.8042L35.4716 39.1987L38.257 36.3349L36.8232 34.9405ZM32.3157 38.5317H26.4259V40.5317H32.3157V38.5317ZM19.0991 38.5317H15.1747V40.5317H19.0991V38.5317ZM34.0379 37.8042C33.5856 38.2693 32.9644 38.5317 32.3157 38.5317V40.5317C33.5045 40.5317 34.6428 40.0509 35.4716 39.1987L34.0379 37.8042ZM40.9999 32.2352C40.9999 33.562 39.9243 34.6377 38.5974 34.6377V36.6377C41.0288 36.6377 42.9999 34.6666 42.9999 32.2352H40.9999ZM18.2939 17.871C18.2939 16.5442 19.3696 15.4685 20.6964 15.4685V13.4685C18.265 13.4685 16.2939 15.4396 16.2939 17.871H18.2939ZM38.5974 19.5749C39.9243 19.5749 40.9999 20.6506 40.9999 21.9774H42.9999C42.9999 19.546 41.0288 17.5749 38.5974 17.5749V19.5749ZM12.7722 21.9774C12.7722 20.6506 13.8479 19.5749 15.1747 19.5749V17.5749C12.7433 17.5749 10.7722 19.546 10.7722 21.9774H12.7722ZM33.4297 15.4685C34.7565 15.4685 35.8322 16.5442 35.8322 17.871H37.8322C37.8322 15.4396 35.8611 13.4685 33.4297 13.4685V15.4685ZM10.7722 36.1292C10.7722 38.5606 12.7433 40.5317 15.1747 40.5317V38.5317C13.8479 38.5317 12.7722 37.456 12.7722 36.1292H10.7722Z" fill="#8B98A7"/>
<path d="M30.1062 19.8775C30.493 19.4832 30.4868 18.85 30.0925 18.4633C29.6982 18.0766 29.0651 18.0827 28.6784 18.477L30.1062 19.8775ZM29.924 27.0759H30.924V26.0759H29.924V27.0759ZM29.924 29.3544L30.5942 30.0965L30.924 29.7987V29.3544H29.924ZM22.1904 34.992C21.7806 35.3622 21.7484 35.9946 22.1186 36.4044C22.4888 36.8143 23.1211 36.8464 23.531 36.4762L22.1904 34.992ZM28.6784 18.477L21.4989 25.7972L22.9268 27.1977L30.1062 19.8775L28.6784 18.477ZM22.4558 28.0759H29.924V26.0759H22.4558V28.0759ZM28.924 27.0759V29.3544H30.924V27.0759H28.924ZM29.2537 28.6123L22.1904 34.992L23.531 36.4762L30.5942 30.0965L29.2537 28.6123ZM21.4989 25.7972C20.6673 26.6452 21.268 28.0759 22.4558 28.0759V26.0759C23.0405 26.0759 23.3362 26.7802 22.9268 27.1977L21.4989 25.7972Z" fill="#8B98A7"/>
</svg>
