<svg width="48" height="48" viewBox="0 0 48 48" fill="none" xmlns="http://www.w3.org/2000/svg">
<path d="M33.1248 41.6769V10.5297C33.1248 8.02801 31.0968 6 28.5951 6H14.8925C12.3908 6 10.3628 8.02801 10.3628 10.5297V41.6769" stroke="#8B98A7" stroke-width="2"/>
<path d="M6 41.677H12.8376M41.0426 41.677H31.641H26.9401H22.2393" stroke="#8B98A7" stroke-width="2" stroke-linecap="round"/>
<path d="M10.3628 20.3994L33.1248 20.3994" stroke="#8B98A7" stroke-width="2" stroke-linecap="round"/>
<path d="M27.6718 16.3418C27.6718 16.8941 28.1195 17.3418 28.6718 17.3418C29.2241 17.3418 29.6718 16.8941 29.6718 16.3418L27.6718 16.3418ZM21.7442 11.0967L21.7442 12.0967L21.7442 11.0967ZM19.1051 17.3418C19.6574 17.3418 20.1051 16.8941 20.1051 16.3418C20.1051 15.7895 19.6574 15.3418 19.1051 15.3418L19.1051 17.3418ZM21.7442 12.0967L28.3244 12.0967L28.3244 10.0967L21.7442 10.0967L21.7442 12.0967ZM27.6718 11.444L27.6718 16.3418L29.6718 16.3418L29.6718 11.444L27.6718 11.444ZM15.8167 15.9898L15.8167 11.4441L13.8167 11.444L13.8167 15.9898L15.8167 15.9898ZM15.1641 12.0967L21.7442 12.0967L21.7442 10.0967L15.1641 10.0967L15.1641 12.0967ZM15.1687 17.3418L19.1051 17.3418L19.1051 15.3418L15.1687 15.3418L15.1687 17.3418ZM15.8167 11.4441C15.8167 11.8045 15.5245 12.0967 15.1641 12.0967L15.1641 10.0967C14.4199 10.0967 13.8167 10.6999 13.8167 11.444L15.8167 11.4441ZM28.3244 12.0967C27.964 12.0967 27.6718 11.8045 27.6718 11.444L29.6718 11.444C29.6718 10.6999 29.0686 10.0967 28.3244 10.0967L28.3244 12.0967ZM13.8167 15.9898C13.8166 16.7365 14.422 17.3418 15.1687 17.3418L15.1687 15.3418C15.5265 15.3418 15.8167 15.632 15.8167 15.9898L13.8167 15.9898Z" fill="#8B98A7"/>
<path d="M37.6079 8.82943C37.234 8.42292 36.6014 8.39644 36.1949 8.77029C35.7884 9.14414 35.7619 9.77675 36.1358 10.1833L37.6079 8.82943ZM42 15.0826H43V14.6927L42.7361 14.4057L42 15.0826ZM38.9402 15.0826C38.9402 14.5303 38.4925 14.0826 37.9402 14.0826C37.3879 14.0826 36.9402 14.5303 36.9402 15.0826H38.9402ZM36.1358 10.1833L41.264 15.7595L42.7361 14.4057L37.6079 8.82943L36.1358 10.1833ZM41 15.0826V20.7774H43V15.0826H41ZM41.3053 20.4721H38.6349V22.4721H41.3053V20.4721ZM38.9402 20.7774V15.0826H36.9402V20.7774H38.9402ZM38.6349 20.4721C38.8035 20.4721 38.9402 20.6088 38.9402 20.7774H36.9402C36.9402 21.7134 37.699 22.4721 38.6349 22.4721V20.4721ZM41 20.7774C41 20.6088 41.1367 20.4721 41.3053 20.4721V22.4721C42.2413 22.4721 43 21.7134 43 20.7774H41Z" fill="#8B98A7"/>
<path d="M40.9228 21.4385C40.9228 20.8862 40.4751 20.4385 39.9228 20.4385C39.3705 20.4385 38.9228 20.8862 38.9228 21.4385H40.9228ZM34.2053 36.9657C33.653 36.9657 33.2053 37.4134 33.2053 37.9657C33.2053 38.5179 33.653 38.9657 34.2053 38.9657V36.9657ZM38.9228 21.4385V34.9922H40.9228V21.4385H38.9228ZM36.9493 36.9657H34.2053V38.9657H36.9493V36.9657ZM38.9228 34.9922C38.9228 36.0821 38.0393 36.9657 36.9493 36.9657V38.9657C39.1438 38.9657 40.9228 37.1867 40.9228 34.9922H38.9228Z" fill="#8B98A7"/>
</svg>
