<svg width="25" height="18" viewBox="0 0 25 18" fill="none" xmlns="http://www.w3.org/2000/svg">
<path d="M3.39457 6.13785C2.60283 5.36764 1.33662 5.38511 0.566416 6.17685C-0.203786 6.9686 -0.186321 8.23481 0.605425 9.00501L3.39457 6.13785ZM9.63636 15L8.24179 16.4336L9.63636 17.7902L11.0309 16.4336L9.63636 15ZM24.3946 3.43358C25.1863 2.66338 25.2038 1.39717 24.4336 0.605425C23.6634 -0.186321 22.3972 -0.203786 21.6054 0.566416L24.3946 3.43358ZM0.605425 9.00501L8.24179 16.4336L11.0309 13.5664L3.39457 6.13785L0.605425 9.00501ZM11.0309 16.4336L24.3946 3.43358L21.6054 0.566416L8.24179 13.5664L11.0309 16.4336Z" fill="#F72446"/>
</svg>
