<svg width="76" height="75" viewBox="0 0 76 75" fill="none" xmlns="http://www.w3.org/2000/svg">
<path opacity="0.4" d="M54.275 0H21.7625C9.05 0 0.5 8.925 0.5 22.2V52.8375C0.5 66.075 9.05 75 21.7625 75H54.275C66.9875 75 75.5 66.075 75.5 52.8375V22.2C75.5 8.925 66.9875 0 54.275 0Z" fill="#50CA81"/>
<path d="M33.5492 49.6804C32.7092 49.6804 31.8692 49.3616 31.2279 48.7204L22.3292 39.8216C21.0467 38.5391 21.0467 36.4616 22.3292 35.1829C23.6117 33.9004 25.6854 33.8966 26.9679 35.1791L33.5492 41.7604L49.0292 26.2804C50.3117 24.9979 52.3854 24.9979 53.6679 26.2804C54.9504 27.5629 54.9504 29.6404 53.6679 30.9229L35.8704 48.7204C35.2292 49.3616 34.3892 49.6804 33.5492 49.6804Z" fill="#50CA81"/>
</svg>
