<svg width="24" height="25" viewBox="0 0 24 25" fill="none" xmlns="http://www.w3.org/2000/svg">
<path d="M5.5 3.99207C4.83696 3.99207 4.20107 4.25546 3.73223 4.7243C3.26339 5.19314 3 5.82902 3 6.49207V9.49207C3 10.1551 3.26339 10.791 3.73223 11.2598C4.20107 11.7287 4.83696 11.9921 5.5 11.9921C6.16304 11.9921 6.79893 11.7287 7.26777 11.2598C7.73661 10.791 8 10.1551 8 9.49207V8.99207H10.268C10.489 9.37607 10.835 9.67906 11.25 9.84706V16.1371C10.835 16.3051 10.49 16.6081 10.268 16.9921H8V16.4921C8 15.829 7.73661 15.1931 7.26777 14.7243C6.79893 14.2555 6.16304 13.9921 5.5 13.9921C4.83696 13.9921 4.20107 14.2555 3.73223 14.7243C3.26339 15.1931 3 15.829 3 16.4921V19.4921C3 20.1551 3.26339 20.791 3.73223 21.2598C4.20107 21.7287 4.83696 21.9921 5.5 21.9921C6.16304 21.9921 6.79893 21.7287 7.26777 21.2598C7.73661 20.791 8 20.1551 8 19.4921V18.4921H10.063C10.1735 18.9218 10.4238 19.3026 10.7745 19.5746C11.1251 19.8465 11.5563 19.994 12 19.994C12.4437 19.994 12.8749 19.8465 13.2255 19.5746C13.5762 19.3026 13.8265 18.9218 13.937 18.4921H16V19.4921C16 20.1551 16.2634 20.791 16.7322 21.2598C17.2011 21.7287 17.837 21.9921 18.5 21.9921C19.163 21.9921 19.7989 21.7287 20.2678 21.2598C20.7366 20.791 21 20.1551 21 19.4921V16.4921C21 15.829 20.7366 15.1931 20.2678 14.7243C19.7989 14.2555 19.163 13.9921 18.5 13.9921C17.837 13.9921 17.2011 14.2555 16.7322 14.7243C16.2634 15.1931 16 15.829 16 16.4921V16.9921H13.732C13.5088 16.6059 13.1633 16.305 12.75 16.1371V9.84706C13.165 9.67906 13.51 9.37607 13.732 8.99207H16V9.49207C16 10.1551 16.2634 10.791 16.7322 11.2598C17.2011 11.7287 17.837 11.9921 18.5 11.9921C19.163 11.9921 19.7989 11.7287 20.2678 11.2598C20.7366 10.791 21 10.1551 21 9.49207V6.49207C21 5.82902 20.7366 5.19314 20.2678 4.7243C19.7989 4.25546 19.163 3.99207 18.5 3.99207C17.837 3.99207 17.2011 4.25546 16.7322 4.7243C16.2634 5.19314 16 5.82902 16 6.49207V7.49207H13.937C13.8265 7.0623 13.5762 6.68149 13.2255 6.40958C12.8749 6.13766 12.4437 5.99009 12 5.99009C11.5563 5.99009 11.1251 6.13766 10.7745 6.40958C10.4238 6.68149 10.1735 7.0623 10.063 7.49207H8V6.49207C8 5.82902 7.73661 5.19314 7.26777 4.7243C6.79893 4.25546 6.16304 3.99207 5.5 3.99207ZM4.5 6.49207C4.5 6.22685 4.60536 5.9725 4.79289 5.78496C4.98043 5.59742 5.23478 5.49207 5.5 5.49207C5.76522 5.49207 6.01957 5.59742 6.20711 5.78496C6.39464 5.9725 6.5 6.22685 6.5 6.49207V9.49207C6.5 9.75728 6.39464 10.0116 6.20711 10.1992C6.01957 10.3867 5.76522 10.4921 5.5 10.4921C5.23478 10.4921 4.98043 10.3867 4.79289 10.1992C4.60536 10.0116 4.5 9.75728 4.5 9.49207V6.49207ZM5.5 15.4921C5.76522 15.4921 6.01957 15.5974 6.20711 15.785C6.39464 15.9725 6.5 16.2268 6.5 16.4921V19.4921C6.5 19.7573 6.39464 20.0116 6.20711 20.1992C6.01957 20.3867 5.76522 20.4921 5.5 20.4921C5.23478 20.4921 4.98043 20.3867 4.79289 20.1992C4.60536 20.0116 4.5 19.7573 4.5 19.4921V16.4921C4.5 16.2268 4.60536 15.9725 4.79289 15.785C4.98043 15.5974 5.23478 15.4921 5.5 15.4921ZM17.5 6.49207C17.5 6.22685 17.6054 5.9725 17.7929 5.78496C17.9804 5.59742 18.2348 5.49207 18.5 5.49207C18.7652 5.49207 19.0196 5.59742 19.2071 5.78496C19.3946 5.9725 19.5 6.22685 19.5 6.49207V9.49207C19.5 9.75728 19.3946 10.0116 19.2071 10.1992C19.0196 10.3867 18.7652 10.4921 18.5 10.4921C18.2348 10.4921 17.9804 10.3867 17.7929 10.1992C17.6054 10.0116 17.5 9.75728 17.5 9.49207V6.49207ZM18.5 15.4921C18.7652 15.4921 19.0196 15.5974 19.2071 15.785C19.3946 15.9725 19.5 16.2268 19.5 16.4921V19.4921C19.5 19.7573 19.3946 20.0116 19.2071 20.1992C19.0196 20.3867 18.7652 20.4921 18.5 20.4921C18.2348 20.4921 17.9804 20.3867 17.7929 20.1992C17.6054 20.0116 17.5 19.7573 17.5 19.4921V16.4921C17.5 16.2268 17.6054 15.9725 17.7929 15.785C17.9804 15.5974 18.2348 15.4921 18.5 15.4921Z" fill="#AFAFAF"/>
</svg>
