<svg width="25" height="25" viewBox="0 0 25 25" fill="none" xmlns="http://www.w3.org/2000/svg">
<path d="M3.5 10.9921V16.9921M12.5 5.99207V8.99207M10.5 5.99207H14.5M5.5 13.9921H3.5M6.5 10.9921H8.5L10.5 8.99207H13.882C14.0677 8.99216 14.2496 9.04395 14.4075 9.14162C14.5654 9.23929 14.693 9.37899 14.776 9.54507L16.224 12.4391C16.307 12.6051 16.4346 12.7448 16.5925 12.8425C16.7504 12.9402 16.9323 12.992 17.118 12.9921H18.5V10.9921H20.5C20.7652 10.9921 21.0196 11.0974 21.2071 11.285C21.3946 11.4725 21.5 11.7268 21.5 11.9921V17.9921C21.5 18.2573 21.3946 18.5116 21.2071 18.6992C21.0196 18.8867 20.7652 18.9921 20.5 18.9921H18.5V16.9921H15.5V18.9921C15.5 19.2573 15.3946 19.5116 15.2071 19.6992C15.0196 19.8867 14.7652 19.9921 14.5 19.9921H11.035C10.8704 19.9921 10.7084 19.9515 10.5632 19.8739C10.4181 19.7962 10.2943 19.684 10.203 19.5471L8.5 16.9921H6.5V10.9921Z" stroke="#AFAFAF" stroke-width="2" stroke-linecap="round" stroke-linejoin="round"/>
</svg>
