<svg width="25" height="25" viewBox="0 0 25 25" fill="none" xmlns="http://www.w3.org/2000/svg">
<path d="M12.5 2.99207C11.8361 2.99185 11.1945 3.23183 10.6937 3.6677C10.1929 4.10356 9.86671 4.70589 9.77531 5.36348C9.68391 6.02107 9.83349 6.68952 10.1964 7.24544C10.5594 7.80136 11.1112 8.20721 11.75 8.38807V12.2421C11.75 12.441 11.829 12.6317 11.9697 12.7724C12.1103 12.913 12.3011 12.9921 12.5 12.9921C12.6989 12.9921 12.8897 12.913 13.0303 12.7724C13.171 12.6317 13.25 12.441 13.25 12.2421V8.38807C13.8874 8.20582 14.4375 7.79955 14.7992 7.24399C15.1609 6.68843 15.3098 6.02094 15.2185 5.36433C15.1273 4.70772 14.802 4.10615 14.3025 3.67028C13.803 3.23442 13.1629 2.99358 12.5 2.99207ZM6 4.99207C5.33696 4.99207 4.70107 5.25546 4.23223 5.7243C3.76339 6.19314 3.5 6.82902 3.5 7.49207V19.4921C3.5 20.1551 3.76339 20.791 4.23223 21.2598C4.70107 21.7287 5.33696 21.9921 6 21.9921C6.66304 21.9921 7.29893 21.7287 7.76777 21.2598C8.23661 20.791 8.5 20.1551 8.5 19.4921V15.9921H10V19.4921C10 20.1551 10.2634 20.791 10.7322 21.2598C11.2011 21.7287 11.837 21.9921 12.5 21.9921C13.163 21.9921 13.7989 21.7287 14.2678 21.2598C14.7366 20.791 15 20.1551 15 19.4921V15.9921H19.5C20.0304 15.9921 20.5391 15.7814 20.9142 15.4063C21.2893 15.0312 21.5 14.5225 21.5 13.9921V7.49207C21.5 6.82902 21.2366 6.19314 20.7678 5.7243C20.2989 5.25546 19.663 4.99207 19 4.99207C18.337 4.99207 17.7011 5.25546 17.2322 5.7243C16.7634 6.19314 16.5 6.82902 16.5 7.49207V10.9921H14.25V12.4921H18V7.49207C18 7.22685 18.1054 6.9725 18.2929 6.78496C18.4804 6.59742 18.7348 6.49207 19 6.49207C19.2652 6.49207 19.5196 6.59742 19.7071 6.78496C19.8946 6.9725 20 7.22685 20 7.49207V13.9921C20 14.1247 19.9473 14.2519 19.8536 14.3456C19.7598 14.4394 19.6326 14.4921 19.5 14.4921H13.5V19.4921C13.5 19.7573 13.3946 20.0116 13.2071 20.1992C13.0196 20.3867 12.7652 20.4921 12.5 20.4921C12.2348 20.4921 11.9804 20.3867 11.7929 20.1992C11.6054 20.0116 11.5 19.7573 11.5 19.4921V14.4921H7V19.4921C7 19.7573 6.89464 20.0116 6.70711 20.1992C6.51957 20.3867 6.26522 20.4921 6 20.4921C5.73478 20.4921 5.48043 20.3867 5.29289 20.1992C5.10536 20.0116 5 19.7573 5 19.4921V7.49207C5 7.22685 5.10536 6.9725 5.29289 6.78496C5.48043 6.59742 5.73478 6.49207 6 6.49207C6.26522 6.49207 6.51957 6.59742 6.70711 6.78496C6.89464 6.9725 7 7.22685 7 7.49207V12.4921H10.75V10.9921H8.5V7.49207C8.5 6.82902 8.23661 6.19314 7.76777 5.7243C7.29893 5.25546 6.66304 4.99207 6 4.99207Z" fill="#AFAFAF"/>
</svg>
