<svg width="100" height="30" viewBox="0 0 100 30" fill="none" xmlns="http://www.w3.org/2000/svg">
<path d="M18.9336 24.4297V29H4.61719V24.4297H18.9336ZM6.51172 0.5625V29H0.652344V0.5625H6.51172ZM44.3633 14.1172V15.4648C44.3633 17.6263 44.0703 19.5664 43.4844 21.2852C42.8984 23.0039 42.0716 24.4688 41.0039 25.6797C39.9362 26.8776 38.6602 27.7956 37.1758 28.4336C35.7044 29.0716 34.0703 29.3906 32.2734 29.3906C30.4896 29.3906 28.8555 29.0716 27.3711 28.4336C25.8997 27.7956 24.6237 26.8776 23.543 25.6797C22.4622 24.4688 21.6224 23.0039 21.0234 21.2852C20.4375 19.5664 20.1445 17.6263 20.1445 15.4648V14.1172C20.1445 11.9427 20.4375 10.0026 21.0234 8.29688C21.6094 6.57812 22.4362 5.11328 23.5039 3.90234C24.5846 2.69141 25.8607 1.76693 27.332 1.12891C28.8164 0.490885 30.4505 0.171875 32.2344 0.171875C34.0312 0.171875 35.6654 0.490885 37.1367 1.12891C38.6211 1.76693 39.8971 2.69141 40.9648 3.90234C42.0456 5.11328 42.8789 6.57812 43.4648 8.29688C44.0638 10.0026 44.3633 11.9427 44.3633 14.1172ZM38.4453 15.4648V14.0781C38.4453 12.5677 38.3086 11.2396 38.0352 10.0938C37.7617 8.94792 37.3581 7.98438 36.8242 7.20312C36.2904 6.42188 35.6393 5.83594 34.8711 5.44531C34.1029 5.04167 33.224 4.83984 32.2344 4.83984C31.2448 4.83984 30.3659 5.04167 29.5977 5.44531C28.8424 5.83594 28.1979 6.42188 27.6641 7.20312C27.1432 7.98438 26.7461 8.94792 26.4727 10.0938C26.1992 11.2396 26.0625 12.5677 26.0625 14.0781V15.4648C26.0625 16.9622 26.1992 18.2904 26.4727 19.4492C26.7461 20.5951 27.1497 21.5651 27.6836 22.3594C28.2174 23.1406 28.8685 23.7331 29.6367 24.1367C30.4049 24.5404 31.2839 24.7422 32.2734 24.7422C33.263 24.7422 34.1419 24.5404 34.9102 24.1367C35.6784 23.7331 36.3229 23.1406 36.8438 22.3594C37.3646 21.5651 37.7617 20.5951 38.0352 19.4492C38.3086 18.2904 38.4453 16.9622 38.4453 15.4648ZM71.1211 14.1367V25.4062C70.6784 25.9401 69.9948 26.5195 69.0703 27.1445C68.1458 27.7565 66.9544 28.2839 65.4961 28.7266C64.0378 29.1693 62.2734 29.3906 60.2031 29.3906C58.3672 29.3906 56.694 29.0911 55.1836 28.4922C53.6732 27.8802 52.3711 26.9883 51.2773 25.8164C50.1966 24.6445 49.3633 23.2122 48.7773 21.5195C48.1914 19.8138 47.8984 17.8672 47.8984 15.6797V13.9023C47.8984 11.7148 48.1784 9.76823 48.7383 8.0625C49.3112 6.35677 50.125 4.91797 51.1797 3.74609C52.2344 2.57422 53.4909 1.68229 54.9492 1.07031C56.4076 0.458333 58.0286 0.152344 59.8125 0.152344C62.2865 0.152344 64.3177 0.55599 65.9062 1.36328C67.4948 2.15755 68.7057 3.26432 69.5391 4.68359C70.3854 6.08984 70.9062 7.70443 71.1016 9.52734H65.418C65.2747 8.5638 65.0013 7.72396 64.5977 7.00781C64.194 6.29167 63.6146 5.73177 62.8594 5.32812C62.1172 4.92448 61.1536 4.72266 59.9688 4.72266C58.9922 4.72266 58.1198 4.92448 57.3516 5.32812C56.5964 5.71875 55.9583 6.29818 55.4375 7.06641C54.9167 7.83464 54.5195 8.78516 54.2461 9.91797C53.9727 11.0508 53.8359 12.3659 53.8359 13.8633V15.6797C53.8359 17.1641 53.9792 18.4792 54.2656 19.625C54.5521 20.7578 54.9753 21.7148 55.5352 22.4961C56.1081 23.2643 56.8112 23.8438 57.6445 24.2344C58.4779 24.625 59.4479 24.8203 60.5547 24.8203C61.4792 24.8203 62.2474 24.7422 62.8594 24.5859C63.4844 24.4297 63.9857 24.2409 64.3633 24.0195C64.7539 23.7852 65.0534 23.5638 65.2617 23.3555V18.3164H59.9102V14.1367H71.1211ZM99.207 14.1172V15.4648C99.207 17.6263 98.9141 19.5664 98.3281 21.2852C97.7422 23.0039 96.9154 24.4688 95.8477 25.6797C94.7799 26.8776 93.5039 27.7956 92.0195 28.4336C90.5482 29.0716 88.9141 29.3906 87.1172 29.3906C85.3333 29.3906 83.6992 29.0716 82.2148 28.4336C80.7435 27.7956 79.4674 26.8776 78.3867 25.6797C77.306 24.4688 76.4661 23.0039 75.8672 21.2852C75.2812 19.5664 74.9883 17.6263 74.9883 15.4648V14.1172C74.9883 11.9427 75.2812 10.0026 75.8672 8.29688C76.4531 6.57812 77.2799 5.11328 78.3477 3.90234C79.4284 2.69141 80.7044 1.76693 82.1758 1.12891C83.6602 0.490885 85.2943 0.171875 87.0781 0.171875C88.875 0.171875 90.5091 0.490885 91.9805 1.12891C93.4648 1.76693 94.7409 2.69141 95.8086 3.90234C96.8893 5.11328 97.7227 6.57812 98.3086 8.29688C98.9076 10.0026 99.207 11.9427 99.207 14.1172ZM93.2891 15.4648V14.0781C93.2891 12.5677 93.1523 11.2396 92.8789 10.0938C92.6055 8.94792 92.2018 7.98438 91.668 7.20312C91.1341 6.42188 90.4831 5.83594 89.7148 5.44531C88.9466 5.04167 88.0677 4.83984 87.0781 4.83984C86.0885 4.83984 85.2096 5.04167 84.4414 5.44531C83.6862 5.83594 83.0417 6.42188 82.5078 7.20312C81.987 7.98438 81.5898 8.94792 81.3164 10.0938C81.043 11.2396 80.9062 12.5677 80.9062 14.0781V15.4648C80.9062 16.9622 81.043 18.2904 81.3164 19.4492C81.5898 20.5951 81.9935 21.5651 82.5273 22.3594C83.0612 23.1406 83.7122 23.7331 84.4805 24.1367C85.2487 24.5404 86.1276 24.7422 87.1172 24.7422C88.1068 24.7422 88.9857 24.5404 89.7539 24.1367C90.5221 23.7331 91.1667 23.1406 91.6875 22.3594C92.2083 21.5651 92.6055 20.5951 92.8789 19.4492C93.1523 18.2904 93.2891 16.9622 93.2891 15.4648Z" fill="#383838"/>
</svg>
