<svg width="160" height="44" viewBox="0 0 160 44" fill="none" xmlns="http://www.w3.org/2000/svg">
<rect y="0.5" width="160" height="43" rx="10" fill="#50CA81"/>
<path d="M64.4785 25.8633V28.5H57.291V25.8633H64.4785ZM58.5117 14.2812V28.5H55.084V14.2812H58.5117ZM77.3301 21.1074V21.6836C77.3301 22.7708 77.1771 23.7474 76.8711 24.6133C76.5716 25.4727 76.1452 26.2083 75.5918 26.8203C75.0384 27.4258 74.3841 27.8913 73.6289 28.2168C72.8737 28.5358 72.0404 28.6953 71.1289 28.6953C70.2109 28.6953 69.3711 28.5358 68.6094 28.2168C67.8542 27.8913 67.1966 27.4258 66.6367 26.8203C66.0833 26.2083 65.6536 25.4727 65.3477 24.6133C65.0482 23.7474 64.8984 22.7708 64.8984 21.6836V21.1074C64.8984 20.0202 65.0482 19.0436 65.3477 18.1777C65.6536 17.3118 66.0801 16.5762 66.627 15.9707C67.1803 15.3587 67.8346 14.8932 68.5898 14.5742C69.3516 14.2487 70.1914 14.0859 71.1094 14.0859C72.0208 14.0859 72.8542 14.2487 73.6094 14.5742C74.3711 14.8932 75.0286 15.3587 75.582 15.9707C76.1354 16.5762 76.5651 17.3118 76.8711 18.1777C77.1771 19.0436 77.3301 20.0202 77.3301 21.1074ZM73.8535 21.6836V21.0879C73.8535 20.3848 73.7917 19.7663 73.668 19.2324C73.5508 18.6921 73.375 18.2396 73.1406 17.875C72.9062 17.5104 72.6165 17.237 72.2715 17.0547C71.9329 16.8659 71.5456 16.7715 71.1094 16.7715C70.6536 16.7715 70.2565 16.8659 69.918 17.0547C69.5794 17.237 69.2962 17.5104 69.0684 17.875C68.8405 18.2396 68.668 18.6921 68.5508 19.2324C68.4401 19.7663 68.3848 20.3848 68.3848 21.0879V21.6836C68.3848 22.3802 68.4401 22.9987 68.5508 23.5391C68.668 24.0729 68.8405 24.5254 69.0684 24.8965C69.3027 25.2676 69.5892 25.5475 69.9277 25.7363C70.2728 25.9251 70.6732 26.0195 71.1289 26.0195C71.5651 26.0195 71.9525 25.9251 72.291 25.7363C72.6296 25.5475 72.9128 25.2676 73.1406 24.8965C73.375 24.5254 73.5508 24.0729 73.668 23.5391C73.7917 22.9987 73.8535 22.3802 73.8535 21.6836ZM90.7383 20.9023V26.7422C90.4974 27.0091 90.1263 27.2956 89.625 27.6016C89.1302 27.901 88.5052 28.1582 87.75 28.373C86.9948 28.5879 86.1061 28.6953 85.084 28.6953C84.14 28.6953 83.2839 28.5456 82.5156 28.2461C81.7474 27.9401 81.0866 27.4941 80.5332 26.9082C79.9863 26.3158 79.5632 25.5931 79.2637 24.7402C78.9707 23.8809 78.8242 22.8978 78.8242 21.791V21C78.8242 19.8932 78.974 18.9102 79.2734 18.0508C79.5729 17.1914 79.9928 16.4688 80.5332 15.8828C81.0801 15.2904 81.7214 14.8411 82.457 14.5352C83.1992 14.2292 84.013 14.0762 84.8984 14.0762C86.207 14.0762 87.2715 14.2845 88.0918 14.7012C88.9121 15.1113 89.5339 15.681 89.957 16.4102C90.3802 17.1328 90.6374 17.9694 90.7285 18.9199H87.4375C87.3724 18.4512 87.2487 18.054 87.0664 17.7285C86.8906 17.3965 86.6367 17.1458 86.3047 16.9766C85.9727 16.8008 85.543 16.7129 85.0156 16.7129C84.6055 16.7129 84.2311 16.8008 83.8926 16.9766C83.5605 17.1523 83.2773 17.4193 83.043 17.7773C82.8086 18.1289 82.6263 18.5716 82.4961 19.1055C82.3724 19.6393 82.3105 20.2643 82.3105 20.9805V21.791C82.3105 22.5007 82.3691 23.1224 82.4863 23.6562C82.61 24.1901 82.7923 24.6361 83.0332 24.9941C83.2806 25.3457 83.5931 25.6126 83.9707 25.7949C84.3548 25.9707 84.8073 26.0586 85.3281 26.0586C85.6927 26.0586 86.0052 26.0293 86.2656 25.9707C86.526 25.9056 86.7409 25.8275 86.9102 25.7363C87.0859 25.6387 87.2194 25.5475 87.3105 25.4629V23.2559H84.9277V20.9023H90.7383ZM104.771 21.1074V21.6836C104.771 22.7708 104.618 23.7474 104.312 24.6133C104.013 25.4727 103.587 26.2083 103.033 26.8203C102.48 27.4258 101.826 27.8913 101.07 28.2168C100.315 28.5358 99.4818 28.6953 98.5703 28.6953C97.6523 28.6953 96.8125 28.5358 96.0508 28.2168C95.2956 27.8913 94.638 27.4258 94.0781 26.8203C93.5247 26.2083 93.0951 25.4727 92.7891 24.6133C92.4896 23.7474 92.3398 22.7708 92.3398 21.6836V21.1074C92.3398 20.0202 92.4896 19.0436 92.7891 18.1777C93.0951 17.3118 93.5215 16.5762 94.0684 15.9707C94.6217 15.3587 95.276 14.8932 96.0312 14.5742C96.793 14.2487 97.6328 14.0859 98.5508 14.0859C99.4622 14.0859 100.296 14.2487 101.051 14.5742C101.812 14.8932 102.47 15.3587 103.023 15.9707C103.577 16.5762 104.007 17.3118 104.312 18.1777C104.618 19.0436 104.771 20.0202 104.771 21.1074ZM101.295 21.6836V21.0879C101.295 20.3848 101.233 19.7663 101.109 19.2324C100.992 18.6921 100.816 18.2396 100.582 17.875C100.348 17.5104 100.058 17.237 99.7129 17.0547C99.3743 16.8659 98.987 16.7715 98.5508 16.7715C98.0951 16.7715 97.6979 16.8659 97.3594 17.0547C97.0208 17.237 96.7376 17.5104 96.5098 17.875C96.2819 18.2396 96.1094 18.6921 95.9922 19.2324C95.8815 19.7663 95.8262 20.3848 95.8262 21.0879V21.6836C95.8262 22.3802 95.8815 22.9987 95.9922 23.5391C96.1094 24.0729 96.2819 24.5254 96.5098 24.8965C96.7441 25.2676 97.0306 25.5475 97.3691 25.7363C97.7142 25.9251 98.1146 26.0195 98.5703 26.0195C99.0065 26.0195 99.3939 25.9251 99.7324 25.7363C100.071 25.5475 100.354 25.2676 100.582 24.8965C100.816 24.5254 100.992 24.0729 101.109 23.5391C101.233 22.9987 101.295 22.3802 101.295 21.6836Z" fill="white"/>
</svg>
