<svg width="18" height="32" viewBox="0 0 18 32" fill="none" xmlns="http://www.w3.org/2000/svg">
<path d="M0.781738 31.1848C-0.26056 30.0978 -0.26056 28.3354 0.781738 27.2484L13.4438 14.0433C14.4861 12.9563 16.176 12.9563 17.2183 14.0433C18.2606 15.1303 18.2606 16.8927 17.2183 17.9797L4.55623 31.1848C3.51393 32.2717 1.82404 32.2717 0.781738 31.1848Z" fill="#383838"/>
<path d="M0.781723 0.815247C1.82402 -0.271751 3.51392 -0.271752 4.55622 0.815246L17.2183 14.0203C18.2606 15.1073 18.2606 16.8697 17.2183 17.9567C16.176 19.0437 14.4861 19.0437 13.4438 17.9567L0.781722 4.75162C-0.260576 3.66462 -0.260576 1.90225 0.781723 0.815247Z" fill="#383838"/>
</svg>
