<svg width="20" height="20" viewBox="0 0 20 20" fill="none" xmlns="http://www.w3.org/2000/svg">
<path d="M18.3358 19.3011C16.0866 19.3011 13.8942 18.8057 11.7587 17.815C9.62241 16.825 7.73061 15.5159 6.08327 13.8879C4.43523 12.2605 3.1101 10.3917 2.10789 8.28138C1.10497 6.17175 0.603516 4.00597 0.603516 1.78404C0.603516 1.47401 0.708131 1.21564 0.917362 1.00895C1.12659 0.802259 1.38813 0.698914 1.70198 0.698914H5.9389C6.183 0.698914 6.40095 0.776423 6.59275 0.931441C6.78454 1.08646 6.89788 1.28454 6.93275 1.52568L7.61275 5.14277C7.64762 5.38391 7.64343 5.60335 7.60019 5.80108C7.55625 5.99951 7.45582 6.17623 7.2989 6.33125L4.78813 8.86321C5.52044 10.1034 6.43582 11.266 7.53429 12.3511C8.63275 13.4363 9.84454 14.375 11.1697 15.1673L13.6281 12.7387C13.7851 12.5837 13.9901 12.4672 14.2433 12.3894C14.4957 12.3122 14.744 12.2908 14.9881 12.3253L18.5974 13.0487C18.8415 13.1004 19.042 13.2165 19.1989 13.397C19.3558 13.5782 19.4343 13.7894 19.4343 14.0305V18.216C19.4343 18.526 19.3297 18.7844 19.1204 18.9911C18.9112 19.1978 18.6497 19.3011 18.3358 19.3011Z" fill="white"/>
</svg>
