<svg width="23" height="22" viewBox="0 0 23 22" fill="none" xmlns="http://www.w3.org/2000/svg">
<path fill-rule="evenodd" clip-rule="evenodd" d="M5.4039 0.500553C6.58008 0.515919 7.41826 1.37331 8.47861 2.45811C8.7408 2.72547 9.02405 3.01741 9.341 3.32472C10.8773 4.82029 10.4403 6.04031 10.0876 7.0196C9.70428 8.08801 9.37259 9.00994 11.3585 10.9419C13.3444 12.8738 14.2911 12.5512 15.3883 12.1752C16.396 11.8331 17.6469 11.4049 19.1864 12.9005C19.4991 13.2047 19.7939 13.4772 20.0677 13.7302C21.187 14.7669 22.0715 15.5853 22.0864 16.7326C22.0979 17.7099 21.4871 18.7076 19.9793 20.1745L19.3117 19.734L19.8771 20.2697C19.5433 20.6027 18.6557 21.4898 16.9172 21.5H16.8856C14.2616 21.5 10.8404 19.4677 6.71697 15.4573C2.57665 11.4305 0.484382 8.09211 0.500088 5.53427C0.509653 3.84408 1.42048 2.97849 1.7627 2.65376L1.79191 2.62273L1.86273 2.55338C3.37376 1.08342 4.412 0.479042 5.4039 0.500553ZM5.3839 2.0371H5.37547C4.90262 2.0371 4.18452 2.49806 3.18299 3.44447L2.98187 3.6366L2.98416 3.63613C2.98416 3.63613 2.96697 3.65531 2.93768 3.68436L2.86728 3.75291C2.61245 3.99363 2.08491 4.49455 2.07959 5.54247C2.07122 7.00833 3.06208 9.73007 7.83313 14.3704C12.581 18.9883 15.3746 19.9635 16.8856 19.9635H16.9077C17.9849 19.9573 18.4988 19.4441 18.7462 19.1972C18.821 19.1225 18.8821 19.0661 18.9252 19.0323C19.975 18.0049 20.5121 17.2417 20.5068 16.7511C20.5005 16.2512 19.8613 15.6611 18.9779 14.8427C18.6967 14.5835 18.3914 14.2998 18.0692 13.9863C17.2331 13.176 16.8214 13.3143 15.9105 13.6257C14.6522 14.0549 12.9285 14.6429 10.2423 12.0277C7.55514 9.41456 8.15745 7.73768 8.59654 6.51254C8.91454 5.62749 9.05985 5.22492 8.22484 4.41157C7.89842 4.09402 7.60463 3.79286 7.33402 3.51628C6.49795 2.66196 5.89459 2.04427 5.3839 2.0371ZM14.4481 4.14473C16.6393 4.55857 18.3314 6.2037 18.7579 8.33642C18.8411 8.75436 18.5621 9.15693 18.1345 9.23786C18.0829 9.24708 18.0324 9.2522 17.9819 9.2522C17.6112 9.2522 17.2816 8.99816 17.2079 8.63144C16.9047 7.11538 15.7032 5.94658 14.1469 5.65259C13.7183 5.57166 13.4393 5.16909 13.5225 4.75217C13.6057 4.33526 14.0269 4.06278 14.4481 4.14473ZM14.385 0.506392C18.679 0.970429 22.0138 4.21049 22.495 8.38682C22.5435 8.80886 22.2318 9.1889 21.799 9.23602C21.7695 9.23909 21.739 9.24114 21.7095 9.24114C21.3125 9.24114 20.9714 8.95124 20.9261 8.55891C20.527 5.10066 17.7661 2.41683 14.2102 2.03269C13.7774 1.98557 13.4647 1.60656 13.5131 1.18452C13.5605 0.763507 13.9469 0.453125 14.385 0.506392Z" fill="#50CA81"/>
</svg>
