<svg width="18" height="19" viewBox="0 0 18 19" fill="none" xmlns="http://www.w3.org/2000/svg">
<path d="M15 11.7575C14.121 11.7575 13.26 11.6203 12.444 11.351C12.0457 11.2137 11.5935 11.3195 11.3317 11.5865L9.714 12.8082C7.85775 11.8175 6.66975 10.6302 5.6925 8.7875L6.88125 7.208C7.1805 6.90875 7.28775 6.47075 7.1595 6.0605C6.888 5.23925 6.75 4.3775 6.75 3.5C6.75 2.87975 6.24525 2.375 5.625 2.375H3C2.37975 2.375 1.875 2.87975 1.875 3.5C1.875 10.7367 7.76325 16.625 15 16.625C15.6202 16.625 16.125 16.1202 16.125 15.5V12.8825C16.125 12.2622 15.6202 11.7575 15 11.7575Z" fill="#DEDEDE"/>
</svg>
