<svg width="18" height="11" viewBox="0 0 18 11" fill="none" xmlns="http://www.w3.org/2000/svg">
<path d="M0.458578 0.934299C1.07002 0.355244 2.06135 0.355245 2.67279 0.934299L10.1006 7.96877C10.7121 8.54782 10.7121 9.48666 10.1006 10.0657C9.48921 10.6448 8.49787 10.6448 7.88643 10.0657L0.458578 3.03124C-0.152859 2.45219 -0.152859 1.51335 0.458578 0.934299Z" fill="#AFAFAF"/>
<path d="M17.5414 0.934291C18.1529 1.51335 18.1529 2.45218 17.5414 3.03123L10.1136 10.0657C9.50213 10.6448 8.5108 10.6448 7.89936 10.0657C7.28792 9.48665 7.28792 8.54781 7.89936 7.96876L15.3272 0.934291C15.9387 0.355236 16.93 0.355236 17.5414 0.934291Z" fill="#AFAFAF"/>
</svg>
