<svg width="19" height="11" viewBox="0 0 19 11" fill="none" xmlns="http://www.w3.org/2000/svg">
<path d="M0.708578 0.934299C1.32002 0.355244 2.31135 0.355245 2.92279 0.934299L10.3506 7.96877C10.9621 8.54782 10.9621 9.48666 10.3506 10.0657C9.73921 10.6448 8.74787 10.6448 8.13643 10.0657L0.708578 3.03124C0.0971406 2.45219 0.0971409 1.51335 0.708578 0.934299Z" fill="#50CA81"/>
<path d="M17.7914 0.934291C18.4029 1.51335 18.4029 2.45218 17.7914 3.03123L10.3636 10.0657C9.75213 10.6448 8.7608 10.6448 8.14936 10.0657C7.53792 9.48665 7.53792 8.54781 8.14936 7.96876L15.5772 0.934291C16.1887 0.355236 17.18 0.355236 17.7914 0.934291Z" fill="#50CA81"/>
</svg>
