<svg width="132" height="131" viewBox="0 0 132 131" fill="none" xmlns="http://www.w3.org/2000/svg">
<path d="M62.8736 0.0522807C51.6451 0.478116 40.5448 3.86842 30.9983 9.80282C19.977 16.5998 11.0684 26.768 5.77173 38.5958C0.649553 49.946 -1.13599 62.7757 0.706799 75.0949C2.27426 85.7326 6.51321 95.9663 12.933 104.589C17.758 111.097 23.8098 116.679 30.6684 120.984C43.6524 129.192 59.5887 132.574 74.7808 130.314C75.8412 130.164 76.4028 128.783 75.7703 127.926C75.356 127.249 74.5 127.148 73.7885 127.298C63.1571 128.747 52.1494 127.391 42.2022 123.356C26.6012 117.13 13.7944 104.292 7.59271 88.6615C3.98892 79.7217 2.54959 69.9275 3.35103 60.3244C4.22608 49.3919 8.0943 38.7241 14.4023 29.7625C19.1919 22.9164 25.3663 17.0502 32.4431 12.6144C40.0677 7.83469 48.7392 4.71463 57.6751 3.62275C68.2956 2.28246 79.2624 3.70737 89.1605 7.8074C97.8511 11.3833 105.713 16.9629 111.953 23.9973C117.105 29.7707 121.129 36.5376 123.825 43.7932C123.514 43.8775 123.197 43.9462 122.88 44.015C122.171 44.1688 121.46 44.3229 120.812 44.6531C119.67 45.3301 119.482 47.088 120.458 47.9943C121.816 49.4303 123.19 50.854 124.564 52.2781C125.021 52.7516 125.478 53.2252 125.934 53.6994C126.608 54.491 127.843 54.7285 128.731 54.1498C129.454 53.7321 129.694 52.8832 129.904 52.1325C130.186 51.1013 130.486 50.0752 130.786 49.0494L130.787 49.0487C131.181 47.7014 131.575 46.3545 131.929 44.997C132.286 43.7523 131.245 42.3901 129.964 42.3683C129.263 42.3972 128.588 42.5809 127.913 42.7644C127.566 42.8587 127.219 42.953 126.869 43.0262C121.646 28.6187 111.192 16.2013 97.8783 8.6345C87.315 2.57727 75.037 -0.441798 62.8736 0.0522807Z" fill="#50CA81"/>
<path d="M47.8856 19.9644C46.9072 19.958 45.9154 19.9516 44.9909 20.3068C42.9573 21.0028 41.4171 22.9164 41.1745 25.0537C40.9755 26.5687 41.4253 28.1356 42.3576 29.3394C43.6053 30.951 44.8595 32.5571 46.1138 34.1632L46.1145 34.1641C47.6578 36.1404 49.2011 38.1165 50.7319 40.1027C56.6672 40.1176 62.6026 40.1154 68.5374 40.1132H68.5422C72.383 40.1118 76.2236 40.1104 80.0638 40.1136L80.9629 38.963C83.4577 35.7705 85.9531 32.5773 88.4354 29.3776C89.7302 27.7452 90.0601 25.4141 89.2259 23.5005C88.3618 21.4014 86.1755 19.9328 83.902 19.9737C77.3353 19.9662 70.7693 19.967 64.2033 19.9678C58.9507 19.9685 53.698 19.9692 48.4447 19.9655C48.2596 19.9669 48.0734 19.9656 47.8867 19.9644H47.8856Z" fill="#50CA81"/>
<path d="M47.4498 43.5284C48.0161 43.3685 48.6079 43.3767 49.1963 43.385H49.1966C49.4011 43.3879 49.6053 43.3907 49.8078 43.3865C56.2961 43.3914 62.7834 43.3904 69.2709 43.3895H69.2841C73.6132 43.3888 77.9423 43.3881 82.2719 43.3892C83.1251 43.3374 84.0356 43.6649 84.4936 44.4238C85.3468 45.9142 84.818 48.5539 82.7871 48.6276C75.8408 48.6574 68.8946 48.653 61.9483 48.6486C57.4535 48.6458 52.9587 48.643 48.4638 48.6494C47.4907 48.7313 46.482 48.1935 46.1358 47.2545C45.7106 45.9306 45.9314 44.028 47.4498 43.5284Z" fill="#50CA81"/>
<path fill-rule="evenodd" clip-rule="evenodd" d="M50.2498 51.9279C49.0461 51.9389 47.8378 51.9498 46.6674 51.633C40.5366 54.865 35.2263 59.8276 32.0641 66.0431C29.1745 71.6172 28.1686 78.1631 29.3681 84.3377C30.5566 90.6925 34.0159 96.5013 38.7238 100.877C45.0509 106.795 53.5015 110.232 62.0966 110.898C71.0516 111.618 80.2982 109.418 87.7566 104.341C93.6612 100.358 98.4208 94.5141 100.596 87.6789C102.654 81.3541 102.327 74.3087 99.7429 68.1832C96.7661 61.0014 90.9788 55.1816 84.1256 51.6275C82.9835 51.9524 81.7996 51.9392 80.6211 51.9261C80.2947 51.9224 79.9686 51.9188 79.644 51.9223C79.9161 52.2074 80.1979 52.4836 80.4797 52.7598C80.991 53.2609 81.5022 53.7619 81.9557 54.3163C83.3078 56.0114 83.5858 58.4764 82.6481 60.4336C81.8057 62.2898 79.9357 63.6192 77.9075 63.8102C76.152 64.0041 74.3474 63.338 73.1097 62.0823C71.8231 60.8008 70.5413 59.5152 69.2595 58.2295C67.9775 56.9438 66.6955 55.658 65.4087 54.3763C62.8245 56.9696 60.2402 59.5601 57.6451 62.1424C55.3252 64.5609 51.0018 64.3289 48.9545 61.6756C47.5724 60.0187 47.2262 57.5783 48.1013 55.6047C48.5576 54.4952 49.4131 53.6673 50.2631 52.8447C50.5759 52.542 50.8879 52.24 51.1789 51.9251C50.8703 51.9223 50.5607 51.9251 50.2507 51.9279H50.2498ZM58.5746 64.4599C59.9731 63.2506 61.8077 62.702 63.6232 62.5491C63.6968 61.4026 64.6973 60.3271 65.9076 60.5755C66.9871 60.7175 67.5596 61.8175 67.5405 62.8221C69.1543 63.2889 70.8526 63.8321 72.0766 65.0441C73.1942 66.2315 72.8726 68.3579 71.4632 69.1769C70.5228 69.7856 69.247 69.6846 68.3528 69.0322C67.0171 68.1259 65.3433 67.539 63.7295 67.9485C62.5001 68.2597 61.3088 69.3188 61.4179 70.6864C61.5678 71.9639 62.6855 72.8156 63.735 73.3915C64.6369 73.856 65.5778 74.2632 66.5202 74.671C68.6794 75.6056 70.846 76.5432 72.5673 78.1795C76.2365 81.739 76.002 88.3558 72.1856 91.7161C71.1283 92.6987 69.7408 93.1405 68.396 93.5686C68.2951 93.6008 68.1942 93.6329 68.0939 93.6651C67.4564 93.8562 67.4726 94.5274 67.4867 95.1127C67.4903 95.2632 67.4938 95.4081 67.486 95.5377C67.4753 95.7787 67.4838 96.0327 67.4923 96.2905C67.5211 97.1569 67.5514 98.0674 66.8644 98.6796C65.943 99.5886 64.2093 99.16 63.8113 97.9289C63.6567 97.2944 63.6732 96.6439 63.6897 95.9923C63.7029 95.4722 63.7161 94.9514 63.6423 94.4376C63.5421 93.9265 63.0234 93.8145 62.5752 93.7177C62.4992 93.7013 62.4251 93.6853 62.3556 93.6679C60.6873 93.3758 59.1389 92.6278 57.7623 91.6615L57.6783 91.6033C56.8209 91.0098 55.8645 90.3478 55.685 89.243C55.3443 87.7662 56.462 86.1693 57.9613 85.981C58.8009 85.8254 59.635 86.1611 60.2784 86.688C61.8595 87.9273 63.8086 88.9536 65.8776 88.7489C67.9358 88.5524 69.8222 86.7371 69.7268 84.597C69.7676 83.022 68.6963 81.6708 67.3687 80.9474C66.3751 80.3877 65.3452 79.8905 64.3152 79.3933C62.4968 78.5155 60.6783 77.6377 59.0599 76.416C57.2143 74.9911 55.9059 72.7828 55.8541 70.4161C55.7205 68.1368 56.7945 65.8684 58.5746 64.4599Z" fill="#50CA81"/>
<path d="M55.8295 51.9169C57.1737 51.9258 58.5187 51.925 59.8637 51.9242H59.866C60.986 51.9235 62.1059 51.9228 63.2252 51.9278C60.6409 54.5237 58.054 57.1142 55.4615 59.702C54.5483 60.7147 52.8582 60.8485 51.8332 59.934C50.6937 59.0305 50.5847 57.1525 51.626 56.1315C52.6287 55.1038 53.6471 54.0903 54.6657 53.0767C55.0538 52.6904 55.4422 52.304 55.8295 51.9169Z" fill="#50CA81"/>
<path d="M70.0708 51.9241C69.2444 51.9251 68.4182 51.926 67.5923 51.9251C68.6876 53.0162 69.7791 54.112 70.8708 55.2081C72.3874 56.7308 73.9043 58.2538 75.4323 59.7648C76.46 60.8731 78.42 60.7748 79.3332 59.571C80.1701 58.5719 80.0802 56.9696 79.1397 56.0688C78.4131 55.3177 77.6724 54.5809 76.9319 53.8443C76.2943 53.2101 75.6569 52.5761 75.0288 51.9332C73.3768 51.9205 71.7236 51.9223 70.0708 51.9241Z" fill="#50CA81"/>
</svg>
