<svg width="130" height="131" viewBox="0 0 130 131" fill="none" xmlns="http://www.w3.org/2000/svg">
<path fill-rule="evenodd" clip-rule="evenodd" d="M53.1335 0.107352C50.7655 -0.350206 48.2026 0.684673 46.7855 2.64388C45.3196 4.58466 45.0819 7.36686 46.2095 9.52567C46.667 10.4762 47.4171 11.217 48.1582 11.9489C48.2959 12.0848 48.4332 12.2204 48.5683 12.357C49.5058 13.3041 50.4447 14.2494 51.3834 15.1944C52.8583 16.6792 54.3326 18.1634 55.8001 19.6534C55.4136 19.6537 55.0267 19.6529 54.6397 19.6521C51.7862 19.6461 48.9229 19.64 46.0998 20.1078C36.3263 21.5665 27.2233 26.9804 21.1922 34.8572C16.0083 41.5363 13.0796 49.9504 13.0004 58.4321C12.9848 63.1816 12.9875 67.931 12.9902 72.6805C12.9929 77.2234 12.9955 81.7664 12.9821 86.3094C8.69417 87.8264 4.98835 90.9126 2.6905 94.8586C0.301222 98.9122 -0.5399 103.853 0.340841 108.481C1.20634 113.213 3.90038 117.568 7.70981 120.46C11.501 123.387 16.3923 124.815 21.1495 124.385C25.2881 124.05 29.2925 122.318 32.3949 119.542C35.8295 116.487 38.1548 112.184 38.7796 107.606C39.4592 102.917 38.3803 97.9909 35.7808 94.0356C33.4707 90.4673 29.9752 87.7158 25.9951 86.2909C25.9947 84.9808 25.9942 83.6705 25.9937 82.3602C25.9907 74.4909 25.9877 66.6197 25.9981 58.7484C26.0134 52.2136 28.5977 45.7372 33.0654 41.0019C37.1095 36.6505 42.6621 33.7639 48.5286 32.9932C50.3546 32.735 52.1963 32.7463 54.0353 32.7577C54.624 32.7613 55.2125 32.765 55.8001 32.7598C54.3298 34.2493 52.8554 35.7338 51.3807 37.2186C50.0402 38.5682 48.6994 39.9181 47.3614 41.2722C45.6609 42.9857 45.0423 45.685 45.8468 47.9697C46.5569 50.1255 48.4555 51.8267 50.665 52.2659C52.8226 52.751 55.1754 51.9925 56.6961 50.3896C58.4694 48.6027 60.2434 46.8165 62.0173 45.0303C66.7493 40.2658 71.4813 35.5013 76.2004 30.7238C78.5805 28.3347 78.5805 24.0815 76.2034 21.6924C72.272 17.7084 68.3269 13.7358 64.382 9.76349C61.8716 7.23556 59.3612 4.70773 56.8545 2.17711C55.8641 1.12381 54.5658 0.346878 53.1335 0.107352ZM13.0034 104.495C13.0857 101.805 15.0178 99.3236 17.5686 98.559C19.2874 98.126 21.2318 98.2089 22.7708 99.167C24.7334 100.303 26.0103 102.53 25.9859 104.814C26.0134 107.105 24.7243 109.344 22.7525 110.48C20.7655 111.675 18.1324 111.656 16.1576 110.44C14.1279 109.239 12.851 106.866 13.0034 104.495Z" fill="#50CA81"/>
<path fill-rule="evenodd" clip-rule="evenodd" d="M111.336 6.58687C106.874 6.37805 102.367 7.79372 98.8071 10.5053C95.2841 13.1585 92.6937 17.0493 91.624 21.3485C90.3684 26.2588 91.0937 31.6543 93.6354 36.0333C95.9241 40.0469 99.6695 43.1823 104.003 44.7146C104.014 52.5017 104.011 60.2866 104.008 68.0731C104.007 69.3694 104.007 70.6658 104.006 71.9623C104.034 77.4991 102.278 83.0297 99.0173 87.4886C95.1226 92.9117 89.0945 96.738 82.5393 97.865C80.3113 98.2931 78.0433 98.2814 75.784 98.2698C75.2557 98.2671 74.7279 98.2644 74.2012 98.2673C76.7642 95.6816 79.3302 93.0929 81.8993 90.5103C82.7343 89.6996 83.551 88.8244 83.9868 87.722C85.0474 85.2929 84.4257 82.2528 82.4996 80.441C80.6346 78.5892 77.6175 78.0826 75.2587 79.2341C74.2064 79.6975 73.4021 80.5225 72.6072 81.3379C72.4329 81.5166 72.259 81.695 72.0831 81.8689C70.5972 83.3662 69.1114 84.8637 67.6257 86.3612C63.1725 90.8496 58.7194 95.338 54.2611 99.8211C53.3864 100.659 52.655 101.673 52.3046 102.846C51.5488 105.152 52.2314 107.83 53.9624 109.513C54.8681 110.425 55.7738 111.337 56.6795 112.249C62.1217 117.73 67.5629 123.21 72.9974 128.696C75.3044 131.512 79.9245 131.823 82.4905 129.206C84.2977 127.508 84.9773 124.726 84.1575 122.377C83.7948 121.21 83.033 120.227 82.1675 119.395C80.2673 117.487 78.3718 115.575 76.4766 113.664C75.7182 112.9 74.9598 112.135 74.2012 111.371L74.243 111.371C77.9016 111.395 81.59 111.42 85.1967 110.695C90.6396 109.676 95.857 107.458 100.389 104.249C110.357 97.2846 116.742 85.425 116.986 73.1907C117.021 68.1245 117.016 63.0584 117.011 57.9922C117.007 53.5725 117.003 49.1528 117.025 44.733C120.536 43.4617 123.684 41.177 125.955 38.186C128.889 34.375 130.334 29.4463 129.935 24.6404C129.557 19.4937 127.04 14.5588 123.126 11.2331C119.856 8.41096 115.636 6.7527 111.336 6.58687ZM104.015 26.2127C103.954 23.3722 105.978 20.6729 108.69 19.9144C110.543 19.3708 112.634 19.6994 114.212 20.8234C116.023 22.0732 117.126 24.2934 116.998 26.5075C116.919 28.9796 115.297 31.3042 113.03 32.2408C111.918 32.7598 110.659 32.7444 109.467 32.6523C106.405 32.25 103.948 29.3174 104.015 26.2127Z" fill="#50CA81"/>
</svg>
