<svg width="49" height="51" viewBox="0 0 49 51" fill="none" xmlns="http://www.w3.org/2000/svg">
<path d="M10.2083 27.5835L13.2708 18.2085H35.7292L38.7917 27.5835M35.7292 38.0002C34.0958 38.0002 32.6667 36.5418 32.6667 34.8752C32.6667 33.2085 34.0958 31.7502 35.7292 31.7502C37.3625 31.7502 38.7917 33.2085 38.7917 34.8752C38.7917 36.5418 37.3625 38.0002 35.7292 38.0002ZM13.2708 38.0002C11.6375 38.0002 10.2083 36.5418 10.2083 34.8752C10.2083 33.2085 11.6375 31.7502 13.2708 31.7502C14.9042 31.7502 16.3333 33.2085 16.3333 34.8752C16.3333 36.5418 14.9042 38.0002 13.2708 38.0002ZM38.5875 17.1668C38.1792 15.9168 36.9542 15.0835 35.7292 15.0835H13.2708C11.8417 15.0835 10.8208 15.9168 10.4125 17.1668L6.125 29.6668V46.3335C6.125 47.5835 6.94167 48.4168 8.16667 48.4168H10.2083C11.4333 48.4168 12.25 47.5835 12.25 46.3335V44.2502H36.75V46.3335C36.75 47.5835 37.5667 48.4168 38.7917 48.4168H40.8333C42.0583 48.4168 42.875 47.5835 42.875 46.3335V29.6668M16.3333 2.5835L24.5 11.9585L32.6667 2.5835H16.3333Z" fill="#2F80ED"/>
</svg>
