<svg width="11" height="7" viewBox="0 0 11 7" fill="none" xmlns="http://www.w3.org/2000/svg">
<path d="M5.53417 6.38276C5.75869 6.37503 5.97283 6.28321 6.13561 6.12447L10.718 1.61793C10.8936 1.44517 10.995 1.20808 10.9998 0.95885C11.0047 0.709465 10.9126 0.468462 10.744 0.288637C10.5753 0.108932 10.3438 0.00506729 10.1005 0.000218785C9.85716 -0.00475846 9.62178 0.0896782 9.44637 0.262439L5.49993 4.14128L1.55349 0.262774C1.31708 0.0300232 0.977484 -0.0558996 0.662574 0.0374865C0.347661 0.130877 0.105386 0.389157 0.026732 0.715311C-0.0517717 1.04132 0.0453991 1.38553 0.281808 1.61816L4.86422 6.1247L4.86422 6.12483C5.04424 6.30034 5.28616 6.3936 5.53446 6.38299L5.53417 6.38276Z" fill="#469B44"/>
</svg>
