<svg width="25" height="24" viewBox="0 0 25 24" fill="none" xmlns="http://www.w3.org/2000/svg">
<path d="M15.5001 9.99988L11.5001 13.9999L9.5001 11.9999M13.7461 3.45888L14.9671 4.49888C15.2751 4.76088 15.6571 4.91888 16.0591 4.95188L17.6591 5.07988C18.1139 5.11619 18.5408 5.31326 18.8635 5.63576C19.1862 5.95826 19.3835 6.38513 19.4201 6.83988L19.5471 8.43988C19.5801 8.84288 19.7391 9.22588 20.0011 9.53288L21.0411 10.7529C21.3375 11.1004 21.5003 11.5421 21.5003 11.9989C21.5003 12.4556 21.3375 12.8974 21.0411 13.2449L20.0011 14.4659C19.7391 14.7739 19.5801 15.1559 19.5481 15.5589L19.4201 17.1589C19.3838 17.6137 19.1867 18.0406 18.8642 18.3633C18.5417 18.686 18.1148 18.8833 17.6601 18.9199L16.0601 19.0479C15.6573 19.0798 15.2748 19.238 14.9671 19.4999L13.7461 20.5399C13.3985 20.8361 12.9568 20.9988 12.5001 20.9988C12.0434 20.9988 11.6017 20.8361 11.2541 20.5399L10.0341 19.4999C9.72614 19.2378 9.34327 19.0796 8.9401 19.0479L7.3401 18.9199C6.88519 18.8833 6.4582 18.6858 6.13567 18.3629C5.81315 18.04 5.61618 17.6128 5.5801 17.1579L5.4521 15.5589C5.41971 15.1563 5.26119 14.7742 4.9991 14.4669L3.9591 13.2449C3.66323 12.8975 3.50073 12.4562 3.50073 11.9999C3.50073 11.5436 3.66323 11.1022 3.9591 10.7549L4.9991 9.53288C5.2621 9.22488 5.4191 8.84288 5.4511 8.43988L5.5791 6.84088C5.6159 6.38578 5.81352 5.95864 6.13656 5.63597C6.4596 5.3133 6.88696 5.11617 7.3421 5.07988L8.9401 4.95288C9.34303 4.9207 9.72553 4.76217 10.0331 4.49988L11.2541 3.45988C11.6017 3.16367 12.0434 3.00098 12.5001 3.00098C12.9568 3.00098 13.3985 3.16267 13.7461 3.45888Z" stroke="#A3CD39" stroke-width="2" stroke-linecap="round" stroke-linejoin="round"/>
</svg>
