<svg width="4" height="8" viewBox="0 0 4 8" fill="none" xmlns="http://www.w3.org/2000/svg">
<path d="M3.99934 4.31835C3.9945 4.17761 3.93697 4.04337 3.8375 3.94133L1.01376 1.06885C0.905507 0.958807 0.756952 0.895252 0.600785 0.892205C0.444523 0.889159 0.293513 0.946866 0.180837 1.05258C0.0682359 1.15829 0.00315524 1.30345 0.000117309 1.45596C-0.00300168 1.60848 0.0561717 1.75603 0.164421 1.86598L2.59486 4.33981L0.164632 6.81363C0.0187929 6.96183 -0.0350455 7.17471 0.0234695 7.37211C0.0819865 7.56951 0.243822 7.72138 0.448187 7.77068C0.652461 7.81989 0.868135 7.75898 1.0139 7.61079L3.83765 4.73831L3.83773 4.73831C3.9477 4.62546 4.00614 4.47381 3.99949 4.31816L3.99934 4.31835Z" fill="#666666"/>
</svg>
