<svg width="61" height="75" viewBox="0 0 61 75" fill="none" xmlns="http://www.w3.org/2000/svg">
<path fill-rule="evenodd" clip-rule="evenodd" d="M30.5 0C47.3347 0 61 13.6014 61 30.3566C61 39.8727 56.5938 48.9764 51.1146 56.4014C43.3725 66.8992 33.6862 73.9606 33.6862 73.9606C33.6844 73.9606 33.6844 73.9606 33.6844 73.9624C31.7898 75.3459 29.2102 75.3459 27.3156 73.9624C27.3156 73.9606 27.3156 73.9606 27.3138 73.9606C27.3138 73.9606 17.6272 66.8994 9.88541 56.4014C4.40623 48.9761 0 39.8724 0 30.3566C0 13.601 13.6657 0 30.5 0H30.5ZM30.5 17.8576C23.5695 17.8576 17.9407 23.4593 17.9407 30.3572C17.9407 37.2556 23.5695 42.8574 30.5 42.8574C37.4304 42.8574 43.0592 37.2556 43.0592 30.3572C43.0592 23.4593 37.4304 17.8576 30.5 17.8576Z" fill="#055F03"/>
</svg>
