<svg width="25" height="24" viewBox="0 0 25 24" fill="none" xmlns="http://www.w3.org/2000/svg">
<path fill-rule="evenodd" clip-rule="evenodd" d="M9.26758 3.72741C9.26758 3.30946 9.6064 2.97064 10.0243 2.97064H19.2941C19.7121 2.97064 20.0509 3.30946 20.0509 3.72741C20.0509 4.14537 19.7121 4.48419 19.2941 4.48419H10.0243C9.6064 4.48419 9.26758 4.14537 9.26758 3.72741Z" fill="#828282"/>
<path fill-rule="evenodd" clip-rule="evenodd" d="M2.81354 9.32196C3.23149 9.32196 3.57031 9.66078 3.57031 10.0787L3.57031 19.3485C3.57031 19.7665 3.23149 20.1053 2.81354 20.1053C2.39559 20.1053 2.05677 19.7665 2.05677 19.3485L2.05677 10.0787C2.05677 9.66078 2.39559 9.32196 2.81354 9.32196Z" fill="#828282"/>
<path fill-rule="evenodd" clip-rule="evenodd" d="M6.48828 15.4708L2.05647 15.4708L2.05647 13.9572L6.48828 13.9572L6.48828 15.4708Z" fill="#828282"/>
<path fill-rule="evenodd" clip-rule="evenodd" d="M13.9023 7.57422L13.9023 4.00072L15.4159 4.00072L15.4159 7.57422L13.9023 7.57422Z" fill="#828282"/>
<path fill-rule="evenodd" clip-rule="evenodd" d="M10.9118 7.57421C10.3817 7.57421 9.95198 8.00395 9.95198 8.53407V9.89457H7.79176C7.26164 9.89457 6.8319 10.3243 6.8319 10.8544V19.263C6.8319 19.7931 7.26164 20.2228 7.79176 20.2228H10.2152C10.6332 20.2228 10.972 20.5617 10.972 20.9796C10.972 21.3976 10.6332 21.7364 10.2152 21.7364H7.79176C6.42574 21.7364 5.31836 20.629 5.31836 19.263V10.8544C5.31836 9.4884 6.42574 8.38102 7.79176 8.38102H8.4431C8.52213 7.08629 9.59721 6.06067 10.9118 6.06067H18.5189C19.8335 6.06067 20.9086 7.08629 20.9876 8.38102H21.4389C22.805 8.38102 23.9123 9.4884 23.9123 10.8544V17.0626C23.9123 18.4287 22.805 19.536 21.4389 19.536H20.9551L19.5435 20.9875C19.0778 21.4663 18.4383 21.7364 17.7704 21.7364H14.3553C13.9374 21.7364 13.5986 21.3976 13.5986 20.9796C13.5986 20.5617 13.9374 20.2228 14.3553 20.2228H17.7704C18.0296 20.2228 18.2778 20.118 18.4585 19.9322L20.3159 18.0225H21.4389C21.9691 18.0225 22.3988 17.5928 22.3988 17.0626V10.8544C22.3988 10.3243 21.9691 9.89457 21.4389 9.89457H19.4787V8.53407C19.4787 8.00395 19.049 7.57421 18.5189 7.57421H10.9118Z" fill="#828282"/>
<path fill-rule="evenodd" clip-rule="evenodd" d="M16.5635 8.93792C16.8619 9.23057 16.8666 9.70971 16.5739 10.0081L13.4585 13.1847H17.0908V15.5651L12.8502 19.3954C12.54 19.6756 12.0614 19.6512 11.7813 19.3411C11.5011 19.0309 11.5255 18.5524 11.8356 18.2722L15.5773 14.8927V14.6982H12.0651C11.2422 14.6982 10.8261 13.7071 11.4022 13.1197L15.4934 8.94831C15.786 8.64992 16.2652 8.64526 16.5635 8.93792Z" fill="#828282"/>
</svg>
