<svg width="25" height="24" viewBox="0 0 25 24" fill="none" xmlns="http://www.w3.org/2000/svg">
<path fill-rule="evenodd" clip-rule="evenodd" d="M15.0248 4.86583C12.6906 4.86583 10.6167 5.97921 9.30452 7.70704C9.05272 8.0386 8.57982 8.10326 8.24826 7.85146C7.9167 7.59967 7.85204 7.12676 8.10383 6.7952C9.68879 4.70816 12.1993 3.35815 15.0248 3.35815C19.8218 3.35815 23.7104 7.24684 23.7104 12.0438C23.7104 16.8407 19.8218 20.7294 15.0248 20.7294H7.3409C6.92457 20.7294 6.58706 20.3919 6.58706 19.9756C6.58706 19.5592 6.92457 19.2217 7.3409 19.2217H15.0248C18.9891 19.2217 22.2028 16.0081 22.2028 12.0438C22.2028 8.07951 18.9891 4.86583 15.0248 4.86583ZM7.6412 9.04352C8.04005 9.16291 8.2666 9.58302 8.14721 9.98187C8.02774 10.381 7.94205 10.7949 7.89351 11.2204C7.84633 11.634 7.47274 11.9311 7.05909 11.8839C6.64544 11.8367 6.34836 11.4631 6.39555 11.0495C6.45427 10.5347 6.55803 10.0334 6.70285 9.54954C6.82224 9.15069 7.24235 8.92414 7.6412 9.04352ZM7.07945 12.6426C7.48986 12.5727 7.87927 12.8487 7.94921 13.2591C8.00697 13.5981 8.0885 13.9289 8.19199 14.2497C8.31981 14.646 8.10222 15.0708 7.70599 15.1986C7.30976 15.3264 6.88494 15.1088 6.75712 14.7126C6.63168 14.3237 6.53291 13.9229 6.46295 13.5124C6.39302 13.102 6.66903 12.7126 7.07945 12.6426ZM8.05622 15.9094C8.39934 15.6736 8.86865 15.7606 9.10445 16.1037C9.42266 16.5667 9.79387 16.9907 10.2093 17.3668C10.518 17.6463 10.5417 18.123 10.2623 18.4316C9.98288 18.7403 9.50616 18.764 9.19751 18.4846C8.69543 18.0301 8.24672 17.5176 7.86189 16.9576C7.62609 16.6145 7.7131 16.1452 8.05622 15.9094Z" fill="#828282"/>
<path fill-rule="evenodd" clip-rule="evenodd" d="M12.4803 16.6135C12.6086 16.2175 13.0338 16.0005 13.4298 16.1288C14.7508 16.557 16.2461 16.3845 17.4726 15.5331C18.7531 14.6443 19.443 13.2221 19.4489 11.7706C19.4506 11.3543 19.7895 11.0181 20.2059 11.0199C20.6222 11.0216 20.9583 11.3604 20.9566 11.7768C20.9487 13.6991 20.0339 15.5906 18.3323 16.7717C16.7027 17.9028 14.7145 18.1301 12.965 17.5631C12.5689 17.4347 12.3519 17.0096 12.4803 16.6135Z" fill="#828282"/>
<path fill-rule="evenodd" clip-rule="evenodd" d="M17.9336 7.73168C17.7281 8.09376 17.268 8.2207 16.9059 8.01521C16.1258 7.57246 15.2765 7.37692 14.4176 7.47337C14.1384 7.50473 13.8685 7.5657 13.6089 7.65375C13.2146 7.78749 12.7866 7.57629 12.6529 7.18203C12.5191 6.78776 12.7303 6.35972 13.1246 6.22598C13.4853 6.10361 13.8612 6.01871 14.2493 5.97512C15.456 5.83961 16.6221 6.12054 17.6501 6.70398C18.0122 6.90948 18.1391 7.36959 17.9336 7.73168Z" fill="#828282"/>
<path fill-rule="evenodd" clip-rule="evenodd" d="M14.4125 12.9583C14.1707 12.6194 14.2493 12.1486 14.5882 11.9068L18.6799 8.98655C19.0188 8.7447 19.4896 8.82336 19.7314 9.16224C19.9733 9.50112 19.8946 9.9719 19.5558 10.2138L15.464 13.1339C15.1252 13.3758 14.6544 13.2971 14.4125 12.9583Z" fill="#828282"/>
<path fill-rule="evenodd" clip-rule="evenodd" d="M3.5293 7.58172C3.5293 7.16539 3.8668 6.82788 4.28314 6.82788H11.2804C11.6968 6.82788 12.0343 7.16539 12.0343 7.58172C12.0343 7.99805 11.6968 8.33556 11.2804 8.33556H4.28314C3.8668 8.33556 3.5293 7.99805 3.5293 7.58172Z" fill="#828282"/>
<path fill-rule="evenodd" clip-rule="evenodd" d="M22.2773 1.76312L19.9719 4.06855L21.038 5.13464L23.3434 2.82921L22.2773 1.76312Z" fill="#828282"/>
<path fill-rule="evenodd" clip-rule="evenodd" d="M24.252 3.73792L21.3682 0.854125L20.3021 1.92021L23.1859 4.804L24.252 3.73792Z" fill="#828282"/>
<path fill-rule="evenodd" clip-rule="evenodd" d="M7.54688 1.76282L9.85231 4.06825L8.78622 5.13434L6.48079 2.82891L7.54688 1.76282Z" fill="#828282"/>
<path fill-rule="evenodd" clip-rule="evenodd" d="M5.57227 3.73792L8.45606 0.854125L9.52214 1.92021L6.63835 4.804L5.57227 3.73792Z" fill="#828282"/>
<path fill-rule="evenodd" clip-rule="evenodd" d="M2.04297 11.1348C2.04297 10.7184 2.38047 10.3809 2.79681 10.3809H9.79411C10.2104 10.3809 10.5479 10.7184 10.5479 11.1348C10.5479 11.5511 10.2104 11.8886 9.79411 11.8886H2.79681C2.38047 11.8886 2.04297 11.5511 2.04297 11.1348Z" fill="#828282"/>
<path fill-rule="evenodd" clip-rule="evenodd" d="M2.53711 14.6877C2.53711 14.2714 2.87461 13.9339 3.29095 13.9339H10.2882C10.7046 13.9339 11.0421 14.2714 11.0421 14.6877C11.0421 15.1041 10.7046 15.4416 10.2882 15.4416H3.29095C2.87461 15.4416 2.53711 15.1041 2.53711 14.6877Z" fill="#828282"/>
</svg>
