<svg width="28" height="29" viewBox="0 0 28 29" fill="none" xmlns="http://www.w3.org/2000/svg">
<g clip-path="url(#clip0_2663_1169)">
<path fill-rule="evenodd" clip-rule="evenodd" d="M23.625 11V20.625H9.625V3.125H15.75V7.9375C15.75 9.628 17.122 11 18.8125 11H23.625ZM18.375 3.33675L23.4132 8.375H18.8125C18.6965 8.375 18.5852 8.32891 18.5031 8.24686C18.4211 8.16481 18.375 8.05353 18.375 7.9375V3.33675ZM8.75 0.5C8.28587 0.5 7.84075 0.684374 7.51256 1.01256C7.18437 1.34075 7 1.78587 7 2.25V5.75H3.9375C2.73 5.75 1.75 6.73 1.75 7.9375V26.3125C1.75 27.52 2.73 28.5 3.9375 28.5H18.375C19.5825 28.5 20.5625 27.52 20.5625 26.3125V23.39C20.5626 23.3432 20.5603 23.2965 20.5555 23.25H24.5C24.9641 23.25 25.4092 23.0656 25.7374 22.7374C26.0656 22.4092 26.25 21.9641 26.25 21.5V8.2245C26.2499 7.76041 26.0655 7.31536 25.7372 6.98725L19.7628 1.01275C19.4346 0.684539 18.9896 0.500099 18.5255 0.5H8.75ZM7 21.5V8.375H4.375V25.875H17.9375V23.39C17.9375 23.3428 17.9392 23.2955 17.9445 23.25H8.75C8.28587 23.25 7.84075 23.0656 7.51256 22.7374C7.18437 22.4092 7 21.9641 7 21.5Z" fill="#3B80CC"/>
</g>
<defs>
<clipPath id="clip0_2663_1169">
<rect width="28" height="28" fill="white" transform="translate(0 0.5)"/>
</clipPath>
</defs>
</svg>
