<svg width="32" height="32" viewBox="0 0 32 32" fill="none" xmlns="http://www.w3.org/2000/svg">
<path d="M22.8569 4H3.42829C2.16593 4 1.14258 5.02335 1.14258 6.28571V20C1.14258 21.2624 2.16593 22.2857 3.42829 22.2857H22.8569C24.1192 22.2857 25.1426 21.2624 25.1426 20V6.28571C25.1426 5.02335 24.1192 4 22.8569 4Z" stroke="#3B80CC" stroke-width="2.2" stroke-linecap="round" stroke-linejoin="round"/>
<path d="M13.1434 16.571C15.037 16.571 16.572 15.036 16.572 13.1424C16.572 11.2489 15.037 9.71387 13.1434 9.71387C11.2499 9.71387 9.71484 11.2489 9.71484 13.1424C9.71484 15.036 11.2499 16.571 13.1434 16.571Z" stroke="#3B80CC" stroke-width="2.2" stroke-linecap="round" stroke-linejoin="round"/>
<path d="M8 28.0004H28.5714C29.1776 28.0004 29.759 27.7596 30.1877 27.3309C30.6163 26.9023 30.8571 26.3209 30.8571 25.7147V14.2861" stroke="#3B80CC" stroke-width="2.2" stroke-linecap="round" stroke-linejoin="round"/>
</svg>
