<svg width="22" height="29" viewBox="0 0 22 29" fill="none" xmlns="http://www.w3.org/2000/svg">
<g clip-path="url(#clip0_2663_1173)">
<path d="M11 0.5L0 4.7V13.226C0 20.296 4.68875 26.89 11 28.5C17.3113 26.89 22 20.296 22 13.226V4.7L11 0.5ZM19.25 13.226C19.25 18.826 15.7437 24.006 11 25.588C6.25625 24.006 2.75 18.84 2.75 13.226V6.534L11 3.566L19.25 6.534V13.226ZM6.6275 12.526L4.675 14.5L9.5425 19.456L17.325 11.532L15.3862 9.558L9.55625 15.494L6.6275 12.526Z" fill="#3B80CC"/>
</g>
<defs>
<clipPath id="clip0_2663_1173">
<rect width="22" height="28" fill="white" transform="translate(0 0.5)"/>
</clipPath>
</defs>
</svg>
