<svg width="16" height="16" viewBox="0 0 16 16" fill="none" xmlns="http://www.w3.org/2000/svg">
<g clip-path="url(#clip0_2663_782)">
<path d="M9.57317 2.71878L10.1911 2.10086C11.2149 1.07706 12.8748 1.07706 13.8986 2.10086C14.9224 3.12466 14.9224 4.78457 13.8986 5.80838L13.2807 6.4263M9.57317 2.71878C9.57317 2.71878 9.65041 4.03186 10.809 5.19046C11.9676 6.34906 13.2807 6.4263 13.2807 6.4263M9.57317 2.71878L7.9998 4.29216M13.2807 6.4263L9.77361 9.93338L7.70731 11.9997L7.59986 12.1071C7.21509 12.4919 7.0227 12.6843 6.81057 12.8497C6.56034 13.0449 6.28959 13.2122 6.00311 13.3488C5.76026 13.4645 5.50215 13.5506 4.98592 13.7226L2.79841 14.4518M2.79841 14.4518L2.26369 14.63C2.00965 14.7147 1.72957 14.6486 1.54022 14.4593C1.35087 14.2699 1.28475 13.9898 1.36943 13.7358L1.54767 13.2011M2.79841 14.4518L1.54767 13.2011M1.54767 13.2011L2.27684 11.0136C2.44891 10.4973 2.53495 10.2392 2.65069 9.99636C2.78722 9.70988 2.95455 9.43913 3.14973 9.1889C3.31518 8.97677 3.50757 8.78438 3.89235 8.39961L5.66646 6.62549" stroke="#98AEC3" stroke-width="1.5" stroke-linecap="round"/>
</g>
<defs>
<clipPath id="clip0_2663_782">
<rect width="16" height="16" fill="white"/>
</clipPath>
</defs>
</svg>
