<svg width="24" height="24" viewBox="0 0 24 24" fill="none" xmlns="http://www.w3.org/2000/svg">
<g clip-path="url(#clip0_2925_767)">
<path fill-rule="evenodd" clip-rule="evenodd" d="M24 12C24 18.6276 18.6276 24 12 24C5.3724 24 0 18.6276 0 12C0 5.3724 5.3724 0 12 0C18.6276 0 24 5.3724 24 12ZM7.2 7.5C7.43869 7.5 7.66761 7.59482 7.8364 7.7636C8.00518 7.93239 8.1 8.16131 8.1 8.4V11.1H11.1V8.4C11.1 8.16131 11.1948 7.93239 11.3636 7.7636C11.5324 7.59482 11.7613 7.5 12 7.5C12.2387 7.5 12.4676 7.59482 12.6364 7.7636C12.8052 7.93239 12.9 8.16131 12.9 8.4V11.1H13.2C13.7712 11.1 14.1552 11.1 14.4516 11.0796C14.7408 11.0592 14.8812 11.0244 14.9736 10.986C15.342 10.8336 15.6336 10.542 15.786 10.1736C15.8244 10.0812 15.8592 9.9408 15.8796 9.6516C15.9 9.3552 15.9 8.9712 15.9 8.4C15.9 8.16131 15.9948 7.93239 16.1636 7.7636C16.3324 7.59482 16.5613 7.5 16.8 7.5C17.0387 7.5 17.2676 7.59482 17.4364 7.7636C17.6052 7.93239 17.7 8.16131 17.7 8.4V8.43C17.7 8.964 17.7 9.4092 17.676 9.774C17.6605 10.1469 17.5835 10.5146 17.448 10.8624C17.2823 11.2629 17.0393 11.6268 16.7329 11.9334C16.4266 12.24 16.0628 12.4832 15.6624 12.6492C15.3144 12.7932 14.9544 12.8496 14.574 12.8748C14.2092 12.9 13.764 12.9 13.23 12.9H12.9V15.6C12.9 15.8387 12.8052 16.0676 12.6364 16.2364C12.4676 16.4052 12.2387 16.5 12 16.5C11.7613 16.5 11.5324 16.4052 11.3636 16.2364C11.1948 16.0676 11.1 15.8387 11.1 15.6V12.9H8.1V15.6C8.1 15.8387 8.00518 16.0676 7.8364 16.2364C7.66761 16.4052 7.43869 16.5 7.2 16.5C6.96131 16.5 6.73239 16.4052 6.5636 16.2364C6.39482 16.0676 6.3 15.8387 6.3 15.6V8.4C6.3 8.28181 6.32328 8.16478 6.36851 8.05559C6.41374 7.94639 6.48003 7.84718 6.5636 7.7636C6.64718 7.68003 6.74639 7.61374 6.85559 7.56851C6.96478 7.52328 7.08181 7.5 7.2 7.5Z" fill="#D12D1E"/>
</g>
<defs>
<clipPath id="clip0_2925_767">
<rect width="24" height="24" fill="white"/>
</clipPath>
</defs>
</svg>
