<svg width="24" height="24" viewBox="0 0 24 24" fill="none" xmlns="http://www.w3.org/2000/svg">
<circle cx="12" cy="12" r="12" fill="#D12D1E"/>
<g clip-path="url(#clip0_2925_777)">
<path d="M19 11.5521V15.3438C19 15.4695 18.9506 15.59 18.8627 15.6789C18.7748 15.7678 18.6556 15.8177 18.5312 15.8177C18.4069 15.8177 18.2877 15.7678 18.1998 15.6789C18.1119 15.59 18.0625 15.4695 18.0625 15.3438V13.9219H17.125V14.8698C17.125 15.1212 17.0262 15.3623 16.8504 15.5401C16.6746 15.7178 16.4361 15.8177 16.1875 15.8177H15.4439L13.375 17.9096C13.2883 17.998 13.185 18.0681 13.0712 18.1158C12.9575 18.1635 12.8355 18.1879 12.7123 18.1875H8.88144C8.75829 18.1879 8.63628 18.1635 8.52251 18.1158C8.40874 18.0681 8.30549 17.998 8.21875 17.9096L6.1498 15.8177C6.06237 15.73 5.99305 15.6256 5.94587 15.5106C5.8987 15.3955 5.87461 15.2722 5.875 15.1476V13.9219H4.9375V15.3438C4.9375 15.4695 4.88811 15.59 4.80021 15.6789C4.7123 15.7678 4.59307 15.8177 4.46875 15.8177C4.34443 15.8177 4.2252 15.7678 4.13729 15.6789C4.04939 15.59 4 15.4695 4 15.3438V11.5521C4 11.4264 4.04939 11.3058 4.13729 11.2169C4.2252 11.1281 4.34443 11.0781 4.46875 11.0781C4.59307 11.0781 4.7123 11.1281 4.80021 11.2169C4.88811 11.3058 4.9375 11.4264 4.9375 11.5521V12.974H5.875V9.65625C5.875 9.40485 5.97377 9.16374 6.14959 8.98597C6.3254 8.8082 6.56386 8.70833 6.8125 8.70833H10.5625V7.76042H9.15625C9.03193 7.76042 8.9127 7.71048 8.82479 7.6216C8.73689 7.53271 8.6875 7.41216 8.6875 7.28646C8.6875 7.16076 8.73689 7.0402 8.82479 6.95132C8.9127 6.86243 9.03193 6.8125 9.15625 6.8125H12.9062C13.0306 6.8125 13.1498 6.86243 13.2377 6.95132C13.3256 7.0402 13.375 7.16076 13.375 7.28646C13.375 7.41216 13.3256 7.53271 13.2377 7.6216C13.1498 7.71048 13.0306 7.76042 12.9062 7.76042H11.5V8.70833H12.7123C12.8355 8.70794 12.9575 8.73229 13.0712 8.78C13.185 8.8277 13.2883 8.89779 13.375 8.98619L15.4439 11.0781H16.1875C16.4361 11.0781 16.6746 11.178 16.8504 11.3558C17.0262 11.5335 17.125 11.7746 17.125 12.026V12.974H18.0625V11.5521C18.0625 11.4264 18.1119 11.3058 18.1998 11.2169C18.2877 11.1281 18.4069 11.0781 18.5312 11.0781C18.6556 11.0781 18.7748 11.1281 18.8627 11.2169C18.9506 11.3058 19 11.4264 19 11.5521Z" fill="white"/>
</g>
<defs>
<clipPath id="clip0_2925_777">
<rect width="15" height="13" fill="white" transform="translate(4 6)"/>
</clipPath>
</defs>
</svg>
