<svg width="24" height="24" viewBox="0 0 24 24" fill="none" xmlns="http://www.w3.org/2000/svg">
<circle cx="12" cy="12" r="12" fill="#D12D1E"/>
<g clip-path="url(#clip0_2925_797)">
<path d="M12 6C8.68651 6 6.00001 8.87031 6.00001 12.4138C5.99688 13.9786 6.53299 15.4908 7.50801 16.6676C7.53751 16.702 7.56426 16.7364 7.59376 16.7678C7.83001 17 7.90176 17 8.08926 17C8.27676 17 8.40001 17 8.58751 16.7652C9.40001 15.7477 10.65 15.3077 12 15.3077C13.35 15.3077 14.6017 15.7495 15.4125 16.7652C15.6 17 15.7205 17 15.9107 17C16.101 17 16.1932 17 16.4062 16.7678C16.4367 16.7348 16.4625 16.702 16.492 16.6676C17.467 15.4908 18.0031 13.9786 18 12.4138C18 8.87031 15.3135 6 12 6ZM11.6 7.69231H12.4V9.38462H11.6V7.69231ZM9.20001 12.7692H7.60001V11.9231H9.20001V12.7692ZM9.73726 10.5512L8.60601 9.35447L9.17151 8.75635L10.303 9.95286L9.73726 10.5512ZM12.565 12.8591C12.5164 12.9303 12.4573 12.9928 12.39 13.0442C12.2275 13.1642 12.0267 13.2115 11.8314 13.1759C11.6361 13.1402 11.462 13.0246 11.3468 12.854C11.2316 12.6834 11.1846 12.4717 11.2161 12.2647C11.2476 12.0578 11.355 11.8723 11.515 11.7486L13.6 10.6538L12.565 12.8591ZM13.697 9.95286L14.8285 8.75635L15.394 9.35447L14.2627 10.5512L13.697 9.95286ZM16.4 12.7692H14.8V11.9231H16.4V12.7692Z" fill="#F8F8F8"/>
</g>
<defs>
<clipPath id="clip0_2925_797">
<rect width="12" height="11" fill="white" transform="translate(6 6)"/>
</clipPath>
</defs>
</svg>
