<svg width="136" height="90" viewBox="0 0 136 90" fill="none" xmlns="http://www.w3.org/2000/svg">
<rect width="136" height="90" fill="#181818"/>
<rect width="100" height="23" transform="translate(18 34)" fill="#181818"/>
<path d="M35.688 54L35.664 42.864L30.144 52.08H28.752L23.232 43.008V54H20.256V37.2H22.824L29.496 48.336L36.048 37.2H38.616L38.64 54H35.688ZM54.0739 50.112H45.6739L44.0179 54H40.8019L48.3619 37.2H51.4339L59.0179 54H55.7539L54.0739 50.112ZM53.0419 47.664L49.8739 40.32L46.7299 47.664H53.0419ZM64.122 54.24C63.05 54.24 62.058 54.032 61.146 53.616C60.25 53.184 59.514 52.584 58.938 51.816L60.714 49.68C61.642 50.96 62.754 51.6 64.05 51.6C65.794 51.6 66.666 50.568 66.666 48.504V39.816H60.69V37.2H69.786V48.336C69.786 50.304 69.306 51.784 68.346 52.776C67.386 53.752 65.978 54.24 64.122 54.24ZM82.0103 54.24C80.2983 54.24 78.7543 53.872 77.3783 53.136C76.0023 52.384 74.9223 51.352 74.1383 50.04C73.3543 48.712 72.9623 47.232 72.9623 45.6C72.9623 43.968 73.3543 42.496 74.1383 41.184C74.9223 39.856 76.0023 38.824 77.3783 38.088C78.7543 37.336 80.2983 36.96 82.0103 36.96C83.7223 36.96 85.2663 37.336 86.6423 38.088C88.0183 38.824 89.0983 39.848 89.8823 41.16C90.6663 42.472 91.0583 43.952 91.0583 45.6C91.0583 47.248 90.6663 48.728 89.8823 50.04C89.0983 51.352 88.0183 52.384 86.6423 53.136C85.2663 53.872 83.7223 54.24 82.0103 54.24ZM82.0103 51.504C83.1303 51.504 84.1383 51.256 85.0343 50.76C85.9303 50.248 86.6343 49.544 87.1463 48.648C87.6583 47.736 87.9143 46.72 87.9143 45.6C87.9143 44.48 87.6583 43.472 87.1463 42.576C86.6343 41.664 85.9303 40.96 85.0343 40.464C84.1383 39.952 83.1303 39.696 82.0103 39.696C80.8903 39.696 79.8823 39.952 78.9863 40.464C78.0903 40.96 77.3863 41.664 76.8743 42.576C76.3623 43.472 76.1063 44.48 76.1063 45.6C76.1063 46.72 76.3623 47.736 76.8743 48.648C77.3863 49.544 78.0903 50.248 78.9863 50.76C79.8823 51.256 80.8903 51.504 82.0103 51.504ZM105.357 54L101.925 49.08C101.781 49.096 101.565 49.104 101.277 49.104H97.4854V54H94.3654V37.2H101.277C102.733 37.2 103.997 37.44 105.069 37.92C106.157 38.4 106.989 39.088 107.565 39.984C108.141 40.88 108.429 41.944 108.429 43.176C108.429 44.44 108.117 45.528 107.493 46.44C106.885 47.352 106.005 48.032 104.853 48.48L108.717 54H105.357ZM105.285 43.176C105.285 42.104 104.933 41.28 104.229 40.704C103.525 40.128 102.493 39.84 101.133 39.84H97.4854V46.536H101.133C102.493 46.536 103.525 46.248 104.229 45.672C104.933 45.08 105.285 44.248 105.285 43.176Z" fill="white"/>
</svg>
