<?xml version="1.0" encoding="UTF-8" standalone="no"?>
<!-- Created with Inkscape (http://www.inkscape.org/) -->

<svg
   xmlns:dc="http://purl.org/dc/elements/1.1/"
   xmlns:cc="http://creativecommons.org/ns#"
   xmlns:rdf="http://www.w3.org/1999/02/22-rdf-syntax-ns#"
   xmlns:svg="http://www.w3.org/2000/svg"
   xmlns="http://www.w3.org/2000/svg"
   xmlns:sodipodi="http://sodipodi.sourceforge.net/DTD/sodipodi-0.dtd"
   xmlns:inkscape="http://www.inkscape.org/namespaces/inkscape"
   width="333.9082"
   height="167.47021"
   id="svg2"
   version="1.1"
   inkscape:version="0.48.4 r9939"
   sodipodi:docname="Nouveau document 1">
  <defs
     id="defs4" />
  <sodipodi:namedview
     id="base"
     pagecolor="#ffffff"
     bordercolor="#666666"
     borderopacity="1.0"
     inkscape:pageopacity="0.0"
     inkscape:pageshadow="2"
     inkscape:zoom="1"
     inkscape:cx="238.47963"
     inkscape:cy="139.00872"
     inkscape:document-units="px"
     inkscape:current-layer="layer1"
     showgrid="false"
     fit-margin-top="0"
     fit-margin-left="0"
     fit-margin-right="0"
     fit-margin-bottom="0"
     inkscape:window-width="1680"
     inkscape:window-height="998"
     inkscape:window-x="-8"
     inkscape:window-y="-8"
     inkscape:window-maximized="1" />
  <metadata
     id="metadata7">
    <rdf:RDF>
      <cc:Work
         rdf:about="">
        <dc:format>image/svg+xml</dc:format>
        <dc:type
           rdf:resource="http://purl.org/dc/dcmitype/StillImage" />
        <dc:title></dc:title>
      </cc:Work>
    </rdf:RDF>
  </metadata>
  <g
     inkscape:label="Calque 1"
     inkscape:groupmode="layer"
     id="layer1"
     transform="translate(-90.01231,-483.28295)">
    <path
       style="fill:#c41230;fill-opacity:1"
       d="m 247.75605,650.63158 c -11.07296,-0.29197 -23.28388,-1.2664 -34.09302,-2.72066 -46.01936,-6.19132 -84.58205,-21.9716 -106.04989,-43.39679 -9.10364,-9.08555 -14.872517,-19.06791 -16.817948,-29.10146 -0.633564,-3.26756 -0.782882,-4.86858 -0.782882,-8.39387 0,-3.52528 0.149318,-5.12632 0.782882,-8.39386 1.278827,-6.59553 4.316026,-13.39614 8.797615,-19.69871 10.135183,-14.25339 27.919323,-26.94294 51.253783,-36.57121 38.89161,-16.04745 89.81559,-22.40414 139.40403,-17.40137 58.21223,5.87278 106.10009,27.11552 125.10254,55.49467 8.68722,12.97393 10.81535,27.0654 6.16734,40.83762 -2.68417,7.95326 -7.89899,15.90121 -15.24059,23.22819 -20.34051,20.30011 -56.13741,35.60808 -99.10426,42.38039 -19.21633,3.02884 -39.02714,4.27479 -59.4196,3.73706 z m 25.38754,-10.71117 c 23.3003,-1.4424 42.97576,-4.86728 62.14946,-10.81828 15.213,-4.72171 29.39365,-11.25837 40.28077,-18.56772 5.48651,-3.68352 9.29224,-6.79215 13.59665,-11.10608 5.11164,-5.12299 8.41015,-9.61788 11.09594,-15.12052 3.00437,-6.15538 4.16763,-10.981 4.16763,-17.28901 0,-6.34468 -1.23936,-11.4273 -4.28246,-17.562 -2.63142,-5.30481 -5.98825,-9.84359 -10.98111,-14.84753 -7.33256,-7.3488 -16.0431,-13.40936 -27.55537,-19.17222 -21.55094,-10.78809 -48.51488,-17.84623 -78.55308,-20.5622 -16.63752,-1.50434 -35.53968,-1.50508 -52.231,-0.002 -42.2311,3.80279 -78.48303,16.33869 -100.91323,34.89581 -2.84517,2.35387 -7.9169,7.47438 -10.04279,10.13936 -7.60112,9.52865 -11.18954,19.81006 -10.3719,29.71723 0.89081,10.79365 5.75145,20.31144 15.22014,29.80314 7.17246,7.1899 15.70031,13.16577 26.79067,18.77352 25.25452,12.76978 56.28649,20.08825 92.78434,21.88196 4.1221,0.20259 24.82801,0.0853 28.84534,-0.16339 z M 154.75937,609.34363 c -0.20019,-0.0832 -0.52778,-0.33333 -0.72796,-0.55583 -0.36126,-0.40156 -0.36433,-0.69402 -0.41073,-39.36808 l -0.0467,-38.96352 -0.48199,-0.50307 c -0.45577,-0.47575 -0.5818,-0.50588 -2.31911,-0.55462 l -1.83715,-0.0516 0,-2.45686 0,-2.45686 13.22436,-0.0467 13.22439,-0.0467 0.56133,0.47233 0.56135,0.47234 0,14.04751 c 0,15.43393 -0.0415,14.85647 1.0682,14.85647 0.68878,0 0.92737,-0.28712 4.76376,-5.73266 10.16289,-14.42573 15.75344,-22.27161 16.25772,-22.81643 1.24262,-1.34254 0.67935,-1.28874 13.54305,-1.29319 l 11.51912,-0.004 0.4393,0.43928 c 0.5398,0.5398 0.74317,1.27686 0.49763,1.8035 -0.15576,0.3341 -5.13962,7.73452 -22.54407,33.47529 -1.90009,2.8102 -2.43075,3.72573 -2.42617,4.18576 0.005,0.47716 1.24091,2.33192 6.5178,9.77933 23.31997,32.91199 23.39469,33.01928 23.46664,33.68441 0.0541,0.50015 -0.0361,0.7775 -0.38483,1.18294 l -0.45549,0.52962 -12.03002,0.0493 c -11.86137,0.0486 -12.04246,0.044 -12.91569,-0.33168 -0.48711,-0.20955 -1.08875,-0.60026 -1.33699,-0.86827 -0.24823,-0.268 -5.73193,-7.89879 -12.18598,-16.95731 -6.45408,-9.05854 -11.86549,-16.57835 -12.02537,-16.71071 -0.44889,-0.3716 -1.26952,-0.19422 -1.53423,0.33164 -0.17895,0.3555 -0.2296,4.06382 -0.2317,16.96038 l -0.003,16.50541 -0.43912,0.51061 -0.43914,0.51064 -10.25276,0.0362 c -5.63901,0.0199 -10.41655,-0.0319 -10.61673,-0.11501 z m 91.35437,-0.082 c -0.30272,-0.13314 -0.65078,-0.46239 -0.77345,-0.73168 -0.1739,-0.38161 -0.22309,-9.03991 -0.22309,-39.25882 l 0,-38.76922 -0.53197,-0.53196 c -0.51391,-0.5139 -0.59116,-0.53197 -2.27487,-0.53197 l -1.7429,0 0,-2.54786 0,-2.54785 13.46435,0 13.46437,0 0.59433,0.53105 0.59434,0.53102 0,41.50443 0,41.50442 -0.50452,0.50462 -0.50451,0.5046 -10.50585,0.0407 c -8.41512,0.0325 -10.61538,-0.008 -11.05623,-0.20144 z m 39.13216,0.032 c -0.56534,-0.32424 -0.80686,-0.72932 -0.81316,-1.36392 -0.003,-0.32054 2.58029,-8.30534 5.74104,-17.74399 3.16076,-9.43865 8.18772,-24.44988 11.171,-33.35827 2.9833,-8.9084 6.12987,-18.27853 6.99243,-20.82253 0.86256,-2.54399 1.56829,-4.84845 1.56829,-5.12104 0,-0.27258 -0.15626,-0.68894 -0.34726,-0.92523 -0.31119,-0.38504 -0.53323,-0.43909 -2.13838,-0.52064 l -1.79112,-0.091 -0.0506,-2.50235 -0.0506,-2.50235 16.1567,0.002 c 10.60592,0 16.39046,0.0659 16.83704,0.18994 0.3742,0.10392 0.77067,0.35776 0.88109,0.56407 0.22752,0.42512 2.03928,5.78136 10.57896,31.27514 13.89248,41.47379 17.06897,51.04608 17.06897,51.43717 0,0.6412 -0.36041,1.27975 -0.8476,1.50172 -0.30809,0.14037 -3.5384,0.20197 -10.58082,0.20179 -9.29159,-1.8e-4 -10.18942,-0.0269 -10.76137,-0.31848 -0.34321,-0.17501 -0.77466,-0.52399 -0.95876,-0.77551 -0.18409,-0.25151 -1.59572,-4.38722 -3.13697,-9.19047 -14.69124,-45.78498 -14.28459,-44.53553 -14.61481,-44.90361 -0.36479,-0.4066 -0.6426,-0.40276 -1.01986,0.014 -0.3,0.33149 -0.86578,2.07235 -8.85265,27.23885 -2.3189,7.30689 -4.81884,15.16883 -5.55539,17.47101 -0.73655,2.30217 -1.68066,5.27083 -2.09803,6.59703 -0.82061,2.60752 -1.18336,3.22926 -2.11001,3.61644 -0.79962,0.33409 -20.68901,0.36321 -21.26806,0.0311 z"
       id="path2996"
       inkscape:connector-curvature="0" />
  </g>
</svg>
