<svg width="48" height="48" viewBox="0 0 48 48" fill="none" xmlns="http://www.w3.org/2000/svg">
<path fill-rule="evenodd" clip-rule="evenodd" d="M7.24048 8.27117C7.24048 4.94107 9.94006 2.24149 13.2702 2.24149H29.7771C33.1072 2.24149 35.8068 4.94106 35.8068 8.27117V43.8139H32.8068V8.27117C32.8068 6.59792 31.4504 5.24149 29.7771 5.24149H13.2702C11.5969 5.24149 10.2405 6.59792 10.2405 8.27117V43.8139H7.24048V8.27117Z" fill="#828282"/>
<path fill-rule="evenodd" clip-rule="evenodd" d="M2.34009 43.8141C2.34009 42.9857 3.01166 42.3141 3.84009 42.3141H11.5201C12.3485 42.3141 13.0201 42.9857 13.0201 43.8141C13.0201 44.6425 12.3485 45.3141 11.5201 45.3141H3.84009C3.01166 45.3141 2.34009 44.6425 2.34009 43.8141ZM20.5801 43.8141C20.5801 42.9857 21.2517 42.3141 22.0801 42.3141H43.2001C44.0285 42.3141 44.7001 42.9857 44.7001 43.8141C44.7001 44.6425 44.0285 45.3141 43.2001 45.3141H22.0801C21.2517 45.3141 20.5801 44.6425 20.5801 43.8141Z" fill="#828282"/>
<path fill-rule="evenodd" clip-rule="evenodd" d="M7.24048 19.915C7.24048 19.0866 7.91205 18.415 8.74048 18.415L34.3068 18.415C35.1352 18.415 35.8068 19.0865 35.8068 19.915C35.8068 20.7434 35.1352 21.415 34.3068 21.415L8.74048 21.415C7.91205 21.415 7.24048 20.7434 7.24048 19.915Z" fill="#828282"/>
<path fill-rule="evenodd" clip-rule="evenodd" d="M15.243 10.9661L15.2429 13.8574L18.5597 13.8574C19.3881 13.8574 20.0597 14.529 20.0597 15.3574C20.0597 16.1859 19.3881 16.8574 18.5597 16.8574L14.0949 16.8574C13.0721 16.8574 12.2429 16.0283 12.2429 15.0054L12.243 9.81342C12.243 8.79315 13.0701 7.96606 14.0903 7.96606L28.9577 7.96606C29.978 7.96606 30.8051 8.79316 30.8051 9.81343L30.8051 15.3574C30.8051 16.1859 30.1335 16.8574 29.3051 16.8574C28.4766 16.8574 27.8051 16.1859 27.8051 15.3574L27.8051 10.9661L15.243 10.9661Z" fill="#828282"/>
<path fill-rule="evenodd" clip-rule="evenodd" d="M37.5 6.57554C38.1098 6.01477 39.0587 6.05449 39.6195 6.66426L45.7754 13.3581V20.4249C45.7754 21.637 44.7928 22.6196 43.5807 22.6196H40.4101C39.198 22.6196 38.2154 21.637 38.2154 20.4249V13.9429C38.2154 13.1145 38.887 12.4429 39.7154 12.4429C40.5438 12.4429 41.2154 13.1145 41.2154 13.9429V19.6196H42.7754V14.5278L37.4113 8.69501C36.8505 8.08523 36.8902 7.13632 37.5 6.57554Z" fill="#828282"/>
<path fill-rule="evenodd" clip-rule="evenodd" d="M41.9419 19.582C42.7703 19.582 43.4419 20.2536 43.4419 21.082V36.6719C43.4419 39.1425 41.4391 41.1454 38.9684 41.1454H35.52C34.6916 41.1454 34.02 40.4738 34.02 39.6454C34.02 38.8169 34.6916 38.1454 35.52 38.1454H38.9684C39.7822 38.1454 40.4419 37.4857 40.4419 36.6719V21.082C40.4419 20.2536 41.1135 19.582 41.9419 19.582Z" fill="#828282"/>
</svg>
