<svg width="14" height="28" viewBox="0 0 14 28" fill="none" xmlns="http://www.w3.org/2000/svg">
<path d="M13.6024 13.9595C13.1283 13.5105 12.3595 13.5105 11.8854 13.9595L6.12552 19.4144C5.65138 19.8634 5.65138 20.5914 6.12552 21.0405C6.59965 21.4895 7.36838 21.4895 7.84251 21.0405L13.6024 15.5856C14.0765 15.1366 14.0765 14.4086 13.6024 13.9595Z" fill="white"/>
<path d="M0.355601 13.9595C-0.118535 14.4086 -0.118535 15.1366 0.355601 15.5856L6.11549 21.0404C6.58963 21.4895 7.35836 21.4895 7.83249 21.0404C8.30663 20.5914 8.30663 19.8634 7.83249 19.4144L2.0726 13.9595C1.59846 13.5105 0.829737 13.5105 0.355601 13.9595Z" fill="white"/>
</svg>
