<svg width="32" height="32" viewBox="0 0 32 32" fill="none" xmlns="http://www.w3.org/2000/svg">
<path d="M29.296 31.1108C25.58 31.1108 21.9579 30.2823 18.4297 28.6254C14.9003 26.9696 11.7749 24.7803 9.05324 22.0575C6.33047 19.3359 4.14119 16.2104 2.48541 12.6811C0.828469 9.1529 0 5.5308 0 1.8148C0 1.29628 0.172838 0.864188 0.518513 0.518513C0.864188 0.172838 1.29628 0 1.8148 0H8.81472C9.21801 0 9.57808 0.129628 9.89495 0.388884C10.2118 0.648141 10.3991 0.979413 10.4567 1.3827L11.5801 7.43202C11.6377 7.83531 11.6308 8.2023 11.5594 8.53299C11.4868 8.86484 11.3209 9.16039 11.0616 9.41965L6.91351 13.6542C8.12337 15.7282 9.6357 17.6726 11.4505 19.4874C13.2653 21.3022 15.2673 22.8722 17.4566 24.1973L21.5183 20.1356C21.7775 19.8763 22.1163 19.6816 22.5346 19.5514C22.9517 19.4223 23.3619 19.3866 23.7652 19.4442L29.7281 20.6541C30.1314 20.7405 30.4626 20.9347 30.7219 21.2366C30.9811 21.5396 31.1108 21.8928 31.1108 22.2961V29.296C31.1108 29.8145 30.9379 30.2466 30.5923 30.5923C30.2466 30.9379 29.8145 31.1108 29.296 31.1108Z" fill="white"/>
</svg>
