<svg width="59" height="59" viewBox="0 0 59 59" fill="none" xmlns="http://www.w3.org/2000/svg">
<path d="M35.55 16.25L39.5 25H19.5L23.05 16.25H35.55ZM22 27.5C20.625 27.5 19.5 28.625 19.5 30C19.5 31.375 20.625 32.5 22 32.5C23.375 32.5 24.5 31.375 24.5 30C24.5 28.625 23.375 27.5 22 27.5ZM37 27.5C35.625 27.5 34.5 28.625 34.5 30C34.5 31.375 35.625 32.5 37 32.5C38.375 32.5 39.5 31.375 39.5 30C39.5 28.625 38.375 27.5 37 27.5ZM52 10V25C52 38.875 42.4 51.85 29.5 55C16.6 51.85 7 38.875 7 25V10L29.5 0L52 10ZM44.5 27.5L39.1 15C38.6 13.55 37.2 12.5 35.55 12.5H23.05C21.4 12.5 20 13.55 19.5 15L14.5 27.5V37.5C14.5 38.875 15.625 40 17 40H19.5C20.875 40 22 38.875 22 37.5V35H37V37.5C37 38.875 38.125 40 39.5 40H42C43.375 40 44.5 38.875 44.5 37.5V27.5Z" fill="#2F80ED"/>
</svg>
