<svg width="7" height="12" viewBox="0 0 7 12" fill="none" xmlns="http://www.w3.org/2000/svg">
<path d="M6.69085 6.15773C6.68312 5.93321 6.5913 5.71906 6.43256 5.55629L1.92602 0.973876C1.75326 0.798327 1.51617 0.696938 1.26694 0.692078C1.01756 0.687219 0.776553 0.779277 0.596727 0.94792C0.417022 1.11656 0.313158 1.34813 0.308309 1.59142C0.303332 1.83473 0.397769 2.07012 0.570529 2.24553L4.44937 6.19196L0.570865 10.1384C0.338114 10.3748 0.252192 10.7144 0.345578 11.0293C0.438968 11.3442 0.697249 11.5865 1.0234 11.6652C1.34941 11.7437 1.69362 11.6465 1.92625 11.4101L6.43279 6.82768L6.43292 6.82768C6.60843 6.64765 6.70169 6.40573 6.69108 6.15743L6.69085 6.15773Z" fill="#469B44"/>
</svg>
