<svg width="11" height="7" viewBox="0 0 11 7" fill="none" xmlns="http://www.w3.org/2000/svg">
<path d="M5.53417 6.38274C5.75869 6.37501 5.97283 6.2832 6.13561 6.12445L10.718 1.61792C10.8936 1.44515 10.995 1.20807 10.9998 0.958836C11.0047 0.70945 10.9126 0.468448 10.744 0.288622C10.5753 0.108917 10.3438 0.00505251 10.1005 0.000204003C9.85716 -0.00477325 9.62178 0.0896634 9.44637 0.262424L5.49993 4.14126L1.55349 0.262759C1.31708 0.0300084 0.977484 -0.0559149 0.662574 0.0374718C0.347662 0.130862 0.105385 0.389142 0.026732 0.715296C-0.0517717 1.04131 0.0453991 1.38551 0.281808 1.61815L4.86422 6.12468L4.86422 6.12481C5.04424 6.30033 5.28616 6.39358 5.53446 6.38297L5.53417 6.38274Z" fill="black"/>
</svg>
