<svg width="11" height="6" viewBox="0 0 11 6" fill="none" xmlns="http://www.w3.org/2000/svg">
<path d="M5.53417 5.99902C5.75869 5.99175 5.97283 5.90545 6.13561 5.75625L10.718 1.52064C10.8936 1.35826 10.995 1.13543 10.9998 0.901177C11.0047 0.666784 10.9126 0.44027 10.744 0.271255C10.5753 0.102354 10.3438 0.00473302 10.1005 0.000175866C9.85716 -0.00450241 9.62178 0.0842575 9.44637 0.246632L5.49993 3.89229L1.55349 0.246947C1.31708 0.0281883 0.977484 -0.0525694 0.662574 0.0352034C0.347661 0.122979 0.105386 0.365733 0.0267319 0.672279C-0.0517717 0.97869 0.0453991 1.3022 0.281808 1.52085L4.86422 5.75647L4.86422 5.75659C5.04424 5.92155 5.28616 6.0092 5.53446 5.99923L5.53417 5.99902Z" fill="black"/>
</svg>
