<svg width="70" height="89" viewBox="0 0 70 89" fill="none" xmlns="http://www.w3.org/2000/svg">
<path d="M17.5 22.25H40.8333" stroke="white" stroke-width="1.5" stroke-linecap="round" stroke-linejoin="round"/>
<path d="M17.5 37.0833H52.5" stroke="white" stroke-width="1.5" stroke-linecap="round" stroke-linejoin="round"/>
<path d="M37.9165 51.9167H52.4998" stroke="white" stroke-width="1.5" stroke-linecap="round" stroke-linejoin="round"/>
<path d="M37.9165 66.75H52.4998" stroke="white" stroke-width="1.5" stroke-linecap="round" stroke-linejoin="round"/>
<path d="M5.8335 79.3583V9.64166C5.8335 8.41283 6.617 7.41666 7.5835 7.41666H53.2337C53.6977 7.41666 54.1428 7.65106 54.471 8.06836L63.6544 19.7441C63.9825 20.1614 64.1668 20.7273 64.1668 21.3175V79.3583C64.1668 80.5873 63.3834 81.5833 62.4168 81.5833H7.5835C6.617 81.5833 5.8335 80.5873 5.8335 79.3583Z" stroke="white" stroke-width="2.5" stroke-linecap="round" stroke-linejoin="round"/>
<path d="M17.5 66.75V51.9167H26.25V66.75H17.5Z" stroke="white" stroke-width="1.5" stroke-linecap="round" stroke-linejoin="round"/>
<path d="M52.5 7.41666V20.025C52.5 21.2538 53.2834 22.25 54.25 22.25H64.1667" stroke="white" stroke-width="1.5" stroke-linecap="round" stroke-linejoin="round"/>
</svg>
