<svg width="13" height="16" viewBox="0 0 13 16" fill="none" xmlns="http://www.w3.org/2000/svg">
<path d="M0 2C0 1.17157 0.671573 0.5 1.5 0.5H11.5C12.3284 0.5 13 1.17157 13 2C13 2.82843 12.3284 3.5 11.5 3.5H1.5C0.671573 3.5 0 2.82843 0 2ZM0 8C0 7.17157 0.671573 6.5 1.5 6.5H11.5C12.3284 6.5 13 7.17157 13 8C13 8.82843 12.3284 9.5 11.5 9.5H1.5C0.671573 9.5 0 8.82843 0 8ZM0 14C0 13.1716 0.671573 12.5 1.5 12.5H11.5C12.3284 12.5 13 13.1716 13 14C13 14.8284 12.3284 15.5 11.5 15.5H1.5C0.671573 15.5 0 14.8284 0 14Z" fill="white"/>
</svg>
