<svg width="22" height="37" viewBox="0 0 22 37" fill="none" xmlns="http://www.w3.org/2000/svg">
<path d="M21.9964 18.6149C21.9698 19.3701 21.6533 20.0904 21.1063 20.638L5.57566 36.0515C4.98029 36.642 4.16324 36.983 3.30432 36.9994C2.44488 37.0157 1.61433 36.7061 0.994604 36.1388C0.375299 35.5716 0.0173568 34.7927 0.000646459 33.9743C-0.0165064 33.1559 0.308946 32.3642 0.90432 31.7741L14.2717 18.4998L0.905474 5.22539C0.103362 4.43019 -0.192749 3.2879 0.129082 2.22866C0.450926 1.1694 1.34102 0.354482 2.46503 0.0899175C3.58853 -0.17414 4.77474 0.152707 5.57646 0.947904L21.1071 16.3615L21.1075 16.3615C21.7124 16.967 22.0337 17.7807 21.9972 18.6159L21.9964 18.6149Z" fill="white"/>
</svg>
