<svg width="128" height="39" viewBox="0 0 128 39" fill="none" xmlns="http://www.w3.org/2000/svg">
<path fill-rule="evenodd" clip-rule="evenodd" d="M26.9392 8.04333L30.0001 9.72665L24.6479 19.4589L21.5415 17.6497L21.5439 17.6455L18.6301 15.9633L13.9544 24.5704L13.9762 24.5833L13.1031 26.1375L12.8117 26.6738L12.8044 26.6692L12.4883 27.2318L6.99862 24.0172L3.06089 31L0 29.3167L5.39442 19.5077L5.43066 19.5305L5.44398 19.5031L11.0119 22.8183L17.2566 11.4631L17.9469 11.9071L23.0973 14.8808L26.9392 8.04333Z" fill="#0E0E0E"/>
<path d="M47.72 31.32C47.3573 31.32 46.9947 31.288 46.632 31.224C46.2693 31.16 45.8747 31.0853 45.448 31L45.736 27.384C46.0347 27.4693 46.3547 27.512 46.696 27.512C47.592 27.512 48.3067 27.1493 48.84 26.424C49.3733 25.6773 49.7573 24.5893 49.992 23.16C50.2267 21.7307 50.3867 19.9707 50.472 17.88L50.792 8.6H67.272V31H63.176V11.096L64.136 12.12H53.48L54.376 11.064L54.152 17.72C54.088 19.9387 53.9387 21.8907 53.704 23.576C53.4693 25.2613 53.1067 26.68 52.616 27.832C52.1467 28.9627 51.5173 29.8267 50.728 30.424C49.9387 31.0213 48.936 31.32 47.72 31.32ZM80.7415 31.224C78.9922 31.224 77.4348 30.8507 76.0695 30.104C74.7042 29.336 73.6268 28.2907 72.8375 26.968C72.0482 25.6453 71.6535 24.1413 71.6535 22.456C71.6535 20.7493 72.0482 19.2453 72.8375 17.944C73.6268 16.6213 74.7042 15.5867 76.0695 14.84C77.4348 14.0933 78.9922 13.72 80.7415 13.72C82.5122 13.72 84.0802 14.0933 85.4455 14.84C86.8322 15.5867 87.9095 16.6107 88.6775 17.912C89.4668 19.2133 89.8615 20.728 89.8615 22.456C89.8615 24.1413 89.4668 25.6453 88.6775 26.968C87.9095 28.2907 86.8322 29.336 85.4455 30.104C84.0802 30.8507 82.5122 31.224 80.7415 31.224ZM80.7415 27.8C81.7228 27.8 82.5975 27.5867 83.3655 27.16C84.1335 26.7333 84.7308 26.1147 85.1575 25.304C85.6055 24.4933 85.8295 23.544 85.8295 22.456C85.8295 21.3467 85.6055 20.3973 85.1575 19.608C84.7308 18.7973 84.1335 18.1787 83.3655 17.752C82.5975 17.3253 81.7335 17.112 80.7735 17.112C79.7922 17.112 78.9175 17.3253 78.1495 17.752C77.4028 18.1787 76.8055 18.7973 76.3575 19.608C75.9095 20.3973 75.6855 21.3467 75.6855 22.456C75.6855 23.544 75.9095 24.4933 76.3575 25.304C76.8055 26.1147 77.4028 26.7333 78.1495 27.16C78.9175 27.5867 79.7815 27.8 80.7415 27.8ZM93.813 31V13.912H106.933V17.304H96.885L97.813 16.408V31H93.813ZM116.71 31.224C114.961 31.224 113.404 30.8507 112.038 30.104C110.673 29.336 109.596 28.2907 108.806 26.968C108.017 25.6453 107.622 24.1413 107.622 22.456C107.622 20.7493 108.017 19.2453 108.806 17.944C109.596 16.6213 110.673 15.5867 112.038 14.84C113.404 14.0933 114.961 13.72 116.71 13.72C118.481 13.72 120.049 14.0933 121.414 14.84C122.801 15.5867 123.878 16.6107 124.646 17.912C125.436 19.2133 125.83 20.728 125.83 22.456C125.83 24.1413 125.436 25.6453 124.646 26.968C123.878 28.2907 122.801 29.336 121.414 30.104C120.049 30.8507 118.481 31.224 116.71 31.224ZM116.71 27.8C117.692 27.8 118.566 27.5867 119.334 27.16C120.102 26.7333 120.7 26.1147 121.126 25.304C121.574 24.4933 121.798 23.544 121.798 22.456C121.798 21.3467 121.574 20.3973 121.126 19.608C120.7 18.7973 120.102 18.1787 119.334 17.752C118.566 17.3253 117.702 17.112 116.742 17.112C115.761 17.112 114.886 17.3253 114.118 17.752C113.372 18.1787 112.774 18.7973 112.326 19.608C111.878 20.3973 111.654 21.3467 111.654 22.456C111.654 23.544 111.878 24.4933 112.326 25.304C112.774 26.1147 113.372 26.7333 114.118 27.16C114.886 27.5867 115.75 27.8 116.71 27.8Z" fill="black"/>
</svg>
