<svg width="21" height="21" viewBox="0 0 21 21" fill="none" xmlns="http://www.w3.org/2000/svg">
<path d="M17.5 13.5625C16.4062 13.5625 15.3562 13.3875 14.3763 13.0638C14.2224 13.0147 14.0581 13.0084 13.901 13.0454C13.7438 13.0824 13.5996 13.1613 13.4837 13.2738L11.5588 15.1988C9.07479 13.9354 7.05581 11.9165 5.7925 9.4325L7.7175 7.49875C7.83339 7.3888 7.91553 7.24808 7.95427 7.0931C7.99302 6.93812 7.98676 6.7753 7.93625 6.62375C7.60432 5.6158 7.43594 4.5612 7.4375 3.5C7.4375 3.01875 7.04375 2.625 6.5625 2.625H3.5C3.01875 2.625 2.625 3.01875 2.625 3.5C2.625 11.7163 9.28375 18.375 17.5 18.375C17.9812 18.375 18.375 17.9812 18.375 17.5V14.4375C18.375 13.9563 17.9812 13.5625 17.5 13.5625ZM16.625 10.5H18.375C18.375 8.41142 17.5453 6.40838 16.0685 4.93153C14.5916 3.45468 12.5886 2.625 10.5 2.625V4.375C13.8862 4.375 16.625 7.11375 16.625 10.5ZM13.125 10.5H14.875C14.875 8.085 12.915 6.125 10.5 6.125V7.875C11.9525 7.875 13.125 9.0475 13.125 10.5Z" fill="#35374E"/>
</svg>
