<svg width="16" height="16" viewBox="0 0 16 16" fill="none" xmlns="http://www.w3.org/2000/svg">
<path d="M15 11.0625C13.9062 11.0625 12.8562 10.8875 11.8763 10.5638C11.7224 10.5147 11.5581 10.5084 11.401 10.5454C11.2438 10.5824 11.0996 10.6613 10.9837 10.7738L9.05875 12.6988C6.57479 11.4354 4.55581 9.41646 3.2925 6.9325L5.2175 4.99875C5.33339 4.8888 5.41553 4.74808 5.45427 4.5931C5.49302 4.43812 5.48676 4.2753 5.43625 4.12375C5.10432 3.1158 4.93594 2.0612 4.9375 1C4.9375 0.51875 4.54375 0.125 4.0625 0.125H1C0.51875 0.125 0.125 0.51875 0.125 1C0.125 9.21625 6.78375 15.875 15 15.875C15.4812 15.875 15.875 15.4812 15.875 15V11.9375C15.875 11.4563 15.4812 11.0625 15 11.0625ZM14.125 8H15.875C15.875 5.91142 15.0453 3.90838 13.5685 2.43153C12.0916 0.954685 10.0886 0.125 8 0.125V1.875C11.3862 1.875 14.125 4.61375 14.125 8ZM10.625 8H12.375C12.375 5.585 10.415 3.625 8 3.625V5.375C9.4525 5.375 10.625 6.5475 10.625 8Z" fill="white"/>
</svg>
