<svg width="214" height="70" viewBox="0 0 214 70" fill="none" xmlns="http://www.w3.org/2000/svg">
<path d="M89.158 46V27.8H92.642L100.39 40.644H98.544L106.162 27.8H109.62L109.672 46H105.72L105.694 33.858H106.422L100.338 44.076H98.44L92.226 33.858H93.11V46H89.158ZM118.098 46L126.21 27.8H130.37L138.508 46H134.088L127.432 29.932H129.096L122.414 46H118.098ZM122.154 42.1L123.272 38.902H132.632L133.776 42.1H122.154ZM150.631 46.312C149.4 46.312 148.265 46.0867 147.225 45.636C146.202 45.168 145.362 44.5093 144.703 43.66L147.043 40.852C147.546 41.5107 148.074 42.0133 148.629 42.36C149.184 42.6893 149.782 42.854 150.423 42.854C152.139 42.854 152.997 41.8487 152.997 39.838V31.18H146.601V27.8H157.183V39.604C157.183 41.8573 156.628 43.5387 155.519 44.648C154.41 45.7573 152.78 46.312 150.631 46.312ZM176.684 46.312C175.245 46.312 173.91 46.078 172.68 45.61C171.466 45.142 170.409 44.4833 169.508 43.634C168.624 42.7847 167.93 41.788 167.428 40.644C166.942 39.5 166.7 38.252 166.7 36.9C166.7 35.548 166.942 34.3 167.428 33.156C167.93 32.012 168.632 31.0153 169.534 30.166C170.435 29.3167 171.492 28.658 172.706 28.19C173.919 27.722 175.236 27.488 176.658 27.488C178.096 27.488 179.414 27.722 180.61 28.19C181.823 28.658 182.872 29.3167 183.756 30.166C184.657 31.0153 185.359 32.012 185.862 33.156C186.364 34.2827 186.616 35.5307 186.616 36.9C186.616 38.252 186.364 39.5087 185.862 40.67C185.359 41.814 184.657 42.8107 183.756 43.66C182.872 44.492 181.823 45.142 180.61 45.61C179.414 46.078 178.105 46.312 176.684 46.312ZM176.658 42.724C177.472 42.724 178.218 42.5853 178.894 42.308C179.587 42.0307 180.194 41.632 180.714 41.112C181.234 40.592 181.632 39.9767 181.91 39.266C182.204 38.5553 182.352 37.7667 182.352 36.9C182.352 36.0333 182.204 35.2447 181.91 34.534C181.632 33.8233 181.234 33.208 180.714 32.688C180.211 32.168 179.613 31.7693 178.92 31.492C178.226 31.2147 177.472 31.076 176.658 31.076C175.843 31.076 175.089 31.2147 174.396 31.492C173.72 31.7693 173.122 32.168 172.602 32.688C172.082 33.208 171.674 33.8233 171.38 34.534C171.102 35.2447 170.964 36.0333 170.964 36.9C170.964 37.7493 171.102 38.538 171.38 39.266C171.674 39.9767 172.073 40.592 172.576 41.112C173.096 41.632 173.702 42.0307 174.396 42.308C175.089 42.5853 175.843 42.724 176.658 42.724ZM196.281 46V27.8H204.159C205.788 27.8 207.192 28.0687 208.371 28.606C209.55 29.126 210.46 29.88 211.101 30.868C211.742 31.856 212.063 33.0347 212.063 34.404C212.063 35.756 211.742 36.926 211.101 37.914C210.46 38.8847 209.55 39.63 208.371 40.15C207.192 40.67 205.788 40.93 204.159 40.93H198.621L200.493 39.084V46H196.281ZM207.851 46L203.301 39.396H207.799L212.401 46H207.851ZM200.493 39.552L198.621 37.576H203.925C205.225 37.576 206.196 37.2987 206.837 36.744C207.478 36.172 207.799 35.392 207.799 34.404C207.799 33.3987 207.478 32.6187 206.837 32.064C206.196 31.5093 205.225 31.232 203.925 31.232H198.621L200.493 29.23V39.552Z" fill="white"/>
<rect width="70" height="70" rx="14" fill="white"/>
<path d="M20.988 48V22.8H25.812L36.54 40.584H33.984L44.532 22.8H49.32L49.392 48H43.92L43.884 31.188H44.892L36.468 45.336H33.84L25.236 31.188H26.46V48H20.988Z" fill="#181818"/>
</svg>
