<svg width="44" height="44" viewBox="0 0 44 44" fill="none" xmlns="http://www.w3.org/2000/svg">
<path fill-rule="evenodd" clip-rule="evenodd" d="M2.29169 11C2.29169 6.19051 6.19054 2.29166 11 2.29166C15.8095 2.29166 19.7084 6.19051 19.7084 11V11.792L23.4361 8.06424C26.837 4.66342 32.3508 4.66343 35.7516 8.06424C39.1524 11.4651 39.1524 16.9789 35.7516 20.3797L31.8396 24.2917H33C37.8095 24.2917 41.7084 28.1905 41.7084 33C41.7084 37.8095 37.8095 41.7083 33 41.7083H11C6.19054 41.7083 2.29169 37.8095 2.29169 33V11ZM17.3509 38.9583H33C36.2907 38.9583 38.9584 36.2907 38.9584 33C38.9584 29.7093 36.2907 27.0417 33 27.0417H29.0896L18.1297 38.0016C17.8926 38.3389 17.6323 38.6586 17.3509 38.9583ZM19.7084 32.5338L33.807 18.4351C36.1339 16.1083 36.1339 12.3357 33.807 10.0088C31.4802 7.68191 27.7076 7.68191 25.3807 10.0088L19.7084 15.6811V32.5338ZM11 5.04166C7.70932 5.04166 5.04169 7.70929 5.04169 11V33C5.04169 36.2907 7.70932 38.9583 11 38.9583C14.2907 38.9583 16.9584 36.2907 16.9584 33V11C16.9584 7.70929 14.2907 5.04166 11 5.04166ZM11 32.5417C10.7469 32.5417 10.5417 32.7469 10.5417 33C10.5417 33.2531 10.7469 33.4583 11 33.4583C11.2532 33.4583 11.4584 33.2531 11.4584 33C11.4584 32.7469 11.2532 32.5417 11 32.5417ZM7.79169 33C7.79169 31.2281 9.22811 29.7917 11 29.7917C12.7719 29.7917 14.2084 31.2281 14.2084 33C14.2084 34.7719 12.7719 36.2083 11 36.2083C9.22811 36.2083 7.79169 34.7719 7.79169 33Z" fill="#97C15C"/>
</svg>
