<svg width="38" height="38" viewBox="0 0 38 38" fill="none" xmlns="http://www.w3.org/2000/svg">
<path d="M36.4464 13.2462C37.6429 16.8373 37.6996 20.7105 36.6088 24.3351C35.5179 27.9597 33.3329 31.1582 30.3531 33.4924L28.4968 30.2772C30.6471 28.4658 32.2322 26.075 33.0637 23.3892C33.8952 20.7033 33.9381 17.8352 33.1875 15.1257L36.4464 13.2462ZM8.5852 29.3319C10.5341 31.3134 13.0053 32.7011 15.7115 33.3338C18.4178 33.9665 21.2481 33.8183 23.8735 32.9063L25.7343 36.1294C22.2379 37.4951 18.4068 37.7559 14.7577 36.8765C11.1085 35.9971 7.81672 34.0198 5.32629 31.2113L8.58428 29.3303L8.5852 29.3319ZM27.6622 11.9648L29.4955 15.1403L27.9078 16.0569C26.2784 16.9977 25.0729 18.5287 24.5407 20.3332C24.0084 22.1378 24.1901 24.078 25.0482 25.7523L25.2236 26.0745L26.1403 27.6622L22.9648 29.4955L22.0482 27.9078C21.1074 26.2784 19.5765 25.0729 17.7719 24.5407C15.9673 24.0084 14.0272 24.1901 12.3528 25.0482L12.0307 25.2236L10.4429 26.1403L8.6096 22.9648L27.6622 11.9648ZM9.88588 3.17543C18.1182 -1.57749 28.5063 0.78055 33.9336 8.34401L30.7392 10.1883C28.5797 7.34283 25.4561 5.3831 21.9544 4.67688C18.4528 3.97066 14.8138 4.56649 11.7202 6.35256C8.62663 8.13864 6.29112 10.9922 5.1519 14.3778C4.01268 17.7635 4.14805 21.4484 5.53261 24.7413L2.33655 26.5866C-1.49834 18.1037 1.65359 7.92835 9.88588 3.17543Z" fill="#3B80CC"/>
</svg>
