<svg width="44" height="44" viewBox="0 0 44 44" fill="none" xmlns="http://www.w3.org/2000/svg">
<path fill-rule="evenodd" clip-rule="evenodd" d="M9.0366 2.80587L9.12604 2.81832C9.65413 2.89178 10.1213 2.95677 10.5067 3.0393C10.9174 3.12724 11.3351 3.25402 11.7344 3.49998C12.6186 4.04465 13.2389 4.92548 13.4911 5.92686C13.618 6.43068 13.5833 7.09383 13.5452 7.58949C13.5336 7.7412 13.5193 7.89902 13.5033 8.06029L22.0403 9.24823C22.0612 9.10459 22.0828 8.96426 22.1053 8.82928C22.1863 8.34201 22.3111 7.68687 22.5575 7.22801C23.0471 6.31609 23.8715 5.62111 24.8735 5.33155C25.3257 5.20088 25.7642 5.19318 26.1816 5.22052C26.5742 5.24623 27.0414 5.31127 27.5693 5.38474L27.6587 5.39719C28.1868 5.47065 28.654 5.53564 29.0394 5.61817C29.4501 5.70611 29.8678 5.83289 30.2671 6.07885C31.1513 6.62352 31.7716 7.50435 32.0238 8.50573C32.1357 8.95005 32.1438 9.38466 32.1192 9.81597C32.0958 10.2264 32.0361 10.7183 31.9667 11.2898L31.3253 16.5787C31.256 17.1502 31.1963 17.6422 31.121 18.0456C31.0421 18.4688 30.9301 18.8903 30.713 19.2948C30.2234 20.2067 29.399 20.9017 28.397 21.1912C27.9448 21.3219 27.5063 21.3296 27.0889 21.3023C26.6963 21.2765 26.2291 21.2115 25.7012 21.138L25.6118 21.1256C25.0837 21.0521 24.6165 20.9871 24.2311 20.9046C23.8204 20.8167 23.4027 20.6899 23.0034 20.4439C22.1192 19.8993 21.4989 19.0184 21.2467 18.017C21.1198 17.5132 21.1545 16.8501 21.1926 16.3544C21.2042 16.2027 21.2185 16.0449 21.2344 15.8836L12.6975 14.6957C12.6766 14.8393 12.655 14.9796 12.6325 15.1146C12.5515 15.6019 12.4267 16.257 12.1803 16.7159C11.6907 17.6278 10.8663 18.3228 9.86431 18.6124C9.41214 18.743 8.97362 18.7507 8.55619 18.7234C8.16361 18.6977 7.69635 18.6326 7.16847 18.5592L7.07906 18.5467C6.55097 18.4733 6.08382 18.4083 5.6984 18.3257C5.28772 18.2378 4.86998 18.111 4.47069 17.8651C3.58645 17.3204 2.96618 16.4396 2.71397 15.4382C2.60206 14.9939 2.594 14.5593 2.61862 14.1279C2.64205 13.7175 2.70172 13.2256 2.77106 12.654L3.41251 7.36511C3.48181 6.79367 3.54146 6.30169 3.61676 5.89827C3.69574 5.47506 3.80765 5.05361 4.0248 4.64914C4.51439 3.73722 5.33877 3.04224 6.34079 2.75268C6.79296 2.62201 7.23147 2.61431 7.64891 2.64165C8.04148 2.66736 8.50873 2.73239 9.0366 2.80587ZM7.4692 5.38577C7.20272 5.36832 7.12276 5.38923 7.10424 5.39458C6.85108 5.46774 6.6062 5.6547 6.44769 5.94995C6.4218 5.99817 6.37541 6.10632 6.32008 6.4028C6.26285 6.70942 6.21321 7.11329 6.13752 7.73734L5.50602 12.9442C5.43034 13.5681 5.38198 13.9723 5.36415 14.2847C5.34695 14.5859 5.36561 14.7066 5.38068 14.7665C5.4671 15.1096 5.67021 15.3741 5.91296 15.5236C5.93629 15.538 6.01299 15.5808 6.27421 15.6367C6.54988 15.6957 6.91661 15.7476 7.50268 15.8292C8.08888 15.9107 8.45564 15.9609 8.7359 15.9793C9.00238 15.9967 9.08234 15.9758 9.10086 15.9705C9.35017 15.8984 9.59145 15.716 9.75011 15.4285C9.75107 15.4245 9.77144 15.3737 9.80256 15.2508C9.84026 15.102 9.87949 14.9058 9.91978 14.6635C10.0007 14.1769 10.0719 13.5918 10.1465 12.9768C10.1909 12.6107 10.3806 12.2777 10.6729 12.0527C10.9652 11.8278 11.3357 11.7297 11.701 11.7805L22.9422 13.3448C23.685 13.4481 24.208 14.1277 24.1177 14.8722C24.0431 15.4871 23.9724 16.0723 23.9345 16.5651C23.9157 16.8103 23.9068 17.0111 23.9077 17.166C23.9085 17.3022 23.9171 17.3572 23.9164 17.3573C24.0045 17.6946 24.2057 17.9547 24.4457 18.1025C24.469 18.1169 24.5457 18.1596 24.8069 18.2156C25.0826 18.2746 25.4493 18.3265 26.0354 18.408C26.6216 18.4896 26.9883 18.5398 27.2686 18.5581C27.5351 18.5756 27.615 18.5547 27.6336 18.5493C27.8867 18.4762 28.1316 18.2892 28.2901 17.994C28.316 17.9457 28.3624 17.8376 28.4177 17.5411C28.4749 17.2345 28.5246 16.8306 28.6003 16.2066L29.2318 10.9997C29.3074 10.3758 29.3558 9.97162 29.3736 9.65926C29.3908 9.358 29.3722 9.23725 29.3571 9.1774C29.2707 8.83431 29.0676 8.56982 28.8248 8.42029C28.8015 8.40592 28.7248 8.36314 28.4636 8.30721C28.1879 8.24818 27.8212 8.19629 27.2351 8.11474C26.6489 8.03317 26.2822 7.98299 26.0019 7.96464C25.7354 7.94719 25.6555 7.9681 25.6369 7.97345C25.3876 8.0455 25.1464 8.22791 24.9877 8.51542C24.9867 8.51938 24.9664 8.57017 24.9352 8.6931C24.8975 8.84195 24.8583 9.03811 24.818 9.28038C24.7371 9.767 24.6659 10.3521 24.5913 10.9671C24.5469 11.3332 24.3572 11.6662 24.0649 11.8912C23.7726 12.1161 23.4021 12.2142 23.0368 12.1634L11.7956 10.5992C11.0528 10.4958 10.5298 9.81624 10.6201 9.07173C10.6947 8.45681 10.7654 7.87157 10.8033 7.37883C10.8221 7.13356 10.831 6.9328 10.8301 6.77794C10.8293 6.6423 10.8208 6.58718 10.8214 6.58658C10.7333 6.24929 10.5321 5.98921 10.2921 5.84142C10.2688 5.82705 10.1921 5.78427 9.93089 5.72834C9.65523 5.66931 9.28849 5.61742 8.70242 5.53587C8.11621 5.4543 7.74946 5.40412 7.4692 5.38577ZM35.1953 22.4516C34.9193 22.5096 34.5614 22.6114 33.9906 22.7753C33.42 22.939 33.0622 23.0426 32.7954 23.1404C32.5427 23.2331 32.4685 23.2877 32.4429 23.3087C32.2147 23.4963 32.0442 23.7914 31.9981 24.1427C31.9988 24.1427 31.997 24.1985 32.0131 24.3341C32.0312 24.4875 32.0648 24.685 32.1137 24.9253C32.212 25.4081 32.3543 25.9779 32.5041 26.5769C32.6839 27.2957 32.2618 28.0278 31.5495 28.2322L20.6002 31.3748C20.2418 31.4776 19.857 31.4305 19.534 31.2443C19.211 31.058 18.9774 30.7485 18.887 30.3868C18.7371 29.7877 18.5943 29.2182 18.4542 28.7477C18.3844 28.5134 18.3215 28.3251 18.266 28.1837C18.2224 28.0723 18.1968 28.0252 18.1941 28.0192C18.0075 27.7662 17.7552 27.6246 17.5056 27.5894C17.4884 27.587 17.4069 27.5773 17.1437 27.6326C16.8676 27.6906 16.5098 27.7924 15.9389 27.9563C15.3683 28.12 15.0105 28.2236 14.7438 28.3214C14.4911 28.4141 14.4168 28.4687 14.3913 28.4897C14.1605 28.6793 13.9888 28.9789 13.945 29.3353C13.9373 29.3982 13.9339 29.5208 13.9879 29.816C14.0441 30.1227 14.1418 30.516 14.2939 31.1239L15.5626 36.1956C15.7147 36.8036 15.8136 37.1964 15.908 37.4916C15.9993 37.7772 16.0577 37.8748 16.0866 37.9151C16.2742 38.177 16.5312 38.3232 16.7854 38.359C16.8025 38.3614 16.8841 38.3711 17.1473 38.3158C17.4233 38.2578 17.7812 38.156 18.352 37.9922C18.9226 37.8284 19.2804 37.7248 19.5472 37.627C19.7999 37.5343 19.8741 37.4798 19.8997 37.4588C20.1279 37.2712 20.2984 36.976 20.3445 36.6248C20.3438 36.6247 20.3456 36.569 20.3295 36.4334C20.3114 36.2799 20.2778 36.0824 20.2289 35.8421C20.1306 35.3594 19.9883 34.7896 19.8385 34.1906C19.6587 33.4717 20.0808 32.7397 20.7931 32.5352L31.7424 29.3927C32.1008 29.2898 32.4856 29.3369 32.8086 29.5232C33.1316 29.7094 33.3652 30.0189 33.4556 30.3806C33.6055 30.9797 33.7483 31.5493 33.8884 32.0198C33.9582 32.254 34.0211 32.4423 34.0766 32.5838C34.1202 32.6951 34.1458 32.7422 34.1485 32.7482C34.3351 33.0013 34.5874 33.1428 34.837 33.178C34.8542 33.1804 34.9357 33.1901 35.1989 33.1348C35.475 33.0768 35.8328 32.975 36.4037 32.8112C36.9743 32.6474 37.3321 32.5438 37.5988 32.446C37.8515 32.3533 37.9258 32.2988 37.9513 32.2778C38.1821 32.0881 38.3538 31.7885 38.3976 31.4322C38.4053 31.3693 38.4087 31.2467 38.3547 30.9515C38.2985 30.6448 38.2008 30.2514 38.0487 29.6435L36.78 24.5719C36.6279 23.9638 36.529 23.5711 36.4346 23.2759C36.3433 22.9902 36.2849 22.8926 36.256 22.8523C36.0684 22.5904 35.8114 22.4443 35.5572 22.4084C35.5401 22.406 35.4585 22.3963 35.1953 22.4516ZM34.6299 19.7604C35.0391 19.6744 35.475 19.6196 35.9412 19.6854C36.976 19.8313 37.8877 20.4079 38.4916 21.2508C38.7595 21.6248 38.9233 22.0297 39.054 22.4384C39.1786 22.8282 39.2985 23.3078 39.4377 23.864L40.7265 29.0163C40.8658 29.5728 40.9857 30.0523 41.0597 30.4561C41.1375 30.8811 41.183 31.3128 41.1271 31.7676C41.0012 32.7919 40.4981 33.7442 39.6975 34.4023C39.3363 34.6991 38.9414 34.8827 38.5458 35.0278C38.1746 35.164 37.7201 35.2944 37.2053 35.4421L37.1189 35.4669C36.6045 35.6146 36.1498 35.7451 35.7643 35.8261C35.3551 35.912 34.9192 35.9668 34.453 35.9011C33.4182 35.7551 32.5065 35.1785 31.9027 34.3356C31.5985 33.911 31.3929 33.2751 31.2529 32.8049C31.2164 32.6826 31.1802 32.5555 31.1441 32.4254L22.8199 34.8146C22.8571 34.9785 22.8922 35.139 22.9236 35.2935C23.0227 35.7803 23.1388 36.4327 23.0754 36.9486C22.9495 37.9729 22.4465 38.9252 21.6458 39.5833C21.2846 39.8801 20.8897 40.0637 20.4942 40.2088C20.123 40.3449 19.6686 40.4753 19.1539 40.6231L19.0673 40.6479C18.5529 40.7956 18.0982 40.9261 17.7127 41.0071C17.3035 41.093 16.8676 41.1478 16.4014 41.0821C15.3666 40.9361 14.4549 40.3595 13.851 39.5166C13.5831 39.1426 13.4193 38.7377 13.2886 38.329C13.164 37.9393 13.044 37.4596 12.9049 36.9034L11.6161 31.7512C11.4768 31.1946 11.3569 30.7151 11.2829 30.3113C11.2051 29.8863 11.1596 29.4546 11.2155 28.9998C11.3414 27.9755 11.8445 27.0233 12.6451 26.3652C13.0063 26.0683 13.4012 25.8847 13.7968 25.7396C14.168 25.6035 14.6225 25.473 15.1373 25.3253L15.2236 25.3006C15.738 25.1529 16.1927 25.0224 16.5783 24.9414C16.9875 24.8554 17.4234 24.8006 17.8896 24.8664C18.9243 25.0123 19.8361 25.5889 20.4399 26.4318C20.7441 26.8565 20.9497 27.4924 21.0897 27.9626C21.1262 28.0849 21.1624 28.2119 21.1985 28.342L29.5227 25.9529C29.4855 25.789 29.4504 25.6284 29.419 25.4739C29.3199 24.9871 29.2038 24.3348 29.2672 23.8188C29.3931 22.7945 29.8961 21.8423 30.6968 21.1842C31.058 20.8873 31.4529 20.7037 31.8484 20.5586C32.2196 20.4225 32.6742 20.2921 33.189 20.1443L33.2754 20.1195C33.7898 19.9719 34.2444 19.8414 34.6299 19.7604Z" fill="#F4C243"/>
</svg>
