<svg width="44" height="44" viewBox="0 0 44 44" fill="none" xmlns="http://www.w3.org/2000/svg">
<path d="M5.5 18.3334V29.3334M22 9.16669V14.6667M18.3333 9.16669H25.6667M9.16667 23.8334H5.5M11 18.3334H14.6667L18.3333 14.6667H24.5337C24.874 14.6669 25.2077 14.7618 25.4971 14.9409C25.7866 15.1199 26.0205 15.376 26.1727 15.6805L28.8273 20.9862C28.9795 21.2907 29.2134 21.5468 29.5029 21.7258C29.7923 21.9049 30.126 21.9998 30.4663 22H33V18.3334H36.6667C37.1529 18.3334 37.6192 18.5265 37.963 18.8703C38.3068 19.2141 38.5 19.6805 38.5 20.1667V31.1667C38.5 31.6529 38.3068 32.1192 37.963 32.463C37.6192 32.8069 37.1529 33 36.6667 33H33V29.3334H27.5V33C27.5 33.4862 27.3068 33.9526 26.963 34.2964C26.6192 34.6402 26.1529 34.8334 25.6667 34.8334H19.3142C19.0124 34.8334 18.7153 34.759 18.4492 34.6166C18.1831 34.4743 17.9563 34.2685 17.7888 34.0175L14.6667 29.3334H11V18.3334Z" stroke="#97C15C" stroke-width="3" stroke-linecap="round" stroke-linejoin="round"/>
</svg>
