<svg width="44" height="44" viewBox="0 0 44 44" fill="none" xmlns="http://www.w3.org/2000/svg">
<path d="M22 3.66669C20.7828 3.6663 19.6066 4.10626 18.6885 4.90534C17.7703 5.70443 17.1723 6.80869 17.0047 8.01428C16.8372 9.21986 17.1114 10.4454 17.7768 11.4645C18.4422 12.4837 19.4539 13.2278 20.625 13.5594V20.625C20.625 20.9897 20.7699 21.3394 21.0277 21.5973C21.2856 21.8552 21.6353 22 22 22C22.3647 22 22.7144 21.8552 22.9723 21.5973C23.2301 21.3394 23.375 20.9897 23.375 20.625V13.5594C24.5435 13.2252 25.5521 12.4804 26.2152 11.4619C26.8783 10.4434 27.1513 9.21963 26.984 8.01584C26.8167 6.81206 26.2203 5.70917 25.3046 4.91008C24.3888 4.111 23.2154 3.66946 22 3.66669ZM19.7083 8.70835C19.7083 8.10057 19.9498 7.51767 20.3795 7.0879C20.8093 6.65813 21.3922 6.41669 22 6.41669C22.6078 6.41669 23.1907 6.65813 23.6205 7.0879C24.0502 7.51767 24.2917 8.10057 24.2917 8.70835C24.2917 9.31614 24.0502 9.89904 23.6205 10.3288C23.1907 10.7586 22.6078 11 22 11C21.3922 11 20.8093 10.7586 20.3795 10.3288C19.9498 9.89904 19.7083 9.31614 19.7083 8.70835ZM5.5 11.9167C5.5 10.7011 5.98289 9.53532 6.84243 8.67578C7.70197 7.81624 8.86776 7.33335 10.0833 7.33335C11.2989 7.33335 12.4647 7.81624 13.3242 8.67578C14.1838 9.53532 14.6667 10.7011 14.6667 11.9167V18.3334H18.7917V21.0834H11.9167V11.9167C11.9167 11.4305 11.7235 10.9641 11.3797 10.6203C11.0359 10.2765 10.5696 10.0834 10.0833 10.0834C9.5971 10.0834 9.13079 10.2765 8.78697 10.6203C8.44315 10.9641 8.25 11.4305 8.25 11.9167V33.9167C8.25 34.4029 8.44315 34.8692 8.78697 35.213C9.13079 35.5569 9.5971 35.75 10.0833 35.75C10.5696 35.75 11.0359 35.5569 11.3797 35.213C11.7235 34.8692 11.9167 34.4029 11.9167 33.9167V24.75H20.1667V33.9167C20.1667 34.4029 20.3598 34.8692 20.7036 35.213C21.0475 35.5569 21.5138 35.75 22 35.75C22.4862 35.75 22.9525 35.5569 23.2964 35.213C23.6402 34.8692 23.8333 34.4029 23.8333 33.9167V24.75H34.8333C35.0764 24.75 35.3096 24.6534 35.4815 24.4815C35.6534 24.3096 35.75 24.0765 35.75 23.8334V11.9167C35.75 11.4305 35.5568 10.9641 35.213 10.6203C34.8692 10.2765 34.4029 10.0834 33.9167 10.0834C33.4304 10.0834 32.9641 10.2765 32.6203 10.6203C32.2765 10.9641 32.0833 11.4305 32.0833 11.9167V21.0834H25.2083V18.3334H29.3333V11.9167C29.3333 10.7011 29.8162 9.53532 30.6758 8.67578C31.5353 7.81624 32.7011 7.33335 33.9167 7.33335C35.1322 7.33335 36.298 7.81624 37.1576 8.67578C38.0171 9.53532 38.5 10.7011 38.5 11.9167V23.8334C38.5 24.8058 38.1137 25.7384 37.4261 26.4261C36.7384 27.1137 35.8058 27.5 34.8333 27.5H26.5833V33.9167C26.5833 35.1323 26.1004 36.298 25.2409 37.1576C24.3814 38.0171 23.2156 38.5 22 38.5C20.7844 38.5 19.6186 38.0171 18.7591 37.1576C17.8996 36.298 17.4167 35.1323 17.4167 33.9167V27.5H14.6667V33.9167C14.6667 35.1323 14.1838 36.298 13.3242 37.1576C12.4647 38.0171 11.2989 38.5 10.0833 38.5C8.86776 38.5 7.70197 38.0171 6.84243 37.1576C5.98289 36.298 5.5 35.1323 5.5 33.9167V11.9167Z" fill="#97C15C"/>
</svg>
