<svg width="24" height="24" viewBox="0 0 24 24" fill="none" xmlns="http://www.w3.org/2000/svg">
<circle cx="12" cy="12" r="12" fill="#D12D1E"/>
<g clip-path="url(#clip0_2925_779)">
<path d="M15.5714 7C15.1925 7 14.8292 7.14487 14.5613 7.40273C14.2934 7.66059 14.1429 8.01033 14.1429 8.375V9.0625H13.0107C12.9371 8.86107 12.8003 8.6866 12.6193 8.56317C12.4382 8.43975 12.2219 8.37347 12 8.37347C11.7781 8.37347 11.5618 8.43975 11.3807 8.56317C11.1997 8.6866 11.0629 8.86107 10.9893 9.0625H9.85714V8.375C9.85714 8.01033 9.70663 7.66059 9.43872 7.40273C9.17081 7.14487 8.80745 7 8.42857 7C8.04969 7 7.68633 7.14487 7.41842 7.40273C7.15051 7.66059 7 8.01033 7 8.375V10.4375C7 10.8022 7.15051 11.1519 7.41842 11.4098C7.68633 11.6676 8.04969 11.8125 8.42857 11.8125C8.80745 11.8125 9.17081 11.6676 9.43872 11.4098C9.70663 11.1519 9.85714 10.8022 9.85714 10.4375V9.75H10.9893C11.0971 10.0429 11.3386 10.2752 11.6429 10.3791V14.6209C11.4922 14.6725 11.3555 14.7558 11.2424 14.8646C11.1294 14.9734 11.0429 15.105 10.9893 15.25H9.85714V14.5625C9.85714 14.1978 9.70663 13.8481 9.43872 13.5902C9.17081 13.3324 8.80745 13.1875 8.42857 13.1875C8.04969 13.1875 7.68633 13.3324 7.41842 13.5902C7.15051 13.8481 7 14.1978 7 14.5625V16.625C7 16.9897 7.15051 17.3394 7.41842 17.5973C7.68633 17.8551 8.04969 18 8.42857 18C8.80745 18 9.17081 17.8551 9.43872 17.5973C9.70663 17.3394 9.85714 16.9897 9.85714 16.625V15.9375H10.9893C11.0629 16.1389 11.1997 16.3134 11.3807 16.4368C11.5618 16.5602 11.7781 16.6265 12 16.6265C12.2219 16.6265 12.4382 16.5602 12.6193 16.4368C12.8003 16.3134 12.9371 16.1389 13.0107 15.9375H14.1429V16.625C14.1429 16.9897 14.2934 17.3394 14.5613 17.5973C14.8292 17.8551 15.1925 18 15.5714 18C15.9503 18 16.3137 17.8551 16.5816 17.5973C16.8495 17.3394 17 16.9897 17 16.625V14.5625C17 14.1978 16.8495 13.8481 16.5816 13.5902C16.3137 13.3324 15.9503 13.1875 15.5714 13.1875C15.1925 13.1875 14.8292 13.3324 14.5613 13.5902C14.2934 13.8481 14.1429 14.1978 14.1429 14.5625V15.25H13.0107C12.9573 15.1049 12.8709 14.9732 12.7578 14.8644C12.6447 14.7555 12.5079 14.6724 12.3571 14.6209V10.3791C12.6614 10.2752 12.9029 10.0429 13.0107 9.75H14.1429V10.4375C14.1429 10.8022 14.2934 11.1519 14.5613 11.4098C14.8292 11.6676 15.1925 11.8125 15.5714 11.8125C15.9503 11.8125 16.3137 11.6676 16.5816 11.4098C16.8495 11.1519 17 10.8022 17 10.4375V8.375C17 8.01033 16.8495 7.66059 16.5816 7.40273C16.3137 7.14487 15.9503 7 15.5714 7Z" fill="white"/>
</g>
<defs>
<clipPath id="clip0_2925_779">
<rect width="10" height="11" fill="white" transform="translate(7 7)"/>
</clipPath>
</defs>
</svg>
