<svg width="44" height="44" viewBox="0 0 44 44" fill="none" xmlns="http://www.w3.org/2000/svg">
<g clip-path="url(#clip0_39_363)">
<path d="M9.06677 8.25C7.22977 8.25 5.53302 9.1685 4.5114 10.6989L0.687524 16.4147C0.237502 17.0887 -0.00181719 17.8813 2.36194e-05 18.6917V27.8011C-0.00251164 28.4115 0.199117 29.0052 0.572842 29.4878C0.946566 29.9704 1.47093 30.3142 2.06252 30.4645L5.62927 31.3679C5.88579 32.6036 6.55953 33.7136 7.53743 34.5115C8.51534 35.3094 9.73791 35.7467 11 35.75C13.5465 35.75 15.6723 33.9886 16.2855 31.625H29.0895C29.7028 33.9886 31.8285 35.75 34.375 35.75C36.9215 35.75 39.0473 33.9886 39.6605 31.625H41.25C42.7543 31.625 44 30.3792 44 28.875V23.848C43.9987 22.6224 43.5879 21.4324 42.8328 20.467C42.0777 19.5017 41.0216 18.8163 39.8324 18.5199L32.3978 16.6292L27.027 10.2273C26.5132 9.60902 25.8697 9.1114 25.1421 8.7697C24.4145 8.42799 23.6206 8.25057 22.8168 8.25H9.06677ZM9.06677 11H15.125V16.5H3.95315L6.78977 12.2458V12.2031C7.0389 11.8289 7.37753 11.5229 7.77493 11.3128C8.17232 11.1027 8.61728 10.9952 9.06677 11ZM17.875 11H22.8168C23.6321 11 24.4008 11.3602 24.9219 11.9886L28.7031 16.5H17.875V11ZM2.75002 19.25H31.4531L39.1875 21.1833C39.781 21.3305 40.3075 21.6737 40.6818 22.1573C41.056 22.6408 41.2563 23.2365 41.25 23.848V28.875H39.6605C39.0473 26.5114 36.9215 24.75 34.375 24.75C31.8285 24.75 29.7028 26.5114 29.0895 28.875H16.2855C15.6723 26.5114 13.5465 24.75 11 24.75C8.56215 24.75 6.51477 26.3615 5.80115 28.5739L2.75002 27.8025V19.25ZM11 27.5C12.5359 27.5 13.75 28.7141 13.75 30.25C13.75 31.7859 12.5359 33 11 33C9.46415 33 8.25002 31.7859 8.25002 30.25C8.25002 28.7141 9.46415 27.5 11 27.5ZM34.375 27.5C35.9109 27.5 37.125 28.7141 37.125 30.25C37.125 31.7859 35.9109 33 34.375 33C32.8391 33 31.625 31.7859 31.625 30.25C31.625 28.7141 32.8391 27.5 34.375 27.5Z" fill="#667B88"/>
</g>
<defs>
<clipPath id="clip0_39_363">
<rect width="44" height="44" fill="white"/>
</clipPath>
</defs>
</svg>
