<svg width="24" height="24" viewBox="0 0 24 24" fill="none" xmlns="http://www.w3.org/2000/svg">
<g clip-path="url(#clip0_2925_791)">
<path fill-rule="evenodd" clip-rule="evenodd" d="M24 12C24 18.6276 18.6276 24 12 24C5.3724 24 0 18.6276 0 12C0 5.3724 5.3724 0 12 0C18.6276 0 24 5.3724 24 12Z" fill="#D12D1E"/>
<path d="M15.4722 12.5C15.1849 12.5 14.9094 12.3859 14.7062 12.1827C14.503 11.9795 14.3889 11.704 14.3889 11.4167C14.3889 11.1293 14.503 10.8538 14.7062 10.6506C14.9094 10.4475 15.1849 10.3333 15.4722 10.3333C15.7595 10.3333 16.0351 10.4475 16.2383 10.6506C16.4414 10.8538 16.5556 11.1293 16.5556 11.4167C16.5556 11.704 16.4414 11.9795 16.2383 12.1827C16.0351 12.3859 15.7595 12.5 15.4722 12.5ZM13.3056 9.61111C13.0182 9.61111 12.7427 9.49697 12.5395 9.29381C12.3364 9.09065 12.2222 8.8151 12.2222 8.52778C12.2222 8.24046 12.3364 7.96491 12.5395 7.76175C12.7427 7.55858 13.0182 7.44444 13.3056 7.44444C13.5929 7.44444 13.8684 7.55858 14.0716 7.76175C14.2748 7.96491 14.3889 8.24046 14.3889 8.52778C14.3889 8.8151 14.2748 9.09065 14.0716 9.29381C13.8684 9.49697 13.5929 9.61111 13.3056 9.61111ZM9.69444 9.61111C9.40713 9.61111 9.13158 9.49697 8.92841 9.29381C8.72525 9.09065 8.61111 8.8151 8.61111 8.52778C8.61111 8.24046 8.72525 7.96491 8.92841 7.76175C9.13158 7.55858 9.40713 7.44444 9.69444 7.44444C9.98176 7.44444 10.2573 7.55858 10.4605 7.76175C10.6636 7.96491 10.7778 8.24046 10.7778 8.52778C10.7778 8.8151 10.6636 9.09065 10.4605 9.29381C10.2573 9.49697 9.98176 9.61111 9.69444 9.61111ZM7.52778 12.5C7.24046 12.5 6.96491 12.3859 6.76175 12.1827C6.55858 11.9795 6.44444 11.704 6.44444 11.4167C6.44444 11.1293 6.55858 10.8538 6.76175 10.6506C6.96491 10.4475 7.24046 10.3333 7.52778 10.3333C7.8151 10.3333 8.09065 10.4475 8.29381 10.6506C8.49697 10.8538 8.61111 11.1293 8.61111 11.4167C8.61111 11.704 8.49697 11.9795 8.29381 12.1827C8.09065 12.3859 7.8151 12.5 7.52778 12.5ZM11.5 6C9.77609 6 8.12279 6.68482 6.90381 7.90381C5.68482 9.12279 5 10.7761 5 12.5C5 14.2239 5.68482 15.8772 6.90381 17.0962C8.12279 18.3152 9.77609 19 11.5 19C11.7873 19 12.0629 18.8859 12.266 18.6827C12.4692 18.4795 12.5833 18.204 12.5833 17.9167C12.5833 17.635 12.475 17.3822 12.3017 17.1944C12.1356 16.9994 12.0272 16.7467 12.0272 16.4722C12.0272 16.1849 12.1414 15.9094 12.3445 15.7062C12.5477 15.503 12.8232 15.3889 13.1106 15.3889H14.3889C15.3466 15.3889 16.2651 15.0084 16.9423 14.3312C17.6195 13.654 18 12.7355 18 11.7778C18 8.58556 15.0894 6 11.5 6Z" fill="white"/>
</g>
<defs>
<clipPath id="clip0_2925_791">
<rect width="24" height="24" fill="white"/>
</clipPath>
</defs>
</svg>
