<svg width="24" height="24" viewBox="0 0 24 24" fill="none" xmlns="http://www.w3.org/2000/svg">
<circle cx="12" cy="12" r="12" fill="#D12D1E"/>
<g clip-path="url(#clip0_2925_780)">
<path d="M12.9033 6.1784C12.9413 6.12356 12.9929 6.07858 13.0534 6.04746C13.1138 6.01634 13.1814 6.00003 13.25 6H15.75C15.8605 6 15.9665 6.04214 16.0446 6.11716C16.1228 6.19217 16.1667 6.29391 16.1667 6.4V8.8C16.6725 9.1648 17 9.7456 17 10.4V16C17 16.5304 16.7805 17.0391 16.3898 17.4142C15.9991 17.7893 15.4692 18 14.9167 18H9.08333C8.5308 18 8.0009 17.7893 7.61019 17.4142C7.21949 17.0391 7 16.5304 7 16V10.4C7 9.86957 7.21949 9.36086 7.61019 8.98579C8.0009 8.61071 8.5308 8.4 9.08333 8.4H9.42917C9.34296 8.16594 9.18326 7.9633 8.97208 7.82002C8.76089 7.67674 8.5086 7.59987 8.25 7.6H7.41667C7.30616 7.6 7.20018 7.55786 7.12204 7.48284C7.0439 7.40783 7 7.30609 7 7.2C7 7.09391 7.0439 6.99217 7.12204 6.91716C7.20018 6.84214 7.30616 6.8 7.41667 6.8H8.25C8.73027 6.79991 9.19583 6.95911 9.56788 7.25068C9.93992 7.54224 10.1956 7.94825 10.2917 8.4H11.36L12.9033 6.1784ZM15.3333 6.8H13.4733L12.3617 8.4H14.9167C15.0592 8.4 15.1983 8.4136 15.3333 8.44V6.8ZM14.3783 10.9168C14.3396 10.8795 14.2936 10.85 14.243 10.8298C14.1924 10.8097 14.1381 10.7993 14.0833 10.7993C14.0285 10.7993 13.9743 10.8097 13.9236 10.8298C13.873 10.85 13.827 10.8795 13.7883 10.9168L12 12.6344L10.2117 10.9168C10.1334 10.8417 10.0273 10.7995 9.91667 10.7995C9.80602 10.7995 9.69991 10.8417 9.62167 10.9168C9.54343 10.9919 9.49947 11.0938 9.49947 11.2C9.49947 11.3062 9.54343 11.4081 9.62167 11.4832L11.4108 13.2L9.62167 14.9168C9.58293 14.954 9.5522 14.9981 9.53123 15.0467C9.51026 15.0953 9.49947 15.1474 9.49947 15.2C9.49947 15.2526 9.51026 15.3047 9.53123 15.3533C9.5522 15.4019 9.58293 15.446 9.62167 15.4832C9.69991 15.5583 9.80602 15.6005 9.91667 15.6005C9.97145 15.6005 10.0257 15.5901 10.0763 15.57C10.1269 15.5499 10.1729 15.5204 10.2117 15.4832L12 13.7656L13.7883 15.4832C13.8666 15.5583 13.9727 15.6005 14.0833 15.6005C14.194 15.6005 14.3001 15.5583 14.3783 15.4832C14.4566 15.4081 14.5005 15.3062 14.5005 15.2C14.5005 15.0938 14.4566 14.9919 14.3783 14.9168L12.5892 13.2L14.3783 11.4832C14.4171 11.446 14.4479 11.4019 14.4689 11.3533C14.4899 11.3047 14.5007 11.2526 14.5007 11.2C14.5007 11.1474 14.4899 11.0953 14.4689 11.0467C14.4479 10.9981 14.4171 10.954 14.3783 10.9168Z" fill="white"/>
</g>
<defs>
<clipPath id="clip0_2925_780">
<rect width="10" height="12" fill="white" transform="translate(7 6)"/>
</clipPath>
</defs>
</svg>
