<svg width="65" height="65" viewBox="0 0 65 65" fill="none" xmlns="http://www.w3.org/2000/svg">
<path opacity="0.5" d="M9.38289 9.38293C5.41663 13.3492 5.41663 19.7328 5.41663 32.5C5.41663 45.2672 5.41663 51.6508 9.38289 55.6171C13.3492 59.5833 19.7328 59.5833 32.5 59.5833C45.2672 59.5833 51.6508 59.5833 55.617 55.6171C59.5833 51.6508 59.5833 45.2672 59.5833 32.5C59.5833 19.7328 59.5833 13.3492 55.617 9.38293C51.6508 5.41666 45.2672 5.41666 32.5 5.41666C19.7328 5.41666 13.3492 5.41666 9.38289 9.38293Z" fill="#E05241"/>
<path d="M32.5259 14.2188C23.3568 14.2188 15.7986 21.1247 14.789 30.0174H13.5417C12.7199 30.0174 11.979 30.5126 11.6648 31.2719C11.3506 32.0313 11.5248 32.9052 12.1064 33.4859L15.2704 36.6456C16.0634 37.4376 17.348 37.4376 18.1411 36.6456L21.3051 33.4859C21.8866 32.9052 22.0609 32.0313 21.7467 31.2719C21.4324 30.5126 20.6916 30.0174 19.8698 30.0174H18.886C19.8694 23.3788 25.5995 18.2812 32.5259 18.2812C36.6734 18.2812 40.3909 20.1069 42.9213 23.0031C43.6594 23.8479 44.9426 23.9344 45.7874 23.1963C46.6322 22.4582 46.7187 21.175 45.9806 20.3302C42.7108 16.5877 37.8939 14.2188 32.5259 14.2188Z" fill="#E05241"/>
<path d="M49.7298 28.3544C48.9368 27.5624 47.6522 27.5624 46.8591 28.3544L43.6951 31.5141C43.1136 32.0948 42.9393 32.9687 43.2535 33.7281C43.5678 34.4874 44.3086 34.9826 45.1304 34.9826H46.1142C45.1308 41.6212 39.4007 46.7188 32.4743 46.7188C28.3268 46.7188 24.6093 44.8931 22.0789 41.9969C21.3408 41.1521 20.0576 41.0656 19.2128 41.8037C18.368 42.5418 18.2815 43.825 19.0196 44.6698C22.2894 48.4123 27.1063 50.7812 32.4743 50.7812C41.6434 50.7812 49.2016 43.8753 50.2112 34.9826H51.4585C52.2803 34.9826 53.0212 34.4874 53.3354 33.7281C53.6496 32.9687 53.4753 32.0948 52.8938 31.5141L49.7298 28.3544Z" fill="#E05241"/>
</svg>
