<svg width="65" height="65" viewBox="0 0 65 65" fill="none" xmlns="http://www.w3.org/2000/svg">
<path d="M15.5729 18.9583C14.451 18.9583 13.5416 19.8678 13.5416 20.9896C13.5416 22.1114 14.451 23.0208 15.5729 23.0208H26.4062C27.528 23.0208 28.4375 22.1114 28.4375 20.9896C28.4375 19.8678 27.528 18.9583 26.4062 18.9583H15.5729Z" fill="#3B80CC"/>
<path fill-rule="evenodd" clip-rule="evenodd" d="M57.3853 21.6769C57.2166 21.6665 57.0331 21.6666 56.8428 21.6667L56.7953 21.6667H49.3321C43.1804 21.6667 37.9166 26.3685 37.9166 32.5C37.9166 38.6315 43.1804 43.3333 49.3321 43.3333H56.7953L56.8428 43.3333C57.0331 43.3334 57.2166 43.3335 57.3853 43.3231C59.884 43.1699 62.0938 41.2712 62.2796 38.6193C62.2918 38.4454 62.2917 38.2579 62.2916 38.0842L62.2916 38.037V26.963L62.2916 26.9158C62.2917 26.7421 62.2918 26.5546 62.2796 26.3807C62.0938 23.7288 59.884 21.8301 57.3853 21.6769ZM48.6703 35.3889C50.254 35.3889 51.5379 34.0955 51.5379 32.5C51.5379 30.9045 50.254 29.6111 48.6703 29.6111C47.0865 29.6111 45.8026 30.9045 45.8026 32.5C45.8026 34.0955 47.0865 35.3889 48.6703 35.3889Z" fill="#3B80CC"/>
<path opacity="0.5" d="M57.2525 21.6708C57.2525 18.4733 57.1363 15.0434 55.0923 12.5845C54.8949 12.3471 54.6849 12.1166 54.4612 11.8929C52.4344 9.86613 49.8643 8.96665 46.689 8.53974C43.6036 8.12492 39.6613 8.12496 34.6841 8.125H28.9617C23.9845 8.12496 20.0421 8.12492 16.9568 8.53974C13.7815 8.96665 11.2114 9.86613 9.18458 11.893C7.15776 13.9198 6.25828 16.4898 5.83137 19.6651C5.41655 22.7505 5.41659 26.6928 5.41663 31.6701V31.9757C5.41659 36.9529 5.41655 40.8953 5.83137 43.9807C6.25828 47.156 7.15776 49.7261 9.18458 51.7529C11.2114 53.7797 13.7815 54.6792 16.9568 55.1061C20.0421 55.5209 23.9844 55.5209 28.9616 55.5208H34.684C39.6612 55.5209 43.6036 55.5209 46.689 55.1061C49.8643 54.6792 52.4344 53.7797 54.4612 51.7529C55.0151 51.199 55.4855 50.6035 55.8853 49.9649C57.1054 48.0163 57.2525 45.6282 57.2525 43.3292C57.122 43.3334 56.9843 43.3334 56.8429 43.3333L49.3321 43.3333C43.1804 43.3333 37.9166 38.6315 37.9166 32.5C37.9166 26.3685 43.1804 21.6667 49.3321 21.6667L56.8428 21.6667C56.9842 21.6666 57.1219 21.6666 57.2525 21.6708Z" fill="#3B80CC"/>
</svg>
