<?xml version="1.0" encoding="utf-8"?><svg xmlns="http://www.w3.org/2000/svg" xmlns:xlink="http://www.w3.org/1999/xlink"><symbol viewBox="0 0 612 612" id="youtube" xmlns="http://www.w3.org/2000/svg"><path d="M489.6 81.6H122.4C54.917 81.6 0 136.516 0 204v204c0 67.482 54.917 122.4 122.4 122.4h367.2c67.483 0 122.4-54.918 122.4-122.4V204c0-67.484-54.917-122.4-122.4-122.4zM584.8 408c0 52.496-42.704 95.199-95.2 95.199H122.4c-52.496 0-95.2-42.703-95.2-95.199V204c0-52.496 42.704-95.2 95.2-95.2h367.2c52.496 0 95.2 42.704 95.2 95.2v204zm-367.2 13.068l199.308-115.055L217.6 190.93v230.138zm27.2-183.027l117.708 67.973L244.8 373.959V238.041z"/></symbol></svg>