<svg width="23" height="16" viewBox="0 0 23 16" fill="none" xmlns="http://www.w3.org/2000/svg">
<path d="M22.5198 7.30525C21.4348 6.08439 20.9967 5.09688 20.7111 4.29191C20.4415 3.53166 19.7147 3.0209 18.9028 3.0209H15.0878V2.43286C15.0878 1.3671 14.2139 0.5 13.1397 0.5H1.94808C0.873926 0.5 0 1.36705 0 2.43286V11.0744C0 12.1402 0.873926 13.0073 1.94808 13.0073H2.06889C2.30403 14.4193 3.5427 15.5 5.03155 15.5C6.52034 15.5 7.75901 14.4193 7.99415 13.0073H15.5901C15.8253 14.4193 17.0639 15.5 18.5527 15.5C20.0596 15.5 21.3105 14.3931 21.5238 12.9558C22.3689 12.7575 23 12.003 23 11.1048V8.56431C23 8.10082 22.8295 7.6537 22.5198 7.30525ZM0.982215 4.87995H8.29609C8.56728 4.87995 8.78719 4.66179 8.78719 4.39267V3.62683L11.0813 5.90307L8.78719 8.17927V7.41342C8.78719 7.1443 8.56728 6.92615 8.29609 6.92615H0.982215V4.87995ZM5.03155 14.5254C3.91703 14.5254 3.01029 13.6258 3.01029 12.5199C3.01029 11.4141 3.91703 10.5145 5.03155 10.5145C6.14602 10.5145 7.05275 11.4141 7.05275 12.5199C7.05275 13.6258 6.14602 14.5254 5.03155 14.5254ZM14.1055 12.0327H7.9942C7.75906 10.6206 6.52039 9.53993 5.0316 9.53993C3.54275 9.53993 2.30408 10.6206 2.06894 12.0327H1.94813C1.41552 12.0327 0.982265 11.6027 0.982265 11.0743V7.90069H7.80503V9.35564C7.80503 9.55274 7.92471 9.7304 8.10819 9.80578C8.16894 9.83083 8.23273 9.84291 8.29599 9.84291C8.42382 9.84291 8.54945 9.79341 8.6434 9.70019L12.1231 6.24762C12.3149 6.05734 12.3149 5.7488 12.1231 5.55847L8.6434 2.1059C8.50294 1.96649 8.29167 1.92488 8.10819 2.00026C7.92471 2.07569 7.80503 2.25335 7.80503 2.45045V3.9054H0.982215V2.43277C0.982215 1.90437 1.41547 1.47445 1.94808 1.47445H13.1397C13.6723 1.47445 14.1055 1.90432 14.1055 2.43277V12.0327ZM17.1461 3.9954H18.9028C19.2988 3.9954 19.6531 4.24454 19.7847 4.61541C20.0514 5.36741 20.4772 6.35775 21.4242 7.52676H18.4253C17.72 7.52676 17.1461 6.95738 17.1461 6.25756L17.1461 3.9954ZM18.5528 14.5254C17.4383 14.5254 16.5315 13.6258 16.5315 12.5199C16.5315 11.4141 17.4383 10.5145 18.5528 10.5145C19.6673 10.5145 20.574 11.4141 20.574 12.5199C20.574 13.6258 19.6673 14.5254 18.5528 14.5254ZM22.0178 11.1047C22.0178 11.4683 21.8055 11.7828 21.4978 11.935C21.223 10.5709 20.0071 9.53993 18.5528 9.53993C17.064 9.53993 15.8253 10.6206 15.5901 12.0327H15.0878V3.9954H16.1639V6.25756C16.1639 7.49475 17.1783 8.50131 18.4253 8.50131H21.7604C21.8507 8.50131 21.935 8.4767 22.0077 8.43455C22.0138 8.47738 22.0178 8.5206 22.0178 8.56426V11.1047Z" fill="#2275B4"/>
<path d="M5.03158 11.0152C4.19537 11.0152 3.51504 11.6902 3.51504 12.5199C3.51504 13.3495 4.19537 14.0246 5.03158 14.0246C5.86774 14.0246 6.54807 13.3495 6.54807 12.5199C6.54807 11.6902 5.86774 11.0152 5.03158 11.0152ZM5.03158 13.0501C4.73697 13.0501 4.49726 12.8122 4.49726 12.5199C4.49726 12.2276 4.73697 11.9898 5.03158 11.9898C5.3262 11.9898 5.56586 12.2276 5.56586 12.5199C5.56586 12.8122 5.3262 13.0501 5.03158 13.0501Z" fill="#2275B4"/>
<path d="M18.5527 11.0152C17.7165 11.0152 17.0362 11.6902 17.0362 12.5199C17.0362 13.3495 17.7165 14.0246 18.5527 14.0246C19.3889 14.0246 20.0693 13.3495 20.0693 12.5199C20.0693 11.6902 19.3889 11.0152 18.5527 11.0152ZM18.5527 13.0501C18.2581 13.0501 18.0184 12.8122 18.0184 12.5199C18.0184 12.2276 18.2581 11.9898 18.5527 11.9898C18.8473 11.9898 19.087 12.2276 19.087 12.5199C19.087 12.8122 18.8473 13.0501 18.5527 13.0501Z" fill="#2275B4"/>
</svg>
