<svg width="20" height="20" viewBox="0 0 20 20" fill="none" xmlns="http://www.w3.org/2000/svg">
<path fill-rule="evenodd" clip-rule="evenodd" d="M18.3923 7.34286H15.2922L15.7599 9.17429L18.3907 8.91143V7.34429L18.3923 7.34286ZM18.3923 4.32571H14.623L15.0584 6.3H18.3923V4.32571ZM14.7968 9.31857L14.2122 7.34429H11.4352L12.166 9.58L14.7968 9.31857ZM10.529 4.32571L11.1429 6.3H14.0353L13.5691 4.32571H10.529ZM11.1429 9.69571L10.3829 7.34429H7.60592L8.80594 9.92857L11.1429 9.69571ZM7.16898 6.3H10.1198L9.47826 4.32571H6.26281L7.16898 6.3ZM18.7138 2.7C19.5908 2.7 20 3.22143 20 3.86143V9.29C20 9.89857 19.5323 10.3929 18.9184 10.45L7.10898 11.7571C6.14589 11.8714 6.02742 13.1214 7.16898 13.1214H18.363C19.6477 13.1214 19.6477 15.0071 18.363 15.0071H6.9336C4.36278 15.0071 3.39814 12.1929 5.41357 10.7114L6.43666 9.95714L2.81352 2.09H1.0304C-0.343468 2.09 -0.343468 0 1.0304 0H3.10583C4.15662 0 4.45047 0.494285 4.77048 1.24857L5.5028 2.7H18.7138Z" fill="#2275B4"/>
<path d="M16.9053 20C17.8553 20 18.5882 19.1871 18.5882 18.2014C18.5882 17.1843 17.8553 16.3729 16.9053 16.3729C15.9553 16.3729 15.1953 17.1843 15.1953 18.2014C15.1953 19.1871 15.9553 20 16.9053 20Z" fill="#2275B4"/>
<path d="M5.39816 20C6.3753 20 7.10815 19.1871 7.10815 18.2014C7.10815 17.1843 6.3753 16.3729 5.39816 16.3729C4.4753 16.3729 3.7153 17.1843 3.7153 18.2014C3.7153 19.1871 4.4753 20 5.39816 20Z" fill="#2275B4"/>
</svg>
