<svg width="10" height="10" viewBox="0 0 10 10" fill="none" xmlns="http://www.w3.org/2000/svg">
<path fill-rule="evenodd" clip-rule="evenodd" d="M9.52273 0.477322C9.71486 0.669456 9.71486 0.980967 9.52273 1.1731L5.69594 4.99989L9.52273 8.82667C9.71486 9.01881 9.71486 9.33032 9.52273 9.52245C9.3306 9.71459 9.01908 9.71459 8.82695 9.52245L5.00016 5.69567L1.17338 9.52245C0.981242 9.71459 0.669731 9.71459 0.477597 9.52245C0.285463 9.33032 0.285463 9.01881 0.477597 8.82667L4.30438 4.99989L0.477597 1.1731C0.285463 0.980968 0.285463 0.669457 0.477597 0.477323C0.669731 0.285189 0.981242 0.285189 1.17338 0.477323L5.00016 4.30411L8.82695 0.477322C9.01908 0.285188 9.33059 0.285188 9.52273 0.477322Z" fill="#67747C"/>
</svg>
