<svg width="14" height="14" viewBox="0 0 14 14" fill="none" xmlns="http://www.w3.org/2000/svg">
<path fill-rule="evenodd" clip-rule="evenodd" d="M7 14C8.85652 14 10.637 13.2625 11.9497 11.9497C13.2625 10.637 14 8.85652 14 7C14 5.14348 13.2625 3.36301 11.9497 2.05025C10.637 0.737498 8.85652 0 7 0C5.14348 0 3.36301 0.737498 2.05025 2.05025C0.737498 3.36301 0 5.14348 0 7C0 8.85652 0.737498 10.637 2.05025 11.9497C3.36301 13.2625 5.14348 14 7 14ZM7.875 3.5C7.875 3.26794 7.78281 3.04538 7.61872 2.88128C7.45462 2.71719 7.23206 2.625 7 2.625C6.76794 2.625 6.54538 2.71719 6.38128 2.88128C6.21719 3.04538 6.125 3.26794 6.125 3.5V7C6.12505 7.23205 6.21727 7.45457 6.38138 7.61862L8.85588 10.094C8.93717 10.1753 9.03368 10.2398 9.1399 10.2838C9.24612 10.3278 9.35997 10.3504 9.47494 10.3504C9.58991 10.3504 9.70375 10.3278 9.80997 10.2838C9.91619 10.2398 10.0127 10.1753 10.094 10.094C10.1753 10.0127 10.2398 9.91619 10.2838 9.80997C10.3278 9.70375 10.3504 9.58991 10.3504 9.47494C10.3504 9.35997 10.3278 9.24612 10.2838 9.1399C10.2398 9.03368 10.1753 8.93717 10.094 8.85588L7.875 6.63775V3.5Z" fill="#2275B4"/>
</svg>
