<svg width="12" height="14" viewBox="0 0 12 14" fill="none" xmlns="http://www.w3.org/2000/svg">
<path fill-rule="evenodd" clip-rule="evenodd" d="M8.05286 0.484182C7.99853 0.373087 7.92166 0.275068 7.82736 0.196639C7.73306 0.11821 7.62349 0.0611681 7.50593 0.0293032C7.38837 -0.00256181 7.26551 -0.00851954 7.14552 0.0118257C7.02553 0.032171 6.91116 0.0783534 6.81 0.147304C6.51429 0.348556 6.28372 0.635559 6.10543 0.917311C5.922 1.20606 5.76 1.54119 5.61686 1.89382C5.33057 2.59733 5.09057 3.44084 4.89686 4.28609C4.66259 5.31903 4.48715 6.36496 4.37143 7.41862C4.02269 7.18911 3.74247 6.86613 3.56143 6.48499C3.28029 5.88999 3.22029 5.14273 3.22029 4.16272C3.22025 3.98969 3.16996 3.82055 3.07578 3.67669C2.98159 3.53283 2.84774 3.4207 2.69114 3.35449C2.53454 3.28828 2.36222 3.27095 2.19598 3.3047C2.02973 3.33845 1.87702 3.42175 1.75715 3.54409C1.19929 4.11235 0.756884 4.78751 0.455342 5.5308C0.1538 6.27409 -0.000941238 7.07087 4.30725e-06 7.87538C7.55021e-05 8.88262 0.243473 9.8743 0.708637 10.7626C1.1738 11.6509 1.84638 12.4083 2.66679 12.9679C3.4872 13.5274 4.43013 13.8718 5.41206 13.9705C6.39398 14.0692 7.3846 13.9192 8.29616 13.5337C9.20772 13.1483 10.0121 12.5393 10.638 11.7607C11.264 10.9821 11.6922 10.0579 11.8847 9.07C12.0772 8.08212 12.0281 7.06102 11.7417 6.09714C11.4553 5.13326 10.9405 4.25635 10.2429 3.54409C9.73543 3.02696 9.40286 2.6822 9.08743 2.26045C8.77629 1.84395 8.46686 1.33032 8.05286 0.484182ZM7.81714 11.4804C7.45753 11.8471 6.99955 12.0967 6.50104 12.1978C6.00253 12.2989 5.48585 12.2469 5.01627 12.0484C4.54668 11.8499 4.14524 11.5138 3.86266 11.0826C3.58008 10.6513 3.42902 10.1442 3.42857 9.6254C3.42857 9.6254 4.182 10.0629 5.57143 10.0629C5.57143 9.18789 6 6.56287 6.64286 6.12536C7.07143 7.00037 7.31657 7.25675 7.818 7.7695C8.05718 8.01292 8.24687 8.30219 8.37617 8.62068C8.50547 8.93918 8.57183 9.28063 8.57143 9.6254C8.57183 9.97016 8.50547 10.3116 8.37617 10.6301C8.24687 10.9486 8.05718 11.2379 7.818 11.4813L7.81714 11.4804Z" fill="#E2474B"/>
</svg>
