<svg width="36" height="11" viewBox="0 0 36 11" fill="none" xmlns="http://www.w3.org/2000/svg">
<path d="M15.9574 10.6387H13.1543L14.9076 0.463196H17.7106L15.9574 10.6387Z" fill="#15195A"/>
<path d="M26.1196 0.711959C25.5667 0.506072 24.6897 0.278748 23.6054 0.278748C20.8372 0.278748 18.8879 1.66428 18.8759 3.64517C18.8529 5.10666 20.2716 5.91841 21.3326 6.40572C22.4171 6.90368 22.7858 7.22869 22.7858 7.67255C22.7747 8.35424 21.9094 8.66846 21.1024 8.66846C19.9832 8.66846 19.3836 8.50646 18.4723 8.1272L18.1032 7.96462L17.7109 10.2488C18.3684 10.5299 19.5796 10.7794 20.8372 10.7903C23.7784 10.7903 25.6933 9.42626 25.716 7.31531C25.7272 6.15696 24.9781 5.26938 23.363 4.5441C22.3826 4.07852 21.7822 3.76458 21.7822 3.28821C21.7937 2.85514 22.29 2.41157 23.3968 2.41157C24.308 2.38984 24.9776 2.59544 25.4848 2.80119L25.7383 2.90924L26.1196 0.711959Z" fill="#15195A"/>
<path fill-rule="evenodd" clip-rule="evenodd" d="M31.1366 0.463196H33.3048L35.5663 10.6386H32.9708C32.9708 10.6386 32.7168 9.46942 32.6364 9.11217H29.0374C28.9333 9.38266 28.4491 10.6386 28.4491 10.6386H25.5078L29.6715 1.30746C29.96 0.64707 30.468 0.463196 31.1366 0.463196ZM30.9639 4.18686C30.9639 4.18686 30.0756 6.44932 29.8448 7.03389H32.1747C32.0595 6.52514 31.5286 4.08946 31.5286 4.08946L31.3327 3.21268C31.2502 3.43845 31.1309 3.74886 31.0505 3.95823C30.9959 4.10015 30.9592 4.19564 30.9639 4.18686Z" fill="#15195A"/>
<path d="M10.8133 0.463196L8.06808 7.40192L7.7681 5.99466C7.26057 4.37088 5.66885 2.60666 3.89258 1.72945L6.40707 10.6279H9.37131L13.7774 0.463196H10.8133Z" fill="#15195A"/>
<path d="M5.519 0.463196H1.00903L0.962891 0.668795C4.48095 1.5132 6.81089 3.54862 7.76816 5.99509L6.78774 1.31854C6.62633 0.668651 6.1303 0.484633 5.519 0.463196Z" fill="#FAA61A"/>
</svg>
