<svg width="36" height="11" viewBox="0 0 36 11" fill="none" xmlns="http://www.w3.org/2000/svg">
<path fill-rule="evenodd" clip-rule="evenodd" d="M3.96227 0.838914C3.97714 0.838825 3.99343 0.838547 4.011 0.838248C4.35673 0.832357 5.20164 0.81796 5.5698 2.06196C5.8304 2.94254 6.24552 4.38496 6.81517 6.38924H7.04716C7.65805 4.27619 8.0777 2.83377 8.30612 2.06196C8.67363 0.820136 9.55942 0.83231 9.98895 0.838214C10.0163 0.838589 10.0418 0.83894 10.0652 0.83894L13.0811 0.838944V10.2317H10.0072V4.69641H9.80106L8.08752 10.2317H5.77481L4.06127 4.69231H3.85514V10.2317H0.78125V0.838944L3.96227 0.838914ZM17.4951 0.838958V6.37841H17.7403L19.8247 1.82336C20.2293 0.916889 21.0916 0.838958 21.0916 0.838958H24.0663V10.2318H20.9282V4.69232H20.6829L18.6394 9.24737C18.2348 10.1497 17.3316 10.2318 17.3316 10.2318H14.357V0.838958H17.4951ZM31.5784 7.43381C33.1003 7.43381 34.4749 6.5444 34.9127 5.3025H25.3033V10.2318H28.2875V7.43381H31.5784Z" fill="#40A548"/>
<path d="M31.7229 0.838959H25.1475C25.304 2.93012 27.1027 4.72029 28.9647 4.72029H35.1206C35.4759 2.98229 34.253 0.838959 31.7229 0.838959Z" fill="#1291D0"/>
</svg>
