<svg width="28" height="18" viewBox="0 0 28 18" fill="none" xmlns="http://www.w3.org/2000/svg">
<path d="M17.8285 15.2454H10.3145V1.82587H17.8285V15.2454Z" fill="#6C6BBD"/>
<path d="M10.7962 8.53455C10.7962 5.81233 12.0788 3.38745 14.0762 1.82477C12.6156 0.682055 10.7722 7.62939e-06 8.76888 7.62939e-06C4.02616 7.62939e-06 0.181641 3.82099 0.181641 8.53455C0.181641 13.2481 4.02616 17.0691 8.76888 17.0691C10.7722 17.0691 12.6156 16.387 14.0762 15.2443C12.0788 13.6816 10.7962 11.2568 10.7962 8.53455Z" fill="#EB001B"/>
<path d="M27.9634 8.53455C27.9634 13.2481 24.1189 17.0691 19.3762 17.0691C17.3729 17.0691 15.5295 16.387 14.0684 15.2443C16.0662 13.6816 17.3488 11.2568 17.3488 8.53455C17.3488 5.81233 16.0662 3.38745 14.0684 1.82477C15.5295 0.682055 17.3729 7.62939e-06 19.3762 7.62939e-06C24.1189 7.62939e-06 27.9634 3.82099 27.9634 8.53455Z" fill="#0099DF"/>
</svg>
