<svg width="28" height="18" viewBox="0 0 28 18" fill="none" xmlns="http://www.w3.org/2000/svg">
<path d="M17.7211 15.2454H10.207V1.82587H17.7211V15.2454Z" fill="#FF5F00"/>
<path d="M10.6146 8.53455C10.6146 5.81233 11.8972 3.38745 13.8945 1.82477C12.4339 0.682055 10.5906 7.62939e-06 8.58723 7.62939e-06C3.84452 7.62939e-06 0 3.82099 0 8.53455C0 13.2481 3.84452 17.0691 8.58723 17.0691C10.5906 17.0691 12.4339 16.387 13.8945 15.2443C11.8972 13.6816 10.6146 11.2568 10.6146 8.53455Z" fill="#EB001B"/>
<path d="M27.7818 8.53455C27.7818 13.2481 23.9373 17.0691 19.1946 17.0691C17.1912 17.0691 15.3479 16.387 13.8867 15.2443C15.8846 13.6816 17.1672 11.2568 17.1672 8.53455C17.1672 5.81233 15.8846 3.38745 13.8867 1.82477C15.3479 0.682055 17.1912 7.62939e-06 19.1946 7.62939e-06C23.9373 7.62939e-06 27.7818 3.82099 27.7818 8.53455Z" fill="#F79E1B"/>
</svg>
