<svg width="14" height="14" viewBox="0 0 14 14" fill="none" xmlns="http://www.w3.org/2000/svg">
<path d="M13.5928 11.8137C13.3361 12.175 13.019 12.5029 12.7086 12.8154C12.4362 13.0897 12.1388 13.3271 11.8004 13.5116C11.0024 13.9469 10.0818 14.0677 9.19015 13.9664C7.916 13.8214 6.68465 13.2761 5.60821 12.5838C4.77811 12.0501 3.98988 11.4115 3.30319 10.6951C2.1519 9.58912 1.1497 8.22527 0.544151 6.72666C0.0047057 5.39167 -0.257271 3.8413 0.347208 2.47917C0.729743 1.61699 1.45478 0.963776 2.18319 0.405778C2.35406 0.264279 2.51174 0.0972093 2.72739 0.029754C2.89258 -0.0220141 3.06437 -0.00318932 3.22282 0.0626974C3.59093 0.215962 3.89877 0.552769 4.1336 0.87075C4.37978 1.20411 4.55939 1.57997 4.72351 1.96086C4.88962 2.3463 5.07767 2.73958 5.08073 3.16972C5.08319 3.50386 4.95603 3.75486 4.7321 3.98782C4.50218 4.22673 4.2629 4.45357 4.06212 4.71994C3.59584 5.33865 3.33985 6.1136 3.32113 6.89342C3.29736 7.8858 3.70413 8.9072 4.38116 9.61689C5.52324 10.7056 7.38852 11.0383 8.78936 10.2919C9.10962 10.1212 9.38801 9.8864 9.63956 9.62348C9.82392 9.43099 9.99157 9.19961 10.2095 9.04462C10.8327 8.60176 11.6938 9.05732 12.2823 9.3455C12.685 9.54269 13.0693 9.77988 13.4009 10.0875C13.6752 10.342 14.0281 10.7028 13.9982 11.1172C13.978 11.4079 13.7657 11.6051 13.5928 11.8137Z" fill="#2275B4"/>
</svg>
