<svg width="10" height="10" viewBox="0 0 10 10" fill="none" xmlns="http://www.w3.org/2000/svg">
<path fill-rule="evenodd" clip-rule="evenodd" d="M5.76012 0.761416C5.76063 0.330018 5.42969 -0.000763126 4.99821 1.3223e-06C4.56758 0.000767868 4.23695 0.331398 4.23619 0.762026L4.2317 4.22971L0.787517 4.22525C0.55334 4.22484 0.37148 4.34269 0.244455 4.46971C0.117431 4.59673 -0.000414817 4.77859 1.09764e-06 5.01277C0.000766298 5.4434 0.331396 5.77402 0.762024 5.77479L4.22971 5.76879L4.22526 9.21248C4.22484 9.44665 4.34269 9.62852 4.46971 9.75554C4.59674 9.88256 4.77859 10.0004 5.01277 9.99999C5.4434 9.99923 5.77403 9.6686 5.77479 9.23797L5.76878 5.76612L9.23858 5.76012C9.66998 5.76063 10.0008 5.42968 9.99999 4.99821C9.99923 4.56758 9.6686 4.23695 9.23797 4.23619L5.76613 4.23169L5.76012 0.761416Z" fill="#2C3643"/>
</svg>
