<svg width="59" height="59" viewBox="0 0 59 59" fill="none" xmlns="http://www.w3.org/2000/svg">
<path d="M48.3309 23.6982L47.4459 21.3873L52.0184 19.6665C49.7567 14.4548 45.7251 10.2757 40.6609 7.719L38.6942 12.0948L36.4326 11.0623L38.3992 6.63734C35.6459 5.55567 32.6467 4.9165 29.5001 4.9165C26.8942 4.9165 24.3867 5.45734 22.0267 6.14567L23.6984 10.669L21.3876 11.554L19.6667 6.9815C14.4551 9.24317 10.2759 13.2748 7.71925 18.339L12.0951 20.3057L11.0626 22.5673L6.63758 20.6007C5.55591 23.354 4.91675 26.3532 4.91675 29.4998C4.91675 32.1057 5.45758 34.6132 6.14591 36.9732L10.6692 35.3015L11.5542 37.6123L6.98175 39.3332C9.24341 44.5448 13.2751 48.724 18.3392 51.2807L20.3059 46.9048L22.5676 47.9373L20.6009 52.3623C23.3542 53.444 26.3534 54.0832 29.5001 54.0832C32.1059 54.0832 34.6134 53.5423 36.9734 52.854L35.3017 48.3307L37.6126 47.4457L39.3334 52.0182C44.5451 49.7565 48.7242 45.7248 51.2809 40.6607L46.9051 38.694L47.9376 36.4323L52.3626 38.399C53.4442 35.6457 54.0834 32.6465 54.0834 29.4998C54.0834 26.894 53.5426 24.3865 52.8542 22.0265L48.3309 23.6982ZM35.1542 43.119C27.6317 46.2165 18.9784 42.6765 15.8809 35.154C12.7834 27.6315 16.3234 18.9782 23.8459 15.8807C31.3684 12.7832 40.0217 16.3232 43.1192 23.8457C43.8659 25.6337 44.2521 27.5515 44.2557 29.4892C44.2593 31.4268 43.8802 33.3461 43.1402 35.1368C42.4001 36.9276 41.3137 38.5545 39.9432 39.9243C38.5728 41.2941 36.9453 42.3798 35.1542 43.119Z" fill="#469B44"/>
</svg>
