<svg width="7" height="11" viewBox="0 0 7 11" fill="none" xmlns="http://www.w3.org/2000/svg">
<path d="M6.38274 5.46583C6.37501 5.24131 6.2832 5.02717 6.12445 4.86439L1.61792 0.281981C1.44515 0.106433 1.20807 0.00504375 0.958836 0.000183127C0.70945 -0.00467553 0.468448 0.0873828 0.288622 0.256025C0.108917 0.424668 0.00505257 0.656234 0.000204097 0.899527C-0.00477313 1.14284 0.0896635 1.37822 0.262424 1.55363L4.14126 5.50007L0.26276 9.44651C0.0300094 9.68292 -0.0559138 10.0225 0.0374728 10.3374C0.130863 10.6523 0.389144 10.8946 0.715297 10.9733C1.04131 11.0518 1.38551 10.9546 1.61815 10.7182L6.12468 6.13578L6.12481 6.13578C6.30033 5.95576 6.39358 5.71384 6.38297 5.46554L6.38274 5.46583Z" fill="#666666"/>
</svg>
