<svg width="18" height="21" viewBox="0 0 18 21" fill="none" xmlns="http://www.w3.org/2000/svg">
<path fill-rule="evenodd" clip-rule="evenodd" d="M8.99999 0C13.9676 0 18 3.80841 18 8.49984C18 11.1643 16.6998 13.7134 15.083 15.7924C12.7984 18.7318 9.94019 20.709 9.94019 20.709C9.93966 20.709 9.93966 20.709 9.93966 20.7095C9.38059 21.0968 8.61941 21.0968 8.06034 20.7095C8.06034 20.709 8.06034 20.709 8.0598 20.709C8.0598 20.709 5.20147 18.7318 2.91701 15.7924C1.3002 13.7133 0 11.1643 0 8.49984C0 3.80828 4.03251 0 9.00001 0H8.99999ZM8.99999 5.00013C6.95494 5.00013 5.29398 6.56861 5.29398 8.50001C5.29398 10.4316 6.95494 12.0001 8.99999 12.0001C11.045 12.0001 12.706 10.4316 12.706 8.50001C12.706 6.56861 11.045 5.00013 8.99999 5.00013Z" fill="#469B44"/>
</svg>
