<svg width="27" height="19" viewBox="0 0 27 19" fill="none" xmlns="http://www.w3.org/2000/svg">
<path fill-rule="evenodd" clip-rule="evenodd" d="M4.33142 16.0228H1.03846C0.763269 16.0228 0.49898 15.8868 0.304268 15.6449C0.109557 15.4031 0 15.0749 0 14.7331C0 12.6094 0 8.46601 0 6.99437C0 6.65258 0.109557 6.32433 0.304268 6.08249C1.00627 5.2106 2.76283 3.02893 3.84958 1.67853C4.43371 0.95303 5.22658 0.545456 6.05267 0.545456C8.41206 0.545456 13.3956 0.545456 15.755 0.545456C16.5811 0.545456 17.374 0.95303 17.9581 1.67853L21.1992 5.70459H22.8462H23.8846C24.7107 5.70459 25.5031 6.11216 26.0877 6.83766C26.6718 7.56381 27 8.54791 27 9.57393C27 11.3938 27 13.4426 27 14.7331C27 15.0749 26.8904 15.4031 26.6957 15.6449C26.501 15.8868 26.2367 16.0228 25.9615 16.0228H22.6686C22.2407 17.5248 21.086 18.6024 19.7308 18.6024C18.3756 18.6024 17.2208 17.5248 16.793 16.0228H10.207C9.77919 17.5248 8.62442 18.6024 7.26923 18.6024C5.91404 18.6024 4.75927 17.5248 4.33142 16.0228ZM19.7308 13.4433C19.1575 13.4433 18.6923 14.0211 18.6923 14.7331C18.6923 15.445 19.1575 16.0228 19.7308 16.0228C20.304 16.0228 20.7692 15.445 20.7692 14.7331C20.7692 14.0211 20.304 13.4433 19.7308 13.4433ZM7.26923 13.4433C6.696 13.4433 6.23077 14.0211 6.23077 14.7331C6.23077 15.445 6.696 16.0228 7.26923 16.0228C7.84246 16.0228 8.30769 15.445 8.30769 14.7331C8.30769 14.0211 7.84246 13.4433 7.26923 13.4433ZM22.6686 13.4433H24.9231V9.57393C24.9231 8.86133 24.4584 8.28415 23.8846 8.28415C22.5325 8.28415 20.3393 8.28415 20.3393 8.28415H11.4231C10.8493 8.28415 10.3846 7.70697 10.3846 6.99437C10.3846 6.65258 10.4942 6.32433 10.6889 6.08249C10.8836 5.84066 11.1479 5.70459 11.4231 5.70459C13.5623 5.70459 18.2624 5.70459 18.2624 5.70459C18.2624 5.70459 17.0661 4.2194 16.4892 3.50293C16.2945 3.26109 16.0307 3.12502 15.755 3.12502C14.0478 3.12502 7.7599 3.12502 6.05267 3.12502C5.77696 3.12502 5.51319 3.26109 5.31848 3.50293C4.45915 4.56958 2.07692 7.52834 2.07692 7.52834V13.4433H4.33142C4.75927 11.9413 5.91404 10.8637 7.26923 10.8637C8.62442 10.8637 9.77919 11.9413 10.207 13.4433H16.793C17.2208 11.9413 18.3756 10.8637 19.7308 10.8637C21.086 10.8637 22.2407 11.9413 22.6686 13.4433Z" fill="#FB2740"/>
</svg>
