<svg width="27" height="27" viewBox="0 0 27 27" fill="none" xmlns="http://www.w3.org/2000/svg">
<path d="M5.91278e-05 7.24602V7.23326H2.64549L4.89896 7.22255C2.92413 6.11661 2.04288 3.97385 2.91963 2.21258C3.59167 0.862523 5.16803 0 6.83897 0C7.54762 0 8.27306 0.155145 8.95404 0.493752C10.455 1.24047 11.6137 2.2882 12.5008 3.35317C12.5152 3.37025 12.5297 3.38692 12.5439 3.40427C12.6802 3.5697 12.8092 3.73428 12.9324 3.89907C12.9826 3.96563 13.0333 4.03133 13.0827 4.0991C13.134 4.1706 13.1814 4.24063 13.2303 4.31167C13.3219 4.44208 13.4151 4.56996 13.5038 4.70533C14.4458 3.23721 15.9039 1.55962 18.046 0.493805C18.727 0.155145 19.4526 0 20.1611 0C21.832 0 23.4085 0.862523 24.0805 2.21258C24.8117 3.68149 24.3175 5.41392 22.9887 6.59095C22.7257 6.82784 22.4313 7.04494 22.1037 7.23326H26.9663H26.9863H27V13.1906C27 13.3064 26.8975 13.4001 26.771 13.4001H23.7087V24.0552C23.7087 25.6816 22.2669 27 20.4885 27H15.8067H11.1934H6.51165C4.73323 27 3.29146 25.6816 3.29146 24.0551V13.409V13.4001H0.228992C0.102589 13.4001 0 13.3064 0 13.1906V7.25799V7.24602H5.91278e-05ZM21.5613 3.2613C21.3507 2.83816 20.7617 2.53125 20.161 2.53125C19.8835 2.53125 19.6171 2.5939 19.3689 2.71724C18.0526 3.37231 17.0599 4.36867 16.3358 5.34284C16.225 5.49487 16.1163 5.65123 16.0107 5.81333C16.2689 5.82899 16.5363 5.83806 16.8109 5.83806C18.1658 5.83806 19.3694 5.62322 20.3882 5.19908C20.9037 4.98445 21.3162 4.61753 21.5201 4.19238C21.6125 3.99959 21.7409 3.62222 21.5613 3.2613ZM15.8067 25.3125H20.4885C21.2465 25.3125 21.8634 24.7485 21.8634 24.0551V13.6442H15.8067V25.3014V25.3125ZM25.1547 11.7126V8.92076H15.8067V11.7126H25.1306H25.1547ZM6.83897 2.53125C6.2382 2.53125 5.64937 2.83816 5.43889 3.2613C5.25926 3.62222 5.38751 3.99959 5.48001 4.19238C5.68397 4.61753 6.09646 4.98445 6.61193 5.19908C7.63066 5.62322 8.83421 5.83806 10.1892 5.83806C10.4318 5.83806 10.6665 5.82857 10.8967 5.81623C10.9291 5.81296 10.9617 5.81191 10.9942 5.8078C10.253 4.69668 9.15945 3.47757 7.6313 2.71724C7.3831 2.5939 7.11651 2.53125 6.83897 2.53125ZM11.1934 25.3125V13.6442H5.13684V24.0551C5.13684 24.7485 5.75357 25.3125 6.51171 25.3125H11.1883H11.1934ZM11.1934 11.7126V8.92076H1.84537V11.7126H11.1692H11.1934Z" fill="#FB2740"/>
</svg>
