<svg width="27" height="28" viewBox="0 0 27 28" fill="none" xmlns="http://www.w3.org/2000/svg">
<path d="M23.9807 19.605L27 16.5857L21.7499 11.3356L20.6345 12.451L19.1923 11.0088L21.4231 8.77806L18.4038 5.75872L16.173 7.98948L14.7308 6.5473L15.8462 5.43192L10.5961 0.181824L7.57678 3.20116L12.8269 8.45125L13.9422 7.33587L15.3844 8.77806L13.1537 11.0088L16.173 14.0281L18.4038 11.7974L19.846 13.2396L18.7306 14.355L23.9807 19.605ZM9.15392 3.20116L10.5961 1.75897L14.2691 5.43192L12.8269 6.8741L9.15392 3.20116ZM14.7308 11.0088L18.4038 7.33587L19.846 8.77806L16.173 12.451L14.7308 11.0088ZM25.4229 16.5857L23.9807 18.0279L20.3077 14.355L21.7499 12.9128L25.4229 16.5857ZM16.7307 18.2588C14.6607 18.2564 12.6762 17.4331 11.2125 15.9694C9.74875 14.5057 8.9254 12.5211 8.92304 10.4511H10.0384C10.0405 12.2254 10.7462 13.9264 12.0008 15.181C13.2554 16.4356 14.9564 17.1413 16.7307 17.1434V18.2588ZM16.7307 22.7203C13.4778 22.7168 10.3591 21.423 8.05899 19.1228C5.75884 16.8227 4.46506 13.704 4.46152 10.4511H5.5769C5.58015 13.4083 6.75632 16.2434 8.84736 18.3345C10.9384 20.4255 13.7735 21.6017 16.7307 21.6049V22.7203ZM16.7307 26.0664V27.1818C12.295 27.1768 8.04238 25.4125 4.90585 22.276C1.76932 19.1394 0.00501862 14.8868 0 10.4511H1.11538C1.1201 14.5911 2.7668 18.5602 5.69422 21.4876C8.62163 24.415 12.5907 26.0617 16.7307 26.0664Z" fill="#FB2740"/>
</svg>
