<svg width="170" height="58" viewBox="0 0 170 58" fill="none" xmlns="http://www.w3.org/2000/svg">
<path d="M3.03409 46V11.0909H17.0114C19.5795 11.0909 21.7216 11.4716 23.4375 12.233C25.1534 12.9943 26.4432 14.0511 27.3068 15.4034C28.1705 16.7443 28.6023 18.2898 28.6023 20.0398C28.6023 21.4034 28.3295 22.6023 27.7841 23.6364C27.2386 24.6591 26.4886 25.5 25.5341 26.1591C24.5909 26.8068 23.5114 27.267 22.2955 27.5398V27.8807C23.625 27.9375 24.8693 28.3125 26.0284 29.0057C27.1989 29.6989 28.1477 30.6705 28.875 31.9205C29.6023 33.1591 29.9659 34.6364 29.9659 36.3523C29.9659 38.2045 29.5057 39.858 28.5852 41.3125C27.6761 42.7557 26.3295 43.8977 24.5455 44.7386C22.7614 45.5795 20.5625 46 17.9489 46H3.03409ZM10.4148 39.9659H16.4318C18.4886 39.9659 19.9886 39.5739 20.9318 38.7898C21.875 37.9943 22.3466 36.9375 22.3466 35.6193C22.3466 34.6534 22.1136 33.8011 21.6477 33.0625C21.1818 32.3239 20.517 31.7443 19.6534 31.3239C18.8011 30.9034 17.7841 30.6932 16.6023 30.6932H10.4148V39.9659ZM10.4148 25.6989H15.8864C16.8977 25.6989 17.7955 25.5227 18.5795 25.1705C19.375 24.8068 20 24.2955 20.4545 23.6364C20.9205 22.9773 21.1534 22.1875 21.1534 21.267C21.1534 20.0057 20.7045 18.9886 19.8068 18.2159C18.9205 17.4432 17.6591 17.0568 16.0227 17.0568H10.4148V25.6989ZM34.7685 46V11.0909H48.5412C51.1776 11.0909 53.4276 11.5625 55.2912 12.5057C57.1662 13.4375 58.5923 14.7614 59.5696 16.4773C60.5582 18.1818 61.0526 20.1875 61.0526 22.4943C61.0526 24.8125 60.5526 26.8068 59.5526 28.4773C58.5526 30.1364 57.1037 31.4091 55.206 32.2955C53.3196 33.1818 51.0355 33.625 48.3537 33.625H39.1321V27.6932H47.1605C48.5696 27.6932 49.7401 27.5 50.6719 27.1136C51.6037 26.7273 52.2969 26.1477 52.7514 25.375C53.2173 24.6023 53.4503 23.642 53.4503 22.4943C53.4503 21.3352 53.2173 20.358 52.7514 19.5625C52.2969 18.767 51.598 18.1648 50.6548 17.7557C49.723 17.3352 48.5469 17.125 47.1264 17.125H42.1491V46H34.7685ZM53.6207 30.1136L62.2969 46H54.1491L45.6605 30.1136H53.6207ZM72.2855 46H64.3764L76.4276 11.0909H85.9389L97.973 46H90.0639L81.3196 19.0682H81.0469L72.2855 46ZM71.7912 32.2784H90.473V38.0398H71.7912V32.2784ZM131.374 11.0909V46H124.999L109.811 24.0284H109.555V46H102.175V11.0909H108.652L123.72 33.0455H124.027V11.0909H131.374ZM149.847 46H137.472V11.0909H149.949C153.46 11.0909 156.483 11.7898 159.017 13.1875C161.551 14.5739 163.5 16.5682 164.864 19.1705C166.239 21.7727 166.926 24.8864 166.926 28.5114C166.926 32.1477 166.239 35.2727 164.864 37.8864C163.5 40.5 161.54 42.5057 158.983 43.9034C156.438 45.3011 153.392 46 149.847 46ZM144.852 39.6761H149.54C151.722 39.6761 153.557 39.2898 155.045 38.517C156.545 37.733 157.67 36.5227 158.42 34.8864C159.182 33.2386 159.562 31.1136 159.562 28.5114C159.562 25.9318 159.182 23.8239 158.42 22.1875C157.67 20.5511 156.551 19.3466 155.062 18.5739C153.574 17.8011 151.739 17.4148 149.557 17.4148H144.852V39.6761Z" fill="white"/>
</svg>
