<svg width="159" height="35" viewBox="0 0 159 35" fill="none" xmlns="http://www.w3.org/2000/svg">
<path d="M0.227273 35V0.0909081H12.4318C14.8636 0.0909081 16.8693 0.511363 18.4489 1.35227C20.0284 2.18182 21.2045 3.30114 21.9773 4.71023C22.75 6.10795 23.1364 7.65909 23.1364 9.36364C23.1364 10.8636 22.8693 12.1023 22.3352 13.0795C21.8125 14.0568 21.1193 14.8295 20.2557 15.3977C19.4034 15.9659 18.4773 16.3864 17.4773 16.6591V17C18.5455 17.0682 19.6193 17.4432 20.6989 18.125C21.7784 18.8068 22.6818 19.7841 23.4091 21.0568C24.1364 22.3295 24.5 23.8864 24.5 25.7273C24.5 27.4773 24.1023 29.0511 23.3068 30.4489C22.5114 31.8466 21.2557 32.9545 19.5398 33.7727C17.8239 34.5909 15.5909 35 12.8409 35H0.227273ZM4.45455 31.25H12.8409C15.6023 31.25 17.5625 30.7159 18.7216 29.6477C19.892 28.5682 20.4773 27.2614 20.4773 25.7273C20.4773 24.5455 20.1761 23.4545 19.5739 22.4545C18.9716 21.4432 18.1136 20.6364 17 20.0341C15.8864 19.4205 14.5682 19.1136 13.0455 19.1136H4.45455V31.25ZM4.45455 15.4318H12.2955C13.5682 15.4318 14.7159 15.1818 15.7386 14.6818C16.7727 14.1818 17.5909 13.4773 18.1932 12.5682C18.8068 11.6591 19.1136 10.5909 19.1136 9.36364C19.1136 7.82955 18.5795 6.52841 17.5114 5.46023C16.4432 4.38068 14.75 3.84091 12.4318 3.84091H4.45455V15.4318ZM31.446 35V0.0909081H43.2415C45.9688 0.0909081 48.2074 0.556817 49.9574 1.48864C51.7074 2.40909 53.0028 3.67614 53.8438 5.28977C54.6847 6.90341 55.1051 8.73864 55.1051 10.7955C55.1051 12.8523 54.6847 14.6761 53.8438 16.267C53.0028 17.858 51.7131 19.108 49.9744 20.017C48.2358 20.9148 46.0142 21.3636 43.3097 21.3636H33.7642V17.5455H43.1733C45.0369 17.5455 46.5369 17.2727 47.6733 16.7273C48.821 16.1818 49.6506 15.4091 50.1619 14.4091C50.6847 13.3977 50.946 12.1932 50.946 10.7955C50.946 9.39773 50.6847 8.17614 50.1619 7.13068C49.6392 6.08523 48.804 5.27841 47.6562 4.71023C46.5085 4.13068 44.9915 3.84091 43.1051 3.84091H35.6733V35H31.446ZM47.8778 19.3182L56.4688 35H51.5597L43.1051 19.3182H47.8778ZM63.581 35H59.1491L71.9673 0.0909081H76.331L89.1491 35H84.7173L74.2855 5.61364H74.0128L63.581 35ZM65.2173 21.3636H83.081V25.1136H65.2173V21.3636ZM122.268 0.0909081V35H118.178L99.1548 7.59091H98.8139V35H94.5866V0.0909081H98.6776L117.768 27.5682H118.109V0.0909081H122.268ZM141.5 35H130.727V0.0909081H141.977C145.364 0.0909081 148.261 0.789772 150.67 2.1875C153.08 3.57386 154.926 5.56818 156.21 8.17045C157.494 10.7614 158.136 13.8636 158.136 17.4773C158.136 21.1136 157.489 24.2443 156.193 26.8693C154.898 29.483 153.011 31.4943 150.534 32.9034C148.057 34.3011 145.045 35 141.5 35ZM134.955 31.25H141.227C144.114 31.25 146.506 30.6932 148.403 29.5795C150.301 28.4659 151.716 26.8807 152.648 24.8239C153.58 22.767 154.045 20.3182 154.045 17.4773C154.045 14.6591 153.585 12.233 152.665 10.1989C151.744 8.15341 150.369 6.58523 148.54 5.49432C146.71 4.39204 144.432 3.84091 141.705 3.84091H134.955V31.25Z" fill="black"/>
</svg>
