<svg width="5" height="5" viewBox="0 0 5 5" fill="none" xmlns="http://www.w3.org/2000/svg">
<path d="M1.89656 0.902558L2.01919 1.09999C2.12985 1.27816 2.08543 1.5119 1.91114 1.66851C1.91113 1.66851 1.91114 1.66851 1.91113 1.66851C1.91101 1.66862 1.69982 1.85858 2.08304 2.2029C2.46559 2.54664 2.67693 2.35812 2.67778 2.35737C2.6778 2.35734 2.67779 2.35735 2.67782 2.35733C2.85212 2.20075 3.11222 2.16084 3.3105 2.26027L3.53023 2.37046C3.82966 2.52061 3.86502 2.89792 3.60183 3.1344C3.44368 3.2765 3.24995 3.38707 3.03578 3.39437C2.67524 3.40665 2.06296 3.32466 1.44878 2.7728C0.834598 2.22094 0.743353 1.67079 0.757021 1.34684C0.76514 1.1544 0.888197 0.980325 1.04635 0.838225C1.30954 0.601739 1.72945 0.633513 1.89656 0.902558Z" fill="#FB2740"/>
</svg>
