<svg width="29" height="29" viewBox="0 0 29 29" fill="none" xmlns="http://www.w3.org/2000/svg">
<path d="M12.1287 6.42372L12.913 7.82892C13.6207 9.09705 13.3366 10.7606 12.2219 11.8753C12.2219 11.8753 12.2219 11.8753 12.2219 11.8753C12.2218 11.8754 10.87 13.2274 13.3213 15.6787C15.7719 18.1293 17.1239 16.7789 17.1247 16.7781C17.1247 16.778 17.1247 16.7781 17.1248 16.778C18.2394 15.6634 19.903 15.3793 21.1711 16.087L22.5763 16.8713C24.4912 17.9399 24.7173 20.6253 23.0342 22.3085C22.0228 23.3199 20.7838 24.1068 19.4142 24.1588C17.1085 24.2462 13.1929 23.6626 9.26512 19.7349C5.33734 15.8071 4.75382 11.8915 4.84123 9.58582C4.89315 8.21619 5.68012 6.97721 6.6915 5.96583C8.37464 4.28268 11.0601 4.50883 12.1287 6.42372Z" fill="#FB2740"/>
</svg>
