<svg width="19" height="19" viewBox="0 0 19 19" fill="none" xmlns="http://www.w3.org/2000/svg">
<path d="M7.94638 4.20859L8.46019 5.12925C8.92387 5.96009 8.73773 7.05001 8.00744 7.7803C8.00744 7.7803 8.00744 7.7803 8.00744 7.7803C8.00732 7.78042 7.12172 8.66624 8.7277 10.2722C10.333 11.8775 11.2188 10.9933 11.2196 10.9925C11.2196 10.9925 11.2196 10.9925 11.2197 10.9924C11.9499 10.2622 13.0398 10.0761 13.8707 10.5397L14.7913 11.0535C16.0459 11.7537 16.1941 13.5131 15.0913 14.6159C14.4287 15.2785 13.6169 15.7941 12.7196 15.8281C11.209 15.8854 8.6436 15.5031 6.07022 12.9297C3.49685 10.3563 3.11455 7.79093 3.17181 6.28032C3.20583 5.38298 3.72143 4.57123 4.38406 3.9086C5.48681 2.80585 7.24622 2.95401 7.94638 4.20859Z" fill="#FB2740"/>
</svg>
