<svg width="6" height="8" viewBox="0 0 6 8" fill="none" xmlns="http://www.w3.org/2000/svg">
<path d="M2.5094 1.77207L2.67165 2.15971C2.81808 2.50954 2.7593 2.96845 2.52868 3.27594C2.52868 3.27594 2.52868 3.27594 2.52868 3.27594C2.52858 3.27607 2.24903 3.64904 2.75613 4.32517C3.2627 5.0006 3.54238 4.62933 3.54305 4.62844C3.54307 4.62842 3.54306 4.62843 3.54308 4.6284C3.7737 4.32094 4.11787 4.24258 4.38022 4.43781L4.67096 4.65415C5.06714 4.94895 5.11393 5.68976 4.76569 6.15407C4.55644 6.43308 4.3001 6.65017 4.01673 6.66449C3.53969 6.68861 2.72957 6.52763 1.91693 5.44411C1.10428 4.36058 0.983554 3.28042 1.00164 2.64437C1.01238 2.26654 1.1752 1.92476 1.38445 1.64575C1.73269 1.18144 2.28829 1.24382 2.5094 1.77207Z" fill="#FB2740"/>
</svg>
