<svg width="59" height="59" viewBox="0 0 59 59" fill="none" xmlns="http://www.w3.org/2000/svg">
<path d="M48.3308 23.6982L47.4458 21.3873L52.0183 19.6665C49.7566 14.4548 45.725 10.2757 40.6608 7.719L38.6941 12.0948L36.4325 11.0623L38.3991 6.63734C35.6458 5.55567 32.6466 4.9165 29.5 4.9165C26.8941 4.9165 24.3866 5.45734 22.0266 6.14567L23.6983 10.669L21.3875 11.554L19.6666 6.9815C14.455 9.24317 10.2758 13.2748 7.71913 18.339L12.095 20.3057L11.0625 22.5673L6.63746 20.6007C5.55579 23.354 4.91663 26.3532 4.91663 29.4998C4.91663 32.1057 5.45746 34.6132 6.14579 36.9732L10.6691 35.3015L11.5541 37.6123L6.98163 39.3332C9.24329 44.5448 13.275 48.724 18.3391 51.2807L20.3058 46.9048L22.5675 47.9373L20.6008 52.3623C23.3541 53.444 26.3533 54.0832 29.5 54.0832C32.1058 54.0832 34.6133 53.5423 36.9733 52.854L35.3016 48.3307L37.6125 47.4457L39.3333 52.0182C44.545 49.7565 48.7241 45.7248 51.2808 40.6607L46.905 38.694L47.9375 36.4323L52.3625 38.399C53.4441 35.6457 54.0833 32.6465 54.0833 29.4998C54.0833 26.894 53.5425 24.3865 52.8541 22.0265L48.3308 23.6982ZM35.1541 43.119C27.6316 46.2165 18.9783 42.6765 15.8808 35.154C12.7833 27.6315 16.3233 18.9782 23.8458 15.8807C31.3683 12.7832 40.0216 16.3232 43.1191 23.8457C43.8658 25.6337 44.252 27.5515 44.2556 29.4892C44.2592 31.4268 43.8801 33.3461 43.14 35.1368C42.4 36.9276 41.3136 38.5545 39.9431 39.9243C38.5727 41.2941 36.9452 42.3798 35.1541 43.119Z" fill="#B71F25"/>
</svg>
