<svg width="59" height="59" viewBox="0 0 59 59" fill="none" xmlns="http://www.w3.org/2000/svg">
<path d="M48.3307 23.6982L47.4457 21.3873L52.0182 19.6665C49.7565 14.4548 45.7248 10.2757 40.6607 7.719L38.694 12.0948L36.4323 11.0623L38.399 6.63734C35.6457 5.55567 32.6465 4.9165 29.4998 4.9165C26.894 4.9165 24.3865 5.45734 22.0265 6.14567L23.6982 10.669L21.3873 11.554L19.6665 6.9815C14.4548 9.24317 10.2757 13.2748 7.719 18.339L12.0948 20.3057L11.0623 22.5673L6.63734 20.6007C5.55567 23.354 4.9165 26.3532 4.9165 29.4998C4.9165 32.1057 5.45734 34.6132 6.14567 36.9732L10.669 35.3015L11.554 37.6123L6.9815 39.3332C9.24317 44.5448 13.2748 48.724 18.339 51.2807L20.3057 46.9048L22.5673 47.9373L20.6007 52.3623C23.354 53.444 26.3532 54.0832 29.4998 54.0832C32.1057 54.0832 34.6132 53.5423 36.9732 52.854L35.3015 48.3307L37.6123 47.4457L39.3332 52.0182C44.5448 49.7565 48.724 45.7248 51.2807 40.6607L46.9048 38.694L47.9373 36.4323L52.3623 38.399C53.444 35.6457 54.0832 32.6465 54.0832 29.4998C54.0832 26.894 53.5423 24.3865 52.854 22.0265L48.3307 23.6982ZM35.154 43.119C27.6315 46.2165 18.9782 42.6765 15.8807 35.154C12.7832 27.6315 16.3232 18.9782 23.8457 15.8807C31.3682 12.7832 40.0215 16.3232 43.119 23.8457C43.8657 25.6337 44.2519 27.5515 44.2555 29.4892C44.2591 31.4268 43.88 33.3461 43.1399 35.1368C42.3999 36.9276 41.3134 38.5545 39.943 39.9243C38.5726 41.2941 36.9451 42.3798 35.154 43.119Z" fill="#2F80ED"/>
</svg>
