<svg width="18" height="18" viewBox="0 0 18 18" fill="none" xmlns="http://www.w3.org/2000/svg">
<path d="M9 0.000231449C6.61305 0.000231449 4.32392 0.948396 2.63601 2.63621C0.948176 4.32402 0 6.61331 0 9.00011C0 11.3869 0.948176 13.6761 2.63601 15.364C4.32384 17.0518 6.61317 18 9 18C11.3868 18 13.6761 17.0518 15.364 15.364C17.0518 13.6762 18 11.3869 18 9.00011C17.9858 6.61755 17.0332 4.33644 15.3483 2.65164C13.6635 0.966833 11.3824 0.0141557 8.99977 0L9 0.000231449ZM13.2749 9.90037L9 9.90022C8.76134 9.90022 8.53231 9.80545 8.36356 9.6367C8.19481 9.46795 8.10004 9.23895 8.10004 9.00027V4.55414C8.10004 4.23261 8.2715 3.93549 8.54994 3.77472C8.82838 3.61396 9.17161 3.61396 9.45006 3.77472C9.7285 3.93549 9.89996 4.23261 9.89996 4.55414V8.10017H13.275C13.5965 8.10017 13.8937 8.27163 14.0544 8.55007C14.2152 8.82851 14.2152 9.17172 14.0544 9.45017C13.8937 9.72861 13.5965 9.90007 13.275 9.90007L13.2749 9.90037Z" fill="#B71F25"/>
</svg>
