<svg width="18" height="19" viewBox="0 0 18 19" fill="none" xmlns="http://www.w3.org/2000/svg">
<path fill-rule="evenodd" clip-rule="evenodd" d="M13.833 11.759C16.2999 12.9598 17.4613 14.0545 17.8427 15.0077C18.0893 15.6239 18.0287 16.1809 17.7808 16.6733C17.548 17.1361 17.151 17.529 16.6964 17.8529C15.5837 18.646 14.0061 19.0359 13.8142 18.9974L13.8012 18.9943C11.8836 18.5428 10.2088 17.8736 8.67784 16.9479C7.14895 16.0233 5.77038 14.8473 4.44319 13.3809C3.20765 12.0158 2.22967 10.5662 1.49418 9.02086C0.757999 7.4743 0.265794 5.83573 0.00202524 4.09353V4.08888C-0.0398807 3.79084 0.571581 2.13653 1.5542 1.06704C1.93318 0.654508 2.36986 0.312317 2.85176 0.134849C3.37275 -0.056887 3.93332 -0.0605786 4.51501 0.230876C5.44207 0.695284 6.41375 1.95552 7.324 4.52841C7.70132 5.34899 7.14956 5.91793 6.56403 6.52109C6.01478 7.08699 5.42194 7.698 6.22396 8.5841L9.53121 12.2383C10.3299 13.1209 11.0322 12.6419 11.6829 12.1982C12.3808 11.7225 13.0388 11.2739 13.8329 11.7591L13.833 11.759Z" fill="#B71F25"/>
</svg>
