<svg width="11" height="8" viewBox="0 0 11 8" fill="none" xmlns="http://www.w3.org/2000/svg">
<path d="M5.53417 7.13828C5.75869 7.13055 5.97283 7.03873 6.13561 6.87999L10.718 2.37345C10.8936 2.20069 10.995 1.96361 10.9998 1.71437C11.0047 1.46499 10.9126 1.22399 10.744 1.04416C10.5753 0.864456 10.3438 0.760591 10.1005 0.755742C9.85716 0.750765 9.62178 0.845202 9.44637 1.01796L5.49993 4.8968L1.55349 1.0183C1.31708 0.785547 0.977484 0.699624 0.662574 0.79301C0.347661 0.8864 0.105386 1.14468 0.026732 1.47083C-0.0517717 1.79684 0.0453991 2.14105 0.281808 2.37369L4.86422 6.88022L4.86422 6.88035C5.04424 7.05587 5.28616 7.14912 5.53446 7.13851L5.53417 7.13828Z" fill="black"/>
</svg>
