<svg width="48" height="48" viewBox="0 0 48 48" fill="none" xmlns="http://www.w3.org/2000/svg">
<path fill-rule="evenodd" clip-rule="evenodd" d="M24.0001 11.7795C20.5169 11.7795 17.2609 12.7337 14.4733 14.3944C13.7616 14.8184 12.841 14.5852 12.417 13.8735C11.993 13.1618 12.2262 12.2411 12.9379 11.8171C16.1768 9.88749 19.9614 8.77954 24.0001 8.77954C35.9642 8.77954 45.6601 18.4893 45.6601 30.4632C45.6601 33.6566 44.9696 36.6926 43.7284 39.4264L43.3289 40.3063H37.772C36.9435 40.3063 36.272 39.6348 36.272 38.8063C36.272 37.9779 36.9435 37.3063 37.772 37.3063H41.3693C42.2021 35.1889 42.6601 32.8812 42.6601 30.4632C42.6601 20.1429 34.3041 11.7795 24.0001 11.7795ZM10.7052 15.2165C11.2951 15.7981 11.3019 16.7479 10.7202 17.3378C7.39217 20.7132 5.34009 25.3467 5.34009 30.4632C5.34009 32.8812 5.79807 35.1889 6.63092 37.3063H33.1813C34.0098 37.3063 34.6813 37.9779 34.6813 38.8063C34.6813 39.6348 34.0098 40.3063 33.1813 40.3063H4.67126L4.27177 39.4264C3.0306 36.6926 2.34009 33.6566 2.34009 30.4632C2.34009 24.5274 4.72458 19.1459 8.58396 15.2315C9.16559 14.6416 10.1153 14.6349 10.7052 15.2165Z" fill="#828282"/>
<path fill-rule="evenodd" clip-rule="evenodd" d="M24.0003 18.7806C17.8209 18.7806 13.0203 23.3775 13.0203 28.8006C13.0203 29.6291 12.3487 30.3006 11.5203 30.3006C10.6918 30.3006 10.0203 29.6291 10.0203 28.8006C10.0203 21.4991 16.3946 15.7806 24.0003 15.7806C31.6059 15.7806 37.9803 21.4991 37.9803 28.8006C37.9803 29.6291 37.3087 30.3006 36.4803 30.3006C35.6518 30.3006 34.9803 29.6291 34.9803 28.8006C34.9803 23.3775 30.1797 18.7806 24.0003 18.7806Z" fill="#828282"/>
<path fill-rule="evenodd" clip-rule="evenodd" d="M24 34.7291C21.9679 34.7291 20.3206 36.3765 20.3206 38.4086C20.3206 39.237 19.649 39.9086 18.8206 39.9086C17.9921 39.9086 17.3206 39.237 17.3206 38.4086C17.3206 34.7196 20.311 31.7291 24 31.7291C27.689 31.7291 30.6794 34.7196 30.6794 38.4086C30.6794 39.237 30.0079 39.9086 29.1794 39.9086C28.351 39.9086 27.6794 39.237 27.6794 38.4086C27.6794 36.3765 26.0321 34.7291 24 34.7291Z" fill="#828282"/>
<path fill-rule="evenodd" clip-rule="evenodd" d="M31.7808 27.7396C32.3666 28.3254 32.3666 29.2751 31.7808 29.8609L27.9408 33.7009C27.355 34.2867 26.4053 34.2867 25.8195 33.7009C25.2337 33.1151 25.2337 32.1654 25.8195 31.5796L29.6595 27.7396C30.2453 27.1538 31.195 27.1538 31.7808 27.7396Z" fill="#828282"/>
</svg>
