<svg width="48" height="48" viewBox="0 0 48 48" fill="none" xmlns="http://www.w3.org/2000/svg">
<path fill-rule="evenodd" clip-rule="evenodd" d="M16.6313 7.38812C16.6313 6.5597 17.3029 5.88812 18.1313 5.88812H36.505C37.3334 5.88812 38.005 6.5597 38.005 7.38812C38.005 8.21655 37.3334 8.88812 36.505 8.88812H18.1313C17.3029 8.88812 16.6313 8.21655 16.6313 7.38812Z" fill="#828282"/>
<path fill-rule="evenodd" clip-rule="evenodd" d="M3.84009 18.4771C4.66852 18.4771 5.34009 19.1487 5.34009 19.9771L5.34009 38.3508C5.34009 39.1792 4.66851 39.8508 3.84009 39.8508C3.01166 39.8508 2.34009 39.1792 2.34009 38.3508L2.34009 19.9771C2.34009 19.1487 3.01166 18.4771 3.84009 18.4771Z" fill="#828282"/>
<path fill-rule="evenodd" clip-rule="evenodd" d="M11.1245 30.6646L2.34021 30.6646L2.34021 27.6646L11.1245 27.6646L11.1245 30.6646Z" fill="#828282"/>
<path fill-rule="evenodd" clip-rule="evenodd" d="M25.8179 15.0129L25.8179 7.92987L28.8179 7.92987L28.8179 15.0129L25.8179 15.0129Z" fill="#828282"/>
<path fill-rule="evenodd" clip-rule="evenodd" d="M19.892 15.0129C18.8413 15.0129 17.9895 15.8647 17.9895 16.9154V19.6121H13.7077C12.657 19.6121 11.8052 20.4639 11.8052 21.5146V38.1813C11.8052 39.232 12.657 40.0838 13.7077 40.0838H18.5113C19.3397 40.0838 20.0113 40.7554 20.0113 41.5838C20.0113 42.4122 19.3397 43.0838 18.5113 43.0838H13.7077C11.0001 43.0838 8.80518 40.8889 8.80518 38.1813V21.5146C8.80518 18.807 11.0001 16.6121 13.7077 16.6121H14.9987C15.1554 14.0458 17.2863 12.0129 19.892 12.0129H34.9699C37.5757 12.0129 39.7066 14.0458 39.8632 16.6121H40.7578C43.4654 16.6121 45.6604 18.807 45.6604 21.5146V33.82C45.6604 36.5276 43.4654 38.7225 40.7578 38.7225H39.7989L37.0008 41.5994C36.0778 42.5484 34.8102 43.0838 33.4864 43.0838H26.7174C25.889 43.0838 25.2174 42.4122 25.2174 41.5838C25.2174 40.7554 25.889 40.0838 26.7174 40.0838H33.4864C34.0001 40.0838 34.492 39.876 34.8502 39.5077L38.5318 35.7225H40.7578C41.8086 35.7225 42.6604 34.8707 42.6604 33.82V21.5146C42.6604 20.4639 41.8086 19.6121 40.7578 19.6121H36.8725V16.9154C36.8725 15.8647 36.0207 15.0129 34.9699 15.0129H19.892Z" fill="#828282"/>
<path fill-rule="evenodd" clip-rule="evenodd" d="M31.0898 17.7159C31.6812 18.296 31.6904 19.2457 31.1103 19.8371L24.9352 26.1334H32.1349V30.8518L23.7294 38.4438C23.1146 38.9991 22.1661 38.9508 21.6108 38.3361C21.0556 37.7213 21.1038 36.7728 21.7186 36.2175L29.1349 29.5189V29.1334H22.1733C20.5424 29.1334 19.7175 27.169 20.8595 26.0046L28.9685 17.7365C29.5486 17.1451 30.4983 17.1359 31.0898 17.7159Z" fill="#828282"/>
</svg>
