<svg width="48" height="48" viewBox="0 0 48 48" fill="none" xmlns="http://www.w3.org/2000/svg">
<path fill-rule="evenodd" clip-rule="evenodd" d="M28.2959 9.72394C23.6249 9.72394 19.4749 11.9519 16.8491 15.4094C16.3481 16.0691 15.4071 16.1978 14.7474 15.6968C14.0876 15.1957 13.959 14.2547 14.46 13.595C17.6285 9.42275 22.6473 6.72394 28.2959 6.72394C37.8855 6.72394 45.6594 14.4979 45.6594 24.0875C45.6594 33.6772 37.8855 41.4511 28.2959 41.4511H12.928C12.0996 41.4511 11.428 40.7795 11.428 39.9511C11.428 39.1227 12.0996 38.4511 12.928 38.4511H28.2959C36.2287 38.4511 42.6594 32.0203 42.6594 24.0875C42.6594 16.1547 36.2287 9.72394 28.2959 9.72394ZM13.5264 18.0944C14.3201 18.3319 14.7709 19.1679 14.5333 19.9615C14.2942 20.7602 14.1228 21.5884 14.0256 22.4398C13.9317 23.2629 13.1884 23.854 12.3653 23.7601C11.5422 23.6663 10.9511 22.9229 11.045 22.0998C11.1624 21.0707 11.3698 20.0684 11.6593 19.1012C11.8968 18.3076 12.7328 17.8568 13.5264 18.0944ZM12.4064 25.2928C13.2231 25.1536 13.9979 25.7028 14.1371 26.5195C14.2527 27.1978 14.4158 27.8597 14.6229 28.5018C14.8772 29.2902 14.4443 30.1355 13.6558 30.3898C12.8674 30.6441 12.0221 30.2112 11.7678 29.4228C11.517 28.6453 11.3196 27.8441 11.1797 27.0234C11.0405 26.2068 11.5898 25.4319 12.4064 25.2928ZM14.363 31.825C15.0458 31.3558 15.9796 31.5289 16.4488 32.2117C17.0856 33.1383 17.8284 33.9867 18.6598 34.7393C19.2739 35.2953 19.3211 36.2439 18.7651 36.858C18.2091 37.4722 17.2606 37.5194 16.6464 36.9634C15.6427 36.0548 14.7456 35.0303 13.9763 33.9108C13.5071 33.228 13.6803 32.2942 14.363 31.825Z" fill="#828282"/>
<path fill-rule="evenodd" clip-rule="evenodd" d="M23.212 33.2294C23.4675 32.4413 24.3134 32.0095 25.1014 32.2649C27.7456 33.1219 30.7387 32.7766 33.1938 31.0725C35.7568 29.2934 37.1378 26.4466 37.1497 23.5412C37.1531 22.7127 37.8274 22.0439 38.6559 22.0473C39.4843 22.0507 40.1531 22.725 40.1497 23.5535C40.1339 27.3957 38.3054 31.1763 34.9044 33.5369C31.6472 35.7979 27.6734 36.2521 24.1765 35.1188C23.3884 34.8634 22.9566 34.0175 23.212 33.2294Z" fill="#828282"/>
<path fill-rule="evenodd" clip-rule="evenodd" d="M34.111 15.4595C33.7021 16.18 32.7866 16.4326 32.0661 16.0237C30.5046 15.1375 28.8043 14.7459 27.0847 14.9391C26.5259 15.0018 25.9854 15.1239 25.4658 15.3002C24.6813 15.5663 23.8295 15.146 23.5634 14.3615C23.2973 13.577 23.7175 12.7253 24.5021 12.4592C25.223 12.2146 25.9742 12.0449 26.7499 11.9578C29.1615 11.687 31.4921 12.2484 33.5469 13.4146C34.2673 13.8235 34.5199 14.739 34.111 15.4595Z" fill="#828282"/>
<path fill-rule="evenodd" clip-rule="evenodd" d="M27.0757 25.9119C26.5945 25.2376 26.751 24.3008 27.4253 23.8195L35.6087 17.9792C36.283 17.4979 37.2198 17.6544 37.701 18.3287C38.1823 19.003 38.0258 19.9398 37.3515 20.4211L29.168 26.2614C28.4937 26.7427 27.557 26.5862 27.0757 25.9119Z" fill="#828282"/>
<path fill-rule="evenodd" clip-rule="evenodd" d="M5.31494 15.1634C5.31494 14.335 5.98651 13.6634 6.81494 13.6634H20.8095C21.638 13.6634 22.3095 14.335 22.3095 15.1634C22.3095 15.9918 21.638 16.6634 20.8095 16.6634H6.81494C5.98651 16.6634 5.31494 15.9918 5.31494 15.1634Z" fill="#828282"/>
<path fill-rule="evenodd" clip-rule="evenodd" d="M42.7988 3.5368L38.1988 8.13681L40.3201 10.2581L44.9201 5.65812L42.7988 3.5368Z" fill="#828282"/>
<path fill-rule="evenodd" clip-rule="evenodd" d="M46.7368 7.47565L40.9801 1.71892L38.8588 3.84024L44.6155 9.59697L46.7368 7.47565Z" fill="#828282"/>
<path fill-rule="evenodd" clip-rule="evenodd" d="M13.3372 3.53632L17.9372 8.13632L15.8158 10.2576L11.2158 5.65764L13.3372 3.53632Z" fill="#828282"/>
<path fill-rule="evenodd" clip-rule="evenodd" d="M9.39917 7.47565L15.1559 1.71892L17.2772 3.84024L11.5205 9.59697L9.39917 7.47565Z" fill="#828282"/>
<path fill-rule="evenodd" clip-rule="evenodd" d="M2.34009 22.2694C2.34009 21.441 3.01166 20.7694 3.84009 20.7694H17.8347C18.6631 20.7694 19.3347 21.441 19.3347 22.2694C19.3347 23.0978 18.6631 23.7694 17.8347 23.7694H3.84009C3.01166 23.7694 2.34009 23.0978 2.34009 22.2694Z" fill="#828282"/>
<path fill-rule="evenodd" clip-rule="evenodd" d="M3.33105 29.3754C3.33105 28.547 4.00263 27.8754 4.83105 27.8754H18.8256C19.6541 27.8754 20.3256 28.547 20.3256 29.3754C20.3256 30.2039 19.6541 30.8754 18.8256 30.8754H4.83105C4.00263 30.8754 3.33105 30.2039 3.33105 29.3754Z" fill="#828282"/>
</svg>
