<svg width="42" height="46" viewBox="0 0 42 46" fill="none" xmlns="http://www.w3.org/2000/svg">
<path d="M34.9605 37.0987L34.091 31.698C33.8594 30.242 32.6533 28.8648 31.3471 28.5536L26.8822 27.5157L25.9656 25.4332C25.9174 25.3236 25.8342 25.2435 25.7389 25.182C26.5409 24.0399 27.1825 22.6841 27.6457 21.3216C28.4453 21.001 29.2498 20.2102 29.4801 19.1843C29.7913 17.8178 29.4644 16.5969 28.701 16.0719V14.1163C28.6998 9.41296 25.4603 6 21.0002 6C16.5377 6 13.3006 9.41296 13.3006 14.1163V16.0732C12.5359 16.5982 12.2091 17.8191 12.5179 19.183C12.7506 20.2142 13.5611 21.009 14.3632 21.3256C14.8191 22.6894 15.4559 24.0413 16.2543 25.1887C16.1638 25.2488 16.083 25.325 16.036 25.4318L15.1194 27.5116L10.6533 28.5522C9.34708 28.8595 8.141 30.238 7.90823 31.694L7.03986 37.0946C6.91684 37.856 7.08086 38.5814 7.50058 39.1371C7.92029 39.6928 8.53539 40 9.23492 40H32.7607C33.4602 40 34.0765 39.6941 34.495 39.1371C34.9207 38.5867 35.0824 37.8614 34.9605 37.0987ZM33.6676 38.369C33.4578 38.6455 33.1394 38.7991 32.7643 38.7991H28.233V35.9004C28.233 35.5692 27.9894 35.298 27.6903 35.298C27.3912 35.298 27.1488 35.5692 27.1488 35.9004V38.7991H14.8552V35.9004C14.8552 35.5692 14.6116 35.298 14.3125 35.298C14.0134 35.298 13.7698 35.5692 13.7698 35.9004V38.7991H9.23974C8.86706 38.7991 8.54625 38.6455 8.33639 38.369C8.12653 38.0925 8.04693 37.7171 8.11206 37.3097L8.98043 31.9091C9.13722 30.9353 10.008 29.9375 10.8812 29.7331L15.0386 28.7606C15.0615 28.7833 15.0784 28.8074 15.1049 28.8261L19.612 31.7141C19.6952 31.7688 19.7893 31.7969 19.8846 31.7969C19.9376 31.7969 19.9907 31.7889 20.0426 31.7688C20.1861 31.7234 20.3055 31.6072 20.3718 31.4603L21.0014 30.031L21.631 31.4603C21.6973 31.6072 21.8155 31.7234 21.959 31.7688C22.0109 31.7889 22.064 31.7969 22.117 31.7969C22.2123 31.7969 22.3052 31.7688 22.3908 31.7141L26.8979 28.8261C26.9232 28.8074 26.9401 28.7833 26.9642 28.7606L31.1216 29.7331C31.9972 29.9375 32.8644 30.9313 33.0212 31.9091L33.8907 37.3097C33.9583 37.7171 33.8775 38.0925 33.6676 38.369ZM16.4702 27.2004L16.7596 26.5459L17.4338 26.976L18.137 27.4275L18.8401 27.8763L20.326 28.8287L19.653 30.3556L16.6028 28.3986L16.0866 28.07L16.1674 27.887L16.4702 27.2004ZM25.5338 27.2004L25.8354 27.887L25.9162 28.07L25.4 28.3986L22.351 30.3556L21.678 28.8287L23.1639 27.8763L23.867 27.4275L24.5702 26.976L25.2456 26.5459L25.5338 27.2004ZM15.199 20.2449C14.772 20.3464 13.7915 19.752 13.5949 18.8904C13.3959 18.0141 13.5852 17.1926 14.017 17.0591C14.1449 17.0176 14.2775 17.0484 14.4114 17.1272V14.1216C14.4114 9.87114 17.3615 7.23695 21.0014 7.23695C24.6438 7.23695 27.5926 9.87247 27.5926 14.1216V17.1298C27.7241 17.0484 27.8592 17.0176 27.9858 17.0591C28.4152 17.1926 28.6081 18.0141 28.4091 18.8904C28.2162 19.7467 27.2392 20.3358 26.8171 20.2449C26.1501 22.4917 24.7065 25.4706 22.6163 26.5405C22.1146 26.7957 21.5779 26.9479 21.005 26.9479C20.4237 26.9479 19.8822 26.7997 19.378 26.5432C17.2855 25.4852 15.8683 22.5452 15.199 20.2449Z" fill="#8B98A7"/>
</svg>
