<svg width="48" height="48" viewBox="0 0 48 48" fill="none" xmlns="http://www.w3.org/2000/svg">
<path d="M14.0237 38.8819C13.4715 38.8819 13.0237 39.3296 13.0237 39.8819C13.0237 40.4341 13.4715 40.8819 14.0237 40.8819V38.8819ZM15.6346 16.8086C15.3006 17.2484 15.3864 17.8757 15.8262 18.2097C16.266 18.5438 16.8933 18.458 17.2274 18.0181L15.6346 16.8086ZM13.308 30.487C13.4776 31.0126 14.0411 31.3012 14.5668 31.1317C15.0924 30.9621 15.381 30.3986 15.2115 29.873L13.308 30.487ZM14.7715 28.0777C14.6787 27.5333 14.1621 27.1671 13.6177 27.2599C13.0733 27.3527 12.7071 27.8693 12.7999 28.4137L14.7715 28.0777ZM12.6834 24.1579C12.6209 24.7067 13.0149 25.2022 13.5637 25.2648C14.1124 25.3274 14.608 24.9333 14.6706 24.3846L12.6834 24.1579ZM15.1303 22.1403C15.2887 21.6112 14.9881 21.0539 14.4591 20.8955C13.93 20.7372 13.3727 21.0377 13.2143 21.5668L15.1303 22.1403ZM17.5243 37.0036C17.9337 37.3743 18.5661 37.3428 18.9368 36.9334C19.3074 36.5239 19.276 35.8916 18.8665 35.5209L17.5243 37.0036ZM16.8649 33.2325C16.5521 32.7773 15.9295 32.6619 15.4744 32.9747C15.0192 33.2875 14.9038 33.9101 15.2166 34.3652L16.8649 33.2325ZM40.5976 25.8761C40.5976 33.059 34.7747 38.8819 27.5918 38.8819V40.8819C35.8793 40.8819 42.5976 34.1636 42.5976 25.8761H40.5976ZM27.5918 12.8704C34.7747 12.8704 40.5976 18.6932 40.5976 25.8761H42.5976C42.5976 17.5887 35.8793 10.8704 27.5918 10.8704V12.8704ZM27.5918 38.8819H14.0237V40.8819H27.5918V38.8819ZM17.2274 18.0181C19.6043 14.8883 23.3622 12.8704 27.5918 12.8704V10.8704C22.7105 10.8704 18.3734 13.2022 15.6346 16.8086L17.2274 18.0181ZM15.2115 29.873C15.0239 29.2915 14.8761 28.692 14.7715 28.0777L12.7999 28.4137C12.9207 29.1229 13.0914 29.8152 13.308 30.487L15.2115 29.873ZM14.6706 24.3846C14.7585 23.6137 14.9138 22.8637 15.1303 22.1403L13.2143 21.5668C12.9641 22.4025 12.7849 23.2686 12.6834 24.1579L14.6706 24.3846ZM18.8665 35.5209C18.1139 34.8396 17.4414 34.0715 16.8649 33.2325L15.2166 34.3652C15.8815 35.3328 16.6568 36.2183 17.5243 37.0036L18.8665 35.5209Z" fill="#8B98A7"/>
<path d="M37.7332 25.4032C37.7355 24.851 37.2896 24.4014 36.7373 24.3991C36.185 24.3969 35.7355 24.8428 35.7332 25.395L37.7332 25.4032ZM24.6716 33.4043C24.1462 33.2341 23.5823 33.5219 23.412 34.0473C23.2417 34.5727 23.5296 35.1366 24.055 35.3069L24.6716 33.4043ZM35.7332 25.395C35.7223 28.0615 34.4546 30.6759 32.1012 32.3094L33.2416 33.9524C36.1537 31.9311 37.7197 28.6942 37.7332 25.4032L35.7332 25.395ZM32.1012 32.3094C29.8469 33.8742 27.0983 34.1908 24.6716 33.4043L24.055 35.3069C27.0501 36.2777 30.4526 35.8884 33.2416 33.9524L32.1012 32.3094Z" fill="#8B98A7"/>
<path d="M24.6675 16.8636C25.2152 16.6778 25.7854 16.549 26.3745 16.4828C28.1982 16.278 29.9776 16.6987 31.5739 17.6047" stroke="#8B98A7" stroke-width="2" stroke-linecap="round"/>
<path d="M34.8173 21.5611L27.5923 26.7175" stroke="#8B98A7" stroke-width="2" stroke-linecap="round"/>
<path d="M20.9819 17.9971H8.62622" stroke="#8B98A7" stroke-width="2" stroke-linecap="round"/>
<path d="M38.9149 12.5007L38.2078 13.2078L36.7936 11.7936L37.5007 11.0865L38.9149 12.5007ZM39.6891 8.89812L40.3962 8.19101L41.8105 9.60522L41.1033 10.3123L39.6891 8.89812ZM37.5007 11.0865L39.6891 8.89812L41.1033 10.3123L38.9149 12.5007L37.5007 11.0865Z" fill="#8B98A7"/>
<path d="M38.0835 8.70717L37.3764 8.00007L38.7906 6.58585L39.4977 7.29296L38.0835 8.70717ZM42.7074 10.5026L43.4145 11.2097L42.0002 12.6239L41.2931 11.9168L42.7074 10.5026ZM39.4977 7.29296L42.7074 10.5026L41.2931 11.9168L38.0835 8.70717L39.4977 7.29296Z" fill="#8B98A7"/>
<path d="M15.8663 12.5002L16.5734 13.2073L17.9876 11.7931L17.2805 11.086L15.8663 12.5002ZM15.0921 8.89763L14.385 8.19052L12.9708 9.60474L13.6779 10.3118L15.0921 8.89763ZM17.2805 11.086L15.0921 8.89763L13.6779 10.3118L15.8663 12.5002L17.2805 11.086Z" fill="#8B98A7"/>
<path d="M16.6978 8.70717L17.4049 8.00007L15.9907 6.58585L15.2835 7.29296L16.6978 8.70717ZM12.0739 10.5026L11.3668 11.2097L12.781 12.6239L13.4881 11.9168L12.0739 10.5026ZM15.2835 7.29296L12.0739 10.5026L13.4881 11.9168L16.6978 8.70717L15.2835 7.29296Z" fill="#8B98A7"/>
<path d="M18.3556 24.2708H6" stroke="#8B98A7" stroke-width="2" stroke-linecap="round"/>
<path d="M19.2304 30.5447H6.87476" stroke="#8B98A7" stroke-width="2" stroke-linecap="round"/>
</svg>
